<svg width="64" height="64" viewBox="0 0 64 64" fill="none" xmlns="http://www.w3.org/2000/svg">
<path d="M3.93568 28.0639C0.462749 29.7497 0.215664 31.6196 2.99906 34.3002C5.79273 36.9911 13.3323 41.4889 19.6909 44.2096C19.8542 44.2789 20.0302 44.3755 20.2114 44.475C20.8623 44.8323 21.5807 45.2267 22.0229 44.5274C22.4569 43.8567 21.8309 43.362 21.2565 42.9081C21.0828 42.7709 20.9139 42.6374 20.7803 42.5038C18.03 39.65 14.7844 37.451 11.5381 35.2516C10.2747 34.3956 9.01119 33.5396 7.77672 32.6448C7.65585 32.5569 7.51147 32.4793 7.36538 32.4008C6.96524 32.1858 6.55234 31.9639 6.57505 31.5048C6.59814 30.9466 7.09347 30.7923 7.56981 30.644C7.73348 30.593 7.8949 30.5427 8.03416 30.477C10.0224 29.5262 12.0183 28.5882 14.0142 27.6501C16.0101 26.7121 18.006 25.7741 19.9942 24.8233C20.0831 24.7809 20.1722 24.7386 20.2614 24.6963C21.4711 24.1226 22.6986 23.5404 23.7035 22.5929C24.094 22.2229 24.4537 21.8221 24.2689 21.2263C24.0637 20.5483 23.4678 20.4252 22.8823 20.374C21.9136 20.2811 21.0038 20.6021 20.115 20.9157C20.0235 20.948 19.9322 20.9802 19.8411 21.0118C14.9035 22.6957 10.2373 24.9801 5.57747 27.2613C5.03026 27.5292 4.48314 27.7971 3.93568 28.0639Z" fill="#F19F94"/>
<path d="M60.537 34.5153C61.3884 34.3546 62.2394 34.1939 62.9661 33.6775L62.9763 33.6878C63.3976 33.3486 63.7881 32.9376 63.5417 32.3623C63.2756 31.7104 62.6727 31.6906 62.1001 31.6719C62.0322 31.6697 61.9646 31.6674 61.8982 31.6642C60.0773 31.5982 58.2546 31.538 56.4307 31.4778C54.0252 31.3983 51.6178 31.3187 49.2104 31.2259C46.3623 31.1155 43.5142 30.9564 40.6654 30.7972C34.831 30.4713 28.9935 30.1452 23.1466 30.2366C23.0067 30.2387 22.8668 30.2408 22.7268 30.2428C19.4444 30.2906 16.1519 30.3385 13.0576 31.7188C12.9989 31.7443 12.9379 31.7693 12.8762 31.7945C12.4413 31.9723 11.9684 32.1655 11.9683 32.7053C11.9578 33.4142 12.605 33.6092 13.17 33.7426C13.4393 33.8043 13.7099 33.872 13.9813 33.9398C14.8383 34.1542 15.7043 34.3707 16.5704 34.4095C28.0869 34.9919 39.6137 35.5435 51.1613 35.2937C54.2228 35.2312 57.3152 35.0968 60.346 34.5515C60.4096 34.5393 60.4733 34.5273 60.537 34.5153Z" fill="#F19F94"/>
</svg>
