<svg width="64" height="64" viewBox="0 0 64 64" fill="none" xmlns="http://www.w3.org/2000/svg">
<path d="M3.46301 29.4854C2.61159 29.6461 1.76055 29.8068 1.03394 30.3232L1.02369 30.3129C0.602376 30.6521 0.21188 31.0631 0.458287 31.6383C0.724437 32.2903 1.32733 32.31 1.8999 32.3288C1.96785 32.331 2.03536 32.3332 2.10184 32.3365C3.92268 32.4024 5.74543 32.4627 7.56927 32.5229C9.97478 32.6024 12.3822 32.6819 14.7896 32.7748C17.6377 32.8852 20.4858 33.0443 23.3346 33.2034C29.169 33.5294 35.0065 33.8555 40.8534 33.7641C40.9933 33.762 41.1332 33.7599 41.2732 33.7579C44.5556 33.7101 47.848 33.6622 50.9424 32.2819C51.0011 32.2564 51.0621 32.2314 51.1238 32.2062C51.5587 32.0284 52.0315 31.8352 52.0317 31.2953C52.0422 30.5865 51.395 30.3915 50.83 30.2581C50.5606 30.1964 50.2901 30.1287 50.0187 30.0608C49.1617 29.8465 48.2957 29.63 47.4296 29.5912C35.9131 29.0088 24.3863 28.4572 12.8387 28.707C9.77719 28.7695 6.68481 28.9038 3.65395 29.4492C3.59034 29.4613 3.52667 29.4734 3.46301 29.4854Z" fill="#E34B48"/>
<path d="M60.0643 35.9368C63.5372 34.251 63.7843 32.3811 61.0009 29.7005C58.2073 27.0096 50.6677 22.5118 44.3091 19.7911C44.1458 19.7218 43.9698 19.6252 43.7886 19.5257C43.1377 19.1684 42.4193 18.774 41.9771 19.4733C41.5431 20.1439 42.1691 20.6386 42.7435 21.0926C42.9172 21.2298 43.0861 21.3633 43.2197 21.4968C45.97 24.3507 49.2156 26.5496 52.4619 28.7491C53.7253 29.6051 54.9888 30.4611 56.2233 31.3559C56.3441 31.4438 56.4885 31.5213 56.6346 31.5999C57.0348 31.8149 57.4477 32.0368 57.425 32.4959C57.4019 33.0541 56.9065 33.2083 56.4302 33.3567C56.2665 33.4077 56.1051 33.4579 55.9658 33.5236C53.9777 34.4745 51.9819 35.4125 49.986 36.3504C47.9901 37.2885 45.9941 38.2265 44.0058 39.1774C43.9169 39.2198 43.8278 39.262 43.7386 39.3043C42.529 39.8781 41.3014 40.4603 40.2965 41.4078C39.906 41.7777 39.5463 42.1785 39.7311 42.7743C39.9364 43.4523 40.5322 43.5755 41.1177 43.6267C42.0865 43.7196 42.9962 43.3986 43.885 43.085C43.9765 43.0527 44.0678 43.0205 44.1589 42.9888C49.0965 41.305 53.7627 39.0206 58.4225 36.7394C58.9697 36.4715 59.5168 36.2036 60.0643 35.9368Z" fill="#E34B48"/>
</svg>
