<svg width="43" height="33" viewBox="0 0 43 33" fill="none" xmlns="http://www.w3.org/2000/svg">
<path d="M0.503905 31.3428C0.488425 31.4783 0.512241 31.6525 0.646483 31.8789L0.710936 31.9795C0.935853 32.3049 1.14181 32.4292 1.30664 32.4746C1.47738 32.5215 1.6802 32.5051 1.93457 32.4121C2.19236 32.3178 2.46693 32.1582 2.76074 31.9639C3.02027 31.7922 3.37023 31.5397 3.63086 31.374C14.1572 24.6611 24.211 17.2451 34.3008 9.87012L34.3066 9.86621C34.838 9.48946 35.2941 9.11852 35.834 8.71192L36.1172 7.48145L36.7412 8.71387L36.7588 8.75L36.9502 9.12695L36.7227 9.29395C36.2514 11.2666 35.586 13.1568 34.9219 15.0098C34.2277 16.9467 33.5378 18.8408 33.0518 20.7939C32.969 21.1305 32.8265 21.4959 32.6943 21.8291C32.5563 22.1771 32.4267 22.4992 32.3428 22.7988C32.2573 23.1041 32.2382 23.3224 32.2686 23.4707C32.2915 23.5825 32.3439 23.6752 32.5117 23.7568L32.5117 23.7578C32.7379 23.8679 32.8709 23.8456 32.9697 23.8008C33.0991 23.7419 33.2493 23.6047 33.4219 23.3564C33.5918 23.112 33.748 22.8144 33.915 22.4902C34.0735 22.1827 34.2474 21.8393 34.4385 21.5635C37.536 17.0424 39.9488 12.1588 41.874 7.05274C42.6985 4.84244 42.6653 3.36083 42.0254 2.40528C41.4215 1.5038 40.1649 0.899697 38.0479 0.696291L37.6133 0.661134C33.4581 0.391494 29.383 0.342975 25.4141 1.47168L25.4131 1.4707C25.1725 1.54041 24.8927 1.57917 24.667 1.61328C24.4196 1.65068 24.2139 1.68664 24.0449 1.74512C23.8786 1.80268 23.7999 1.86546 23.7607 1.9209C23.7277 1.96791 23.6789 2.07252 23.709 2.31738L23.709 2.32129C23.7402 2.59163 23.8227 2.72503 23.8955 2.79785C23.9723 2.87458 24.0889 2.93438 24.2715 2.96973C24.4578 3.00576 24.6797 3.01027 24.9346 3C25.1519 2.99123 25.4798 2.96531 25.7061 2.96094L25.708 2.96094C29.463 2.90646 33.1812 3.1606 36.8975 3.70508L36.8965 3.70508C37.2259 3.74964 37.5675 3.88683 37.9062 3.99317L38.3994 4.14746L38.2285 4.63574C38.0175 5.23686 37.6358 5.60119 37.2383 5.85547C37.0458 5.97857 36.8469 6.07717 36.6709 6.16211C36.4868 6.25099 36.3352 6.32143 36.1934 6.40137L36.1895 6.40332C24.1475 13.071 13.3677 21.5323 2.25683 29.6221L2.25683 29.623C1.71976 30.0129 1.14616 30.359 0.780272 30.793C0.608879 30.9963 0.522904 31.177 0.503905 31.3428Z" stroke="#403939"/>
</svg>
