<svg width="43" height="33" viewBox="0 0 43 33" fill="none" xmlns="http://www.w3.org/2000/svg">
<path d="M0.503905 1.65723C0.488425 1.52171 0.512241 1.34746 0.646483 1.12109L0.710936 1.02051C0.935853 0.69508 1.14181 0.570807 1.30664 0.525391C1.47738 0.478479 1.6802 0.494863 1.93457 0.587891C2.19236 0.682212 2.46693 0.841809 2.76074 1.03613C3.02027 1.20778 3.37023 1.46033 3.63086 1.62598C14.1572 8.3389 24.211 15.7549 34.3008 23.1299L34.3066 23.1338C34.838 23.5105 35.2941 23.8815 35.834 24.2881L36.1172 25.5186L36.7412 24.2861L36.7588 24.25L36.9502 23.873L36.7227 23.7061C36.2514 21.7334 35.586 19.8432 34.9219 17.9902C34.2277 16.0533 33.5378 14.1592 33.0518 12.2061C32.969 11.8695 32.8265 11.5041 32.6943 11.1709C32.5563 10.8229 32.4267 10.5008 32.3428 10.2012C32.2573 9.89591 32.2382 9.67759 32.2686 9.5293C32.2915 9.41752 32.3439 9.32479 32.5117 9.24316L32.5117 9.24219C32.7379 9.13209 32.8709 9.15436 32.9697 9.19922C33.0991 9.2581 33.2493 9.39528 33.4219 9.64355C33.5918 9.88795 33.748 10.1856 33.915 10.5098C34.0735 10.8173 34.2474 11.1607 34.4385 11.4365C37.536 15.9576 39.9488 20.8412 41.874 25.9473C42.6985 28.1576 42.6653 29.6392 42.0254 30.5947C41.4215 31.4962 40.1649 32.1003 38.0479 32.3037L37.6133 32.3389C33.4581 32.6085 29.383 32.657 25.4141 31.5283L25.4131 31.5293C25.1725 31.4596 24.8927 31.4208 24.667 31.3867C24.4196 31.3493 24.2139 31.3134 24.0449 31.2549C23.8786 31.1973 23.7999 31.1345 23.7607 31.0791C23.7277 31.0321 23.6789 30.9275 23.709 30.6826L23.709 30.6787C23.7402 30.4084 23.8227 30.275 23.8955 30.2021C23.9723 30.1254 24.0889 30.0656 24.2715 30.0303C24.4578 29.9942 24.6797 29.9897 24.9346 30C25.1519 30.0088 25.4798 30.0347 25.7061 30.0391L25.708 30.0391C29.463 30.0935 33.1812 29.8394 36.8975 29.2949L36.8965 29.2949C37.2259 29.2504 37.5675 29.1132 37.9062 29.0068L38.3994 28.8525L38.2285 28.3643C38.0175 27.7631 37.6358 27.3988 37.2383 27.1445C37.0458 27.0214 36.8469 26.9228 36.6709 26.8379C36.4868 26.749 36.3352 26.6786 36.1934 26.5986L36.1895 26.5967C24.1475 19.929 13.3677 11.4677 2.25683 3.37793L2.25683 3.37695C1.71976 2.98708 1.14616 2.64097 0.780272 2.20703C0.608879 2.00373 0.522904 1.82303 0.503905 1.65723Z" stroke="#403939"/>
</svg>
