<svg width="577" height="503" viewBox="0 0 577 503" fill="none" xmlns="http://www.w3.org/2000/svg">
<path fill-rule="evenodd" clip-rule="evenodd" d="M408.14 237.922C426.951 231.346 442.83 218.326 452.963 201.166C461.09 186.61 464.851 167.625 458.543 143.546C445.017 92.6879 407.867 74.31 351.368 96.9034C337.63 102.392 310.245 118.526 302.269 147.428C295.628 171.386 304.453 195.677 317.827 216.633C338.661 249.355 371.93 250.144 408.14 237.922ZM304.059 148.064C311.58 119.618 338.267 103.393 351.763 97.9951C402.924 77.5549 442.409 90.5348 456.238 144.304C462.303 167.504 458.634 185.851 450.749 199.923C440.922 216.539 425.541 229.149 407.321 235.527C372.263 247.384 340.087 246.96 319.829 215.481C306.727 195.192 297.842 171.416 304.059 148.064Z" fill="#403939"/>
<path fill-rule="evenodd" clip-rule="evenodd" d="M385.494 116.918C409.058 123.469 422.765 144.789 429.195 168.474C429.338 169.212 429.633 169.912 430.063 170.53C430.492 171.147 431.046 171.668 431.688 172.059C432.33 172.45 433.047 172.702 433.793 172.8C434.538 172.898 435.296 172.839 436.018 172.627C436.739 172.414 437.408 172.054 437.982 171.568C438.556 171.082 439.022 170.482 439.351 169.805C439.679 169.129 439.862 168.391 439.889 167.64C439.916 166.888 439.785 166.139 439.506 165.441C430.893 138.329 414.668 117.222 386.404 112.824C386.117 112.73 385.814 112.697 385.514 112.727C385.214 112.757 384.923 112.85 384.661 112.999C384.399 113.149 384.171 113.352 383.993 113.595C383.814 113.839 383.689 114.117 383.625 114.412C383.561 114.707 383.56 115.012 383.621 115.307C383.682 115.602 383.805 115.882 383.981 116.127C384.157 116.372 384.383 116.577 384.644 116.729C384.904 116.881 385.194 116.976 385.494 117.009V116.918ZM394.258 37.6446C394.296 37.772 394.359 37.8907 394.443 37.994C394.526 38.0973 394.629 38.183 394.746 38.2464C394.863 38.3097 394.991 38.3495 395.124 38.3633C395.256 38.3771 395.389 38.3647 395.517 38.3269C395.644 38.2891 395.763 38.2265 395.866 38.1428C395.97 38.059 396.055 37.9558 396.119 37.8389C396.182 37.7221 396.222 37.5939 396.236 37.4616C396.249 37.3294 396.237 37.1958 396.199 37.0683C391.104 14.9905 393.773 25.7868 388.102 4.31555C388.008 3.99296 387.852 3.69197 387.642 3.42975C387.432 3.16753 387.173 2.94923 386.879 2.7873C386.584 2.62538 386.261 2.523 385.927 2.48602C385.593 2.44904 385.256 2.47817 384.933 2.57176C384.61 2.66535 384.309 2.82156 384.047 3.03148C383.785 3.24139 383.567 3.5009 383.405 3.79518C383.243 4.08946 383.14 4.41276 383.103 4.7466C383.066 5.08045 383.096 5.41831 383.189 5.7409C389.77 26.9696 386.373 16.2946 394.258 37.6446ZM212.025 130.08C233.588 135.266 222.609 132.688 245.082 136.995C245.326 137.019 245.572 136.956 245.774 136.816C245.976 136.675 246.121 136.468 246.183 136.23C246.245 135.992 246.22 135.74 246.113 135.518C246.005 135.297 245.823 135.122 245.597 135.023C224.004 128.018 234.679 131.324 213.329 125.137C212.674 124.964 211.977 125.059 211.391 125.4C210.805 125.741 210.379 126.301 210.206 126.957C210.033 127.612 210.127 128.309 210.469 128.895C210.81 129.481 211.37 129.907 212.025 130.08ZM416.579 36.0676C418.793 13.4135 418.216 24.6647 419.339 2.40496C419.296 1.76843 419.018 1.17037 418.56 0.726444C418.102 0.282515 417.496 0.0242599 416.858 0.00162441C416.22 -0.0210111 415.597 0.193579 415.109 0.603897C414.62 1.01422 414.301 1.59111 414.213 2.22301C413.758 24.6041 413.971 13.2316 414.547 36.0069C414.581 36.2479 414.699 36.4692 414.88 36.6316C415.061 36.7941 415.294 36.8871 415.537 36.8944C415.781 36.9017 416.019 36.8226 416.209 36.6713C416.4 36.52 416.531 36.3061 416.579 36.0676ZM257.182 112.369C257.378 112.544 257.634 112.637 257.897 112.629C258.16 112.622 258.41 112.514 258.596 112.328C258.782 112.142 258.89 111.892 258.897 111.629C258.905 111.366 258.812 111.11 258.638 110.914C243.777 93.9915 251.298 101.816 235.953 85.8943C235.47 85.4128 234.816 85.1424 234.134 85.1424C233.451 85.1424 232.797 85.4128 232.314 85.8943C232.076 86.1309 231.888 86.4122 231.759 86.7218C231.631 87.0314 231.565 87.3634 231.565 87.6987C231.565 88.034 231.631 88.366 231.759 88.6756C231.888 88.9853 232.076 89.2665 232.314 89.5031C248.145 104.939 240.381 97.3881 257.182 112.369ZM140.697 62.1788C140.151 59.6011 137.664 59.1462 135.147 59.1462C134.258 59.1999 133.4 59.4943 132.666 59.998C131.931 60.5016 131.347 61.1956 130.976 62.0055C130.606 62.8154 130.462 63.7109 130.561 64.5962C130.66 65.4814 130.998 66.323 131.538 67.0311C135.026 71.0645 143.305 67.9409 140.697 62.1788ZM133.449 62.9673C133.663 62.5484 133.972 62.185 134.351 61.9061C134.73 61.6271 135.169 61.4401 135.633 61.36C137.392 60.9051 139.12 60.8748 139.878 62.5124C140.879 67.8499 131.296 67.395 133.449 62.9673ZM141 130.292C139.988 129.803 138.902 129.485 137.786 129.352C135.334 129.194 132.877 129.545 130.568 130.383C129.567 130.838 128.87 131.263 128.415 131.506C127.262 132.203 127.717 132.81 128.415 132.749C130.698 132.642 132.969 132.358 135.208 131.9C135.511 131.9 140 131.293 140.758 131.293C140.888 131.318 141.022 131.292 141.133 131.22C141.244 131.148 141.323 131.037 141.355 130.908C141.386 130.78 141.366 130.644 141.3 130.53C141.235 130.415 141.127 130.33 141 130.292ZM162.138 128.564C162.001 128.592 161.881 128.673 161.805 128.79C161.728 128.907 161.701 129.049 161.729 129.186C161.757 129.322 161.838 129.442 161.955 129.519C162.071 129.596 162.214 129.623 162.35 129.595H166.202C170.993 129.595 167.84 129.959 174.269 129.595C174.381 129.567 174.48 129.503 174.551 129.412C174.622 129.322 174.66 129.21 174.66 129.095C174.66 128.979 174.622 128.868 174.551 128.777C174.48 128.686 174.381 128.622 174.269 128.594C172.401 127.594 170.322 127.054 168.203 127.017C166.078 126.965 163.979 127.5 162.138 128.564ZM139.909 137.359C139.885 137.021 139.727 136.706 139.471 136.485C139.215 136.263 138.882 136.152 138.544 136.176C138.206 136.2 137.892 136.357 137.67 136.613C137.448 136.869 137.337 137.203 137.361 137.541L137.574 140.391C137.585 140.559 137.63 140.722 137.705 140.872C137.78 141.022 137.884 141.155 138.011 141.265C138.138 141.375 138.285 141.459 138.444 141.512C138.603 141.565 138.771 141.586 138.938 141.574C139.105 141.562 139.269 141.517 139.419 141.442C139.569 141.367 139.702 141.263 139.812 141.137C139.922 141.01 140.006 140.863 140.059 140.704C140.112 140.545 140.133 140.377 140.121 140.209L139.909 137.359ZM166.808 134.478C166.476 134.422 166.135 134.494 165.854 134.68C165.572 134.866 165.372 135.151 165.292 135.478C165.215 136.569 165.215 137.663 165.292 138.754C165.339 139.062 165.495 139.342 165.732 139.545C165.968 139.748 166.269 139.859 166.581 139.859C166.892 139.859 167.194 139.748 167.43 139.545C167.666 139.342 167.822 139.062 167.87 138.754V135.994C167.905 135.824 167.905 135.649 167.869 135.48C167.834 135.31 167.765 135.149 167.666 135.007C167.566 134.865 167.439 134.745 167.292 134.654C167.144 134.563 166.98 134.503 166.808 134.478ZM146.944 169.05C148.26 170.047 149.76 170.773 151.359 171.184C152.957 171.595 154.622 171.684 156.255 171.446C157.827 171.171 159.344 170.638 160.743 169.869C160.812 169.857 160.878 169.831 160.936 169.791C160.993 169.752 161.042 169.7 161.078 169.64C161.114 169.58 161.137 169.513 161.144 169.443C161.152 169.374 161.144 169.303 161.122 169.237C161.1 169.171 161.064 169.11 161.016 169.059C160.968 169.008 160.91 168.967 160.845 168.941C160.78 168.915 160.71 168.903 160.64 168.906C160.57 168.909 160.502 168.927 160.44 168.959C157.64 169.443 154.778 169.443 151.979 168.959C149.297 168.14 146.839 166.719 144.791 164.804C144.427 164.289 143.639 164.804 144.033 165.35C144.753 166.762 145.742 168.019 146.944 169.05ZM238.743 345.945C239.683 345.945 235.468 305.459 230.464 270.978C229.949 267.339 229.281 268.521 229.312 268.825C231.798 300.243 236.772 337.727 238.41 345.46C238.419 345.563 238.455 345.661 238.514 345.746C238.572 345.831 238.651 345.899 238.743 345.945Z" fill="#403939"/>
<path fill-rule="evenodd" clip-rule="evenodd" d="M574.799 326.537C569.552 316.407 553.813 298.06 534.798 277.711C545.594 271.979 552.63 267.309 553.843 264.519C554.662 262.638 551.963 260.758 550.265 259.606C541.773 253.783 517.148 242.198 486.852 228.612C481.757 223.547 476.813 218.695 472.204 214.146C486.882 190.491 488.641 163.864 481.575 136.934C462.984 66.6067 410.914 49.8057 342.588 77.0694C324.756 84.1658 289.273 105 278.902 142.15C275.528 154.254 274.927 166.963 277.143 179.331C257.43 186.882 232.168 196.587 200.083 208.172C192.167 204.199 188.953 203.441 189.013 203.016C189.063 202.773 189.047 202.522 188.967 202.287C188.887 202.053 188.746 201.844 188.559 201.682C182.493 197.921 172.425 196.738 170.878 198.042C170.092 198.616 169.414 199.324 168.877 200.135L164.419 185.7C167.178 184.547 173.971 180.635 178.763 168.777C182.208 159.359 183.894 149.388 183.737 139.36C185.028 137.394 185.652 135.063 185.515 132.715C185.379 130.366 184.489 128.123 182.978 126.32C182.978 125.592 182.766 124.895 182.675 124.167C183.315 121.975 183.821 119.747 184.192 117.495C184.192 113.947 185.041 108.397 183.403 105.061C183.187 103.471 183.187 101.859 183.403 100.269C183.403 95.1138 176.913 92.7786 172.273 88.4116C172.273 84.924 172.546 81.1028 172.576 77.9792C181.8 75.3816 190.829 72.1388 199.597 68.2747C201.174 67.4558 203.601 66.1215 203.631 64.4535C203.631 57.3267 141.37 40.8594 133.698 42.6486C133.425 41.7995 75.895 62.6946 66.979 71.6106C66.7831 71.7896 66.6267 72.0075 66.5197 72.2502C66.4127 72.493 66.3575 72.7555 66.3575 73.0208C66.3575 73.2861 66.4127 73.5485 66.5197 73.7913C66.6267 74.0341 66.7831 74.252 66.979 74.431C66.0461 78.9431 66.2125 83.6134 67.4642 88.0476C66.5268 88.1189 65.6299 88.4593 64.8812 89.0278C64.1325 89.5964 63.5639 90.3691 63.2437 91.253C62.9234 92.1368 62.8652 93.0944 63.0759 94.0106C63.2866 94.9268 63.7573 95.7626 64.4315 96.4178C61.3989 100.633 61.8538 109.549 64.0979 114.129C64.1027 114.205 64.1247 114.28 64.1621 114.347C64.1995 114.414 64.2515 114.472 64.3142 114.517C64.3769 114.561 64.4488 114.591 64.5245 114.604C64.6003 114.617 64.678 114.613 64.7521 114.593C64.8261 114.572 64.8945 114.535 64.9523 114.484C65.0102 114.433 65.0559 114.37 65.0863 114.3C65.1166 114.229 65.1307 114.152 65.1276 114.076C65.1245 113.999 65.1043 113.924 65.0684 113.856C64.7364 108.284 64.8784 102.694 65.493 97.1456C66.0898 97.4463 66.738 97.6315 67.4035 97.6915C66.1803 102.971 66.5175 108.492 68.374 113.583C68.4017 113.694 68.466 113.794 68.5567 113.865C68.6474 113.936 68.7593 113.974 68.8744 113.974C68.9895 113.974 69.1014 113.936 69.192 113.865C69.2827 113.794 69.3471 113.694 69.3748 113.583C69.86 105.091 68.9199 105.425 68.8289 97.8432C72.9533 97.3883 68.6166 94.0523 73.105 113.006C73.0861 113.082 73.0848 113.162 73.1012 113.238C73.1175 113.315 73.1511 113.387 73.1993 113.448C73.2475 113.51 73.3091 113.56 73.3795 113.594C73.4498 113.628 73.5271 113.646 73.6054 113.646C73.6836 113.646 73.7609 113.628 73.8312 113.594C73.9016 113.56 73.9632 113.51 74.0114 113.448C74.0596 113.387 74.0932 113.315 74.1095 113.238C74.1259 113.162 74.1246 113.082 74.1057 113.006C74.5753 107.438 73.894 101.833 72.1042 96.5391C72.5502 96.1565 72.9205 95.6936 73.1959 95.1744C75.2278 96.994 74.7729 103.332 77.29 113.037C77.3178 113.149 77.3821 113.248 77.4728 113.319C77.5635 113.39 77.6753 113.428 77.7904 113.428C77.9056 113.428 78.0174 113.39 78.1081 113.319C78.1988 113.248 78.2631 113.149 78.2908 113.037C78.2908 107.912 78.4728 95.7506 73.5599 94.113C73.6824 93.4156 73.6528 92.7 73.473 92.0151C73.2932 91.3302 72.9674 90.6923 72.5181 90.1451C72.0688 89.5978 71.5065 89.1542 70.8697 88.8445C70.233 88.5348 69.5368 88.3665 68.8289 88.3509C69.1075 84.4336 69.1075 80.5015 68.8289 76.5842C68.6166 74.7949 67.2216 77.7366 97.0327 83.1347C97.245 86.501 97.6089 91.5959 98.0638 96.1752C95.1751 99.2146 92.7897 102.695 90.9977 106.486C88.2076 113.037 90.9977 119.102 93.0599 125.319C93.4845 126.532 93.5755 127.897 93.8787 129.171C94.364 131.415 95.1221 131.384 94.9098 133.629C94.6976 135.873 93.2722 138.966 94.182 141.574C95.7916 144.742 97.8328 147.671 100.247 150.278C101.922 152.16 102.98 154.509 103.28 157.01C103.28 159.315 108.193 162.439 109.649 162.56L111.529 167.473C113.136 171.598 124.084 181.848 127.359 184.85C127.693 187.519 128.39 193.948 128.542 198.437C127.471 198.11 126.376 197.867 125.267 197.709C111.377 197.497 45.6593 223.183 22.6414 265.155C-12.5679 329.569 17.2736 373.24 17.3949 373.543C-2.4994 393.407 -14.2661 440.171 33.0738 460.641C50.6573 467.955 69.104 472.989 87.965 475.622C87.6921 480.869 87.3282 502.704 92.5443 502.916C94.3336 502.916 95.759 500.703 96.6991 498.974C99.6979 492.657 102.143 486.092 104.008 479.353C113.106 478.746 112.803 478.898 113.106 478.443C158.277 481.86 203.705 478.559 247.908 468.647C248.272 468.647 248.272 468.799 248.878 466.13L254.398 465.19C284.724 512.985 273.564 456.911 264.254 443.476C263.197 441.531 261.424 440.073 259.311 439.412C266.144 435.632 272.728 431.418 279.023 426.796C296.612 437.644 314.841 447.417 333.611 456.062C347.379 462.127 538.013 387.978 544.867 371.996C545.685 370.116 542.986 368.236 541.318 367.083C536.932 364.264 532.385 361.702 527.702 359.411L528.065 356.651C557.634 377.182 582.532 341.488 574.799 326.537ZM71.7403 91.4139C72.8927 96.7211 63.3095 96.2965 65.311 91.8688C65.5217 91.4442 65.8289 91.0749 66.2081 90.7905C66.5873 90.5061 67.0279 90.3145 67.4945 90.2312C69.2535 89.8066 70.9821 89.7763 71.7403 91.4139ZM483.425 315.073C441.301 331.874 381.012 353.224 347.925 360.108C347.85 360.109 347.777 360.127 347.709 360.159C347.642 360.192 347.582 360.239 347.535 360.296C347.487 360.354 347.453 360.422 347.434 360.494C347.415 360.567 347.412 360.642 347.426 360.716C347.439 360.789 347.468 360.859 347.512 360.921C347.555 360.982 347.611 361.033 347.675 361.07C347.74 361.108 347.812 361.13 347.887 361.137C347.962 361.144 348.037 361.134 348.107 361.109C383.953 354.467 442.605 334.482 485.062 316.771C487.852 319.652 490.612 322.503 493.311 325.232C451.46 343.216 384.59 368.539 349.229 376.485C349.156 376.491 349.086 376.512 349.022 376.548C348.958 376.583 348.902 376.632 348.859 376.691C348.815 376.75 348.784 376.817 348.769 376.888C348.753 376.96 348.753 377.034 348.768 377.105C348.783 377.177 348.813 377.244 348.857 377.303C348.9 377.362 348.955 377.411 349.019 377.447C349.083 377.483 349.153 377.505 349.226 377.512C349.299 377.518 349.372 377.509 349.441 377.485C388.017 369.661 452.552 346.006 494.828 326.749L498.8 330.752C448.943 352.345 350.746 393.71 337.068 395.59C334.036 378.82 338.494 358.076 344.711 349.069C358.873 349.342 421.255 327.416 474.296 305.46C477.369 308.613 480.412 311.818 483.425 315.073ZM338.099 413.544C328.395 409.389 316.871 403.536 304.133 396.591C304.9 394.398 305.488 392.146 305.892 389.859C316.567 395.439 327.121 400.685 337.917 405.386C347.834 409.753 454.22 370.632 512.023 343.459C513.842 345.127 515.571 346.704 517.239 348.159C461.438 374.938 347.834 417.577 338.099 413.392V413.544ZM519.301 349.858C521.606 351.799 523.729 353.527 525.639 354.983C525.269 359.708 524.374 364.376 522.971 368.903C513.266 373.755 344.801 446.539 331.913 446.539C329.365 435.44 332.974 425.159 339.494 415.879C361.33 416.243 474.205 371.814 519.301 349.827V349.858ZM172.88 301.274C173.559 300.825 174.199 300.318 174.79 299.758C177.489 297.089 176.246 294.057 173.517 293.693C176.094 290.872 174.578 286.869 169.18 288.113C166.175 288.864 163.456 290.477 161.356 292.753C160.415 290.205 159.536 287.385 157.686 286.445C156.503 272.494 155.684 261.061 155.927 258.514C158.476 258.25 161.049 258.353 163.569 258.817C257.946 263.214 206.755 276.134 270.532 238.771C272.29 245.413 274.049 255.33 275.687 266.277C273.142 265.523 270.471 265.286 267.832 265.58C262.313 266.065 262.131 270.341 265.437 272.161C264.849 272.408 264.353 272.833 264.021 273.378C263.689 273.922 263.537 274.558 263.587 275.193C263.829 277.407 266.286 278.438 268.439 279.045C266.164 280.743 265.255 283.837 268.136 285.444C271.362 286.98 274.965 287.549 278.507 287.082C280.206 300.759 281.54 313.799 282.359 322.109C275.99 329.054 250.789 354.498 241.842 357.53C239.113 358.471 166.481 349.13 163.6 348.736C163.296 345.703 161.78 330.388 160.173 313.193C166.481 312.222 175.336 309.584 176.216 305.672C176.64 303.64 174.851 301.942 172.88 301.274ZM277.385 281.107C278.932 281.107 280.054 278.075 273.989 278.075C271.927 277.468 269.986 277.316 267.923 276.528C263.223 274.678 268.318 273.495 273.17 274.587C276.203 275.588 277.264 272.767 273.837 272.13C273.382 272.13 263.496 270.22 265.952 268.704C266.598 268.374 267.295 268.158 268.014 268.067C271.534 267.429 275.165 268.12 278.204 270.008C281.601 272.494 280.63 280.804 279.478 285.171C279.084 286.293 277.962 286.566 276.627 286.536C273.977 286.264 271.398 285.514 269.015 284.322C268.014 283.715 268.045 283.139 268.439 282.442C270.41 278.681 275.262 281.198 277.476 281.107H277.385ZM284.542 323.565C285.119 322.958 284.876 322.564 284.33 317.499C302.927 328.889 322.166 339.197 341.951 348.372C333.126 362.049 331.094 387.341 335.885 401.625C323.33 395.954 316.416 392.527 306.135 386.705C308.773 362.898 291.851 339.092 275.323 332.844C279.448 328.932 282.723 325.566 284.633 323.565H284.542ZM339.343 403.172C338.464 401.224 337.783 399.192 337.311 397.107C354.203 394.953 451.946 353.679 500.65 332.602C503.865 335.635 506.988 338.667 509.96 341.7C453.674 367.69 351.595 405.719 339.434 403.172H339.343ZM280.539 142.636C290.608 105.971 325.392 85.015 342.982 78.0095C410.064 51.2614 461.256 68.1534 479.27 137.541C487.125 167.655 482.303 191.553 471.81 209.87C457.101 235.708 431.384 250.447 415.008 255.966C369.305 271.433 327.06 271.13 300.737 230.249C283.633 203.805 272.169 172.993 280.539 142.636ZM277.325 181.211C281.198 199.19 288.465 216.266 298.735 231.523C313.353 254.238 332.519 263.942 351.686 266.914C376.129 270.705 400.633 263.518 415.827 258.393C419.775 257.04 423.634 255.439 427.381 253.601C440.027 268.006 456.252 286.081 472.355 303.246C468.049 305.065 463.662 306.885 459.194 308.704C406.759 329.933 350.23 349.373 343.467 346.461C323.091 337.181 303.283 326.699 284.148 315.073C284.148 315.073 282.753 302.093 280.509 285.474C282.147 280.258 283.754 271.858 279.539 268.431C279.031 268.012 278.483 267.646 277.901 267.339C276.493 257.258 274.519 247.265 271.987 237.406C271.954 237.29 271.896 237.183 271.818 237.091C271.74 236.999 271.643 236.925 271.534 236.873C271.425 236.821 271.307 236.794 271.186 236.791C271.065 236.789 270.946 236.813 270.835 236.861C270.471 236.861 268.682 238.104 266.043 239.893L258.28 237.225C257.855 237.073 258.28 236.588 244.329 245.049C233.15 229.792 218.504 217.412 201.599 208.93C232.714 197.982 257.794 188.581 277.325 181.211ZM228.286 255.178C228.59 255.178 257.552 237.77 257.976 237.922L264.921 240.378C212.517 273.738 247.301 261.183 164.843 256.755C169.817 252.994 170.908 252.206 171.09 252.024C174.366 249.931 226.831 254.875 228.286 255.178ZM180.583 126.32C181.194 130.577 181.437 134.879 181.31 139.178C178.805 141.646 175.455 143.066 171.94 143.151C166.723 143.424 161.022 142.787 159.111 137.905C153.531 124.167 173.729 120.982 180.583 126.32ZM175.912 119.163C177.338 121.346 178.611 123.045 179.4 124.076C172.698 121.407 154.987 122.923 156.594 135.145C154.296 134.691 151.916 134.912 149.74 135.782C148.072 122.832 124.6 125.713 121.476 134.69C120.747 134.195 119.922 133.859 119.055 133.702C118.188 133.545 117.298 133.572 116.442 133.78C115.926 128.17 116.624 120.194 121.112 118.01C122.386 117.374 124.782 120.831 126.783 121.346C131.325 122.514 136.043 122.843 140.703 122.317C146.042 121.854 151.348 121.074 156.594 119.982C164.055 118.192 163.448 116.524 168.573 113.431C169.15 113.097 170.999 112.066 171.606 112.339C174.578 113.856 173.668 115.766 175.912 119.163ZM148.072 137.662C147.891 143.727 142.28 147.003 136.457 147.306C131.241 147.609 125.54 146.942 123.629 142.09C122.809 140.604 122.441 138.912 122.57 137.22C122.7 135.528 123.321 133.911 124.357 132.567C130.058 125.895 148.618 125.501 148.072 137.662ZM100.854 104.727C99.3374 97.5792 98.324 90.3336 97.8212 83.0438C116.32 86.3494 136.548 88.7452 138.883 87.896C141.674 86.8952 155.684 83.0741 169.877 78.798C169.726 88.3509 169.149 94.5072 169.089 96.4481C146.081 96.2335 123.143 99.0166 100.854 104.727ZM68.556 73.0056C76.4712 65.6059 125.752 45.4084 133.758 43.6191C140.946 42.1331 193.471 57.2964 200.992 64.4535C195.837 69.7607 143.887 83.4077 138.065 85.4699C134.941 86.592 75.2582 78.3128 68.556 73.0056ZM118.807 173.963C114.888 170.51 112.081 165.971 110.74 160.923C110.498 157.89 108.375 150.642 106.222 149.641C103.56 147.568 101.273 145.055 99.4588 142.211C96.6688 137.996 96.9417 132.81 101.612 130.414C109.467 126.411 111.499 137.086 113.288 138.936C114.319 139.967 117.139 138.602 116.684 135.509C118.069 136.082 119.553 136.38 121.051 136.388C120.859 138.503 121.171 140.634 121.961 142.605C124.145 148.367 130.392 149.429 136.548 149.126C143.736 148.731 150.013 144.364 149.862 137.268C151.319 137.602 152.832 137.602 154.289 137.268C154.775 138.875 158.444 153.311 157.11 154.311C156.486 154.767 155.802 155.135 155.078 155.403C151.59 156.829 150.681 156.313 150.772 157.071C150.775 157.126 150.79 157.179 150.815 157.228C150.841 157.276 150.876 157.319 150.919 157.353C150.961 157.388 151.011 157.413 151.064 157.427C151.117 157.441 151.172 157.444 151.226 157.435C154.259 157.435 159.779 156.616 159.627 153.735C159.39 147.927 157.933 142.233 155.351 137.025C155.865 136.859 156.362 136.646 156.837 136.388C158.565 143.697 164.419 145.335 172 144.94C175.288 144.813 178.46 143.692 181.098 141.726C180.988 150.616 179.336 159.42 176.216 167.746C170.666 181.454 162.326 183.577 162.326 183.577C162.16 183.615 162.003 183.687 161.865 183.789C161.728 183.89 161.613 184.019 161.528 184.167C161.442 184.315 161.388 184.479 161.369 184.649C161.35 184.818 161.366 184.99 161.416 185.154L166.814 202.682C161.871 209.961 163.448 209.567 162.296 209.081C158.202 207.383 139.854 201.591 130.574 198.983C130.356 194.049 129.89 189.13 129.179 184.244C129.149 183.243 127.177 182.667 118.807 173.963ZM106.677 205.654C113.803 211.72 146.101 230.947 155.624 234.252C156.563 234.72 157.634 234.848 158.656 234.616C159.657 234.162 159.202 235.435 163.327 212.114C164.873 213.873 168.877 218.179 179.157 228.824C179.306 228.989 179.494 229.114 179.705 229.186C179.915 229.258 180.14 229.275 180.359 229.236C180.578 229.196 180.783 229.101 180.955 228.96C181.126 228.819 181.259 228.637 181.341 228.43C183.99 221.103 186.217 213.63 188.013 206.049C189.037 206.27 190.049 206.544 191.045 206.868C190.499 220.515 190.651 247.111 178.035 250.508C175.583 250.361 173.122 250.483 170.696 250.872C150.953 249.658 128.239 233.191 114.774 219.574C110.467 215.298 106.161 211.508 102.158 207.11L106.677 205.654ZM55.7278 316.559C80.3227 294.481 116.169 289.659 148.679 296.422C150.165 296.877 149.74 296.695 151.317 301.365C153.006 300.103 154.561 298.67 155.957 297.089C157.019 296.089 154.684 293.298 154.896 289.599C154.896 288.871 155.078 288.234 155.775 288.113C158.808 287.597 158.808 295.209 160.537 295.846C162.265 296.483 162.326 294.117 166.208 291.873C179.976 283.837 163.751 297.302 163.751 297.666C163.743 297.843 163.771 298.02 163.835 298.186C163.899 298.352 163.997 298.503 164.123 298.628C164.249 298.754 164.399 298.852 164.565 298.916C164.731 298.98 164.908 299.009 165.086 299C166.481 299 166.845 297.453 171.151 296.422C171.849 296.24 173.426 295.967 173.547 296.665C173.85 298.12 168.331 300.88 167.027 301.76C161.143 303.792 163.175 306.248 164.661 305.854C167.057 305.247 169.119 302.487 172 303.397C172.758 303.64 174.032 304.428 173.88 305.217C173.729 306.005 172.546 306.885 171.879 307.4C166.784 311.191 155.472 312.404 155.169 312.556C155.412 315.346 157.625 319.197 157.079 320.38C148.447 338.187 136.627 354.262 122.204 367.811C121.87 367.963 110.073 379.335 107.708 378.941C105.342 378.547 108.557 378.092 115.653 371.936C131.881 357.196 145.113 339.465 154.623 319.713C153.713 316.68 148.558 301.972 147.648 298.848C130.377 295.235 112.545 295.235 95.2737 298.848C62.3087 306.096 50.4813 324.323 48.874 324.596C46.8724 324.656 54.1811 318.106 55.8794 316.559H55.7278ZM92.7566 500.278C90.8157 497.67 89.9363 486.51 90.3305 476.017C93.909 476.532 97.4573 476.957 101.036 477.351C101.582 478.655 101.43 478.534 101.703 478.837C100.551 482.901 95.9713 497.033 92.9083 500.278H92.7566ZM247.423 467.434C221.965 472.297 196.192 475.337 170.302 476.532C126.328 478.685 74.6516 475.774 34.0442 458.154C9.96485 447.752 1.95862 430.405 2.56515 413.604C3.26638 399.595 8.91952 386.29 18.517 376.06C20.1946 380.339 22.3623 384.41 24.9766 388.191C28.4035 392.194 85.9028 394.863 143.827 394.984C147.729 391.159 151.85 387.564 156.17 384.218C176.701 391.921 186.496 396.349 253.913 438.381L247.423 467.434ZM259.311 441.293C266.134 443.688 274.11 476.35 271.229 481.597C268.985 480.99 262.465 473.196 256.066 463.401C255.942 463.207 255.764 463.054 255.553 462.962C255.342 462.87 255.109 462.843 254.883 462.885L249.485 464.007C250.304 460.307 251.668 453.787 254.155 442.202C254.867 441.615 255.719 441.223 256.628 441.064C257.537 440.904 258.472 440.983 259.341 441.293H259.311ZM254.762 439.079C254.762 438.563 255.035 438.169 254.762 437.926C255.065 437.926 192.683 398.229 176.216 390.647C170.817 388.16 165.055 385.734 159.02 383.338C172.116 373.133 185.976 363.947 200.477 355.862C220.28 358.289 240.72 360.533 242.631 359.866C249.242 357.682 263.223 344.884 273.625 334.694C284.815 338.334 298.887 352.89 303.011 371.359C306.469 386.765 302.708 404.446 284.391 419.518C275.173 426.985 265.25 433.536 254.762 439.079ZM542.198 371.268C532.918 386.644 346.833 459.216 334.339 453.939C315.848 445.531 297.873 436.032 280.509 425.492C290.335 418.123 298.705 410.329 303.254 398.471C308.197 401.201 334.278 415.181 338.008 415.758C331.215 425.371 327.667 435.925 330.336 447.328C332.216 455.182 514.661 375.575 523.092 371.511C523.941 371.117 524.699 370.813 524.972 370.268C526.03 367.608 526.753 364.827 527.125 361.988C535.556 366.325 540.954 369.661 542.319 371.268H542.198ZM532.857 275.8C519.847 261.941 505.411 247.232 491.855 233.707C523.82 248.142 548.142 259.818 551.205 263.791C549.173 267.4 536.436 274.284 532.978 275.8H532.857Z" fill="#403939"/>
</svg>
