<svg width="408" height="15" viewBox="0 0 408 15" fill="none" xmlns="http://www.w3.org/2000/svg">
<path d="M372.147 9.07567C372.312 9.07246 372.477 9.06926 372.641 9.06926L372.627 9.08858C374.795 8.90282 376.968 8.73781 379.14 8.57283C386.462 8.01672 393.78 7.46087 400.92 6.11177C402.513 5.80837 404.006 5.2406 405.479 4.68044C405.648 4.61608 405.817 4.55181 405.986 4.48806C407.065 4.08213 408.212 3.5409 407.966 2.47775C407.769 1.59406 406.699 1.3102 405.682 1.04024L405.563 1.00867C403.105 0.341799 400.552 0.0808412 397.916 0.0228538C388.658 -0.189777 379.687 1.11498 370.715 2.53573C370.439 2.57967 370.162 2.62068 369.888 2.66131C367.392 3.03181 365.107 3.37076 364.775 5.6092C364.502 7.4842 367.151 8.83729 371.152 9.06926C371.48 9.08862 371.815 9.08212 372.147 9.07567Z" fill="#E34B48"/>
<path d="M90.7983 12.0074C105.123 14.327 119.638 15.5351 136.051 14.7716L136.038 14.7619C137.317 14.7619 138.74 14.7709 140.265 14.7806C143.967 14.8042 148.27 14.8316 152.574 14.7426C164.427 14.5045 176.244 13.8244 188.058 13.1446C200.701 12.417 213.34 11.6897 226.011 11.5048C243.039 11.252 260.031 10.648 277.023 10.0439C286.017 9.72421 295.011 9.4045 304.01 9.13689C314.415 8.8276 324.806 8.46033 335.198 8.01575C339.417 7.83211 343.514 7.06859 347.529 6.12141C347.606 6.1031 347.685 6.08499 347.764 6.06676C348.772 5.83497 349.859 5.58494 349.795 4.66201C349.737 3.82492 348.744 3.60803 347.827 3.4078C347.664 3.37222 347.503 3.33716 347.351 3.29925C346.3 3.04796 345.207 2.86433 344.115 2.70968C330.831 0.84332 317.377 0.86143 303.959 0.879466C302.647 0.881235 301.334 0.883005 300.022 0.883005C294.364 0.883005 288.71 1.20415 283.052 1.5255C279.194 1.74465 275.334 1.9639 271.469 2.08147C262.435 2.36024 253.395 2.57203 244.353 2.78388C238.035 2.93191 231.716 3.07996 225.397 3.25092C221.137 3.36455 216.888 3.62043 212.65 3.87564C212.202 3.90264 211.753 3.92964 211.305 3.95647C206.742 4.23129 202.182 4.52565 197.621 4.82003C189.351 5.35383 181.08 5.88766 172.797 6.30505C165.801 6.66036 158.796 6.90048 151.789 7.14065C146.789 7.31206 141.788 7.48348 136.789 7.69681C124.39 8.21871 112.018 8.42168 99.6878 7.07825C84.8446 5.4642 70.0152 3.95647 54.9672 5.85079C41.7763 7.51317 28.5445 8.91459 15.2034 9.76511C12.3355 9.95081 9.46759 10.1026 6.60362 10.2541C5.14489 10.3313 3.6872 10.4084 2.23105 10.49C1.22056 10.5383 0.100848 10.6736 0.00525217 11.5531C-0.0794465 12.3669 0.87618 12.5657 1.72206 12.7417C1.83062 12.7643 1.93736 12.7865 2.03988 12.8096C2.44805 12.9036 2.88263 12.923 3.31609 12.9423C3.50615 12.9507 3.69599 12.9591 3.88331 12.9739C17.4154 13.977 30.8114 12.7373 44.1529 11.5027L44.2342 11.4951C59.8284 10.0551 75.2997 9.50415 90.7983 12.0074Z" fill="#E34B48"/>
</svg>
