<svg width="32" height="30" viewBox="0 0 32 30" fill="none" xmlns="http://www.w3.org/2000/svg">
<path d="M7.61795 29.9992C6.3193 29.992 5.02065 30.0463 3.73667 29.7533C2.28762 29.4242 1.3815 28.6033 1.10637 27.1351C0.669816 24.8097 0.361647 22.4627 0.196565 20.1048C0.0755044 18.3762 -0.155606 16.6404 0.156217 14.9045C0.247929 14.3874 0.310289 13.863 0.449692 13.3603C0.567084 12.9299 0.83488 12.5502 1.36314 12.6189C1.91709 12.6913 1.84373 13.1614 1.86208 13.5484C2.06018 17.454 2.54075 21.3272 3.23776 25.175C3.3038 25.5294 3.3955 25.8802 3.45786 26.2382C3.58626 27.0085 4.0595 27.3738 4.83355 27.3882C8.03248 27.4497 11.2314 27.4786 14.4267 27.3304C15.1237 27.2978 15.8244 27.2002 16.5177 27.2147C17.4385 27.2327 17.8677 26.8132 17.9264 25.9417C18.0548 24.0431 18.2603 22.1481 18.1392 20.2387C18.0218 18.3401 17.9117 16.4415 17.7907 14.5429C17.776 14.3259 17.8787 14.033 17.6256 13.9209C17.3688 13.8051 17.2074 14.0691 17.046 14.2102C15.3365 15.729 13.7187 17.3347 12.1816 19.0236C11.4075 19.877 10.6408 20.7558 9.6723 21.4176C8.28194 22.3651 6.93194 22.0179 6.21658 20.5063C5.66264 19.3418 5.29212 18.1159 5.09402 16.8393C5.02799 16.4162 5.05732 16.0292 5.51221 15.8448C5.95977 15.6639 6.2936 15.9026 6.54673 16.2317C7.01997 16.8356 7.29877 17.5445 7.60326 18.2352C8.12419 19.4214 8.24525 19.4611 9.07066 18.4883C10.9783 16.2426 13.0473 14.1523 15.1971 12.138C15.7767 11.5955 16.382 11.082 16.9726 10.5468C17.1927 10.3479 17.4201 10.1526 17.5155 9.85604C17.7576 9.12192 17.4972 8.79283 16.7341 8.95195C13.4105 9.64991 10.0501 10.1381 6.68614 10.6046C5.10501 10.8252 3.50188 10.912 1.96478 11.3858C1.56125 11.5087 1.22741 11.3785 1.04031 11.0097C0.853221 10.6408 0.977953 10.29 1.24942 10.0152C1.70798 9.54865 2.32064 9.36783 2.94062 9.22318C5.44253 8.64094 7.98846 8.29739 10.5454 8.11657C12.8015 7.95745 15.065 7.80556 17.3321 7.89958C17.8494 7.92128 18.2786 7.94298 18.5904 8.4782C18.9683 9.12915 19.3388 8.55414 19.6249 8.32631C23.0219 5.61765 26.562 3.10426 30.2195 0.75362C30.5534 0.540254 30.8982 0.33774 31.2431 0.135223C31.4485 0.015883 31.6796 -0.0889875 31.8814 0.117146C32.1345 0.377525 31.9291 0.605354 31.7603 0.804255C31.5879 1.00677 31.3935 1.18759 31.21 1.37564C28.0845 4.5689 24.7792 7.57411 21.2831 10.3732C20.2816 11.1724 19.8597 11.9138 20.0982 13.3458C20.7952 17.5264 21.0153 21.7612 20.4247 25.9887C20.0358 28.7697 19.1627 29.5038 16.2976 29.6051C13.4032 29.7063 10.5197 30.0173 7.61795 29.9992Z" fill="#E34B48"/>
</svg>
