<svg width="496" height="63" viewBox="0 0 496 63" fill="none" xmlns="http://www.w3.org/2000/svg">
<path d="M360.267 2.27636C382.045 3.78483 403.804 5.18432 424.938 7.29503C442.778 9.0788 460.13 11.1608 474.909 14.7284C498.89 20.5156 502.77 28.7921 484.755 36.2656C473.213 41.0606 457.342 44.37 440.087 47.1289C402.692 53.1168 362.334 56.5926 320.864 59.0704C284.015 61.2729 246.815 62.4946 209.205 62.8788C165.649 63.3205 122.502 62.6207 79.999 59.6784C57.6361 58.1297 35.9945 55.9846 17.7454 51.6657C-3.25278 46.6929 -5.72888 40.3838 10.9215 34.1606C23.1071 29.6065 39.3285 26.4978 56.3688 23.7849C104.78 16.0705 156.427 10.8281 209.478 6.70998C234.843 4.74266 260.657 3.42922 286.588 2.32225C288.128 2.25916 289.747 2.27062 291.209 1.95516C278.127 1.61676 265.161 1.27835 252.215 0.934217C250.928 0.899805 248.803 1.08909 248.764 0.532735C248.725 -0.0465609 250.889 0.136968 252.137 0.114027C274.812 -0.212902 297.39 0.194334 319.908 0.939964C323.125 1.04894 326.225 0.928486 329.403 0.859658C347.77 0.469637 366.136 0.15419 384.541 0.119779C386.217 0.11978 389.103 -0.189955 389.122 0.68186C389.122 1.37013 386.51 1.19808 384.853 1.2669C376.644 1.61104 368.436 1.94943 360.209 2.29356L360.267 2.27636ZM191.034 60.8484C201.523 60.7108 212.305 60.7223 223.106 60.5617C251.611 60.1315 279.881 59.1851 307.898 57.625C351.766 55.1874 394.406 51.6485 433.907 45.3451C450.85 42.6379 466.545 39.4374 478.028 34.7686C492.904 28.7233 490.916 22.5174 472.667 17.3782C464.634 15.1127 455.1 13.5124 445.098 12.1531C416.925 8.33317 387.153 6.06187 356.797 4.38134C346.034 3.78483 335.291 3.01625 324.178 3.48084C315.6 3.84218 307.021 4.23793 298.423 4.5706C232.933 7.1172 169.646 12.1187 108.465 19.3971C82.0072 22.546 55.9398 25.9587 32.992 31.0806C24.9008 32.8873 17.6284 34.9407 12.4617 37.5561C5.52085 41.072 6.35925 44.3815 14.8599 47.5877C18.7203 49.0445 23.536 50.1859 28.7221 51.2011C41.9995 53.8051 56.7002 55.4397 71.9468 56.6901C110.804 59.8849 150.597 60.7624 191.034 60.8484Z" fill="#E34B48"/>
</svg>
