<svg width="519" height="519" viewBox="0 0 519 519" fill="none" xmlns="http://www.w3.org/2000/svg">
<path d="M162.211 115.685C153.206 116.023 145.499 125.365 148.976 133.85C152.116 141.376 162.263 140.649 168.465 137.924C180.609 132.734 175.445 115.218 162.211 115.685ZM169.347 135.459C163.924 138.91 153.025 139.533 150.3 133.487C147.575 127.441 152.895 119.059 160.55 117.917C172.305 115.789 177.807 130.087 169.347 135.459ZM216.784 124.82C218.808 122.225 222.726 120.019 225.659 121.342C227.371 122.147 228.383 119.889 226.437 119.526C224.412 119.171 222.327 119.425 220.447 120.257C218.566 121.088 216.975 122.46 215.876 124.197C215.835 124.256 215.806 124.324 215.791 124.394C215.776 124.465 215.775 124.538 215.788 124.609C215.802 124.68 215.829 124.748 215.868 124.809C215.908 124.869 215.959 124.921 216.018 124.962C216.078 125.003 216.145 125.032 216.216 125.047C216.286 125.062 216.359 125.063 216.431 125.049C216.502 125.036 216.569 125.009 216.63 124.97C216.691 124.93 216.743 124.879 216.784 124.82ZM105.432 46.0873C110.221 48.1417 115.226 49.6477 120.354 50.5766C120.976 50.5766 121.314 49.8241 121.469 49.357C123.537 42.9473 127.753 37.4477 133.406 33.787C155.023 21.0715 175.835 42.7916 166.778 63.344C161.744 74.7361 148.613 78.0317 137.896 81.0419C135.975 81.5869 136.417 82.4173 138.285 86.8807C141.434 94.4581 144.539 102.044 147.601 109.639C148.224 111.118 150.871 110.158 151.935 109.95C153.596 109.665 162.678 108.601 162.963 106.343C163.249 104.086 157.41 92.0447 156.294 89.5016C176.899 83.8445 190.834 61.9946 186.137 40.8454C180.246 14.6099 151.52 8.40788 128.761 15.9593C116.772 19.9556 104.835 30.673 104.654 44.2708C104.654 45.6461 104.394 45.6461 105.432 46.0873ZM125.777 18.8657C148.328 10.1465 178.092 14.3245 184.242 41.3384C188.862 61.3978 175.03 82.2875 155.49 87.6073C154.711 87.8149 153.881 88.1782 155.256 90.9029C157.436 95.3404 160.887 104.137 161.666 105.876C157.59 107.209 153.404 108.181 149.158 108.782L138.311 83.0401C148.535 82.3654 164.261 74.243 168.621 64.2782C177.392 44.1151 158.292 20.1373 134.937 31.1401C131.328 32.8491 128.148 35.3442 125.629 38.4425C123.11 41.5409 121.316 45.1638 120.38 49.0456L105.848 44.7898C106.029 33.7351 115.838 22.7063 125.777 18.8657ZM221.014 131.93C219.457 130.503 215.382 136.575 217.458 137.821C218.626 138.495 222.597 133.383 221.014 131.93ZM254.982 130.658C256.471 131.499 257.716 132.71 258.598 134.174C259.48 135.638 259.969 137.306 260.016 139.014C260.017 139.139 260.059 139.261 260.135 139.36C260.212 139.459 260.318 139.531 260.439 139.563C260.56 139.596 260.689 139.588 260.805 139.54C260.92 139.492 261.017 139.408 261.08 139.3C262.689 135.07 259.472 130.892 256.072 128.66C254.697 127.726 253.581 130.243 254.982 130.658ZM236.35 173.19C240.009 170.232 245.978 169.713 248.936 173.995C251.168 177.239 249.273 181.209 245.277 180.223C244.15 179.765 243.057 179.228 242.007 178.614C241.91 178.578 241.804 178.569 241.702 178.588C241.6 178.608 241.505 178.654 241.427 178.724C241.35 178.793 241.293 178.883 241.262 178.982C241.232 179.082 241.229 179.188 241.255 179.289C242.682 183.57 251.142 183.363 251.79 177.732C252.569 171.011 242.578 165.665 235.779 172.542C235.693 172.617 235.641 172.724 235.633 172.838C235.626 172.953 235.665 173.065 235.74 173.151C235.816 173.237 235.923 173.29 236.037 173.297C236.151 173.305 236.264 173.266 236.35 173.19ZM245.536 147.915C248.131 149.109 250.726 142.595 248.624 141.713C246.522 140.831 243.927 147.24 245.536 147.915ZM228.487 157.439C232.146 158.918 231.575 157.024 231.082 156.582C228.128 155.083 225.076 153.782 221.948 152.69C225.762 146.644 229.37 140.519 233.547 134.707C233.911 134.213 233.132 133.591 232.769 134.11C228.825 139.637 224.828 145.138 221.014 150.744C218.574 154.299 219.353 153.754 228.487 157.439ZM321.777 372.798C323.575 371.888 325.005 370.386 325.826 368.546C326.647 366.705 326.809 364.639 326.285 362.693C325.761 360.747 324.584 359.041 322.95 357.861C321.316 356.682 319.326 356.101 317.314 356.216C303.742 356.216 304.858 382.088 321.777 372.798ZM377.881 313.294C383.538 318.744 396.462 316.408 392.465 304.99C387.716 291.367 367.605 303.408 377.881 313.294ZM362.804 410.841C345.003 412.294 354.371 436.972 366.982 429.499C375.572 424.386 371.731 410.01 362.804 410.841ZM316.821 284.282C314.771 275.641 300.343 273.487 297.125 283.504C292.091 299.307 320.117 298.217 316.821 284.282ZM427.031 372.253C408.995 378.792 436.217 405.287 440.862 381.595C442.601 372.876 434.323 369.606 427.031 372.253ZM257.318 332.42C255.295 332.711 253.431 333.68 252.031 335.168C250.63 336.657 249.776 338.576 249.607 340.612C249.438 342.649 249.965 344.682 251.102 346.38C252.239 348.079 253.917 349.341 255.864 349.962C269.229 353.958 271.486 330.344 257.318 332.42Z" fill="#403939"/>
<path d="M470.11 406.636C469.201 366.05 444.419 323.829 419.222 292.871C425.293 284.552 428.718 274.597 429.052 264.303C429.385 254.009 426.611 243.853 421.09 235.158C414.006 224 404.456 220.133 401.446 211.803C397.813 201.89 402.354 191.043 401.731 181.027C401.005 168.986 393.946 155.725 381.516 152.482C373.264 150.328 361.068 154.168 356.63 139.117C353.153 127.31 359.225 109.846 348.845 93.3675C343.292 84.5185 333.509 79.614 323.985 76.2664C311.944 72.0366 297.698 70.3758 286.098 76.6557C279.163 73.9834 271.68 73.048 264.3 73.9309C272.474 65.4193 275.978 47.7214 272.085 36.511C270.891 33.0337 250.728 47.384 249.275 65.3415C241.101 55.7659 233.03 52.574 221.145 51.043C216.578 50.4461 226.102 74.1645 234.276 77.3044C228.048 77.8753 219.433 79.8994 214.943 84.4926C213.535 86.1894 212.484 88.1523 211.85 90.2642C211.217 92.3762 211.016 94.594 211.258 96.7855C211.5 98.977 212.181 101.097 213.26 103.02C214.339 104.943 215.794 106.629 217.538 107.977C208.274 122.717 200.126 138.936 198.595 156.53C191.221 158.363 184.864 163.024 180.897 169.505C169.868 185.594 182.687 192.86 178.587 205.575C173.735 220.86 159.073 215.177 152.118 225.323C146.928 232.667 148.148 243.021 153.182 250.157C145.579 254.517 136.003 259.941 129.983 266.194C131.358 226.206 126.168 189.227 124.144 180.975C123.859 179.885 119.785 180.741 118.695 180.819C120.916 176.016 122.445 170.922 123.236 165.69C123.677 160.812 123.236 153.831 116.982 153.442C116.437 151.911 116.982 136.159 106.991 127.492C104.811 125.597 102.502 125.234 102.554 128.685C102.554 133.875 106.161 138.417 106.654 146.85C104.283 146.987 102.003 147.808 100.089 149.212C91.2915 146.928 81.7679 166.91 89.7086 168.389C88.6629 172.097 88.91 176.05 90.4092 179.599C89.7086 179.599 88.2035 179.028 87.8142 179.833C69.0524 216.422 42.6093 281.894 49.8494 322.169C58.2831 369.06 108.756 382.087 149.99 377.416C152.417 400.745 159.269 423.397 170.18 444.16C173.242 449.921 185.75 474.573 192.678 480.334C190.7 488.614 189.698 497.097 189.694 505.609C189.694 506.44 190.94 506.31 190.965 505.609C191.25 497.643 192.319 489.725 194.157 481.969C199.886 484.373 205.732 486.486 211.674 488.301C258.361 502.273 308.06 502.678 354.969 489.468C361.846 487.522 369.242 485.706 375.236 481.683C377.598 489.468 380.193 496.916 382.71 504.519C382.729 504.582 382.76 504.641 382.801 504.692C382.843 504.743 382.894 504.786 382.952 504.817C383.009 504.848 383.073 504.868 383.138 504.875C383.204 504.882 383.27 504.875 383.333 504.857C383.396 504.838 383.455 504.807 383.506 504.766C383.557 504.724 383.599 504.673 383.63 504.615C383.662 504.557 383.681 504.494 383.688 504.428C383.695 504.363 383.689 504.297 383.67 504.234C381.335 495.878 379.077 487.522 376.56 479.244C378.225 471.823 379.095 464.247 379.155 456.642C395.036 458.925 417.509 460.794 433.131 457.654C448.753 454.514 461.806 446.028 466.866 430.38C469.303 422.71 470.4 414.678 470.11 406.636ZM302.602 93.2637C307.377 102.294 308.675 115.503 307.17 125.442C306.19 132.956 303.165 140.056 298.424 145.968L295.829 145.242C302.239 124.482 296.374 100.737 278.132 87.9699C270.887 83.3525 262.784 80.2456 254.309 78.8355C269.542 70.0644 294.35 77.5899 302.602 93.2637ZM271.281 38.1977C272.786 58.7502 269.724 65.7566 260.901 74.5278C259.228 74.889 257.607 75.4555 256.074 76.2145C254.772 72.7558 252.904 69.5374 250.547 66.6909C252.752 54.8058 259.499 42.8168 271.281 38.1977ZM221.846 52.4443C221.846 52.081 221.846 52.1588 222.157 52.2367C239.777 56.2589 246.369 61.0856 254.491 77.0968C253.868 77.4879 253.286 77.9399 252.752 78.4462C247.742 77.4267 242.632 76.9741 237.52 77.0968C229.371 75.6696 223.169 59.84 221.846 52.4443ZM219.51 108.989C236.378 118.202 263.262 126.09 283.192 123.495C277.774 130.037 274.998 138.367 275.407 146.85C275.718 153.442 279.792 157.749 285.527 152.871C288.511 150.276 292.326 145.735 296.79 147.214C301.253 148.693 300.656 153.805 298.814 157.594C291.989 171.581 278.884 169.245 283.97 201.527C284.838 207.019 286.201 212.422 288.044 217.668C287.179 221.886 284.865 225.668 281.505 228.359C266.117 242.32 236.534 238.973 237.027 219.796C237.173 214.508 237.043 209.215 236.637 203.94C226.439 201.864 213.49 197.142 207.132 188.215C204.96 184.965 203.363 181.366 202.409 177.575C198.024 162.317 201.034 146.02 207.184 131.67C210.592 123.749 214.718 116.157 219.51 108.989ZM289.731 218.68C292.586 218.94 295.31 219.329 298.009 219.77C298.009 221.846 300.604 230.15 298.606 240.167C296.66 250.78 289.134 261.809 277.613 262.743C260.226 264.118 256.204 246.966 256.282 238.61C278.521 240.193 290.639 222.261 289.731 218.68ZM252.882 238.194C251.662 238.194 248.678 250.131 237.883 252.571C227.659 254.906 221.431 246.732 223.325 237.001C224.804 229.216 230.487 223.844 231.603 221.431L235.21 220.626C234.432 230.539 242.917 236.508 252.882 238.194ZM119.369 155.699C123.418 158.294 121.419 168.103 120.2 171.788C119.214 174.825 118.046 177.835 116.956 180.845C108.685 181.214 100.397 180.814 92.1998 179.651C91.0825 175.929 90.6948 172.025 91.058 168.155C92.2419 167.829 93.2717 167.093 93.9644 166.079C96.3777 168.908 99.9329 164.86 101.749 163.121L106.291 163.848C103.188 166.08 100.937 169.301 99.9069 172.982C99.916 173.096 99.9624 173.204 100.039 173.289C100.115 173.373 100.218 173.431 100.33 173.451C100.443 173.472 100.559 173.455 100.66 173.403C100.762 173.351 100.844 173.267 100.893 173.164C101.637 171.145 102.792 169.303 104.284 167.754C105.775 166.204 107.572 164.98 109.56 164.159C112.882 163.199 112.155 161.875 109.56 162.394C108.756 162.55 100.608 162.135 100.452 160.812C100.296 159.488 114.724 152.741 119.369 155.699ZM107.017 148.278V151.392C107.017 151.885 107.9 151.911 108.003 151.392C110.053 140.052 104.604 135.069 104.604 128.244C104.604 126.973 105.46 127.881 106.057 128.244C114.569 135.069 115.295 147.603 115.477 153.312C110.384 153.785 105.485 155.495 101.204 158.294C99.0246 159.488 97.2341 161.46 100.244 162.758C98.9987 163.666 95.8328 167.247 94.691 164.548C93.5492 161.85 97.7271 148.485 106.939 148.226L107.017 148.278ZM88.7225 165.119C88.2294 159.255 92.5112 151.236 98.6094 150.509C95.1321 153.909 92.0181 161.72 93.1859 165.145C92.1219 166.572 88.8522 168.493 88.6446 165.067L88.7225 165.119ZM89.0598 180.404C99.5696 183.466 111.896 182.428 122.795 182.091L124.897 196.778C110.918 197.911 96.8485 196.745 83.247 193.327C85.1154 188.967 87.0876 184.711 88.982 180.352L89.0598 180.404ZM462.74 435.752C450.803 421.972 438.009 443.537 448.908 449.869C439.644 455.24 428.823 456.901 418.261 457.187C380.063 458.225 339.918 448.701 305.431 432.482C307.195 411.722 302.343 395.581 295.31 384.968C324.452 377.52 346.899 375.652 374.977 373.991C375.444 373.991 375.548 373.16 374.977 373.134C369.536 372.879 364.083 372.974 358.654 373.42C358.161 371.11 341.216 353.906 324.919 318.925C324.66 318.38 323.803 318.639 324.037 319.21C332.255 337.742 342.657 355.227 355.021 371.292C355.566 372.019 356.137 372.745 356.76 373.446C328.191 375.057 299.962 380.449 272.812 389.483C271.566 389.924 272.423 391.196 273.149 391.767C269.267 391.966 265.419 392.602 261.679 393.661C259.966 392.701 254.283 392.312 250.08 388.237C244.89 383.047 244.474 395.192 251.092 398.046C233.394 407.726 229.397 422.206 234.535 421.661C235.781 421.531 236.767 420.312 237.65 419.455C239.181 418.028 240.764 416.627 242.269 415.122C234.873 430.692 242.606 435.466 244.708 428.097C246.116 423.162 248.802 418.686 252.493 415.122C248.081 423.737 251.974 434.402 255.763 431.522C257.89 429.861 257.112 421.142 264.508 417.016C265.338 416.575 266.22 416.289 267.103 415.874C269.464 418.832 277.197 422.855 285.942 422.829C286.202 423.426 286.228 423.711 286.591 423.945C314.532 440.33 345.37 451.176 377.416 455.889C377.351 463.742 376.482 471.568 374.821 479.244C367.425 484.226 350.324 488.404 341.32 490.429C306.678 498.139 270.816 498.599 235.989 491.778C227.97 490.195 198.491 483.63 193.794 478.18C184.997 467.982 181.053 458.795 174.435 447.04C161.227 423.555 151.937 392.934 151.573 365.972C151.041 344.981 156.515 324.273 167.351 306.287C172.441 298.727 177.951 291.458 183.855 284.515C184.27 284.048 183.544 283.399 183.155 283.866C173.216 295.155 164.626 305.379 158.658 319.34C151.333 336.936 148.377 356.043 150.042 375.029C117.838 379.103 81.4305 372.979 61.5009 344.771C70.0385 341.294 67.3137 322.688 52.8077 325.802C46.1904 299.852 56.5964 261.679 65.0561 237.572C70.2461 222.754 76.3703 208.326 82.8578 194.002C89.475 197.297 111.221 199.659 125.234 198.309C129.002 229.094 129.784 260.171 127.57 291.106C127.57 291.677 128.426 291.677 128.53 291.106C129.654 283.502 130.244 275.828 130.294 268.141C141.479 257.527 160.786 247.381 174.747 240.815C172.8 245.876 177.887 251.844 183.18 251.818C194.079 251.818 194.183 236.949 186.58 235.599C200.353 229.911 214.558 225.329 229.06 221.898C223.87 228.878 218.68 237.753 222.443 246.576C226.854 257.164 242.476 258.228 251.533 243.514C239.6 268.57 231.892 295.428 228.723 322.999C228.723 323.622 229.579 323.829 229.683 323.207C233.652 294.771 242.086 267.14 254.673 241.334C254.782 247.092 256.687 252.672 260.122 257.294C273.383 274.732 308.13 260.745 299.955 220.055C319.332 223.498 337.969 230.258 355.047 240.037C353.184 241.676 351.986 243.941 351.68 246.404C351.374 248.866 351.981 251.356 353.386 253.401C354.103 254.495 355.028 255.436 356.108 256.171C357.189 256.907 358.404 257.422 359.684 257.687C360.964 257.952 362.284 257.962 363.568 257.717C364.851 257.471 366.074 256.974 367.166 256.256C368.186 255.5 369.011 254.513 369.575 253.376C370.139 252.24 370.425 250.985 370.41 249.716C398.695 269.438 421.505 296.115 439.67 325.205C453.605 347.522 465.828 373.913 467.852 400.771C468.734 412.604 468.034 425.034 462.74 435.7V435.752ZM256.671 410.009L254.258 412.604C242.814 420.389 243.878 432.404 241.283 429.939C238.091 426.825 243.436 413.175 248.237 408.92C252.337 405.287 247.588 405.806 243.852 412.111L243.644 412.319C240.74 414.674 237.96 417.177 235.314 419.819C229.501 425.164 237.182 395.919 274.473 393.142C282.258 400.278 284.282 411.099 285.657 421.246C275.069 421.246 267.777 414.629 266.817 414.732C261.03 415.407 257.294 421.946 255.866 426.981C255.685 427.604 255.27 430.354 254.647 430.562C252.701 431.237 248.99 418.832 257.242 410.814C257.865 410.191 257.164 409.516 256.671 410.009ZM252.363 397.346C247.718 395.945 246.369 388.056 248.081 388.419C251.24 391.228 254.992 393.286 259.058 394.439C256.748 395.184 254.507 396.13 252.363 397.268V397.346ZM273.85 391.066C273.123 391.066 289.42 386.421 294.065 385.227C304.03 403.055 304.782 416.367 303.588 431.652L287.811 423.478C286.098 408.686 281.479 395.919 273.85 390.988V391.066Z" fill="#403939"/>
<path d="M114.026 343.371C117.244 349.781 132.191 347.575 131.698 337.688C131.023 323.52 106.527 328.502 114.026 343.371ZM102.193 223.716C102.582 209.936 85.9742 212.064 84.2356 225.636C83.3273 232.591 101.778 238.559 102.193 223.716ZM99.7796 260.772C96.3023 264.12 96.5618 275.304 106.293 275.045C123.083 274.63 110.731 250.263 99.7796 260.772ZM186.608 407.416C191.798 414.656 203.969 409.388 201.919 399.968C199.012 386.656 178.045 395.583 186.608 407.416ZM198.052 294.196C187.491 294.196 186.089 308.754 193.719 312.127C211.806 320.12 212.61 294.196 198.052 294.196ZM265.548 469.151C275.721 476.105 288.903 459.316 277.485 452.699C265.47 445.666 254.857 461.911 265.548 469.151Z" fill="#403939"/>
</svg>
