<svg width="144" height="71" viewBox="0 0 144 71" fill="none" xmlns="http://www.w3.org/2000/svg">
<path fill-rule="evenodd" clip-rule="evenodd" d="M25.8314 3.91649C23.4959 3.19953 4.38061 5.73827 1.75328 7.27798C-1.03754 18.6788 4.08868 64.7524 5.02285 68.8544L31.6932 68.1609C31.9501 61.7906 30.4321 23.4978 27.5829 9.3936C26.6488 4.72748 25.9481 4.17507 25.8314 3.91649ZM26.6955 3.6109C31.1678 10.663 32.4639 62.0256 32.0552 68.3608C32.0537 68.3839 32.0477 68.4066 32.0375 68.4274C32.0273 68.4482 32.0131 68.4668 31.9958 68.4821C31.9784 68.4974 31.9582 68.5091 31.9364 68.5165C31.9145 68.5239 31.8914 68.5269 31.8684 68.5253L4.78931 69.5361C4.38061 69.5361 4.31055 69.1952 3.79676 65.5634C2.24371 54.5974 -1.7732 17.6681 0.889169 6.97239C0.958845 6.76548 1.09964 6.59043 1.28619 6.47875C3.4698 5.03307 24.5352 1.94191 26.4035 3.18777C26.4815 3.23065 26.5484 3.29121 26.5991 3.36465C26.6498 3.43809 26.6828 3.5224 26.6955 3.6109ZM44.7715 24.8964C41.7238 33.2884 40.6495 58.7582 41.0699 67.5615L66.6543 67.9376C67.5068 61.8023 69.27 30.0327 66.1872 24.2735C65.6618 23.4037 45.7174 23.7916 44.7715 24.8964ZM67.0514 23.9679C70.1691 30.256 68.4643 61.8141 67.3433 68.3843C67.3267 68.4745 67.2789 68.5559 67.2084 68.614C67.1378 68.6721 67.0491 68.7031 66.9579 68.7016L40.9415 67.9259C40.6846 67.9259 40.6379 67.6791 40.5678 65.1638C40.3226 55.8786 40.8364 33.2531 43.9892 24.5086C44.1643 24.0267 45.0051 23.8504 45.5422 23.7446C49.6058 22.9218 62.579 22.5692 65.942 23.2157C66.3858 23.3332 66.9579 23.4978 67.028 23.9679H67.0514ZM140.523 13.9304C137.709 13.0959 121.583 13.5073 119.131 14.5886C115.826 23.8151 115.044 59.6749 115.336 69.5008C123.743 70.313 132.201 70.4466 140.628 69.9005C141.341 64.6819 143.186 28.7633 141.364 17.1039C141.254 16.0077 140.97 14.9363 140.523 13.9304ZM141.411 13.6719C144.587 20.2185 142.345 64.0002 141.271 70.2883C141.256 70.3648 141.218 70.4346 141.161 70.4874C141.104 70.5403 141.032 70.5735 140.955 70.5822C132.352 71.0741 123.723 70.8303 115.161 69.8534C114.39 69.6184 114.46 24.8964 118.337 14.2125C118.512 13.7189 119.353 13.5543 119.89 13.4485C123.907 12.6258 136.904 12.2732 140.29 12.9196C140.804 13.0019 141.434 13.19 141.458 13.6719H141.411ZM107.045 1.47177C104.71 0.46097 84.0999 0.872338 81.1339 2.21223C77.1637 13.0842 76.4631 58.2763 77.0002 69.5479L106.73 69.8417C107.676 63.1657 110.175 19.4781 108.085 5.39742C107.999 4.03268 107.646 2.69852 107.045 1.47177ZM107.956 1.26021C111.891 9.12328 108.505 63.5536 107.361 70.2413C107.347 70.3223 107.306 70.396 107.244 70.4497C107.182 70.5033 107.104 70.5336 107.022 70.5352L76.8718 69.9122C76.6032 69.9122 76.5565 69.6301 76.4514 65.6692C76.1595 53.857 76.2996 12.7786 80.3399 1.83612C80.4307 1.63508 80.5932 1.47569 80.7953 1.38949C83.2708 0.131873 105.866 -0.69087 107.652 0.801821C107.736 0.847439 107.808 0.913073 107.861 0.992983C107.914 1.07289 107.947 1.16465 107.956 1.26021Z" fill="#403939"/>
<path fill-rule="evenodd" clip-rule="evenodd" d="M9.51504 12.5085C7.91455 12.2145 6.26583 12.34 4.72745 12.8729C4.72803 14.294 4.84127 15.7128 5.06608 17.1159C6.59348 17.0732 8.11212 16.8683 9.59678 16.5047C9.68086 15.9959 9.71994 15.4807 9.71356 14.965C9.7319 14.2274 9.70461 13.4895 9.63182 12.7553C9.62014 12.5673 9.63181 12.5673 9.51504 12.5085ZM4.40049 12.7553C4.40049 12.7553 4.21366 15.106 4.27204 16.4694C4.33043 17.6448 4.33043 18.0326 6.91106 17.7506C8.00333 17.6512 9.08072 17.4264 10.1223 17.0806C10.3441 16.9396 10.3908 16.6222 10.4375 16.2461C10.5193 15.5644 10.6477 12.485 10.1573 12.0031C9.1297 11.0393 4.41217 12.2147 4.40049 12.7553ZM84.9488 9.48786C84.8321 10.8958 84.8321 12.3111 84.9488 13.7191H85.5443C86.8448 13.7347 88.1446 13.6522 89.4328 13.4723C89.6903 12.2153 89.8233 10.9358 89.8298 9.65241C89.1993 9.22929 85.6378 9.1 84.9488 9.48786ZM84.5868 9.35858C84.5868 9.35858 84.1665 11.7093 84.0964 13.0374C84.0263 14.3655 84.0964 14.6476 86.6303 14.6124C87.738 14.6263 88.8433 14.5079 89.9232 14.2598C90.1568 14.1305 90.2502 13.8366 90.3319 13.4253C90.4837 12.7318 90.9041 9.67592 90.4487 9.13526C89.5145 8.05394 84.6686 8.74739 84.5868 9.35858ZM97.7702 9.44085C97.6537 10.8488 97.6537 12.2641 97.7702 13.6721C97.9685 13.6858 98.1675 13.6858 98.3658 13.6721C99.6662 13.6877 100.966 13.6052 102.254 13.4253C102.518 12.1693 102.651 10.8891 102.651 9.6054C101.986 9.1235 98.4825 9.05298 97.7702 9.44085ZM97.4199 9.32332C97.1911 10.5403 97.0235 11.7681 96.9178 13.0021C96.9178 14.1775 96.9178 14.6006 99.4517 14.5771C100.559 14.5799 101.663 14.4616 102.745 14.2245C102.99 14.0952 103.072 13.8014 103.153 13.3783C103.305 12.6848 103.726 9.6289 103.27 9.08824C102.336 8.05394 97.49 8.71214 97.4199 9.32332ZM97.6418 21.9465C97.5309 23.3547 97.5309 24.7696 97.6418 26.1778H98.2373C99.5374 26.1953 100.837 26.1168 102.126 25.9427C102.388 24.6866 102.521 23.4065 102.523 22.1228C101.904 21.6292 98.3774 21.5587 97.6418 21.9465ZM97.2915 21.8173C97.0626 23.0342 96.895 24.2621 96.7894 25.4961C96.731 26.6714 96.7894 27.1063 99.3233 27.0711C100.431 27.0802 101.535 26.9619 102.616 26.7184C102.861 26.5892 102.943 26.2953 103.025 25.8839C103.177 25.1905 103.597 22.1346 103.142 21.5939C102.208 20.4891 97.3148 21.2061 97.3148 21.8173H97.2915ZM96.9645 35.4983C96.8922 36.9096 96.9312 38.3244 97.0813 39.7295H97.6768C98.9768 39.6969 100.273 39.5672 101.554 39.3417C101.771 38.073 101.853 36.7845 101.799 35.4983C101.203 35.0046 97.6885 35.0869 96.9645 35.4983ZM96.6025 35.3808C96.6025 35.3808 96.2756 37.7314 96.2522 39.0831C96.2289 40.4347 96.2522 40.6816 98.8445 40.5523C99.9529 40.518 101.054 40.3564 102.126 40.0704C102.359 39.9293 102.429 39.6355 102.499 39.2124C102.628 38.5189 102.92 35.4395 102.499 34.9224C101.472 33.9116 96.6609 34.7696 96.6025 35.3808ZM84.4701 48.9443C84.3919 50.3555 84.431 51.7708 84.5868 53.1755H85.1824C86.482 53.1367 87.7774 53.0071 89.0591 52.7876C89.265 51.5176 89.3472 50.2304 89.3044 48.9443C88.6738 48.4506 85.1473 48.5211 84.4701 48.9443ZM84.1081 48.8267C83.9285 50.054 83.8116 51.2897 83.7578 52.5291C83.7578 53.7044 83.7578 54.1275 86.3501 53.9982C87.4547 53.9649 88.5519 53.8032 89.6197 53.5164C89.8532 53.3753 89.9349 53.0815 90.005 52.6584C90.1218 51.9649 90.4254 48.8855 90.005 48.3683C88.9424 47.3105 84.1198 48.2155 84.073 48.8267H84.1081ZM84.5518 61.497C84.4793 62.9083 84.5184 64.3231 84.6686 65.7282C84.8669 65.7401 85.0658 65.7401 85.2641 65.7282C86.5645 65.6936 87.8605 65.56 89.1409 65.3286C89.3472 64.0626 89.4294 62.7792 89.3861 61.497C88.7906 61.0151 85.2758 61.0856 84.5518 61.497ZM84.1898 61.3912C84.1898 61.3912 83.8629 63.7419 83.8395 65.0818C83.8162 66.4217 83.8395 66.692 86.4318 66.5627C87.5397 66.5227 88.64 66.3611 89.7131 66.0808C89.9466 65.9398 90.0167 65.6342 90.0867 65.2228C90.2152 64.5294 90.5071 61.4499 90.0867 60.9328C89.0591 59.8632 84.2482 60.7682 84.1898 61.3912ZM96.7894 48.4741C96.7169 49.8854 96.7559 51.3003 96.9061 52.7054C97.1045 52.7173 97.3033 52.7173 97.5017 52.7054C98.8021 52.6707 100.098 52.5371 101.378 52.3058C101.596 51.0411 101.679 49.7565 101.624 48.4741C101.028 48.0157 97.5133 48.0157 96.7894 48.4741ZM96.4274 48.3683C96.4274 48.3683 96.1004 50.719 96.0771 52.0589C96.0537 53.3988 96.0771 53.6691 98.6694 53.5399C99.7773 53.4998 100.878 53.3383 101.951 53.058C102.184 52.9169 102.254 52.6231 102.324 52.2C102.453 51.5065 102.745 48.4271 102.324 47.91C101.297 46.8404 96.4858 47.7572 96.4274 48.3683ZM96.2522 62.0376C96.0968 63.4423 96.0578 64.8576 96.1354 66.2689H96.731C98.0297 66.3082 99.3295 66.2493 100.619 66.0926C100.902 64.8386 101.055 63.5584 101.075 62.2727C100.503 61.779 96.9879 61.6615 96.2522 62.0376ZM95.8902 61.9083C95.8902 61.9083 95.4348 64.259 95.3414 65.5754C95.248 66.8918 95.2713 67.1739 97.852 67.1856C98.9571 67.2135 100.062 67.1149 101.145 66.8918C101.39 66.7625 101.472 66.4687 101.577 66.0573C101.729 65.3639 102.196 62.3079 101.752 61.7673C100.818 60.6507 95.9836 61.2972 95.8902 61.9083ZM84.8204 21.6645C84.7095 23.0727 84.7095 24.4875 84.8204 25.8957H85.4159C86.716 25.9132 88.0157 25.8347 89.3044 25.6606C89.567 24.4045 89.7001 23.1244 89.7014 21.8408C89.1409 21.3471 85.556 21.2766 84.8204 21.6645ZM84.4701 21.5352C84.4701 21.5352 84.038 23.8859 83.968 25.214C83.8979 26.5421 83.9679 26.8242 86.5019 26.789C87.6096 26.8041 88.7151 26.6857 89.7948 26.4364C90.04 26.3071 90.1218 26.0132 90.2152 25.6019C90.3553 24.9084 90.7757 21.8525 90.3319 21.3119C89.3861 20.207 84.5401 20.9828 84.4701 21.5352ZM84.0147 35.2985C84.0153 36.7118 84.1285 38.1228 84.3533 39.518C84.5515 39.533 84.7506 39.533 84.9488 39.518C86.2468 39.4191 87.5352 39.2187 88.8023 38.9186C88.9252 37.6443 88.9252 36.3611 88.8023 35.0869C88.2301 34.5933 84.7153 34.8518 84.0147 35.2985ZM83.6527 35.2045C83.6527 35.2045 83.4425 37.5551 83.4892 38.9186C83.5359 40.282 83.5943 40.517 86.1632 40.2584C87.2625 40.1618 88.3475 39.941 89.3978 39.6002C89.6313 39.4475 89.6897 39.1536 89.7364 38.7305C89.8298 38.0253 89.9699 34.9459 89.4678 34.4522C88.4403 33.4414 83.676 34.5933 83.6527 35.2045ZM47.0334 30.4913C46.9224 31.9034 46.9224 33.3222 47.0334 34.7343H47.6289C48.9304 34.7308 50.23 34.6326 51.5174 34.4405C51.7553 33.1776 51.8687 31.8942 51.856 30.6088C51.3773 30.1387 47.7924 30.0799 47.0334 30.4913ZM46.6831 30.3738C46.6831 30.3738 46.2861 32.7245 46.2277 34.0644C46.1693 35.4043 46.2277 35.6628 48.785 35.6041C49.8941 35.5964 50.9988 35.4624 52.0779 35.2045C52.3115 35.0752 52.3932 34.7696 52.4749 34.37C52.615 33.6765 53.0004 30.5971 52.5333 30.0682C51.5758 28.9869 46.7532 29.7743 46.6831 30.3855V30.3738ZM58.3368 30.0682C58.2259 31.4764 58.2259 32.8912 58.3368 34.2994H58.944C60.2418 34.3017 61.5379 34.2035 62.8208 34.0056C63.0684 32.7439 63.1858 31.4599 63.1711 30.174C62.6807 29.7156 59.0958 29.6568 58.3368 30.0682ZM57.9748 29.9389C57.9748 29.9389 57.5895 32.2896 57.5311 33.6295C57.5311 34.8048 57.5311 35.2397 60.0884 35.1692C61.194 35.1681 62.2956 35.0339 63.3696 34.7696C63.6148 34.6403 63.6966 34.3347 63.7783 33.9351C63.9184 33.2416 64.2921 30.1622 63.7783 29.6333C62.8792 28.552 58.0449 29.3395 57.9748 29.9389ZM58.3718 42.5621C58.2666 43.9706 58.2666 45.3849 58.3718 46.7934H58.979C60.2769 46.7962 61.573 46.698 62.8558 46.4995C63.1029 45.2418 63.2203 43.9617 63.2061 42.6797C62.7157 42.2095 59.1308 42.139 58.3718 42.5621ZM58.0098 42.4446C58.0098 42.4446 57.6245 44.7953 57.5661 46.1234C57.5077 47.4516 57.5661 47.7336 60.1234 47.6631C61.2283 47.6601 62.3291 47.5299 63.4046 47.2753C63.6499 47.1342 63.7316 46.8404 63.8133 46.429C63.9535 45.7473 64.3271 42.6679 63.8133 42.139C62.9142 41.0459 58.0916 41.8334 58.0098 42.4446ZM46.4145 43.044C46.3036 44.4522 46.3036 45.8671 46.4145 47.2753H47.0101C48.3118 47.278 49.6118 47.1797 50.8985 46.9814C51.1359 45.7224 51.2493 44.443 51.2372 43.1616C50.7584 42.6914 47.1735 42.6326 46.4145 43.044ZM46.0642 42.9265C46.0642 42.9265 45.6672 45.2772 45.6088 46.6053C45.5504 47.9335 45.6088 48.2155 48.1661 48.145C49.2748 48.1413 50.3795 48.0112 51.459 47.7572C51.6926 47.6161 51.7743 47.3223 51.856 46.9109C51.9962 46.2174 52.3815 43.1498 51.9144 42.6209C50.9569 41.5278 46.1343 42.3153 46.0642 42.9265ZM46.6364 56.1256C46.5255 57.5338 46.5255 58.9487 46.6364 60.3569H47.2319C48.5337 60.3596 49.8337 60.2613 51.1204 60.063C51.3582 58.8002 51.4717 57.5167 51.459 56.2314C50.9803 55.773 47.3954 55.7143 46.6364 56.1256ZM46.2861 55.9963C46.2861 55.9963 45.8891 58.347 45.8307 59.6869C45.8307 60.8623 45.8307 61.2971 48.388 61.2266C49.4936 61.2255 50.5952 61.0914 51.6692 60.827C51.9144 60.6977 51.9962 60.3921 52.0779 59.9925C52.218 59.2991 52.6034 56.2197 52.0779 55.6907C51.1788 54.6094 46.3562 55.3969 46.2861 55.9963ZM57.7296 55.4792C57.6186 56.8913 57.6186 58.3101 57.7296 59.7222C57.9279 59.7341 58.1268 59.7341 58.3251 59.7222C59.6263 59.7206 60.9257 59.6263 62.2136 59.4401C62.4509 58.1771 62.5643 56.8938 62.5522 55.6085C62.0735 55.1266 58.4886 55.0678 57.7296 55.4792ZM57.3793 55.3616C57.3793 55.3616 56.9823 57.7123 56.9239 59.0522C56.8655 60.3921 56.9239 60.6507 59.4812 60.5919C60.5865 60.585 61.6874 60.451 62.7624 60.1923C63.0076 60.063 63.0894 59.7574 63.1711 59.3461C63.3112 58.6644 63.6966 55.585 63.1711 55.0561C62.2837 53.9747 57.4494 54.7622 57.3793 55.3616ZM122.339 20.5596C122.228 21.9718 122.228 23.3905 122.339 24.8026C123.839 24.8362 125.339 24.7418 126.823 24.5206C127.068 23.2585 127.185 21.9748 127.173 20.6889C126.718 20.2188 123.098 20.1483 122.339 20.5596ZM121.977 20.4421C121.767 21.6639 121.618 22.8957 121.533 24.1327C121.533 25.308 121.533 25.7312 124.09 25.6724C125.196 25.6655 126.297 25.5314 127.372 25.2728C127.617 25.1435 127.687 24.8379 127.769 24.4265C127.909 23.7331 128.294 20.6654 127.839 20.1365C126.881 19.0434 122.047 19.8074 121.977 20.4421ZM121.732 33.1123C121.615 34.5203 121.615 35.9356 121.732 37.3436C123.232 37.3831 124.732 37.2887 126.216 37.0615C126.451 35.8022 126.564 34.5229 126.554 33.2416C126.122 32.7362 122.491 32.7362 121.732 33.1123ZM121.381 32.9948C121.381 32.9948 120.984 35.3455 120.926 36.6736C120.867 38.0018 120.926 38.2839 123.483 38.2133C124.588 38.211 125.689 38.0809 126.764 37.8255C127.01 37.6844 127.091 37.3906 127.173 36.9792C127.313 36.2858 127.699 33.2181 127.231 32.6892C126.286 31.5609 121.44 32.3836 121.381 32.9948ZM121.194 45.383C121.083 46.7951 121.083 48.2138 121.194 49.626C122.698 49.6599 124.202 49.5655 125.69 49.3439C125.925 48.0806 126.039 46.7974 126.029 45.5122C125.585 45.0421 121.953 44.9716 121.194 45.383ZM120.832 45.2654C120.832 45.2654 120.447 47.6161 120.389 48.956C120.33 50.2959 120.389 50.5545 122.946 50.4957C124.051 50.4895 125.152 50.3554 126.227 50.0961C126.472 49.9668 126.554 49.6612 126.636 49.2616C126.776 48.5681 127.161 45.4887 126.636 44.9598C125.748 43.8785 120.902 44.666 120.832 45.2654ZM121.113 56.8426C120.996 58.2545 120.996 59.6737 121.113 61.0856C122.613 61.1191 124.113 61.0247 125.597 60.8035C125.838 59.5411 125.951 58.2573 125.935 56.9719C125.503 56.5017 121.837 56.4312 121.113 56.8426ZM120.762 56.7251C120.762 56.7251 120.365 59.0758 120.307 60.4156C120.249 61.7555 120.307 62.0141 122.864 61.9553C123.97 61.9492 125.071 61.8151 126.145 61.5557C126.391 61.4264 126.472 61.1208 126.554 60.7212C126.694 60.016 127.08 56.9484 126.613 56.4195C125.667 55.3381 120.821 56.1256 120.762 56.7251ZM131.984 56.7015C131.867 58.1095 131.867 59.5248 131.984 60.9328C133.484 60.9663 134.984 60.872 136.468 60.6507C136.703 59.3914 136.817 58.1122 136.807 56.8308C136.375 56.3607 132.743 56.2432 131.984 56.7015ZM131.634 56.584C131.634 56.584 131.237 58.9347 131.178 60.2628C131.12 61.591 131.178 61.8731 133.736 61.8026C134.84 61.8002 135.941 61.6701 137.017 61.4147C137.262 61.2737 137.344 60.9798 137.426 60.5684C137.566 59.875 137.951 56.8073 137.484 56.2784C136.538 55.1853 131.692 55.9728 131.634 56.584ZM132.253 44.7248C132.142 46.133 132.142 47.5478 132.253 48.956C133.752 48.9895 135.252 48.8952 136.737 48.6739C136.981 47.4158 137.099 46.136 137.087 44.854C136.631 44.3839 133.012 44.3134 132.253 44.7248ZM131.891 44.6072C131.681 45.8251 131.533 47.053 131.447 48.2861C131.447 49.4614 131.447 49.8963 134.004 49.8258C135.109 49.8227 136.21 49.6926 137.285 49.4379C137.531 49.2969 137.601 49.003 137.682 48.5916C137.823 47.8982 138.208 44.8305 137.752 44.3016C136.795 43.2086 131.961 43.996 131.891 44.6072ZM133.514 32.6304C133.403 34.0387 133.403 35.4535 133.514 36.8617C135.014 36.8952 136.514 36.8009 137.998 36.5796C138.243 35.3176 138.36 34.0338 138.348 32.748C137.939 32.2778 134.319 32.2073 133.514 32.6304ZM133.152 32.5012C132.942 33.7231 132.794 34.9548 132.708 36.1917C132.708 37.3671 132.708 37.802 135.265 37.7314C136.37 37.7284 137.471 37.5983 138.547 37.3436C138.792 37.2025 138.862 36.8969 138.944 36.4973C139.084 35.8039 139.469 32.7362 139.014 32.2073C138.103 31.1142 133.268 31.9017 133.198 32.5012H133.152ZM133.63 20.1365C133.52 21.5447 133.52 22.9595 133.63 24.3678C135.13 24.4013 136.63 24.3069 138.114 24.0857C138.356 22.8232 138.469 21.5395 138.453 20.254C138.021 19.8074 134.389 19.7134 133.63 20.1365ZM133.28 20.0072C133.28 20.0072 132.883 22.3579 132.825 23.6978C132.766 25.0377 132.825 25.2963 135.382 25.2375C136.491 25.2306 137.596 25.0965 138.675 24.8379C138.908 24.7086 138.99 24.403 139.072 24.0034C139.212 23.3099 139.597 20.2305 139.13 19.7016C138.185 18.6321 133.339 19.4078 133.28 20.0072ZM5.80174 24.9437C5.76311 26.3695 5.8373 27.7962 6.0236 29.2102C7.55057 29.2034 9.07276 29.038 10.566 28.7165C10.6667 28.2096 10.7175 27.6938 10.7178 27.1768C10.7665 26.394 10.7665 25.6089 10.7178 24.8261C10.6827 24.356 6.65416 24.3795 5.80174 24.9437ZM5.47478 24.8496C5.47478 24.8496 5.22956 27.2003 5.26459 28.552C5.29962 29.9036 5.26459 30.1152 7.8569 29.9036C8.95382 29.8326 10.0391 29.6354 11.0914 29.316C11.3133 29.1749 11.3717 28.8341 11.4184 28.4932C11.5235 27.8115 11.722 24.7321 11.2549 24.2385C10.2507 23.2159 5.49813 24.2737 5.47478 24.8496ZM10.7762 37.8607C9.24326 37.7618 7.70922 38.0359 6.30385 38.66C6.41263 40.0744 6.63522 41.4777 6.96944 42.856C8.48543 42.6908 9.98031 42.3678 11.4301 41.8922C11.4785 41.3801 11.4785 40.8646 11.4301 40.3525C11.3971 39.6307 11.3152 38.9121 11.1849 38.2016C11.1498 37.9195 11.1498 37.896 10.7762 37.8607ZM5.96521 38.6012C5.96521 38.6012 5.96522 40.9519 6.14037 42.3035C6.2805 43.4789 6.33888 43.855 8.86113 43.3731C9.94231 43.1849 10.9996 42.8775 12.0139 42.4563C12.2241 42.2918 12.2475 41.9744 12.2592 41.5983C12.2592 40.9166 12.1774 37.8255 11.6519 37.3906C10.5543 36.4738 5.95354 38.0253 5.96521 38.613V38.6012ZM12.516 51.5418C10.9752 51.3916 9.4211 51.6173 7.98535 52.2C8.04235 53.6188 8.21813 55.0303 8.51081 56.4195C10.0334 56.3011 11.5399 56.0254 13.0065 55.5967C13.0488 55.0844 13.0488 54.5694 13.0065 54.057C12.9925 53.3137 12.934 52.5719 12.8313 51.8356C12.8664 51.7533 12.9131 51.6476 12.516 51.5418ZM7.64671 52.1412C7.64671 52.1412 7.57665 54.4919 7.7051 55.8435C7.81019 57.0189 7.83354 57.4068 10.3908 57.0189C11.4795 56.8655 12.5484 56.5936 13.5787 56.2079C13.7772 56.0551 13.8122 55.726 13.8472 55.3499C13.8472 54.6682 13.8472 51.577 13.3685 51.1304C12.2942 50.1901 7.64671 51.6005 7.64671 52.1765V52.1412ZM17.5022 11.58C17.5124 12.9934 17.6295 14.4039 17.8525 15.7995C19.3518 15.7119 20.8405 15.4916 22.3014 15.1413C22.43 13.8634 22.43 12.5758 22.3014 11.2979C21.7993 10.8865 18.2261 11.1333 17.5022 11.58ZM17.1402 11.486C17.1402 11.486 16.9417 13.8366 17 15.2001C17.0584 16.5635 17.0935 16.7985 19.6741 16.5282C20.7738 16.4277 21.8588 16.2029 22.9086 15.8582C23.1422 15.7054 23.1889 15.3881 23.2473 14.9767C23.329 14.2833 23.4574 11.1921 22.9437 10.6985C21.9044 9.71118 17.1635 10.91 17.1402 11.5095V11.486ZM22.932 23.6625C21.4856 23.4427 20.0085 23.5552 18.6115 23.9916C18.5818 25.4064 18.6638 26.8212 18.8567 28.2229H19.4522C20.7524 28.1567 22.0451 27.9838 23.3173 27.7057C23.481 26.538 23.524 25.3564 23.4458 24.1797C23.4224 23.8271 23.5742 23.7801 22.932 23.6625ZM18.2612 23.8976C18.2612 23.8976 18.0043 26.2483 18.0276 27.6C18.051 28.9516 18.0977 29.1984 20.6666 28.9869C21.7718 28.9204 22.8653 28.7232 23.9245 28.3992C24.1581 28.2581 24.2165 27.9526 24.2865 27.5412C24.3799 26.836 24.5901 23.7448 24.0997 23.2512C23.0604 22.2169 18.2728 23.3335 18.2378 23.8976H18.2612ZM23.4925 37.0027C22.0315 36.8679 20.5591 37.0647 19.1836 37.5787C19.2437 38.9921 19.4116 40.3988 19.6858 41.7864C21.1775 41.6378 22.654 41.3626 24.0997 40.9636C24.1997 39.7891 24.1762 38.6072 24.0296 37.4376C23.9829 37.132 24.1347 37.0732 23.4925 37.0027ZM18.8217 37.5081C18.8217 37.5081 18.6932 39.8588 18.8217 41.2222C18.9501 42.5856 18.9735 42.8207 21.5424 42.3976C22.6396 42.2618 23.7173 41.9975 24.7536 41.6101C24.9755 41.4573 25.0222 41.1517 25.0572 40.7286C25.1156 40.0234 25.1389 36.9322 24.6252 36.4621C23.5042 35.5335 18.8217 36.9087 18.8217 37.5081ZM20.3981 50.1901C20.287 51.6022 20.287 53.021 20.3981 54.4331C21.8247 54.4679 23.2515 54.3696 24.6602 54.1393H24.882C25.113 52.8797 25.2187 51.6001 25.1973 50.3194C24.7069 49.7905 21.1454 49.7788 20.3981 50.1901ZM20.0361 50.0726C20.0361 50.0726 19.6624 52.4233 19.6157 53.7632C19.569 55.1031 19.6157 55.3734 22.1847 55.2911C23.2906 55.2736 24.3912 55.1317 25.4659 54.868C25.7111 54.727 25.7812 54.4331 25.8629 54.0218C26.003 53.3283 26.3534 50.2489 25.8629 49.72C24.9171 48.6269 20.1061 49.4849 20.0361 50.0726Z" fill="#403939"/>
</svg>
