<svg width="115" height="80" viewBox="0 0 115 80" fill="none" xmlns="http://www.w3.org/2000/svg">
<path d="M107.298 42.0008C113.31 37.2913 111.633 31.7968 108.07 30.7666C109.857 29.5401 110.078 29.442 109.882 29.1476C109.849 29.0992 109.8 29.0647 109.743 29.0511C109.686 29.0375 109.627 29.0457 109.576 29.0741C104.568 29.5769 103.026 23.1381 107.849 19.2011C107.863 19.1875 107.874 19.1712 107.881 19.1533C107.889 19.1354 107.893 19.1163 107.893 19.0969C107.893 19.0775 107.889 19.0584 107.881 19.0405C107.874 19.0226 107.863 19.0063 107.849 18.9927C107.864 18.9532 107.864 18.9095 107.849 18.87C107.825 18.8404 107.792 18.8188 107.755 18.8079C107.718 18.7969 107.678 18.7972 107.641 18.8087L96.8795 18.1341C97.7487 17.619 97.9936 17.5822 98.0303 17.1898C98.0671 16.7973 96.304 15.902 97.1855 13.167C97.5142 12.0064 97.9916 10.8934 98.6058 9.85561C101.936 8.16311 101.838 8.12632 101.789 7.94236C101.763 7.85059 101.715 7.76671 101.649 7.69821C101.582 7.62972 101.5 7.57875 101.409 7.54988C92.7535 6.93666 63.5657 5.55077 63.4555 5.63663C43.8664 13.7435 24.0447 23.4324 23.053 24.2664C20.7758 26.1306 20.3472 29.8345 20.3717 31.1468C7.34496 41.1791 7.24702 41.3263 6.67159 42.4423C6.24005 43.305 6.11767 44.2901 6.32497 45.2324C6.53228 46.1747 7.05666 47.0169 7.81021 47.618C10.871 49.8869 14.2746 47.5076 17.213 50.8558C17.7377 51.4307 18.1215 52.1202 18.334 52.8695C18.5465 53.6189 18.5819 54.4075 18.4373 55.1729C13.4176 57.7116 10.014 58.3003 10.7975 58.8522C16.3315 60.9495 14.7643 66.8977 9.97725 68.2591C9.92915 68.2707 9.88634 68.2982 9.85572 68.3371C9.82511 68.3761 9.80846 68.4242 9.80846 68.4737C9.80846 68.5233 9.82511 68.5714 9.85572 68.6103C9.88634 68.6493 9.92915 68.6768 9.97725 68.6884C10.1731 68.6884 66.296 73.0791 70.7158 73.4838C72.2833 73.6814 73.8753 73.4963 75.3559 72.9441C76.2252 72.5762 103.576 54.5474 105.119 53.4927C107.568 51.837 110.016 49.7152 110.469 46.6C110.69 44.7971 109.723 42.9575 107.298 42.0008ZM12.0219 58.9013C12.1443 58.9013 74.2296 63.8071 74.4622 63.9052C74.9179 63.9958 75.3495 64.1813 75.7292 64.4496C76.1088 64.7179 76.428 65.0631 76.6659 65.4628C78.0127 68.2959 76.3599 72.1469 71.7687 72.9932C70.4586 72.9196 18.9025 68.8846 11.0179 68.3082C15.2418 66.3336 16.2947 61.3665 12.0219 58.9013ZM15.5724 49.0039C63.529 52.4011 70.4342 52.6832 70.6668 52.6832C71.7279 52.9633 72.6842 53.5479 73.4182 54.365C74.1521 55.1821 74.6318 56.1963 74.7983 57.2828C74.9648 58.3693 74.8107 59.4808 74.3552 60.4809C73.8996 61.4809 73.1623 62.3258 72.2339 62.9118C70.5443 62.7891 23.1754 59.2324 16.4661 58.7051C19.7473 56.8163 19.9799 51.3464 15.5724 49.0039ZM97.3325 17.1162C96.2918 17.7294 66.1123 35.6478 65.1818 36.1261C63.1739 36.2365 61.0681 34.0167 61.766 30.6807C62.7577 25.9344 64.2146 26.4127 97.9936 10.0396C96.6468 12.3453 95.2144 15.5341 97.3325 17.0794V17.1162ZM65.8307 24.9777H65.7573C28.2563 24.9777 25.2078 23.9107 22.5265 25.4928C23.7508 23.8126 23.555 24.2664 46.1681 14.0255C55.2404 9.90466 62.2679 6.66685 63.3086 6.23759C72.7236 7.03478 96.451 7.85651 100.687 8.07727C97.2468 9.7575 67.4468 24.0702 65.8307 24.9409V24.9777ZM38.4917 25.4193C46.462 25.64 56.3667 25.9098 65.0104 25.591C61.2273 27.5655 59.2684 33.8204 63.4433 36.3714C29.0032 35.5497 23.555 37.7205 21.4002 33.7591C20.8705 32.7277 20.6494 31.5651 20.7635 30.4109C21.6695 24.4136 22.5633 24.9655 38.4917 25.3825V25.4193ZM25.5016 36.4573C25.7955 36.6045 63.4555 36.9724 65.0104 36.9724C65.1696 36.9724 84.2445 25.5787 96.0347 18.5757C96.9774 18.686 104.874 19.103 106.968 19.1766C103.43 21.4946 74.0337 40.2102 71.5605 42.3933C61.4109 41.6697 11.8627 40.6272 11.728 40.6272C10.3414 40.535 8.95533 40.8144 7.71226 41.4367C8.55704 40.5904 16.6865 34.3846 20.2615 31.6251C20.5799 34.8997 23.2611 36.8375 25.5016 36.4695V36.4573ZM108.633 29.6873C104.813 32.1402 74.6825 51.4322 73.2746 52.3153C71.2789 51.5426 69.8465 50.635 69.6016 47.9369C69.0874 42.381 73.1889 42.2584 106.515 19.9247C102.732 23.8617 104.617 29.5278 108.633 29.6995V29.6873ZM74.1316 61.8816C76.2007 58.9994 75.5641 54.3512 72.1482 52.6832C73.3725 52.6832 71.4871 54.3021 89.8274 42.3565C97.2835 37.6347 106.38 31.8704 107.556 31.0609C108.257 31.2253 108.903 31.5695 109.431 32.0598C109.959 32.5501 110.351 33.1695 110.567 33.8572C112.11 38.5545 106.588 42.0376 102.487 44.8339C95.7531 49.4577 78.7963 59.3428 74.1316 61.8816ZM71.5973 52.1804C37.5489 49.9237 10.7731 48.2557 9.68342 47.9859C9.07414 47.8936 8.49645 47.6542 8.00026 47.2881C7.50408 46.9221 7.10431 46.4406 6.83551 45.8852C6.56671 45.3297 6.43695 44.7171 6.45745 44.1001C6.47796 43.4832 6.6481 42.8806 6.95318 42.3442C7.40618 42.4792 6.95318 41.1178 11.728 41.0442C14.0175 41.0442 65.0227 42.4669 71.181 42.6999C67.9855 46.0849 68.7446 50.4879 71.5973 52.2294V52.1804ZM15.3887 58.5947C14.042 58.5088 12.9401 58.4598 11.8994 58.4107C13.4911 57.8343 16.7967 56.4484 18.119 55.7616C17.5917 57.0247 16.6203 58.0502 15.3887 58.6437V58.5947ZM73.3113 62.9854C84.8021 56.6919 95.9623 49.8106 106.747 42.3688C107.47 42.7735 109.674 44.1103 109.869 45.4594C110.151 47.3849 108.706 49.3841 108.07 50.1567C107.176 51.2483 77.8535 70.7488 76.0783 71.8771C75.4319 72.2845 74.7191 72.5751 73.9724 72.7356C78.4657 70.9082 79.641 64.0033 73.3113 63.0344V62.9854Z" fill="#403939"/>
</svg>
