<svg width="102" height="114" viewBox="0 0 102 114" fill="none" xmlns="http://www.w3.org/2000/svg">
<path d="M27.6474 57.3404C27.8804 57.5268 79.3259 50.9152 81.5531 49.6116C81.6767 49.525 81.7763 49.4085 81.8426 49.2729C81.9089 49.1374 81.9396 48.9872 81.932 48.8365C81.9774 46.4898 79.3292 24.4011 77.962 18.879C77.7931 18.2024 77.6242 17.5258 77.2104 17.2812C74.4595 15.5538 25.238 23.8463 22.2727 25.6815C22.1924 25.7269 22.1226 25.7887 22.0679 25.8629C22.0131 25.9371 21.9747 26.022 21.955 26.1121C21.2939 28.3012 26.0859 56.2183 27.6474 57.3404ZM23.0562 26.5702C26.5795 25.0551 71.2503 17.7665 76.3315 18.5017C77.5069 21.709 80.3666 45.0938 80.5188 48.518C77.9758 49.2149 28.3503 56.7534 28.1677 56.7863C27.9851 56.8192 27.9627 57.0371 27.6028 55.8837C26.0949 51.0503 22.8857 30.6795 23.0562 26.5702Z" fill="#403939"/>
<path d="M85.5283 51.3072C85.6309 51.1253 85.6791 50.9178 85.6673 50.7094C85.7232 47.817 82.1967 15.6298 80.7728 13.0364C80.661 12.845 80.5004 12.6867 80.3076 12.5775C80.1147 12.4683 79.8964 12.4121 79.6748 12.4146C73.5952 11.5509 21.9934 20.598 18.5645 22.8792C18.0852 23.1975 18.1421 24.0175 18.1798 24.8917C18.3783 29.6816 22.9359 61.2518 24.7585 61.1051C24.9586 61.109 24.8887 60.9621 24.3971 61.917C21.4463 67.7014 15.7001 86.2976 15.7365 90.0652C15.7058 91.6478 16.0299 93.7105 17.5964 93.6316C28.847 92.4661 84.0435 84.7988 99.9326 81.8487C100.554 81.7333 100.965 81.1771 100.964 80.249C100.808 78.6998 100.368 77.1925 99.6674 75.8019C97.5286 71.5933 88.6431 54.916 85.5283 51.3072ZM24.8786 60.5433C23.4949 58.6968 18.8803 27.2528 19.3477 23.7861C23.3898 21.7897 74.2958 12.9657 79.5921 13.8688C80.9699 17.899 84.1764 46.8772 84.3457 50.3563C77.8632 52.451 33.1378 58.7923 24.8786 60.5433ZM25.6684 61.1045C27.2038 60.7521 79.4167 53.0452 84.207 51.8822C86.7615 54.3519 98.1086 75.4806 98.8381 77.2781C88.3613 78.8952 26.221 88.0479 17.0806 89.2541C17.3145 83.7447 23.3445 64.5899 25.6684 61.1045Z" fill="#403939"/>
<path d="M32.1454 80.101C33.7326 79.8952 67.3912 76.5063 79.5882 73.4484C79.6633 73.4305 79.7283 73.3835 79.7688 73.3178C79.8094 73.252 79.8221 73.1729 79.8042 73.0977C79.7864 73.0226 79.7394 72.9576 79.6737 72.917C79.6079 72.8765 79.5287 72.8638 79.4536 72.8816C77.0611 73.3267 47.917 76.6392 32.1199 79.5364C32.0766 79.5278 32.0319 79.5291 31.9891 79.5403C31.9464 79.5515 31.9068 79.5722 31.8732 79.601C31.8397 79.6298 31.8132 79.6658 31.7956 79.7063C31.7781 79.7469 31.77 79.7909 31.772 79.835C31.774 79.8791 31.786 79.9222 31.8071 79.961C31.8282 79.9999 31.8579 80.0333 31.8939 80.059C31.9299 80.0846 31.9712 80.1017 32.0148 80.109C32.0583 80.1163 32.103 80.1136 32.1454 80.101Z" fill="#403939"/>
</svg>
