<svg width="131" height="68" viewBox="0 0 131 68" fill="none" xmlns="http://www.w3.org/2000/svg">
<path d="M35.7723 58.1142C34.3775 51.4715 33.4455 44.7383 32.983 37.9639C49.9974 41.0358 68.6017 43.2622 70.7494 42.4731C73.3155 41.543 86.2018 37.9921 99.2555 34.0184C99.1161 42.8958 98.5861 48.6168 98.5303 50.4204M98.5303 50.4204L101.738 33.2575C110.221 30.8436 118.525 27.83 126.59 24.2392C128.041 23.4783 130.272 22.2382 130.3 20.6882C130.3 14.0654 73.0366 -1.23753 65.9798 0.425224C65.7288 -0.363877 12.8168 19.0537 4.61641 27.3392C4.43629 27.5056 4.29243 27.708 4.19402 27.9336C4.0956 28.1593 4.04477 28.4031 4.04477 28.6497C4.04477 28.8963 4.0956 29.1401 4.19402 29.3657C4.29243 29.5914 4.43629 29.7938 4.61641 29.9602C3.75841 34.1532 3.91147 38.4933 5.06268 42.614C4.20052 42.6802 3.3756 42.9965 2.68702 43.5248C1.99844 44.0532 1.47547 44.7712 1.18093 45.5926C0.886384 46.414 0.832795 47.3038 1.0266 48.1552C1.2204 49.0066 1.65334 49.7834 2.27344 50.3923C-0.51581 54.3096 -0.0974219 62.5951 1.96662 66.8507C1.97104 66.922 1.99119 66.9914 2.02561 67.0538C2.06002 67.1162 2.10782 67.1701 2.1655 67.2114C2.22318 67.2528 2.28929 67.2806 2.35897 67.2928C2.42866 67.305 2.50016 67.3013 2.56824 67.2819C2.63633 67.2626 2.69926 67.2281 2.75245 67.181C2.80563 67.1339 2.84771 67.0753 2.8756 67.0097C2.90349 66.944 2.9165 66.8729 2.91365 66.8015C2.91081 66.7301 2.8922 66.6602 2.85918 66.597C2.55379 61.4191 2.68442 56.2242 3.24967 51.0686C3.79858 51.348 4.39477 51.5201 5.0069 51.5759C3.88183 56.4818 4.19193 61.6123 5.89946 66.3434C5.92496 66.4472 5.98412 66.5395 6.06753 66.6054C6.15094 66.6713 6.25379 66.7071 6.35969 66.7071C6.46558 66.7071 6.56843 66.6713 6.65184 66.6054C6.73525 66.5395 6.79441 66.4472 6.81991 66.3434C7.26619 58.4524 6.40152 58.7624 6.31784 51.7168C10.1112 51.2941 6.1226 48.194 10.2507 65.8079C10.2334 65.8785 10.2322 65.9522 10.2472 66.0233C10.2622 66.0944 10.2931 66.1612 10.3374 66.2184C10.3818 66.2757 10.4385 66.3221 10.5032 66.3539C10.5679 66.3858 10.6389 66.4023 10.7109 66.4023C10.7829 66.4023 10.8539 66.3858 10.9186 66.3539C10.9834 66.3221 11.04 66.2757 11.0844 66.2184C11.1287 66.1612 11.1596 66.0944 11.1746 66.0233C11.1897 65.9522 11.1885 65.8785 11.1711 65.8079C11.603 60.6333 10.9764 55.4243 9.33023 50.505C9.74046 50.1494 10.0811 49.7192 10.3344 49.2368C12.2032 50.9277 11.7848 56.8178 14.0998 65.8361C14.1253 65.9399 14.1845 66.0322 14.2679 66.0981C14.3513 66.164 14.4542 66.1998 14.5601 66.1998C14.666 66.1998 14.7688 66.164 14.8522 66.0981C14.9356 66.0322 14.9948 65.9399 15.0203 65.8361C15.0203 61.0733 15.1876 49.7722 10.6691 48.2504C10.7818 47.6023 10.7545 46.9373 10.5891 46.3009C10.4238 45.6644 10.1242 45.0716 9.71095 44.5631C9.2977 44.0545 8.78053 43.6422 8.19487 43.3545C7.60922 43.0667 6.96892 42.9102 6.31784 42.8958C6.57405 39.2555 6.57405 35.6014 6.31784 31.9611C6.1226 30.2984 4.83955 33.032 32.2578 38.0485C32.4531 41.1767 32.7878 45.9113 33.2062 50.1668L35.7723 58.1142C56.2723 52.8073 77.3691 50.2209 98.5303 50.4204ZM8.99552 45.7422C10.0554 50.6741 1.24142 50.2795 3.08232 46.1649C3.27607 45.7703 3.55866 45.4271 3.90742 45.1628C4.25619 44.8985 4.66141 44.7205 5.09057 44.6431C6.70834 44.2485 8.29821 44.2203 8.99552 45.7422ZM6.06681 28.6356C13.3467 21.7591 58.672 2.9898 66.0356 1.32705C72.6461 -0.0538741 120.956 14.0372 127.873 20.6882C123.131 25.6201 75.3517 38.3021 69.9963 40.2185C67.1234 41.2612 12.231 33.5675 6.06681 28.6356Z" stroke="#403939" stroke-width="0.6"/>
<path d="M66.7725 18.5498C67.7066 18.5503 68.6049 18.6217 69.3135 18.875C70.0146 19.1257 70.5045 19.5435 70.6826 20.2363L70.6904 20.2666L70.7061 20.2949C71.1593 21.1204 71.1276 21.8182 70.8252 22.377C70.5151 22.9499 69.8986 23.4151 69.1162 23.71C67.542 24.3032 65.4485 24.1529 64.2305 22.9941C63.8622 22.5931 63.6366 22.123 63.5703 21.6348C63.5036 21.1432 63.5997 20.6438 63.8525 20.1885C64.1059 19.7323 64.5091 19.335 65.0244 19.0439C65.539 18.7533 66.1432 18.5815 66.7725 18.5498Z" stroke="#403939" stroke-width="0.5"/>
</svg>
