<svg width="347" height="482" viewBox="0 0 347 482" fill="none" xmlns="http://www.w3.org/2000/svg">
<path fill-rule="evenodd" clip-rule="evenodd" d="M140.927 203.988C140.572 204.672 139.532 211.593 143.614 211.593C144.327 211.594 145.016 211.339 145.556 210.873C146.096 210.408 146.451 209.763 146.554 209.058C147.416 201.301 142.346 201.326 140.927 203.988ZM177.684 203.886C177.912 206.574 178.216 208.956 180.904 208.956C181.617 208.958 182.306 208.702 182.846 208.237C183.386 207.771 183.741 207.127 183.844 206.421C183.899 204.79 183.72 203.16 183.312 201.58C181.842 198.867 177.304 199.526 177.684 203.886ZM159.939 228.375C160.725 228.375 167.544 228.045 169.141 226.803C169.623 226.448 169.572 225.763 169.572 225.13C169.42 217.939 168.725 210.77 167.493 203.684C167.493 203.303 167.164 203.227 166.961 203.278C166.758 203.329 166.657 203.684 166.682 204.292C166.682 206.371 166.505 207.081 167.24 218.716C167.722 226.321 167.519 224.192 167.671 225.459C165.294 226.33 162.853 227.017 160.37 227.513C158.722 227.868 159.888 228.375 159.939 228.375ZM167.95 245.917C166.069 246.925 163.995 247.521 161.866 247.666C161.758 247.666 161.655 247.709 161.579 247.785C161.503 247.861 161.46 247.964 161.46 248.071C161.46 248.179 161.503 248.282 161.579 248.358C161.655 248.434 161.758 248.477 161.866 248.477C163.057 248.905 164.329 249.06 165.588 248.928C166.847 248.797 168.06 248.383 169.136 247.718C170.213 247.053 171.126 246.153 171.807 245.087C172.488 244.02 172.92 242.813 173.07 241.557C173.084 241.505 173.087 241.451 173.079 241.398C173.072 241.346 173.054 241.295 173.027 241.249C173 241.203 172.964 241.163 172.922 241.131C172.879 241.099 172.83 241.076 172.779 241.062C172.727 241.049 172.674 241.046 172.621 241.053C172.568 241.061 172.517 241.079 172.471 241.106C172.425 241.133 172.385 241.169 172.353 241.211C172.321 241.254 172.298 241.302 172.285 241.354C171.258 243.224 169.765 244.796 167.95 245.917ZM54.331 50.4175C60.846 72.1932 83.8891 71.1285 86.5762 72.7509C86.5762 73.0044 91.849 93.3097 93.9784 96.0982C95.1699 97.6446 98.0344 97.0362 99.9357 96.6813C104.397 95.794 109.569 95.5152 113.346 92.4985C114.309 91.7127 113.751 88.5186 113.498 87.4285C112.691 82.8705 111.573 78.373 110.152 73.9677C109.593 72.6386 109.119 71.2754 108.732 69.8863C110.481 68.3367 112.384 66.9692 114.411 65.805C117.755 63.5263 120.731 60.7477 123.232 57.5662C128.073 50.4752 130.261 41.9058 129.412 33.3622C128.564 24.8187 124.734 16.8469 118.593 10.8462C99.8089 -7.58327 65.8399 -1.57532 54.8127 21.6706C51.0355 29.7319 51.7707 41.9506 54.331 50.4175ZM112.18 91.2817C108.808 93.9942 103.84 94.3491 99.5047 95.2363C98.3386 95.4898 95.5755 96.1743 94.8403 95.2363C93.406 93.1658 92.374 90.8439 91.7983 88.3918C98.3648 87.4664 104.787 85.7117 110.912 83.1697C111.741 85.7945 112.168 88.5293 112.18 91.2817ZM110.633 82.1304C104.156 83.3376 97.7948 85.1017 91.6209 87.4032C90.9661 84.461 90.1193 81.5649 89.0859 78.7335C95.6353 78.0475 102.059 76.4609 108.174 74.0184C109.197 76.6981 110.044 79.4417 110.709 82.2318L110.633 82.1304ZM56.4097 22.4565C67.0314 0.503385 99.5047 -5.04827 117.25 12.3165C123.017 17.9735 126.625 25.4691 127.449 33.5058C128.273 41.5425 126.262 49.6143 121.762 56.3241C117.376 62.5095 108.504 66.7683 107.135 68.9991C106.653 69.7849 107.541 71.7876 108.098 73.2072C105.208 73.7649 102.04 74.4493 99.2005 75.0831C98.44 71.6101 94.891 57.5916 93.5728 54.2961C93.0658 52.9779 92.6095 53.0793 91.266 53.4595C83.8638 53.4595 75.7264 51.5836 73.1154 44.6124C72.7999 43.7952 72.5788 42.9447 72.4563 42.0774C72.1014 38.427 74.9913 34.1682 78.1854 34.4724C77.7291 37.2609 78.1854 42.5844 80.5683 44.1814C82.9512 45.7785 85.6383 43.2435 85.6383 40.962C85.5031 39.3168 84.9683 37.7294 84.0803 36.3378C83.1923 34.9462 81.9781 33.7924 80.5429 32.9767C80.9414 32.0717 81.532 31.2642 82.2736 30.6102C83.0153 29.9562 83.8903 29.4713 84.8381 29.1891C85.7858 28.907 86.7836 28.8343 87.7622 28.9762C88.7408 29.1181 89.6769 29.4711 90.5055 30.0108C88.5028 33.9147 90.5055 42.8632 94.0545 40.7592C97.6035 38.6551 96.4374 33.4837 94.2319 30.6192C93.1672 29.2249 92.9391 29.6052 93.4714 29.1996C97.6035 26.1829 102.293 29.6812 104.271 34.2696C107.11 40.5817 101.026 48.3642 97.1725 50.7217C97.0784 50.7789 97.0108 50.8711 96.9847 50.978C96.9585 51.085 96.9759 51.198 97.0331 51.2921C97.0902 51.3862 97.1824 51.4538 97.2894 51.4799C97.3964 51.5061 97.5093 51.4887 97.6035 51.4315C102.319 48.6684 108.276 40.531 105.563 33.6865C102.851 26.842 96.0318 24.2056 91.7223 28.287C90.6371 27.5424 89.3988 27.0509 88.0985 26.8484C86.7982 26.646 85.469 26.738 84.2089 27.1174C82.9488 27.4969 81.79 28.1543 80.8177 29.0411C79.8454 29.9279 79.0844 31.0216 78.591 32.2416C73.8759 31.6332 69.8959 37.1341 70.4283 42.1281C70.7146 44.3353 71.549 46.4358 72.8552 48.2379C74.1614 50.0401 75.8979 51.4866 77.9065 52.4455C80.2894 53.5863 88.7563 55.665 92.1025 54.7017C93.2686 57.2367 97.5021 72.1171 98.2626 75.2352C87.0072 77.7702 89.2887 78.9616 88.731 77.3139C88.0719 75.2605 87.6663 72.2439 87.1086 72.0411C73.1154 68.8723 60.4911 66.5401 55.776 49.9359C53.4691 41.8999 52.8607 29.9854 56.4097 22.4565ZM79.9345 34.9794C80.8951 35.661 81.6978 36.5412 82.2883 37.5603C82.8788 38.5794 83.2432 39.7136 83.3568 40.8859C83.3568 41.5704 81.8104 43.4209 80.8218 41.3929C80.0649 39.3452 79.7958 37.1493 80.0359 34.9794H79.9345ZM91.8997 31.1008C93.9277 33.0781 95.1952 37.6918 92.9898 39.0354C92.2253 37.879 91.7304 36.5655 91.5418 35.1922C91.3531 33.8188 91.4754 32.4206 91.8997 31.1008ZM15.8497 127.862C26.1672 124.642 38.6647 127.431 43.4812 138.838C51.8214 158.155 29.7669 167.991 29.995 169.005C30.502 171.54 31.4146 175.976 31.7949 178.536C31.8251 178.752 31.9396 178.946 32.1131 179.077C32.2866 179.207 32.505 179.264 32.7201 179.234C32.9353 179.203 33.1296 179.089 33.2603 178.915C33.3911 178.742 33.4475 178.523 33.4173 178.308C33.1131 175.773 32.7835 172.123 32.4286 169.486C36.0128 168.049 39.3293 166.018 42.2391 163.479C60.1362 142.362 40.1604 115.719 14.6329 124.059C10.5908 125.238 7.01571 127.645 4.40377 130.948C1.79183 134.25 0.272525 138.284 0.0566578 142.489C-0.754542 152.477 7.20536 161.096 20.0578 159.98C20.2515 159.946 20.427 159.845 20.5535 159.694C20.68 159.543 20.7493 159.353 20.7493 159.156C20.7493 158.96 20.68 158.769 20.5535 158.619C20.427 158.468 20.2515 158.367 20.0578 158.332C8.65031 158.916 2.54096 150.727 3.63101 142.869C3.88353 139.417 5.19116 136.125 7.37674 133.441C9.56232 130.757 12.5202 128.809 15.8497 127.862ZM205.189 61.7236C205.404 61.7808 205.633 61.7501 205.826 61.6384C206.018 61.5267 206.158 61.343 206.216 61.1279C206.273 60.9128 206.242 60.6837 206.13 60.4912C206.019 60.2987 205.835 60.1584 205.62 60.1012C194.643 57.0085 191.475 47.2995 195.024 40.1761C196.406 36.9947 198.733 34.3153 201.69 32.5014C204.646 30.6875 208.089 29.8269 211.552 30.0361C230.615 30.5178 238.98 48.06 231.832 60.5829C227.091 69.1512 220.754 71.458 212.642 72.5227C212.386 72.5587 212.148 72.6772 211.965 72.8601C211.782 73.043 211.664 73.2805 211.628 73.5367C211.349 75.8689 210.741 80.4573 210.284 83.119C210.241 83.3308 210.283 83.5513 210.402 83.7319C210.52 83.9126 210.706 84.0386 210.918 84.0823C211.13 84.126 211.35 84.0838 211.531 83.965C211.712 83.8461 211.838 83.6604 211.881 83.4486C212.464 80.7108 213.25 77.4913 213.783 74.7789C217.634 74.5718 221.422 73.7147 224.987 72.2439C233.581 67.1739 238.803 59.1633 238.119 49.0233C236.521 25.2196 201.792 16.702 191.804 38.8833C187.926 47.9079 192.641 58.8844 205.189 61.7236ZM346.033 180.666C345.743 175.967 344.067 171.459 341.217 167.712C338.475 164.627 335.131 162.136 331.391 160.392C327.65 158.648 323.592 157.689 319.467 157.572C315.267 157.377 311.111 158.493 307.573 160.763C304.036 163.034 301.291 166.348 299.719 170.247C295.739 179.449 300.53 190.172 313.028 193.214C313.139 193.264 313.26 193.289 313.382 193.288C313.504 193.286 313.625 193.258 313.735 193.205C313.845 193.152 313.942 193.075 314.019 192.981C314.096 192.886 314.152 192.776 314.182 192.657C314.212 192.539 314.216 192.415 314.193 192.295C314.17 192.175 314.122 192.062 314.05 191.963C313.979 191.863 313.887 191.781 313.78 191.721C313.674 191.662 313.555 191.626 313.433 191.617C302.533 188.322 299.288 178.942 302.862 171.692C304.245 168.51 306.572 165.831 309.529 164.017C312.485 162.203 315.928 161.343 319.391 161.552C322.906 161.65 326.366 162.459 329.559 163.932C332.753 165.405 335.615 167.51 337.972 170.12C340.347 173.219 341.757 176.948 342.028 180.843C343.828 203.202 319.746 203.278 319.517 205.053C319.213 207.588 318.655 212.049 318.174 214.635C318.13 214.847 318.172 215.067 318.291 215.248C318.41 215.428 318.596 215.554 318.808 215.598C319.019 215.642 319.24 215.6 319.42 215.481C319.601 215.362 319.727 215.176 319.771 214.964C320.379 212.252 321.14 209.007 321.672 206.295C325.53 206.078 329.325 205.221 332.902 203.76C341.369 198.791 346.718 190.907 346.033 180.666ZM43.0756 197.752C44.1657 193.239 40.8955 188.499 37.6507 188.879C35.5463 188.652 33.4271 188.592 31.3132 188.702C25.8123 190.02 23.2266 197.219 28.398 200.743C34.3299 204.698 42.0109 201.96 43.0756 197.752ZM39.1464 197.245C38.2461 197.996 37.1434 198.463 35.9776 198.588C29.0824 199.552 27.6121 193.518 32.2512 191.541L37.7014 190.527C40.059 190.73 40.5913 195.774 39.1464 197.118V197.245ZM208.18 92.8027C202.274 90.648 195.885 97.315 200.068 102.943C204.251 108.57 212.54 108.57 214.923 104.819C217.306 101.067 215.861 95.3884 212.667 94.6786C212.388 94.5519 210.183 93.5379 208.18 92.8027ZM211.374 102.943C210.24 103.329 209.026 103.415 207.849 103.193C206.672 102.971 205.572 102.448 204.657 101.675C203.908 101.137 203.292 100.435 202.857 99.6219C202.122 97.5685 204.758 95.4645 206.685 95.3377L212.16 96.1236C214.29 97.2643 213.225 102.233 211.374 103.019V102.943ZM320.481 226.347C319.974 226.118 317.363 225.028 316.019 224.521C310.087 222.367 303.724 229.034 307.907 234.661C312.09 240.289 320.354 240.289 322.762 236.537C325.17 232.785 323.7 227.056 320.481 226.347ZM319.188 234.737C318.053 235.121 316.84 235.206 315.663 234.984C314.486 234.762 313.387 234.24 312.47 233.47C311.727 232.915 311.113 232.206 310.67 231.391C309.96 229.363 312.571 227.259 314.498 227.132L319.974 227.918C322.103 228.983 321.038 233.926 319.188 234.737Z" fill="#403939"/>
<path fill-rule="evenodd" clip-rule="evenodd" d="M299.772 366.177C294.702 341.233 274.98 302.802 251.303 292.992L246.537 283.029C246.503 282.957 246.454 282.893 246.393 282.841C246.332 282.79 246.261 282.752 246.184 282.73C246.107 282.708 246.026 282.704 245.947 282.716C245.868 282.728 245.793 282.757 245.726 282.801L240.656 286.071C239.046 275.311 234.129 265.318 226.587 257.477C231.859 249.339 240.301 246.855 249.021 246.475C256.246 246.17 261.57 245.74 265.752 239.554C274.042 227.335 272.09 215.421 262.356 204.064C247.526 186.775 241.695 191.947 234.471 182.39C220.731 164.442 217.613 137.901 197.383 124.085C171.526 106.568 157.584 120.688 152.159 125.048C144.225 120.232 126.53 121.905 118.925 128.42C112.461 133.946 103.893 141.095 100.572 149.08C93.4992 165.938 94.2597 185.888 83.9169 201.174C81.3819 204.977 77.047 207.537 73.9797 211.137C69.7695 216.416 66.188 222.166 63.3073 228.273C59.5555 235.371 56.691 243.255 60.1132 250.607C64.7016 260.443 74.9683 269.822 85.9195 269.112C92.257 268.681 100.648 264.879 106.605 267.388C110.154 268.859 111.523 272.281 114.21 275.145C120.294 281.914 134.49 283.967 142.349 279.278C133.704 290.279 120.522 289.899 97.5298 302.574C62.2426 321.992 49.3648 344.047 45.5877 366.634C44.1428 373.661 43.0766 380.761 42.3936 387.902C40.2135 424.736 51.3928 471.431 87.6433 479.162C97.5805 481.292 108.963 482.661 118.798 480.202C137.431 475.563 159.663 463.014 175.988 452.824C183.593 448.083 211.732 429.096 224.812 426.612C225.599 433.377 227.305 440.004 229.882 446.309C240.352 467.831 257.108 480.557 280.582 475.03C295.792 471.456 300.127 455.257 300.533 439.743C308.163 423.367 302.104 378.092 299.772 366.177ZM212.061 247.489C216.573 248.325 219.666 252.559 223.012 256.006C231.859 264.853 237.943 274.334 239.769 286.426C232.443 291.091 227.677 294.031 227.575 294.183C227.474 294.335 223.95 285.362 221.821 284.271C218.635 282.69 215.745 280.572 213.278 278.01C211.377 275.906 209.044 272.205 209.349 269.416C210.696 268.7 212.167 268.244 213.684 268.073V266.501C205.85 266.729 203.163 273.878 202.453 275.475C201.946 276.616 201.237 277.757 199.614 277.579C197.992 277.402 197.409 275.526 198.017 273.853C198.626 272.18 200.096 264.828 210.464 263.231C210.594 263.213 210.719 263.169 210.832 263.102C210.945 263.036 211.043 262.948 211.122 262.843C211.201 262.738 211.259 262.619 211.291 262.492C211.324 262.365 211.332 262.233 211.313 262.103C211.295 261.973 211.251 261.848 211.185 261.735C211.118 261.622 211.03 261.524 210.925 261.445C210.82 261.366 210.701 261.308 210.574 261.276C210.447 261.243 210.315 261.235 210.185 261.254C208.015 261.53 205.912 262.191 203.974 263.206C202.233 264.056 200.687 265.259 199.434 266.738C198.182 268.218 197.25 269.941 196.699 271.799C195.482 275.272 191.223 273.726 192.237 270.735C193.258 267.825 194.776 265.114 196.724 262.724C198.888 260.661 201.487 259.111 204.329 258.186C206.56 257.274 208.461 257.705 208.968 256.97C209.475 256.234 208.284 253.775 207.676 253.04C204.405 249.136 195.001 252.508 191.401 248.148C189.094 245.283 193.936 245.182 195.888 244.928C201.363 244.32 206.56 246.449 212.061 247.489ZM221.365 310.306C214.118 312.668 206.726 314.556 199.234 315.959C201.769 301.535 203.493 289.164 203.239 284.677C209.146 285.818 215.914 286.629 223.317 287.846C225.319 291.167 226.409 293.955 226.891 294.741L221.973 297.859C221.719 298.189 221.77 296.82 221.365 310.306ZM193.834 383.542C194.957 388.41 195.753 393.347 196.217 398.321C185.824 397.662 177.889 397.789 173.985 397.637C174.138 390.513 174.214 388.308 174.34 386.812C180.738 385.191 187.258 384.097 193.834 383.542ZM153.959 321.105C168.34 321.208 182.702 320.037 196.876 317.607C192.364 341.943 185.494 371.197 182.25 377.052C174.797 356.722 175.557 356.646 153.959 321.105ZM184.379 376.723C188.486 367.521 194.722 340.067 198.879 317.201C206.446 315.783 213.908 313.852 221.212 311.421C220.427 338.799 220.198 372.971 221.846 400.425C217.03 399.994 210.033 399.386 203.239 398.854C202.808 394.747 201.11 380.449 199.665 376.698C199.285 375.684 198.828 375.278 197.13 375.227C192.891 375.413 188.671 375.913 184.506 376.723H184.379ZM193.429 280.013C190.861 278.512 188.81 276.266 187.548 273.574C188.721 274.069 189.945 274.434 191.198 274.664C191.673 275.199 192.286 275.593 192.97 275.803C193.654 276.013 194.383 276.031 195.077 275.855C196.217 275.5 195.482 275.348 196.091 276.945C196.324 277.589 196.718 278.162 197.234 278.611C197.751 279.06 198.373 279.37 199.043 279.512C199.712 279.655 200.407 279.624 201.062 279.423C201.716 279.222 202.308 278.858 202.783 278.365C203.772 277.478 203.848 276.413 205.039 274.132C206.205 273.903 207.346 273.599 208.461 273.27C211.478 281.179 220.934 285.007 221.593 285.59C210.464 283.942 200.603 282.903 193.556 280.013H193.429ZM144.833 276.971C150.917 269.923 149.675 264.879 143.413 259.885C130.738 249.948 132.31 252.609 126.987 241.506C120.725 223.482 126.125 195.09 130.764 176.61C132.031 171.54 140.676 166.115 146.962 166.926C155.683 168.042 152.032 172.63 159.485 175.241C160.779 175.619 162.117 175.824 163.465 175.85C163.545 175.875 163.629 175.883 163.712 175.876C163.796 175.868 163.877 175.845 163.951 175.806C164.025 175.767 164.091 175.714 164.145 175.65C164.198 175.585 164.239 175.511 164.264 175.431C164.289 175.351 164.298 175.267 164.29 175.184C164.283 175.101 164.259 175.02 164.22 174.945C164.181 174.871 164.128 174.805 164.064 174.752C164 174.698 163.925 174.658 163.845 174.633C159.892 172.261 156.247 169.409 152.996 166.14C154.542 159.828 158.471 156.381 165.848 156.33C170.918 156.33 174.923 160.183 178.523 163.479C182.883 167.459 187.573 178.207 187.218 184.114C186.416 190.958 188.021 197.868 191.756 203.659C194.291 208.069 199.057 211.897 201.896 215.624C203.467 217.702 202.555 226.98 201.642 231.062C200.451 234.636 197.916 241.455 197.333 243.002C186.736 243.382 187.193 249.06 192.263 251.494C187.522 257.172 175.937 263.484 184.227 271.444C186.001 275.171 188.841 280.266 192.643 281.813C195.341 282.906 198.133 283.755 200.983 284.348C201.541 288.277 199.716 301.281 196.927 316.415C182.378 318.836 167.642 319.947 152.894 319.736C143.743 304.754 134.642 290.558 132.335 288.277C137.457 285.673 141.809 281.775 144.96 276.971H144.833ZM127.544 290.33C132.614 288.429 130.079 288.758 131.296 289.696C132.513 290.634 140.878 303.892 150.587 319.635C139.078 319.457 126.125 318.595 121.232 318.038C122.702 316.872 118.9 296.845 117.43 294.31C121.105 292.84 124.502 291.547 127.671 290.33H127.544ZM115.554 295.096C117.638 302.56 119.055 310.196 119.787 317.911C108.849 316.343 98.1188 313.563 87.7954 309.621C96.6417 303.963 105.973 299.102 115.68 295.096H115.554ZM117.861 478.376C108.354 480.759 97.2256 479.365 87.6433 477.312C72.6615 474.092 62.2933 464.079 55.5502 451.252C44.8272 430.972 41.6331 400.831 44.9032 379.714C45.5623 375.481 46.3989 371.298 47.1087 367.039C51.1393 342.881 65.817 324.679 86.2998 310.914C106.402 318.291 119.914 320.877 151.5 321.054C173.377 356.544 173.859 360.093 180.12 377.458C178.194 377.813 169.27 379.613 167.749 380.855C167.141 381.337 167.141 382.3 167.749 397.535C144.681 397.992 122.119 401.591 100.901 415.28C98.3664 397.003 101.282 391.477 107.188 381.007C116.466 364.555 114.793 361.513 108.937 352.159C107.972 350.896 107.281 349.445 106.909 347.9C106.909 347.292 104.374 346.455 107.949 352.742C113.019 361.969 114.388 364.149 105.414 379.993C98.848 391.603 96.1609 397.561 100.116 415.813C98.341 417.004 96.313 418.348 94.3611 419.919C91.379 422.019 88.5804 424.368 85.9956 426.941C85.9452 427.039 85.9355 427.152 85.9688 427.257C86.0021 427.361 86.0755 427.449 86.173 427.499C86.2705 427.549 86.384 427.559 86.4886 427.526C86.5932 427.492 86.6803 427.419 86.7307 427.322C87.5166 425.927 100.623 417.182 104.146 415.382C123.818 405.47 145.568 396.902 181.185 399.259C180.736 414.33 182.296 429.394 185.824 444.053C167.521 455.612 141.512 472.495 117.987 478.376H117.861ZM187.396 443.039C184.139 428.743 182.699 414.093 183.111 399.437C221.593 401.972 209.526 401.16 221.948 401.972C222.404 409.374 223.088 417.41 224.102 424.787C214.165 426.637 196.293 437.538 187.522 443.039H187.396ZM279.517 473.205C257.133 478.503 241.239 466.285 231.15 445.599C219.996 422.784 221.846 323.691 222.48 298.442L245.65 284.094C276.932 351.652 280.684 358.04 287.706 380.424C296.781 408.943 308.746 466.462 279.644 473.205H279.517ZM299.95 434.42C299.362 420.845 297.271 407.378 293.713 394.265C285.678 363.009 276.982 347.342 252.925 296.769L253.635 296.389C274.878 307.746 292.877 343.007 297.592 366.558C300.178 378.852 305.121 419.057 300.076 434.42H299.95Z" fill="#403939"/>
</svg>
