<svg width="286" height="286" viewBox="0 0 286 286" fill="none" xmlns="http://www.w3.org/2000/svg">
<path d="M125.051 213.33C132.073 207.839 130.114 201.432 125.952 200.231C128.04 198.801 128.298 198.687 128.069 198.343C128.031 198.287 127.973 198.247 127.907 198.231C127.841 198.215 127.771 198.224 127.711 198.258C121.863 198.844 120.061 191.336 125.695 186.746C125.711 186.73 125.724 186.711 125.732 186.69C125.741 186.669 125.745 186.647 125.745 186.624C125.745 186.602 125.741 186.58 125.732 186.559C125.724 186.538 125.711 186.519 125.695 186.503C125.713 186.457 125.713 186.406 125.695 186.36C125.666 186.325 125.627 186.3 125.584 186.287C125.541 186.275 125.495 186.275 125.452 186.288L112.882 185.502C113.897 184.901 114.183 184.858 114.226 184.401C114.269 183.943 112.21 182.899 113.24 179.71C113.624 178.357 114.181 177.059 114.898 175.849C118.788 173.876 118.674 173.833 118.616 173.619C118.586 173.512 118.53 173.414 118.453 173.334C118.375 173.254 118.279 173.195 118.173 173.161C108.063 172.446 73.9719 170.83 73.8432 170.93C50.9632 180.383 27.8115 191.68 26.6532 192.652C23.9934 194.826 23.4929 199.144 23.5215 200.674C8.30629 212.372 8.19189 212.543 7.51979 213.845C7.01575 214.85 6.87281 215.999 7.11494 217.098C7.35707 218.196 7.96955 219.178 8.84969 219.879C12.4247 222.525 16.4001 219.75 19.8321 223.654C20.4449 224.325 20.8932 225.129 21.1414 226.002C21.3896 226.876 21.4309 227.795 21.2621 228.688C15.3991 231.648 11.4237 232.334 12.3389 232.978C18.8025 235.423 16.9721 242.359 11.3808 243.946C11.3246 243.96 11.2746 243.992 11.2388 244.037C11.2031 244.082 11.1836 244.138 11.1836 244.196C11.1836 244.254 11.2031 244.31 11.2388 244.356C11.2746 244.401 11.3246 244.433 11.3808 244.447C11.6096 244.447 77.1608 249.566 82.3231 250.038C84.154 250.268 86.0134 250.052 87.7428 249.409C88.7581 248.98 120.704 227.959 122.506 226.729C125.366 224.798 128.226 222.324 128.755 218.692C129.013 216.59 127.883 214.445 125.051 213.33ZM13.7689 233.035C13.9119 233.035 86.4272 238.755 86.6989 238.87C87.2312 238.975 87.7353 239.191 88.1787 239.504C88.6222 239.817 88.9949 240.22 89.2729 240.686C90.8459 243.989 88.9154 248.479 83.5529 249.466C82.0228 249.38 21.8055 244.675 12.5963 244.003C17.5298 241.701 18.7596 235.909 13.7689 233.035ZM17.9159 221.495C73.929 225.456 81.9942 225.785 82.2659 225.785C83.5052 226.112 84.6222 226.793 85.4795 227.746C86.3368 228.699 86.8971 229.881 87.0915 231.148C87.2859 232.415 87.106 233.711 86.5739 234.877C86.0418 236.043 85.1807 237.028 84.0963 237.711C82.1229 237.568 26.7962 233.421 18.9598 232.806C22.7922 230.604 23.0639 224.226 17.9159 221.495ZM113.411 184.315C112.196 185.03 76.9463 205.922 75.8595 206.48C73.5143 206.609 71.0547 204.02 71.8698 200.131C73.0281 194.597 74.7298 195.154 114.183 176.064C112.61 178.752 110.937 182.47 113.411 184.272V184.315ZM76.6174 193.481H76.5316C32.7307 193.481 29.17 192.237 26.0383 194.082C27.4683 192.123 27.2395 192.652 53.6516 180.711C64.2479 175.907 72.4561 172.131 73.6716 171.631C84.6683 172.56 112.382 173.519 117.329 173.776C113.311 175.735 78.505 192.423 76.6174 193.438V193.481ZM44.6855 193.996C53.9948 194.254 65.5635 194.568 75.6593 194.196C71.2406 196.499 68.9526 203.792 73.8289 206.766C33.603 205.808 27.2395 208.339 24.7227 203.72C24.104 202.518 23.8458 201.162 23.9791 199.816C25.0373 192.824 26.0812 193.467 44.6855 193.953V193.996ZM29.5132 206.866C29.8564 207.038 73.8432 207.467 75.6593 207.467C75.8452 207.467 98.1246 194.182 111.895 186.017C112.997 186.145 122.22 186.632 124.665 186.717C120.533 189.42 86.1984 211.242 83.3098 213.787C71.4551 212.944 13.583 211.728 13.4257 211.728C11.8061 211.621 10.1872 211.946 8.73529 212.672C9.72199 211.685 19.2172 204.449 23.3928 201.232C23.7646 205.05 26.8963 207.309 29.5132 206.88V206.866ZM126.61 198.973C122.149 201.833 86.9563 224.326 85.3118 225.356C82.9809 224.455 81.3078 223.397 81.0218 220.251C80.4212 213.773 85.2117 213.63 124.136 187.59C119.718 192.18 121.92 198.787 126.61 198.987V198.973ZM86.3128 236.51C88.7295 233.15 87.9859 227.73 83.9962 225.785C85.4262 225.785 83.224 227.673 104.645 213.744C113.354 208.239 123.979 201.518 125.352 200.574C126.171 200.766 126.925 201.167 127.542 201.739C128.159 202.31 128.616 203.033 128.87 203.835C130.671 209.311 124.222 213.373 119.432 216.633C111.567 222.024 91.7611 233.55 86.3128 236.51ZM83.3527 225.199C43.5844 222.568 12.3103 220.623 11.0376 220.308C10.326 220.201 9.65122 219.921 9.07167 219.495C8.49213 219.068 8.02521 218.506 7.71125 217.859C7.39729 217.211 7.24573 216.497 7.26968 215.777C7.29363 215.058 7.49235 214.355 7.84869 213.73C8.37779 213.887 7.84869 212.3 13.4257 212.214C16.0998 212.214 75.6736 213.873 82.8665 214.145C79.1342 218.092 80.0208 223.225 83.3527 225.256V225.199ZM17.7014 232.678C16.1284 232.578 14.8414 232.52 13.6259 232.463C15.4849 231.791 19.3459 230.175 20.8903 229.374C20.2745 230.847 19.1398 232.043 17.7014 232.735V232.678ZM85.3547 237.797C98.7759 230.459 111.811 222.436 124.408 213.759C125.252 214.231 127.826 215.789 128.054 217.362C128.383 219.607 126.696 221.938 125.952 222.839C124.908 224.112 90.66 246.849 88.5865 248.165C87.8315 248.64 86.999 248.978 86.1269 249.166C91.375 247.035 92.7478 238.984 85.3547 237.854V237.797Z" fill="#403939"/>
<path fill-rule="evenodd" clip-rule="evenodd" d="M232.667 111.02C232.895 111.492 233.768 111.635 234.34 111.735C239.001 112.564 259.207 112.993 261.152 111.32C262.854 109.89 261.91 86.5239 260.251 85.5801C258.106 84.3074 234.711 84.0643 233.081 85.3656C231.894 86.3523 231.151 107.717 232.667 111.02ZM233.439 85.6659C234.74 84.5791 257.591 85.3942 259.651 86.3952C260.752 89.341 261.467 107.845 260.394 110.476C258.65 111.678 237.271 111.635 233.539 110.476C232.08 106.973 232.624 86.3523 233.439 85.6659ZM175.795 83.1634C175.229 84.1336 174.463 84.9727 173.548 85.6259C172.634 86.279 171.592 86.7312 170.49 86.9529C170.456 86.9443 170.421 86.9435 170.387 86.9506C170.353 86.9576 170.321 86.9724 170.293 86.9938C170.266 87.0152 170.243 87.0426 170.228 87.074C170.213 87.1053 170.205 87.1397 170.205 87.1746C170.205 87.2095 170.213 87.2439 170.228 87.2752C170.243 87.3065 170.266 87.3339 170.293 87.3553C170.321 87.3767 170.353 87.3915 170.387 87.3986C170.421 87.4057 170.456 87.4049 170.49 87.3962C173.007 88.054 176.282 85.766 176.282 83.2492C176.293 83.1848 176.278 83.1184 176.241 83.0648C176.203 83.0111 176.146 82.9746 176.081 82.9632C176.017 82.9518 175.951 82.9665 175.897 83.0041C175.843 83.0416 175.807 83.0989 175.795 83.1634ZM164.112 70.3649V71.7949C164.112 71.9846 164.188 72.1664 164.322 72.3005C164.456 72.4346 164.638 72.5099 164.827 72.5099C165.016 72.5063 165.196 72.4298 165.329 72.2965C165.462 72.1632 165.539 71.9834 165.542 71.7949V70.3649C165.542 70.1753 165.467 69.9934 165.333 69.8593C165.199 69.7253 165.017 69.6499 164.827 69.6499C164.638 69.6499 164.456 69.7253 164.322 69.8593C164.188 69.9934 164.112 70.1753 164.112 70.3649ZM178.369 71.7234C178.369 71.9131 178.445 72.0949 178.579 72.229C178.713 72.3631 178.895 72.4384 179.084 72.4384C179.274 72.4384 179.456 72.3631 179.59 72.229C179.724 72.0949 179.799 71.9131 179.799 71.7234V69.9502C179.799 69.7606 179.724 69.5787 179.59 69.4446C179.456 69.3106 179.274 69.2352 179.084 69.2352C178.895 69.2352 178.713 69.3106 178.579 69.4446C178.445 69.5787 178.369 69.7606 178.369 69.9502C178.312 70.5651 178.369 71.2801 178.369 71.7234Z" fill="#403939"/>
<path fill-rule="evenodd" clip-rule="evenodd" d="M261.277 175.171C261.184 175.011 261.051 174.878 260.891 174.784C259.661 174.184 252.969 174.484 251.582 174.541C251.825 137.032 232.062 113.638 203.377 106.931C198.114 105.701 198.1 105.615 197.957 105.701L196.984 103.027C199.73 102.941 201.975 100.825 204.492 101.254C206.394 101.568 207.352 103.256 209.225 103.971C212.4 105.172 218.048 103.327 219.779 100.31C220.665 98.737 219.879 97.1068 220.436 96.02C221.437 95.1477 224.283 93.7463 225.098 92.731C226.771 90.6432 226.843 85.9671 226.085 83.436C224.717 80.5718 222.853 77.9721 220.579 75.7569C218.106 73.3739 215.914 70.7159 214.044 67.8347C211.742 63.2444 211.656 56.8952 209.754 52.1047C207.658 47.7793 204.413 44.1136 200.374 41.5084C196.428 38.7217 191.672 37.3189 186.846 37.5187C182.341 37.8047 180.582 39.7209 178.48 40.3787C176.378 41.0365 175.935 40.3787 172.517 41.8802C171.16 42.7071 169.952 43.756 168.942 44.9833C168.513 45.4409 168.542 45.4695 167.812 45.4981C167.027 45.4391 166.238 45.4391 165.453 45.4981C164.114 45.7953 162.833 46.3123 161.663 47.0282C153.698 51.8044 155.843 61.414 152.84 68.4782C150.795 73.283 145.104 77.9019 144.618 82.9212C144.446 85.2291 144.942 87.5377 146.048 89.5707C149.523 95.6768 154.513 90.8863 157.102 94.6186C157.917 95.7912 158.532 96.9352 160.048 97.164C161.978 97.4214 164.609 95.8913 166.182 94.7616C166.513 95.147 166.887 95.4925 167.298 95.7912C168.692 96.731 170.189 97.5082 171.759 98.1078L168.127 103.184C161.32 102.412 150.867 104.614 144.132 106.688C143.889 104.972 141.772 90.8005 140.171 90.1141C137.954 89.1417 114.688 91.8444 113.272 93.3745C112.228 94.4899 114.102 115.725 116.132 118.9C116.433 119.386 117.462 119.401 118.034 119.415C114.688 121.703 111.456 124.019 110.298 124.863C109.397 121.746 104.664 105.258 102.919 102.555C102.419 101.769 101.961 101.783 99.6587 102.555C98.3464 96.0075 96.6852 89.5347 94.6823 83.1643C95.4333 81.9297 96.0334 80.6095 96.4698 79.2318C97.0027 77.0498 97.0806 74.7815 96.6986 72.568C98.4432 73.1543 108.868 76.0143 110.555 75.1849C111.009 74.8616 111.345 74.4 111.513 73.8693C113.358 69.8367 116.518 56.0658 116.761 51.7043C116.862 51.1459 116.766 50.5699 116.49 50.0741C114.817 48.3295 92.3085 41.8516 90.4066 42.7096C89.2483 43.2387 86.1166 53.5204 85.7877 54.7359C83.0564 63.9022 84.4435 61.8859 82.9277 62.415C81.1831 63.0299 79.6816 66.705 79.0667 68.4067C78.4518 70.1084 77.8083 72.3964 78.5376 73.7406C78.2414 74.2873 78.1223 74.9125 78.1965 75.5298C78.2708 76.1471 78.5349 76.7261 78.9523 77.1869C78.4975 77.6939 78.2011 78.3228 78.0994 78.9961C77.9978 79.6695 78.0954 80.3579 78.3803 80.9764C78.795 82.2777 81.3833 83.1357 82.6703 83.5075C81.6541 86.2458 80.8088 89.0444 80.1392 91.8873C78.9985 96.2988 78.0868 100.766 77.4079 105.272C76.9849 107.462 76.8455 109.697 76.9932 111.922L74.648 112.98C74.5578 113.021 74.4814 113.088 74.4281 113.171C74.3749 113.255 74.3469 113.353 74.3477 113.452C74.3477 113.452 74.791 130.783 80.4967 145.183C87.3893 162.615 98.7292 168.45 115.989 161.929C116.145 163.297 116.481 164.639 116.99 165.918C117.248 166.376 118.12 166.462 118.706 166.519C123.783 166.685 128.865 166.528 133.921 166.047L138.211 193.217C137.053 196.563 123.911 234.687 124.097 238.234C124.097 238.605 124.24 238.891 124.855 239.177C128.645 240.936 164.552 245.627 165.911 241.708C166.254 240.75 167.083 234.644 167.24 233.486L187.446 231.255L206.708 232.528C206.916 234.456 207.26 236.368 207.738 238.248C207.91 238.677 208.11 238.906 208.61 238.863C210.512 238.677 220.651 236.846 223.454 236.317C234.207 234.287 233.964 234.115 233.65 233.057C232.892 230.554 225.856 211.035 223.111 201.926C227.127 202.354 231.178 202.354 235.194 201.926C235.238 202.081 235.319 202.222 235.432 202.337C235.544 202.452 235.684 202.537 235.838 202.584C238.454 203.542 261.835 202.212 263.751 200.296C265.481 198.766 262.579 177.344 261.277 175.171ZM90.4352 43.3245C90.5925 43.0814 90.5353 42.9813 91.7937 43.1672C97.0418 43.9108 114.202 49.4449 115.689 50.7462C115.975 54.0209 111.728 71.996 110.055 74.1696C108.839 74.5843 100.774 72.5251 99.53 72.1962C90.0634 69.7223 90.4352 69.3362 88.2759 68.8357C87.1605 68.4496 87.0461 68.4353 87.0747 68.278C87.0782 68.2426 87.0948 68.2098 87.1213 68.186C87.1477 68.1622 87.1821 68.1492 87.2177 68.1493C88.5047 68.1493 91.951 68.0492 92.7947 67.0482C92.9809 66.8447 93.1199 66.6025 93.2017 66.339C93.2835 66.0755 93.306 65.7972 93.2678 65.524C93.2295 65.2507 93.1314 64.9893 92.9804 64.7584C92.8294 64.5275 92.6292 64.3328 92.3943 64.1882C90.5564 63.4519 88.6355 62.9429 86.6743 62.6724C86.088 62.558 85.373 62.3578 84.658 62.272C85.6447 57.8104 88.9051 45.6983 90.4352 43.3245ZM78.1515 111.45V109.233C78.2802 106.516 79.5815 99.3805 79.9676 97.4214C80.5968 94.2468 80.7398 93.5318 82.5702 86.6392C82.5702 86.4533 83.6713 83.3788 83.6713 83.3788C83.691 83.3255 83.6991 83.2685 83.6951 83.2117C83.6911 83.1549 83.675 83.0997 83.648 83.0496C83.6209 82.9995 83.5835 82.9558 83.5382 82.9213C83.4929 82.8869 83.4407 82.8625 83.3853 82.8497C83.228 82.8497 79.51 81.9345 79.0953 80.7476C78.6806 79.5607 78.5948 78.1307 79.6387 77.5015C79.6771 77.4737 79.7083 77.4371 79.7299 77.3949C79.7514 77.3526 79.7627 77.3059 79.7627 77.2584C79.7627 77.211 79.7514 77.1642 79.7299 77.122C79.7083 77.0797 79.6771 77.0432 79.6387 77.0153C79.1817 76.6402 78.8742 76.1137 78.7719 75.5313C78.6696 74.949 78.7792 74.3492 79.081 73.8407C79.4099 73.1686 77.651 73.4975 79.7388 68.6784C80.2679 67.4915 82.0554 63.845 83.2709 63.4446C84.3471 63.3396 85.4335 63.4614 86.4598 63.8021C88.2521 64.0844 90.014 64.5345 91.7222 65.1463C91.8308 65.2047 91.9245 65.2874 91.9959 65.3879C92.0674 65.4885 92.1146 65.6041 92.134 65.7259C92.1534 65.8477 92.1444 65.9724 92.1076 66.0901C92.0709 66.2079 92.0075 66.3155 91.9224 66.4047C91.2942 66.7608 90.6059 66.9983 89.8918 67.1054C85.3873 67.992 86.1881 67.0053 85.6018 68.5354C83.881 68.4345 82.1608 68.7433 80.5825 69.4363C79.9676 69.565 80.225 69.9654 80.6683 69.8939C82.5842 69.2661 84.6332 69.1624 86.6028 69.5936C87.7455 69.8025 88.8625 70.1333 89.9347 70.5803C90.907 70.9753 91.7702 71.5982 92.4515 72.3964C92.5731 72.699 92.6185 73.0268 92.5836 73.3509C92.5487 73.6751 92.4346 73.9858 92.2513 74.2554C91.9081 74.7845 90.2493 74.427 89.6201 74.2554C88.7621 73.998 87.8612 73.7835 87.0175 73.5118C85.8306 73.14 85.9593 73.0399 85.5875 73.0685C84.2759 73.2543 82.993 73.6051 81.7694 74.1124C81.7347 74.1164 81.7015 74.1282 81.6721 74.147C81.6428 74.1657 81.6181 74.191 81.6 74.2207C81.5819 74.2505 81.5708 74.284 81.5675 74.3187C81.5643 74.3534 81.5691 74.3883 81.5814 74.4209C81.5938 74.4535 81.6134 74.4828 81.6388 74.5066C81.6643 74.5305 81.6948 74.5482 81.7281 74.5584C81.7614 74.5687 81.7966 74.5712 81.831 74.5658C81.8654 74.5603 81.8981 74.5471 81.9267 74.5271C83.0218 74.2183 84.1413 74.0031 85.2729 73.8836C85.9164 73.8836 85.5017 73.8836 87.1176 74.5271C87.8469 74.7988 88.5476 75.0133 89.3198 75.2707C89.8165 75.441 90.3291 75.5607 90.8499 75.6282C91.7651 76.4862 92.4229 78.4882 91.1931 78.8457C90.7099 78.9291 90.2128 78.8694 89.7631 78.6741C86.4884 77.6016 88.7049 76.8294 81.5978 78.288C81.5396 78.2952 81.4864 78.3244 81.4492 78.3697C81.4119 78.4149 81.3935 78.4727 81.3976 78.5311C81.3976 78.9029 81.6407 78.6741 85.5732 78.5311C86.0486 78.4834 86.5277 78.4834 87.0032 78.5311C88.233 79.1603 90.0634 80.2328 91.4791 79.8181C93.2094 79.2604 93.1522 77.3442 92.0368 75.9428C91.6364 75.4566 91.5935 75.5996 91.9367 75.5424C92.1876 75.5152 92.4302 75.4364 92.6493 75.3109C92.8683 75.1853 93.059 75.0159 93.2094 74.8131C93.548 74.346 93.7374 73.7873 93.7527 73.2105C93.768 72.6337 93.6085 72.0658 93.2952 71.5813L95.6976 72.2963C96.1732 74.5112 96.1341 76.8057 95.5832 79.003C95.4299 79.5395 95.2289 80.0611 94.9826 80.5617C93.9387 82.7639 93.5526 82.8354 93.6813 83.2501C95.6684 89.7114 97.3057 96.2751 98.5862 102.913C93.1951 104.8 83.3138 109.147 78.1515 111.45ZM191.307 210.82C197.428 211.078 210.584 211.55 216.618 211.364C216.204 213.166 215.946 214.31 215.875 214.567C213 214.567 194.425 211.35 191.307 210.82ZM218.935 210.091C215.103 210.992 165.353 209.047 161.091 207.231C161.535 204.028 165.71 186.024 166.554 182.349C170.307 183.498 174.212 184.077 178.137 184.065C179.567 184.809 181.927 186.096 183.342 186.768C183.185 187.983 182.799 190.858 183.657 191.716C184.515 192.574 204.263 199.824 221.58 201.854C220.882 204.655 219.998 207.407 218.935 210.091ZM166.096 175.671C165.438 175.471 164.829 175.135 164.309 174.684C163.937 174.284 164.066 173.068 164.309 172.496C164.442 172.218 164.678 172.003 164.967 171.896C165.316 171.744 165.688 171.652 166.068 171.624C166.181 171.622 166.291 171.584 166.383 171.517C166.475 171.45 166.544 171.357 166.582 171.25C166.619 171.143 166.623 171.026 166.592 170.917C166.562 170.808 166.498 170.71 166.411 170.637C165.575 169.933 164.992 168.973 164.752 167.906C164.752 167.12 165.053 166.305 166.311 165.59C167.741 165.704 172.031 169.25 174.019 167.205C176.006 165.161 173.661 160.37 175.878 159.97C178.094 159.569 179.21 166.233 179.596 166.962C180.883 169.465 184.343 171.252 186.317 173.312C185.125 177.574 184.17 181.899 183.457 186.267C180.597 184.737 178.48 183.407 178.266 183.407C175.277 183.307 167.255 182.478 165.167 180.347C164.796 180.06 164.542 179.648 164.452 179.188C164.363 178.727 164.444 178.25 164.681 177.845C164.833 177.576 165.038 177.341 165.284 177.154C165.53 176.967 165.811 176.832 166.111 176.758C166.233 176.728 166.342 176.657 166.419 176.558C166.497 176.458 166.538 176.335 166.536 176.209C166.534 176.083 166.49 175.961 166.41 175.863C166.33 175.765 166.22 175.698 166.096 175.671ZM182.027 128.052C179.37 127.798 176.701 127.693 174.033 127.737C173.69 127.737 173.404 127.909 173.304 128.238C173.061 129.153 169.014 158.897 168.813 160.356C167.955 146.056 167.069 130.998 166.411 119.958C171.387 127.895 171.816 128.681 172.603 128.124C175.255 125.943 177.762 123.593 180.11 121.088C180.539 122.675 181.226 125.264 182.027 128.052ZM195.111 123.033C194.139 121.603 193.181 120.173 192.823 119.644L197.442 108.018L195.111 123.033ZM198.443 106.616C203.852 107.732 209.125 109.424 214.173 111.664C213.959 112.336 211.199 120.773 207.895 130.841C206.38 130.655 197.699 129.596 195.025 129.31L198.443 106.616ZM192.594 121.231L194.854 124.634L194.139 129.21L191.922 128.924C192.251 125.821 192.48 122.875 192.594 121.231ZM232.077 136.317C232.059 138.179 231.877 140.036 231.533 141.866C226.628 140.607 183.843 130.083 179.496 132.557C177.322 133.815 170.172 163.159 169.486 165.804L168.971 165.547C171.23 149.659 174.233 128.824 174.233 128.767C179.109 128.209 226.085 133.529 232.077 136.317ZM207.123 166.219C203.92 166.004 191.207 165.375 188.533 167.148C188.118 167.434 187.947 167.491 186.474 172.782C184.572 170.766 181.383 168.864 180.311 166.619C179.824 165.632 179.038 158.425 175.706 158.983C171.216 159.741 176.95 168.993 170.315 166.133C170.744 164.317 177.78 134.029 179.739 132.914C183.886 130.555 229.117 142.066 234.837 143.682C234.508 147.171 230.303 165.79 229.531 169.193C222.126 167.77 214.644 166.777 207.123 166.219ZM185.101 66.1902C185.902 66.7336 185.873 68.0349 185.73 68.9787C184.729 75.3708 178.323 79.2461 173.876 73.1257C172.86 71.6957 172.074 67.1483 172.76 66.1473C173.218 65.561 176.907 65.5324 177.651 65.5324C179.024 65.5467 184.386 65.7612 185.044 66.1902H185.101ZM168.07 67.2198C168.07 69.9082 167.169 74.3698 164.781 75.6568C160.934 77.6588 157.03 74.4842 156.93 70.3515C156.784 68.8428 156.856 67.3208 157.145 65.8327L157.288 65.7612C157.059 65.3608 167.112 65.2321 168.013 66.133C168.043 66.4947 168.043 66.8582 168.013 67.2198H168.07ZM173.046 98.3509C175.52 99.0659 179.51 98.7227 181.426 96.7636C181.466 96.7211 181.489 96.6649 181.489 96.6063C181.489 96.5478 181.466 96.4915 181.426 96.449C181.097 96.0486 181.426 96.8208 177.708 97.3785C173.99 97.9362 171.745 97.3785 167.984 94.9332C166.255 93.3451 164.961 91.3418 164.223 89.1131C162.683 85.3414 161.719 81.3597 161.363 77.3013C162.709 77.5217 164.09 77.2957 165.296 76.6578C166.466 75.9736 167.372 74.916 167.87 73.6548C167.387 75.166 166.991 76.7033 166.683 78.2594C166.616 78.4587 166.606 78.6726 166.654 78.8773C166.702 79.0819 166.806 79.2691 166.954 79.4177C167.943 80.0221 169.108 80.2741 170.258 80.1327C170.292 80.1414 170.327 80.1422 170.361 80.1351C170.395 80.128 170.427 80.1132 170.455 80.0918C170.482 80.0704 170.505 80.043 170.52 80.0117C170.535 79.9804 170.543 79.946 170.543 79.9111C170.543 79.8762 170.535 79.8418 170.52 79.8105C170.505 79.7791 170.482 79.7517 170.455 79.7304C170.427 79.709 170.395 79.6942 170.361 79.6871C170.327 79.68 170.292 79.6808 170.258 79.6894C169.409 79.595 168.591 79.3221 167.855 78.8886C167.526 78.6598 167.669 78.8028 167.77 78.3309C167.87 77.859 169.729 71.0379 169.829 70.6089C170.272 70.6089 171.959 70.3801 171.959 69.9654C171.959 69.5507 170.615 69.4363 170.115 69.4649C170.115 69.279 170.201 69.1217 170.243 68.9787C170.266 68.9219 170.265 68.8583 170.241 68.8019C170.217 68.7456 170.172 68.7012 170.115 68.6784C170.058 68.6557 169.994 68.6565 169.938 68.6806C169.882 68.7047 169.837 68.7502 169.814 68.8071C169.314 69.7795 169.657 69.422 168.985 69.5936C169.243 68.2714 169.243 66.9118 168.985 65.5896C168.17 64.3312 163.265 64.6172 161.663 64.7173C162.479 59.9268 165.653 57.5673 167.598 53.7349C168.143 52.8454 168.869 52.0805 169.729 51.4898C170.158 51.3754 171.001 52.4479 171.516 52.7053C172.031 52.9627 172.517 54.3784 172.946 54.8646C174.295 56.4005 175.849 57.7431 177.565 58.8543C178.995 59.8696 181.226 60.0269 182.198 61.3282C182.609 62.4348 182.808 63.6087 182.785 64.7888C180.94 64.6744 173.246 64.56 172.331 65.8756C171.502 66.9338 171.859 71.7672 173.075 73.6262C176.135 78.2594 180.84 78.5454 184.515 74.3698C184.91 73.8769 185.246 73.3394 185.516 72.7682C188.261 77.0582 190.421 79.6179 190.521 84.6515C190.635 91.0293 188.833 101.597 195.74 102.927L196.927 106.202C191.207 120.587 191.508 119.687 191.508 119.83C191.508 119.973 191.236 124.12 190.735 128.867C187.99 128.581 185.43 128.338 183.156 128.152C182.985 127.566 180.854 119.987 180.897 119.83C181.111 119.115 180.039 117.713 179.21 116.469C176.099 111.966 172.703 107.667 169.042 103.599L173.046 98.3509ZM168.013 103.985C168.256 104.357 178.552 115.683 179.81 119.844C177.497 122.408 174.997 124.798 172.331 126.994C171.373 125.735 168.785 121.588 166.325 117.713C165.882 110.234 165.582 105.029 165.51 103.942C166.311 103.885 167.212 103.928 167.955 103.985H168.013ZM116.947 118.285C115.317 115.425 113.058 96.8351 113.587 93.9751C113.587 93.7177 113.587 93.6319 114.788 93.303C119.907 91.9731 137.868 90.443 139.756 91.0865C141.186 93.875 144.318 112.079 143.574 114.882C142.115 116.054 121.152 119.014 116.89 118.285H116.947ZM117.948 165.332C116.304 162.1 115.088 141.38 115.903 140.593C117.119 139.421 139.942 138.42 142.101 139.263C143.531 142.266 145.562 160.713 144.718 163.216C142.773 164.674 121.323 166.104 117.891 165.332H117.948ZM150.595 141.365C151.625 141.094 158.803 139.263 159.661 138.748C160.276 138.391 160.977 139.549 148.951 106.545C150.381 105.229 162.879 103.542 164.852 104.157C164.852 104.943 166.726 138.319 168.199 165.103C167.498 164.76 166.483 164.231 165.839 164.589C163.151 166.019 162.979 168.392 164.967 170.709C164.596 170.8 164.251 170.977 163.96 171.225C163.67 171.473 163.441 171.786 163.294 172.139C163.065 172.676 162.967 173.259 163.009 173.842C163.052 174.424 163.232 174.987 163.537 175.485C163.87 175.804 164.251 176.07 164.666 176.272C164.239 176.558 163.902 176.96 163.694 177.43C163.507 177.835 163.395 178.271 163.365 178.717L150.595 141.365ZM186.188 230.354L167.512 232.428C167.598 231.741 169.7 215.168 170.372 209.548C174.262 209.891 178.952 210.191 183.971 210.463C184.801 220.773 186.259 227.895 186.131 230.354H186.188ZM187.175 230.24C187.375 226.979 184.686 210.635 184.672 210.492L186.102 210.563C190.964 211.464 203.491 213.68 204.849 213.909C205.307 218.514 206.451 229.239 206.723 231.441C185.401 230.068 187.704 230.183 187.103 230.24H187.175ZM263.05 199.638C261.62 200.782 240.614 202.698 236.281 201.754C234.608 198.508 233.421 177.802 234.236 177.015C235.466 175.828 258.289 174.856 260.419 175.685C261.763 178.674 263.837 197.193 262.993 199.638H263.05Z" fill="#403939"/>
</svg>
