<svg width="289" height="289" viewBox="0 0 289 289" fill="none" xmlns="http://www.w3.org/2000/svg">
<path d="M208.987 70.8042C211.333 72.2824 213.192 74.4181 214.333 76.9454C215.864 80.5304 216.942 84.2924 217.541 88.1442C216.656 88.1675 215.775 88.2789 214.911 88.4765C214.81 88.4765 214.232 88.78 214.131 89.0979C213.668 90.6999 213.316 92.3317 213.076 93.982L184.176 94.1554C183.844 94.1554 183.887 94.5455 184.176 94.56C184.176 94.56 210.562 94.9646 213.076 94.979C212.44 100.239 212.975 106.019 216.703 109.747C220.214 113.215 232.15 113.706 236.586 110.397C240.271 107.637 241.181 99.6608 240.921 94.979C241.788 94.979 261.325 94.6322 263.261 94.56C263.315 94.56 263.366 94.5387 263.404 94.5007C263.442 94.4628 263.463 94.4113 263.463 94.3577C263.463 94.304 263.442 94.2526 263.404 94.2146C263.366 94.1767 263.315 94.1554 263.261 94.1554C259.966 94.1554 240.878 94.0109 240.878 94.0109C240.488 89.6759 239.433 89.2424 239.433 89.0401C239.421 88.9063 239.367 88.7797 239.279 88.6785C239.191 88.5772 239.073 88.5065 238.942 88.4765C237.684 88.2309 236.408 88.1003 235.127 88.0864C237.15 84.8351 238.884 75.9917 242.063 70.0672C246.774 61.2383 264.504 69.6482 264.215 61.8452C263.868 53.1752 254.244 48.3055 243.912 52.9006C234.101 57.2356 231.543 77.4656 231.37 88.0286C228.408 88.0286 229.838 88.1153 225.59 88.0286C229.303 83.0867 234.029 66.6137 233.205 55.097C232.261 47.4541 229.045 40.2705 223.971 34.4769C219.521 29.4916 214.304 27.3819 210.374 31.3846C204.594 37.1646 209.912 43.6237 214.853 50.1696C220.287 57.3946 222.324 60.9926 223.061 71.281C223.406 76.863 223.3 82.4637 222.743 88.0286H221.139C222.382 83.9681 220.778 75.0236 219.608 70.8186C217.931 64.8797 215.07 58.8974 210.533 54.7791C205.173 50.1509 198.654 47.0689 191.676 45.8635C187.413 45.141 183.772 45.4155 181.792 46.6004C181.064 46.9791 180.502 47.6137 180.214 48.382C179.925 49.1503 179.932 49.9981 180.231 50.762C182.63 58.6084 199.594 65.0242 208.987 70.8042ZM244.201 53.8254C253.868 49.4904 262.77 54.0422 263.073 61.903C263.304 67.9286 245.921 60.458 241.181 69.6915C237.887 76.0784 236.427 85.0085 234.433 88.1008H233.407C234.852 81.7284 238.393 67.5529 242.554 62.5388C247.872 56.0507 257.134 59.8366 257.539 59.7355C257.698 59.7355 257.857 59.4754 257.38 59.302C251.6 57.2067 245.719 57.2501 241.788 61.903C237.063 67.4807 234.086 80.9192 232.844 88.1442H231.601C231.991 78.0292 234.823 57.9437 244.201 53.8254ZM223.798 71.2666C223.22 61.0649 221.342 57.3223 215.634 49.5916C210.952 43.3058 205.938 37.3091 211.111 32.0637C214.637 28.4801 219.232 30.6187 223.22 35.1271C228.103 40.7802 231.183 47.7654 232.063 55.1837C233.003 66.8882 228.234 83.6936 224.838 88.043H224.073C225.618 81.4265 226.619 74.6943 227.064 67.9142C227.396 62.1342 227.295 58.1171 225.619 53.0885C224.242 49.2598 222.33 45.6451 219.94 42.3521C218.799 40.7279 217.544 39.1874 216.183 37.7426C216.148 37.7004 216.099 37.6737 216.044 37.6683C215.99 37.6629 215.936 37.6792 215.894 37.7137C215.852 37.7482 215.825 37.798 215.82 37.8522C215.814 37.9064 215.83 37.9605 215.865 38.0027C216.227 38.3809 216.565 38.7815 216.876 39.202C221.385 44.982 225.835 53.4208 226.182 60.877C226.529 68.3332 225.041 80.7747 223.668 88.1442H223.263C223.902 82.5423 224.08 76.8976 223.798 71.2666ZM238.523 89.7048C240.907 91.8867 240.155 106.38 235.835 109.617C231.514 112.854 220.258 112.088 217.194 109.126C212.368 104.487 212.859 95.8027 214.507 89.358C214.609 89.493 214.75 89.5938 214.911 89.647C216.022 89.9034 217.154 90.0582 218.293 90.1094C216.878 95.3533 217.125 100.907 219.001 106.004C219.07 106.15 219.194 106.262 219.345 106.316C219.497 106.371 219.664 106.362 219.81 106.293C219.955 106.224 220.068 106.1 220.122 105.949C220.176 105.797 220.168 105.63 220.099 105.484C218.278 101.843 217.787 93.7508 218.842 90.2105C223.35 90.4128 235.416 90.4995 238.523 89.7048ZM209.912 55.5161C219.709 64.1861 222.223 83.3901 220.706 88.0719H219.81C219.605 84.0566 218.906 80.0818 217.729 76.2374C214.608 66.1224 209.377 59.9089 201.357 55.2271C197.168 52.8308 192.684 50.9898 188.02 49.7505C187.966 49.7371 187.909 49.7456 187.862 49.774C187.815 49.8025 187.78 49.8486 187.767 49.9023C187.754 49.9559 187.762 50.0127 187.79 50.0601C187.819 50.1075 187.865 50.1417 187.919 50.1551C193.364 51.8817 198.532 54.3831 203.265 57.5824C208.512 61.0758 212.609 66.0429 215.041 71.859C217.349 77.0001 218.813 82.4795 219.376 88.0864H218.018C217.483 84.1203 216.454 80.2367 214.955 76.5264C213.783 73.8583 211.86 71.5889 209.42 69.995C199.869 64.1138 183.41 57.6691 181.214 50.4441C179.176 43.8116 198.814 45.5745 209.912 55.5161ZM84.9624 129.919C65.715 123.229 48.4617 120.238 37.7254 117.535C37.5924 117.498 37.4533 117.488 37.3163 117.506C37.1793 117.523 37.0473 117.569 36.9282 117.639C36.8091 117.708 36.7054 117.802 36.6232 117.913C36.541 118.024 36.4821 118.15 36.45 118.285C36.4179 118.419 36.4132 118.558 36.4363 118.694C36.4593 118.831 36.5097 118.961 36.5842 119.077C36.6588 119.193 36.7561 119.293 36.8702 119.371C36.9844 119.449 37.113 119.503 37.2485 119.53C44.1556 121.191 54.5885 123.099 65.874 125.714C84.5145 130.049 84.9191 131.335 85.2225 130.439C85.2549 130.336 85.2459 130.224 85.1974 130.127C85.1489 130.03 85.0647 129.955 84.9624 129.919ZM237.482 141.609C237.482 141.575 237.475 141.541 237.462 141.51C237.449 141.478 237.43 141.449 237.406 141.425C237.382 141.401 237.353 141.382 237.322 141.369C237.29 141.356 237.256 141.349 237.222 141.349C224.549 141.349 212.224 144.239 205.244 144.889C205.159 144.896 205.077 144.921 205.001 144.96C204.926 145 204.859 145.055 204.805 145.121C204.751 145.187 204.711 145.263 204.687 145.345C204.663 145.427 204.656 145.513 204.666 145.597C204.673 145.683 204.698 145.766 204.737 145.842C204.777 145.918 204.831 145.986 204.897 146.041C204.963 146.096 205.039 146.138 205.121 146.163C205.203 146.189 205.289 146.198 205.374 146.19C210.49 145.684 219.347 143.748 227.642 142.678C236.846 141.609 237.497 142.259 237.482 141.609ZM193.829 171.68C193.841 171.656 193.849 171.63 193.851 171.603C193.854 171.577 193.851 171.55 193.843 171.524C193.835 171.499 193.822 171.475 193.804 171.455C193.787 171.434 193.766 171.417 193.742 171.405L193.381 171.217L193.294 171.651C193.54 171.766 193.728 171.954 193.829 171.68Z" fill="#403939"/>
<path d="M281.599 175.292C277.886 174.526 268.71 174.83 264.924 175.162C268.045 164.498 271.267 150.597 272.568 142.939C273.039 140.819 273.243 138.649 273.175 136.479C273.127 136.285 273.04 136.102 272.918 135.942C272.796 135.783 272.643 135.651 272.467 135.555C266.687 131.928 206.127 139.89 201.907 141.985C200.65 142.606 199.523 145.742 199.017 147.158C195.275 141.002 195.665 139.543 191.489 129.818C188.887 123.484 185.586 117.459 181.649 111.857C181.75 111.091 185.752 81.1937 181.461 73.2028C178.571 67.8563 162.921 65.9778 156.896 65.4721C156.896 65.1542 156.144 59.6921 155.826 57.2211C160.913 52.9728 163.051 45.1554 157.532 43.8404C153.616 42.9156 138.154 39.9678 126.637 42.9445C119.412 44.823 113.632 49.0424 113.141 57.3945C112.947 60.566 113.141 63.7493 113.719 66.8737C106.248 67.6974 93.388 68.9256 86.8277 71.3966C78.3889 74.5756 81.9436 111.495 82.8395 114.486C82.3482 115.7 81.8858 116.929 81.4667 118.07C60.442 112.709 13.3783 102.71 11.2831 102.898C10.7373 102.891 10.1984 103.019 9.71435 103.272C9.23029 103.524 8.8161 103.892 8.50868 104.343C7.94513 104.473 7.74283 105.267 7.64168 105.788C6.19668 113.475 8.81213 159.383 9.27453 167.171C10.0404 169.975 32.3078 176.058 35.1978 176.853C35.3423 180.653 36.1082 199.525 36.2671 203.397C35.01 203.168 33.7656 202.874 32.539 202.516C29.9669 201.461 20.112 211.056 20.979 210.261C17.2076 213.613 58.2456 224.639 61.5257 223.714C64.8059 222.789 71.2939 216.59 70.1957 213.137C69.8921 212.522 69.3799 212.036 68.7507 211.764C65.644 210.131 57.4219 208.122 53.9973 207.299C54.3296 200.305 54.3296 188.832 54.3152 181.867C58.3756 182.878 81.4234 188.456 85.585 188.384C85.8833 188.388 86.1775 188.313 86.4375 188.167C87.7669 187.979 89.3275 187.647 89.4576 186.289C89.4576 185.884 89.7899 182.358 90.209 177.127C100.396 181.014 112.751 180.725 114.947 179.829C115.54 179.544 116.04 179.098 116.392 178.543C116.494 178.673 116.537 178.644 117.303 178.76C120.193 179.222 124.817 179.656 127.418 178.298C131.102 178.89 141.781 179.743 142.576 176.174C142.677 175.697 142.821 174.729 142.966 173.558C153.659 174.136 191.634 173.876 191.778 173.876L190.897 177.85C190.874 177.817 190.844 177.79 190.809 177.773C190.773 177.755 190.734 177.747 190.694 177.749C190.694 177.633 190.694 177.662 190.694 177.749C184.777 177.282 178.84 177.128 172.906 177.286C170.797 177.387 165.233 177.647 165.132 179.699C164.393 181.443 164.286 183.39 164.829 185.205C165.147 186.346 167.834 188.196 168.831 188.875C163.181 188.312 159.887 188.528 158.182 189.135C157.776 189.206 157.398 189.388 157.09 189.66C156.781 189.933 156.555 190.286 156.435 190.68C156.315 191.074 156.307 191.493 156.411 191.891C156.516 192.29 156.728 192.651 157.026 192.936C158.962 195.594 162.994 196.49 163.427 199.973C164.251 206.576 147.46 214.047 141.333 216.662C144.411 212.616 152.662 199.886 148.659 196.808C144.209 193.383 106.046 191.881 102.535 192.777C100.064 193.412 81.9002 206.836 82.2326 211.562C82.4638 214.639 100.338 217.659 103.662 218.237C107.404 218.873 134.108 223.035 137.302 220.997C137.979 220.724 138.594 220.317 139.11 219.801C139.627 219.284 140.034 218.669 140.307 217.992C145.84 216.09 151.166 213.63 156.202 210.651C164.15 205.724 168.6 199.626 160.739 194.496C159.8 193.889 157.228 192.04 157.604 190.999C158.413 188.702 169.583 189.554 169.742 189.554C174.929 192.936 184.856 198.152 190.709 199.669C196.893 201.302 225.793 198.138 232.773 197.256C233.567 200.146 234.333 202.834 234.839 204.481C233.755 204.568 230.663 204.842 229.796 205.521C229.319 205.897 229.334 206.533 230.099 206.966C230.099 211.807 229.507 226.286 230.952 232.818C231.501 235.26 232.137 236.271 234.666 237.153C239.449 238.699 248.639 238.15 253.451 236.864C256.442 236.054 256.832 235.419 257.309 233.829C258.956 228.425 258.869 212.472 258.754 206.808C258.846 206.741 258.922 206.653 258.974 206.551C259.025 206.449 259.053 206.337 259.053 206.222C259.053 206.108 259.025 205.995 258.974 205.894C258.922 205.792 258.846 205.704 258.754 205.637C257.685 205.141 256.534 204.848 255.358 204.77C255.56 203.152 256.644 194.106 256.803 192.516C257.558 192.063 258.232 191.487 258.797 190.811C259.68 189.738 260.255 188.444 260.459 187.069C261.904 185.176 263.985 178.11 264.664 175.798C271.109 176.072 280.559 175.697 281.44 175.798C281.507 175.819 281.58 175.812 281.642 175.78C281.705 175.747 281.752 175.692 281.773 175.624C281.794 175.557 281.787 175.485 281.755 175.422C281.722 175.36 281.666 175.313 281.599 175.292ZM86.2786 206.475C87.2467 205.406 88.3883 204.293 89.6021 203.166C94.7607 198.398 101.321 193.6 102.752 193.239C106.22 192.343 144.31 194.684 148.182 197.574C148.833 198.065 148.963 199.019 148.833 200.161C148.312 204.698 143.573 212.183 140.813 215.839C137.692 213.151 90.4113 207.039 86.2786 206.475ZM157.084 66.5125C162.603 67.0327 178.079 68.81 180.738 73.6363C184.495 80.4278 182.183 103.591 181.258 111.206C180.449 110.123 179.611 109.097 178.759 108.157C173.86 102.782 165.45 100.08 158.326 98.7071C153.75 97.9102 149.134 97.3651 144.498 97.0742C144.353 97.0742 144.584 97.291 143.443 94.9501C141.738 91.4387 141.637 91.4965 141.81 91.3954C143.705 91.2945 145.581 90.9745 147.402 90.4417C152.286 88.9967 155.191 86.1067 156.563 79.084C157.309 74.9216 157.464 70.6749 157.026 66.4691L157.084 66.5125ZM144.642 97.5222C145.552 97.6522 145.798 97.6378 145.87 97.6811C145.87 98.0424 149.035 115.021 138.197 115.801C129.238 116.538 123.343 103.967 120.164 95.5714C121.32 95.3836 122.245 95.2535 122.866 95.1668C123.169 101.756 132.649 113.706 137.908 112.868C143.818 111.9 146.723 102.912 144.642 97.5222ZM123.068 70.9342C123.198 70.2895 123.486 69.6874 123.908 69.1827C124.329 68.678 124.87 68.2866 125.481 68.0442C128.371 67.3361 128.371 70.9342 130.669 70.7319C133.559 70.544 130.337 63.8392 132.822 59.7499C135.524 55.2415 146.477 64.3594 155.335 57.5968C156.404 65.212 157.575 71.1365 155.942 78.9106C154.497 85.731 151.809 88.2453 147.171 89.6036C145.265 90.0424 143.335 90.3704 141.391 90.5862C141.236 90.6738 141.105 90.7993 141.012 90.9509C140.918 91.1025 140.865 91.2753 140.856 91.4532C140.856 91.9589 142.301 94.5455 143.645 97.5655C145.654 102.305 143.038 110.917 137.749 111.741C133.992 112.333 126.637 103.909 124.542 97.9557C123.617 95.3258 123.892 95.2246 125.525 84.9507C127.822 85.1096 128.299 80.6157 128.415 78.2892C128.439 77.796 128.267 77.3133 127.938 76.9454C126.898 75.8038 126.045 77.1332 124.022 74.6045C123.581 74.1139 123.264 73.5244 123.098 72.8856C122.932 72.2469 122.922 71.5776 123.068 70.9342ZM113.921 67.9141C115.858 76.7575 120.944 82.8988 124.441 84.6039C123.805 88.6643 123.083 93.1872 122.895 94.5599C114.557 94.9782 106.334 96.6842 98.5177 99.6174C95.0468 100.947 91.8121 102.825 88.9374 105.181C87.3479 96.9442 91.4372 80.8469 90.9315 76.2807C90.7003 74.3444 90.1512 72.2925 88.2582 71.8734C94.7318 69.836 106.725 68.68 113.921 67.9141ZM87.3912 72.2491C87.7366 72.2609 88.0759 72.3425 88.3889 72.489C88.7018 72.6355 88.9818 72.844 89.2119 73.1017C89.8633 74.0847 90.1917 75.2466 90.1512 76.4252C90.4691 80.7602 85.9751 96.7419 88.5039 105.6C86.0681 107.884 84.2235 110.725 83.1285 113.88C81.9725 106.842 80.0506 74.8068 87.3912 72.2491ZM35.4724 138.083C35.588 137.404 36.8307 137.101 37.5098 136.985C42.524 136.161 52.9424 139.023 52.7112 142.505C52.3644 147.664 53.9539 210.174 52.5956 212.472C50.9772 215.232 42.1338 213.7 38.608 211.244C37.0041 210.131 37.033 209.177 37.0763 209.365C35.8481 160.163 35.2701 139.21 35.4724 138.083ZM68.9675 213.613C69.7044 216.07 63.91 221.72 61.2223 222.471C58.5346 223.223 18.9127 212.963 21.4992 210.622C20.2999 211.706 27.9439 204.669 31.3108 203.542C31.5792 203.408 31.8858 203.372 32.1778 203.441C32.5679 203.614 34.0996 204.004 36.3105 204.524C36.4405 207.573 36.5272 209.38 36.5272 209.38C37.3798 213.628 50.9772 216.836 53.347 212.92C53.7099 211.532 53.9039 210.106 53.925 208.672C56.1359 209.221 67.4791 211.981 68.9675 213.613ZM85.585 187.156C81.7846 187.3 58.13 181.751 54.3152 180.855C54.2429 163.92 53.8961 144.933 54.0695 142.592C54.4163 137.274 40.8911 134.384 36.1226 135.945C35.6501 136.048 35.2158 136.282 34.8687 136.619C34.5215 136.956 34.2752 137.383 34.1574 137.852C33.8395 139.774 35.0822 173.977 35.1545 176.029C32.7991 175.393 10.734 169.512 9.82363 167.157C9.57798 161.839 7.22263 110.426 8.89883 105.556C16.7596 107.522 83.8943 121.061 88.6195 124.341C89.8044 127.593 87.1022 182.56 85.585 187.156ZM88.9807 186.303C88.9807 187.271 87.6947 187.603 86.741 187.748C88.3016 184.005 91.4083 127.058 89.8188 123.706C88.2293 120.353 15.7337 106.264 8.95663 104.371C9.25803 104.045 9.62497 103.787 10.0334 103.612C10.4418 103.438 10.8824 103.352 11.3264 103.36C13.335 103.215 87.4635 119.775 91.7696 122.145C92.4921 124.226 91.7696 138.719 91.6684 141.103C91.4083 146.854 89.0385 185.523 88.9807 186.303ZM127.996 176.52C126.305 178.775 120.308 178.5 117.491 178.24H116.797C118.083 175.655 118.811 172.83 118.936 169.946C120.381 169.541 125.669 168.313 126.478 169.613C126.724 169.989 125.944 170.437 125.539 170.654C124.471 171.149 123.352 171.527 122.201 171.781C122.031 171.813 121.88 171.912 121.783 172.056C121.685 172.2 121.649 172.376 121.681 172.547C121.714 172.717 121.813 172.868 121.956 172.965C122.1 173.063 122.276 173.099 122.447 173.067C123.892 172.864 127.837 172.315 129.238 172.792C128.661 173.594 127.832 174.179 126.883 174.454C125.532 174.445 124.183 174.556 122.852 174.786C122.66 174.823 122.488 174.928 122.369 175.083C122.25 175.238 122.192 175.431 122.206 175.625C122.221 175.82 122.306 176.003 122.446 176.138C122.587 176.274 122.772 176.354 122.967 176.361C124.435 176.404 125.9 176.204 127.302 175.769C127.668 175.784 128.026 175.873 128.357 176.029C128.264 176.223 128.125 176.392 127.952 176.52H127.996ZM141.665 176.015C141.604 176.24 141.49 176.447 141.331 176.618C141.172 176.789 140.975 176.919 140.755 176.997C138.082 178.442 131.334 178.182 128.328 177.879C129.441 177.026 130.091 175.639 128.964 174.873C131.189 173.428 130.958 171.882 129.499 171.434C128.553 171.205 127.576 171.137 126.609 171.232C127.519 170.552 127.851 169.787 127.302 168.963C126.507 167.836 124.412 167.98 123.112 168.197C122.493 162.476 122.174 156.727 122.158 150.973C126.016 153.776 138.804 153.863 143.269 151.204C143.486 156.059 142.027 173.905 141.608 176.015H141.665ZM129.267 172.734C129.267 172.734 129.224 172.763 129.224 172.734H129.267ZM160.277 173.052C162.95 165.235 163.326 148.675 163.167 140.395C165.407 143.993 177.617 161.247 177.704 161.391C178 161.845 178.35 162.262 178.744 162.634C181.656 165.295 184.924 167.537 188.455 169.295C192.226 171.289 192.529 171.188 192.501 171.347L191.995 173.515C191.749 173.5 162.488 173.052 160.234 173.052H160.277ZM166.505 179.54C169.612 177.373 190.738 178.355 190.969 178.211V178.37C188.946 188.051 188.166 191.548 187.92 192.82C188.05 192.256 188.845 188.485 189.755 184.309C190.391 181.245 191.2 177.604 192.024 173.746C192.399 171.983 192.645 170.856 192.659 170.769C188.7 168.674 182.66 165.061 179.496 161.868C178.701 161.059 163.34 139.774 163.196 139.528C163.051 139.283 163.051 132.939 162.892 132.65C162.862 132.617 162.823 132.595 162.779 132.585C162.735 132.576 162.69 132.58 162.649 132.598C162.608 132.615 162.573 132.645 162.549 132.682C162.526 132.72 162.514 132.765 162.517 132.809C162.372 132.809 162.517 163.703 159.844 173.009L143.197 173.168C143.298 172.359 143.399 171.419 143.515 170.408C150.22 171.261 153.269 163.905 151.491 157.909C150.437 154.614 147.72 154.108 144.613 155.698C144.758 153.774 144.758 151.842 144.613 149.918C144.747 149.586 144.77 149.219 144.679 148.873C144.588 148.527 144.388 148.219 144.107 147.996C141.954 145.973 135.929 145.756 132.995 145.756C130.062 145.756 124.022 145.987 121.883 147.996C121.696 148.141 121.547 148.329 121.45 148.545C120.352 150.525 122.461 167.879 122.721 168.255C121.463 168.505 120.223 168.839 119.008 169.252V166.94C118.921 161.897 102.795 159.094 102.246 156.218C102.058 155.235 101.755 153.039 101.408 150.438C99.457 136.161 99.746 136.711 99.4281 136.711C99.3744 136.711 99.323 136.732 99.285 136.77C99.2471 136.808 99.2258 136.859 99.2258 136.913C99.2258 137.303 100.786 153.025 101.35 156.363C101.913 159.701 117.924 162.937 117.996 166.94C117.996 170.061 117.303 177.806 114.601 178.919C112.968 179.613 100.338 180.248 90.2668 176.708C90.4835 173.905 94.5006 123.72 92.5643 121.495C91.8274 120.642 83.1718 118.475 82.0736 118.2C86.4086 108.374 89.6165 100.282 119.759 95.557C120.596 98.3627 121.62 101.11 122.823 103.779C125.886 110.325 131.074 117.391 138.255 116.784C146.506 116.076 147.836 107.131 146.521 98.9672C146.434 98.3892 146.347 98.0135 146.275 97.6811C150.24 98.0778 154.181 98.6856 158.081 99.5018C164.887 100.947 173.253 103.692 177.92 108.865C182.964 114.414 187.371 122.983 190.463 129.832C194.914 139.687 194.885 142.23 198.714 147.909C196.021 156.406 193.764 165.034 191.951 173.76C191.373 176.463 190.506 180.581 189.683 184.323C188.483 190.103 187.761 193.759 187.833 192.993C187.703 193.774 187.833 193.745 187.833 193.933C183.122 191.832 178.577 189.378 174.236 186.592C172.718 185.581 164.973 180.624 166.505 179.511V179.54ZM144.498 158.646C144.498 157.894 144.584 157.201 144.613 156.478C147.229 155.423 149.555 155.582 150.263 158.313C151.708 163.27 149.425 169.873 143.602 169.873C143.602 169.18 143.847 167.2 143.876 166.983C150.523 167.879 150.48 155.712 144.498 158.646ZM143.934 166.362C144.136 164.079 144.31 161.666 144.454 159.397C145.146 159.183 145.887 159.183 146.578 159.397C148.298 160.018 148.023 165.986 143.862 166.362H143.934ZM191.2 198.427C185.64 196.608 180.26 194.276 175.132 191.462C173.687 190.696 166.202 186.621 165.696 185.046C165.259 183.64 165.214 182.141 165.566 180.711C167.502 184.482 179.785 190.826 183.729 192.69C185.536 193.542 187.399 194.266 189.307 194.857C195.983 197.242 224.623 193.412 231.66 192.545C231.747 192.849 232.354 195.175 232.585 196.013C226.458 196.721 196.951 199.944 191.128 198.427H191.2ZM255.763 234.768C253.653 236.56 240.995 238.063 235.027 236.213C232.859 235.534 232.426 234.841 231.906 232.644C231.432 230.261 231.132 227.846 231.01 225.419C233.972 227.24 239.405 227.702 242.888 227.803C248.133 227.919 253.292 227.803 257.511 225.419C257.424 226.951 256.933 233.771 255.763 234.768ZM257.554 224.856C254.704 226.075 251.638 226.709 248.538 226.72C244.405 226.922 234.723 226.893 230.981 224.899C230.822 222.182 230.721 219.278 230.677 216.576C232.122 218.31 239.824 219.09 242.902 219.191C248.393 219.307 253.494 219.191 257.887 216.59C257.887 216.446 257.843 219.87 257.569 224.856H257.554ZM257.887 216.084C250.662 219.726 232.729 218.079 230.663 216.084V207.198C235.258 208.831 253.422 208.715 257.973 207.198C257.945 208.859 257.959 212.241 257.901 216.084H257.887ZM254.997 206.36C255.049 206.374 255.104 206.369 255.152 206.345C255.2 206.321 255.237 206.28 255.257 206.23C255.257 206.23 255.257 205.969 255.344 205.507C256.275 205.635 257.193 205.843 258.089 206.128C254.925 207.573 235.879 207.703 231.125 206.302C231.093 206.292 231.065 206.272 231.045 206.244C231.025 206.217 231.014 206.184 231.014 206.15C231.014 206.116 231.025 206.083 231.045 206.056C231.065 206.029 231.093 206.008 231.125 205.998C232.45 205.638 233.804 205.397 235.171 205.276C235.267 205.678 235.413 206.066 235.605 206.432C235.72 206.547 235.908 206.562 235.894 206.273C235.879 205.984 231.14 187.271 230.417 183.153C231.156 183.399 231.944 183.461 232.713 183.333C233.481 183.204 234.206 182.889 234.825 182.416C236.414 186.867 241.486 206.894 241.789 206.894C241.844 206.891 241.896 206.866 241.933 206.826C241.971 206.786 241.992 206.733 241.992 206.677L241.573 204.727H243.567C243.567 205.001 243.726 206.403 243.74 206.504C243.755 206.605 244.174 206.851 244.145 206.316C244.145 205.016 242.931 183.471 242.902 183.081C243.11 182.98 243.328 182.903 243.552 182.849C243.711 183.63 248.798 204.235 249.188 205.839C249.188 205.984 249.188 206.23 249.462 206.172C249.737 206.114 249.621 205.854 249.462 204.915L251.673 205.074V205.319C251.673 205.55 252.035 205.493 252.078 205.319C252.078 205.478 254.766 177.749 254.968 175.538C255.349 175.826 255.787 176.031 256.252 176.138C256.718 176.245 257.201 176.252 257.67 176.159C257.641 176.376 254.679 206.258 254.982 206.36H254.997ZM241.992 177.633C241.82 176.243 241.213 174.943 240.258 173.919C242.237 174.512 242.656 174.945 243.148 176.304C243.539 177.386 243.643 178.55 243.451 179.685C243.256 180.399 243.256 181.153 243.451 181.867C243.215 181.921 242.983 181.994 242.758 182.084C241.862 179.526 239.868 179.555 239.868 176.983C239.865 176.053 239.729 175.128 239.463 174.237C240.163 175.505 240.93 176.735 241.761 177.922C241.905 178.11 242.18 177.835 242.006 177.633H241.992ZM242.714 195.869C242.787 196.577 243.35 202.718 243.495 204.279H241.428C240.995 202.328 240.344 199.438 239.608 196.346L242.714 195.869ZM242.628 194.756L239.333 195.19C239.044 193.99 238.741 192.777 238.437 191.577C239.766 191.389 241.067 191.187 242.324 190.985C242.382 191.606 242.584 194.12 242.642 194.756H242.628ZM247.122 194.092C246.89 192.993 246.327 190.508 246.283 190.363C247.541 190.147 251.818 189.41 252.699 189.236C252.699 189.858 252.454 192.488 252.396 193.152C250.994 193.456 249.202 193.774 247.093 194.092H247.122ZM252.338 194.092C252.078 197.834 251.673 204.091 251.659 204.438C250.907 204.438 250.113 204.409 249.275 204.351C248.928 202.603 247.439 195.594 247.338 195.117C249.289 194.727 250.965 194.381 252.352 194.048L252.338 194.092ZM255.098 174.338C255.274 172.507 255.559 170.688 255.95 168.891C256.336 168.775 256.743 168.747 257.14 168.81C257.538 168.873 257.917 169.024 258.248 169.252C258.161 171.068 257.968 172.877 257.67 174.671C257.54 175.176 257.511 175.307 257.179 175.35C256.528 175.393 255.214 174.844 255.112 174.295L255.098 174.338ZM256.991 191.563C257.121 190.493 257.251 189.41 257.367 188.326C258.223 188.146 259.063 187.9 259.881 187.589C259.425 189.202 258.405 190.597 257.005 191.519L256.991 191.563ZM259.404 186.39C258.794 186.632 258.166 186.826 257.526 186.968C257.786 184.54 259.317 170.408 259.317 169.411C259.317 167.966 256.745 167.431 255.416 167.966C254.968 168.168 254.838 169.021 254.708 169.772C253.985 173.804 253.133 183.861 252.8 187.95L246.023 189.193C244.333 181.823 244.477 182.228 244.289 182.04C244.16 181.917 243.991 181.845 243.812 181.838C243.679 181.195 243.714 180.528 243.914 179.902C244.212 178.652 244.173 177.345 243.798 176.116C243.606 175.222 243.091 174.43 242.353 173.89C241.177 173.267 239.909 172.838 238.596 172.619C238.527 172.6 238.455 172.598 238.385 172.613C238.315 172.628 238.25 172.66 238.195 172.705C238.14 172.75 238.097 172.808 238.068 172.873C238.04 172.939 238.028 173.01 238.032 173.081C238.063 173.204 238.102 173.325 238.148 173.442C239.275 176.13 238.495 177.358 239.275 178.962C240.055 180.566 241.37 180.812 241.847 182.662C241.847 182.806 242.252 189.482 242.266 189.887L238.177 190.537C237.888 189.439 235.908 181.621 235.128 180.855C233.683 179.41 229.55 181.029 229.348 182.3C229.218 183.023 231.198 190.768 231.385 191.505C223.944 192.589 216.054 193.571 209.075 194.222C206.026 194.496 187.4 196.201 188.44 193.152C189.885 186.476 192.775 174.223 193.353 171.651V171.448C193.353 171.232 193.454 171.015 193.353 171.651C193.353 171.434 193.44 171.304 193.469 171.232L197.081 157.258C197.558 155.539 200.838 143.849 202.5 143.025C206.185 141.205 266.745 133.373 271.86 136.797C272.727 140.511 262.077 184.627 259.418 186.404L259.404 186.39Z" fill="#403939"/>
<path d="M142.346 70.1692V69.0566C142.346 68.8764 142.274 68.7037 142.147 68.5763C142.019 68.449 141.847 68.3774 141.666 68.3774C141.485 68.3774 141.311 68.4485 141.181 68.5754C141.051 68.7024 140.977 68.8751 140.973 69.0566V70.3571C141.005 70.5289 141.102 70.6818 141.244 70.784C141.386 70.8861 141.561 70.9296 141.735 70.9054C141.908 70.8812 142.065 70.7912 142.173 70.654C142.282 70.5169 142.333 70.3433 142.317 70.1692H142.346ZM234.696 159.095C234.277 158.69 233.684 158.213 233.135 158.386C232.225 158.675 231.314 160.987 230.924 161.941C229.828 164.787 228.959 167.715 228.323 170.698C228.916 172.23 238.915 170.221 240.273 169.556C240.707 169.354 240.649 168.834 240.504 168.371C239.074 164.99 237.113 161.858 234.696 159.095ZM228.713 170.51C228.973 169.311 232.268 160.12 233.395 159.282C235.144 160.279 238.655 166.406 239.594 168.718C238.294 169.238 229.465 171.478 228.713 170.51ZM111.061 201.158C110.917 201.26 107.767 203.254 107.622 203.398C107.588 203.412 107.559 203.437 107.538 203.467C107.518 203.498 107.507 203.535 107.507 203.572C107.507 203.609 107.518 203.645 107.538 203.676C107.559 203.707 107.588 203.731 107.622 203.745C108.431 203.976 111.134 204.28 111.957 204.366C131.725 199.41 131.855 199.41 131.609 199.41C131.742 199.392 131.863 199.323 131.946 199.218C132.03 199.113 132.07 198.98 132.057 198.846C132.057 198.601 131.667 196.896 131.551 196.376L111.061 201.158ZM149.354 64.1291C149.758 64.1291 150.553 64.317 150.712 64.3314C151.589 64.4224 152.458 64.5769 153.313 64.7938L154.614 65.025C154.663 65.0373 154.715 65.0318 154.761 65.0095C154.807 64.9871 154.843 64.9493 154.864 64.9027C154.885 64.8561 154.888 64.8037 154.874 64.7548C154.86 64.7058 154.829 64.6633 154.787 64.6349C154.033 63.9961 153.119 63.5763 152.143 63.4211C151.176 63.2138 150.17 63.2993 149.253 63.6667C149.222 63.6734 149.194 63.6859 149.168 63.7037C149.143 63.7214 149.121 63.744 149.104 63.7702C149.087 63.7964 149.076 63.8256 149.07 63.8562C149.065 63.8867 149.065 63.9181 149.072 63.9485C149.079 63.9788 149.091 64.0076 149.109 64.0331C149.127 64.0586 149.149 64.0804 149.176 64.0972C149.202 64.1139 149.231 64.1254 149.262 64.1309C149.292 64.1363 149.323 64.1358 149.354 64.1291ZM137.909 65.4007C138.3 65.314 139.138 65.184 139.354 65.1551C140.23 64.9638 141.119 64.8382 142.013 64.7794L143.458 64.6204C143.516 64.6204 143.571 64.5976 143.612 64.5569C143.652 64.5163 143.675 64.4611 143.675 64.4037C143.675 64.3462 143.652 64.291 143.612 64.2504C143.571 64.2097 143.516 64.1869 143.458 64.1869C142.527 63.792 141.505 63.66 140.504 63.8052C139.503 63.9505 138.56 64.3673 137.779 65.0106C137.745 65.0106 137.711 65.0187 137.681 65.0344C137.65 65.05 137.624 65.0727 137.604 65.1006C137.583 65.1284 137.57 65.1607 137.565 65.1946C137.56 65.2286 137.563 65.2633 137.574 65.2959C137.585 65.3284 137.603 65.358 137.628 65.382C137.652 65.4061 137.682 65.424 137.715 65.4342C137.748 65.4444 137.782 65.4467 137.816 65.4409C137.85 65.4351 137.882 65.4213 137.909 65.4007ZM152.359 67.915C152.179 67.915 152.007 67.9866 151.879 68.1139C151.752 68.2413 151.68 68.414 151.68 68.5942V69.8947C151.705 70.0748 151.801 70.2376 151.946 70.3474C152.091 70.4571 152.273 70.5048 152.453 70.4799C152.633 70.455 152.796 70.3595 152.906 70.2145C153.016 70.0696 153.064 69.8869 153.039 69.7068V68.5942C153.041 68.5044 153.024 68.4152 152.991 68.3319C152.957 68.2487 152.908 68.173 152.844 68.1095C152.781 68.0461 152.705 67.9961 152.622 67.9627C152.538 67.9293 152.449 67.913 152.359 67.915ZM40.213 193.37C42.2215 194.02 46.9033 195.769 49.0564 195.509C49.3165 195.509 49.6055 195.248 49.7933 194.786C51.2383 191.535 50.1979 175.004 49.6777 171.811C49.3165 169.513 41.0077 166.666 38.9992 168.299C37.6987 169.354 38.3489 181.593 38.4934 183.298C38.8691 187.417 38.479 192.806 40.213 193.37ZM39.6494 169.065C41.21 167.938 48.4495 170.611 48.6807 171.955C49.0419 174.224 50.3858 193.298 48.9408 194.786C47.0767 195.061 42.1348 193.543 40.2708 192.965C38.9558 192.532 39.4038 186.781 39.187 183.226C39.0859 180.827 38.9269 171.305 39.6494 169.065ZM142.331 78.8248C142.295 78.8069 142.256 78.7977 142.216 78.7977C142.175 78.7977 142.136 78.8069 142.1 78.8248C141.739 78.9548 141.522 79.3594 141.464 79.9519C141.417 81.4827 141.931 82.978 142.909 84.1568C143.138 84.4697 143.428 84.7333 143.761 84.9318C144.095 85.1303 144.464 85.2597 144.849 85.3123C145.233 85.3649 145.624 85.3396 145.998 85.2379C146.373 85.1362 146.723 84.9602 147.027 84.7204C147.898 84.0035 148.583 83.0862 149.021 82.0471C149.061 81.9661 149.082 81.8772 149.082 81.787C149.082 81.6969 149.061 81.6079 149.021 81.5269C148.574 80.8333 147.504 81.8159 142.331 78.8248ZM142.201 79.3161C143.771 80.6529 145.609 81.6383 147.591 82.2061C144.499 87.4659 141.392 80.3709 142.201 79.3161ZM145.741 75.9203C146.666 76.0937 149.224 75.7758 149.773 74.8366C150.047 74.3886 149.773 74.2441 149.166 72.3945C148.619 70.7876 147.977 69.2146 147.244 67.6838C146.984 67.2792 146.652 67.6838 146.84 67.9295C147.241 70.1449 147.881 72.3105 148.747 74.3886C147.701 74.878 146.63 75.3121 145.539 75.6891C145.537 75.7176 145.541 75.7462 145.55 75.7732C145.559 75.8003 145.573 75.8253 145.592 75.8467C145.611 75.8682 145.634 75.8858 145.659 75.8984C145.685 75.911 145.713 75.9185 145.741 75.9203ZM199.033 226.186C204.452 222.747 200.232 219.582 196.649 221.085C195.767 219.481 195.565 219.351 193.759 219.438C184.381 219.915 142.028 229.712 141.623 229.871C139.485 230.752 144.918 243.511 147.071 245.188C147.562 245.563 147.403 245.636 152.706 244.595C153.053 247.745 154.426 253.265 157.634 253.439C159.129 253.165 160.585 252.708 161.969 252.08C164.648 254.746 167.501 257.232 170.509 259.522C173.832 261.747 195.074 236.937 198.253 234.047C199.163 233.743 199.972 233.541 199.871 231.287C202.617 230.781 204.741 229.09 203.281 226.663C202.299 225.189 200.594 225.42 199.033 226.186ZM199.539 222.255C200.131 222.472 200.435 222.703 200.247 223.296C199.857 224.201 199.287 225.018 198.571 225.695C198.187 224.519 197.739 223.366 197.227 222.241C197.975 221.972 198.794 221.977 199.539 222.255ZM184.164 221.779C184.699 224.307 185.06 225.68 185.739 228.007L175.725 229.9C175.149 227.809 174.479 225.745 173.717 223.715C175.609 223.354 182.618 222.039 184.164 221.779ZM169.353 241.069C169.883 242.885 170.666 244.617 171.679 246.214C168.905 247.557 166.289 248.786 164.064 249.797C163.266 247.374 162.143 245.07 160.726 242.948L169.353 241.069ZM165.263 241.069C164.775 238.559 164.158 236.075 163.414 233.628L174.974 231.128C175.604 233.575 176.366 235.987 177.257 238.353C173.283 239.191 169.136 240.13 165.263 241.012V241.069ZM170.075 241.142C169.916 240.91 168.934 241.257 179.569 238.815C179.757 239.889 180.154 240.915 180.739 241.835L172.272 245.982C171.769 244.256 171.03 242.608 170.075 241.084V241.142ZM180.19 238.656C185.681 237.385 190.724 236.171 194.207 235.246L181.447 241.474C181.211 240.448 180.79 239.474 180.205 238.598L180.19 238.656ZM177.748 238.208C177.285 235.743 176.696 233.302 175.985 230.897L185.855 228.469C185.855 228.541 186.519 230.767 186.823 231.72C186.967 232.154 188.195 235.651 188.268 235.708C185.277 236.373 177.979 238.093 177.734 238.15L177.748 238.208ZM173.283 223.859C173.76 226.489 174.208 228.194 174.728 230.16L163.168 232.703C162.489 230.405 162.027 228.902 161.029 226.301C163.284 225.781 171.549 224.134 173.298 223.802L173.283 223.859ZM160.553 226.388C161.116 229.278 161.535 230.795 162.142 232.934C161.174 233.151 153.27 235.13 153.27 235.13C152.981 235.13 153.096 235.578 153.385 235.521C153.385 235.521 161.954 233.931 162.388 233.83C162.388 233.83 163.009 236.315 164.786 241.185L155.466 243.266C154.133 238.225 152.458 233.282 150.452 228.469L160.553 226.388ZM147.475 244.696C145.279 243.049 140.25 230.911 141.768 230.246C141.768 230.246 145.077 229.524 150.047 228.483C151.286 233.548 152.939 238.501 154.989 243.295C147.389 245 147.721 244.826 147.49 244.639L147.475 244.696ZM157.59 252.384C155.148 252.384 153.689 247.109 153.255 244.711C153.255 244.436 152.49 244.711 160.047 243.136C160.423 243.063 159.83 242.962 161.636 246.719C162.154 247.9 162.794 249.023 163.544 250.072C161.643 250.982 159.671 251.736 157.648 252.326L157.59 252.384ZM171.058 258.568C168.12 256.51 165.298 254.291 162.604 251.921C165.09 250.895 167.908 249.58 170.335 248.424C172.236 250.634 174.389 252.613 176.751 254.32C175.768 255.158 172.43 258.25 171.116 258.51L171.058 258.568ZM177.17 253.887C175.262 251.756 173.125 249.842 170.798 248.179L179.872 243.714C181.137 245.012 182.6 246.099 184.207 246.936C181.935 249.288 179.608 251.586 177.228 253.829L177.17 253.887ZM184.699 246.474C183.493 245.243 182.122 244.188 180.624 243.338C186.837 240.202 190.406 238.295 196.201 235.087C193.629 237.356 187.097 244.032 184.756 246.416L184.699 246.474ZM198.484 232.891C197.863 233.339 189.351 235.419 188.615 235.593C187.694 230.865 186.345 226.232 184.583 221.75C187.386 221.273 192.935 220.305 195.001 220.536C195.281 220.865 195.523 221.223 195.724 221.605C194.738 222.275 193.922 223.166 193.34 224.206C193.195 224.567 193.571 224.755 193.759 224.582C194.482 223.817 195.326 223.177 196.259 222.689C196.914 224.044 197.484 225.439 197.964 226.865C196.68 227.743 195.523 228.793 194.525 229.986C194.337 230.217 194.394 230.391 194.525 230.463C194.871 230.665 194.9 230.145 198.31 228.122C198.655 229.292 198.849 230.501 198.888 231.72C198.816 231.98 198.773 232.645 198.542 232.833L198.484 232.891ZM202.082 229.018C201.437 229.757 200.624 230.332 199.712 230.694C199.579 229.664 199.371 228.645 199.091 227.645C200.03 227.168 201.489 226.562 201.981 227.443C202.166 227.646 202.281 227.903 202.309 228.176C202.338 228.449 202.279 228.723 202.14 228.96L202.082 229.018Z" fill="#403939"/>
</svg>
