<svg width="227" height="273" viewBox="0 0 227 273" fill="none" xmlns="http://www.w3.org/2000/svg">
<path d="M134.68 54.2672C134.522 49.3021 133.245 54.7408 133.963 56.2044C133.988 56.2489 134.022 56.2879 134.062 56.3191C134.103 56.3504 134.149 56.3734 134.198 56.3868C134.248 56.4001 134.299 56.4035 134.35 56.3969C134.401 56.3902 134.449 56.3736 134.494 56.348C134.552 56.3114 134.601 56.2624 134.637 56.2044C134.759 55.5644 134.759 54.9072 134.637 54.2672H134.68ZM121.105 74.472C120.144 74.472 109.783 73.9411 109.84 74.7303C109.195 74.5438 109.84 79.1788 109.84 79.7241C109.84 80.2694 110.945 80.1833 111.275 80.212C114.145 80.4273 122.095 80.3699 122.755 80.3699C123.416 80.3699 123.028 74.9169 123.014 74.9025C122.999 74.2998 121.45 74.4864 121.105 74.472ZM122.354 79.681C119.9 79.681 112.897 79.5089 110.572 79.681C110.4 78.1026 110.228 76.5241 110.07 74.9456L122.397 75.1895C122.296 76.6819 122.354 78.1886 122.354 79.681ZM103.082 81.604C103.137 81.5978 103.188 81.5731 103.227 81.534C103.266 81.4949 103.291 81.4437 103.297 81.3887V77.7295C103.297 77.1841 102.421 77.0837 102.45 77.6434C102.45 78.9062 102.608 80.1546 102.708 81.403C102.71 81.4461 102.722 81.488 102.744 81.5247C102.767 81.5614 102.799 81.5914 102.837 81.6118C102.875 81.6322 102.917 81.6422 102.96 81.6409C103.003 81.6395 103.045 81.6267 103.082 81.604ZM134.135 72.8935C134.079 72.9012 134.027 72.9261 133.986 72.9647C133.945 73.0032 133.917 73.0535 133.905 73.1088C133.905 73.7115 133.518 77.1555 134.235 77.2272C135.125 77.2272 134.522 73.8837 134.436 73.0801C134.419 73.0164 134.379 72.9616 134.323 72.9269C134.267 72.8923 134.2 72.8803 134.135 72.8935ZM134.522 80.8721C134.379 79.882 133.877 79.9537 133.819 81.3026V82.9098C133.819 83.943 135.053 84.761 134.522 80.8721ZM134.207 87.3153C133.432 87.387 134.035 90.9601 134.135 91.6203C134.135 91.8642 134.58 91.9216 134.594 91.6203C134.594 90.3288 134.594 89.0373 134.68 87.7458C134.683 87.6847 134.672 87.6239 134.649 87.5675C134.625 87.5111 134.59 87.4605 134.544 87.4194C134.499 87.3784 134.446 87.3477 134.387 87.3297C134.329 87.3117 134.267 87.3068 134.207 87.3153ZM134.594 59.4189C134.594 59.1175 134.063 59.1606 134.006 59.4189C133.948 59.6772 133.518 64.2978 134.522 63.1498C134.738 61.9107 134.738 60.6436 134.522 59.4045L134.594 59.4189ZM133.805 67.1105V69.9805C133.805 70.5545 134.709 70.4684 134.68 69.9805C134.68 69.0334 134.68 68.0863 134.537 67.1105C134.451 65.5894 133.834 65.5033 133.805 67.1105ZM134.006 95.1503C133.79 96.3943 133.79 97.6661 134.006 98.91C134.006 99.2257 134.537 99.1684 134.594 98.91C134.652 98.6518 135.01 94.0023 134.006 95.1503ZM172.435 55.5013C173.25 55.6343 174 56.0269 174.573 56.6206C174.889 56.9507 175.291 56.3767 174.114 55.4296C172.162 53.8941 171.345 55.3004 172.435 55.5013ZM171.388 61.0548C172.665 60.696 171.603 58.0413 171.215 60.0933C171.172 60.2655 171.043 61.1552 171.388 61.0548ZM172.363 70.0809C176.668 70.167 175.391 63.4799 174.573 64.9149C172.679 68.1437 169.465 67.4549 169.235 67.7849C169.005 68.115 170.34 70.0522 172.363 70.0809ZM174.789 65.6611C175.75 69.6217 171.488 70.8415 169.795 68.1437C170.77 68.1884 171.74 67.984 172.613 67.5496C173.487 67.1152 174.236 66.4653 174.789 65.6611ZM134.422 49.4743C134.478 49.4481 134.528 49.4087 134.565 49.3595C134.802 48.1078 134.802 46.8228 134.565 45.5711C134.565 45.3415 134.149 45.2698 134.078 45.5711C133.853 46.8216 133.819 48.0989 133.977 49.3595C134.024 49.43 134.096 49.4807 134.178 49.5019C134.26 49.5231 134.347 49.5133 134.422 49.4743ZM165.963 64.427C166.25 65.7185 169.637 64.3122 166.666 64.1687C166.853 62.314 167.243 60.4854 167.829 58.7157C168.058 57.9408 166.81 58.2852 166.078 63.4369C165.982 63.7577 165.943 64.0928 165.963 64.427ZM102.493 85.1771C102.524 86.4456 102.634 87.7109 102.823 88.9655C102.823 89.0264 102.847 89.0848 102.891 89.1279C102.934 89.1709 102.992 89.1951 103.053 89.1951C103.114 89.1951 103.172 89.1709 103.215 89.1279C103.258 89.0848 103.282 89.0264 103.282 88.9655C103.77 82.5798 102.493 85.091 102.493 85.1771ZM163.969 58.3426C163.452 59.0314 163.552 60.2799 164.126 59.7776C164.7 59.2754 164.327 57.8547 163.969 58.3426ZM102.579 100.159C101.876 101.708 103.455 107.333 103.383 101.149C103.369 100.158 102.909 99.4554 102.579 100.159ZM102.608 96.2984C102.608 96.5997 103.153 96.5567 103.211 96.2984C103.268 96.0401 103.684 91.4193 102.694 92.553C102.45 93.792 102.421 95.0638 102.608 96.3127V96.2984Z" fill="#403939"/>
<path d="M158.747 48.0529C159.683 48.9017 160.743 49.6033 161.89 50.1337C160.082 56.1176 156.236 75.3323 166.41 76.4803C166.41 77.3987 166.324 78.3171 166.281 79.2498C163.138 80.2224 160.119 81.5563 157.283 83.2248C156.121 85.119 154.959 87.0275 153.868 88.9648C152.431 91.6375 151.142 94.3873 150.008 97.2017C152.025 97.9395 153.907 99.0062 155.576 100.359C157.298 101.65 154.227 103.616 152.993 105.18C156.486 111.589 161.053 117.35 166.496 122.214C166.826 120.233 167.213 118.54 167.371 117.909C164.071 112.169 159.766 90.6437 160.268 82.6077C161.129 82.1772 161.99 81.7898 162.851 81.431C162.851 83.0669 164.415 87.0132 166.08 87.415C166.266 87.989 167.013 86.841 167.515 86.3387C167.787 87.3289 168.161 88.3477 168.333 89.0939C169.525 88.8386 170.766 88.9333 171.906 89.3666C172.509 88.5343 173.527 87.3432 174.03 86.7836C174.274 87.1136 174.675 87.8168 175.106 87.745C178.536 87.0993 183.716 83.8275 185.481 80.6418C186.543 80.9144 187.576 81.2158 188.609 81.5602C179.239 91.8348 169.954 109.385 167.544 122.802C173.743 118.325 183.946 110.863 188.782 106.257C185.036 100.416 181.908 100.847 189.427 99.3685C190.862 99.0959 192.226 98.8232 193.632 98.6223C193.259 93.0163 192.627 87.4389 191.738 81.8902C188.533 80.5136 185.152 79.591 181.693 79.1494C181.607 76.9251 181.693 74.6865 181.693 72.4623C181.693 72.4623 191.924 60.2504 190.719 52.1714C190.245 48.9426 187.72 48.6987 185.094 49.5453C187.117 47.6081 189.542 47.9094 189.399 46.6753C189.183 44.8529 184.577 45.9435 183.085 48.6126C178.851 39.8734 168.735 37.3909 174.302 43.9632C170.643 41.5524 166.553 39.4429 162.047 39.4429C155.317 39.3425 154.514 44.2071 158.747 48.0529ZM166.295 86.7979C165.436 86.1109 164.722 85.2597 164.194 84.2939C163.667 83.3282 163.337 82.2672 163.224 81.1727C164.272 80.7422 165.319 80.3548 166.396 79.996C167.632 81.1139 168.925 82.1676 170.27 83.153C168.699 84.0872 167.344 85.3442 166.295 86.841V86.7979ZM181.721 79.7377C182.755 79.953 183.773 80.1682 184.792 80.4265C182.279 83.4987 178.974 85.8259 175.235 87.1567C174.162 85.7293 172.93 84.4293 171.562 83.2822C175.171 82.9081 178.647 81.7102 181.721 79.7808V79.7377ZM162.378 50.3489C165.592 51.6978 175.493 53.1328 179.067 52.9893C176.971 58.2988 179.397 63.4792 180.889 61.0253C181.305 60.3222 182.023 59.2172 183.185 60.1356C183.859 60.6809 184.118 62.0011 182.941 64.0962C181.697 66.1598 181.061 68.5322 181.104 70.9412C180.915 73.7353 180.877 76.5377 180.989 79.3359C177.914 81.0615 174.557 82.2276 171.074 82.7799L166.769 79.5942C166.912 77.7718 167.414 75.7197 166.769 75.7197C165.95 75.6711 165.15 75.4473 164.425 75.0636C163.7 74.6799 163.065 74.1452 162.564 73.4955C158.56 68.6882 160.928 56.0315 162.378 50.3489Z" fill="#403939"/>
<path d="M163.255 56.3181C163.6 56.0477 163.998 55.8509 164.422 55.7399C164.847 55.6288 165.289 55.6059 165.723 55.6724C165.785 55.6648 165.843 55.6373 165.888 55.594C165.933 55.5507 165.962 55.4939 165.972 55.4322C165.982 55.3706 165.971 55.3074 165.942 55.2524C165.912 55.1973 165.866 55.1533 165.809 55.1271C163.226 54.5244 162.408 57.0213 163.255 56.3181ZM168.407 89.8397C167.259 95.5032 166.115 101.176 164.977 106.859C165.636 110.001 166.597 113.071 167.847 116.028C168.978 112.614 170.285 109.262 171.764 105.983C171.42 101.994 171.219 92.2505 171.377 90.4281C170.491 89.8787 169.435 89.6696 168.407 89.8397ZM64.5412 54.2517C65.7466 54.0939 63.6372 47.0767 64.0103 53.1898C64.0533 53.5629 64.0103 54.3235 64.5412 54.2517ZM64.0246 113.618C64.0246 114.048 63.9098 115.512 64.5986 115.426C65.804 115.268 63.795 108.796 64.0246 113.618ZM64.7565 70.3094C64.7429 70.253 64.7108 70.2028 64.6652 70.1669C64.6197 70.131 64.5634 70.1115 64.5054 70.1115C64.4474 70.1115 64.3911 70.131 64.3455 70.1669C64.3 70.2028 64.2678 70.253 64.2542 70.3094C64.027 71.555 63.998 72.8287 64.1681 74.0834C64.2083 74.1651 64.2792 74.2275 64.3652 74.257C64.4512 74.2866 64.5455 74.281 64.6273 74.2413C64.6812 74.2112 64.7297 74.1724 64.7708 74.1265C64.9996 72.8639 64.9947 71.5702 64.7565 70.3094ZM64.0677 121.969C64.1538 122.558 64.9717 122.515 64.943 121.453C64.8139 118.095 64.0533 118.037 64.039 119.702C63.9816 120.457 63.9816 121.215 64.039 121.969H64.0677ZM64.0246 79.0485C63.9646 79.674 64.0132 80.3051 64.1681 80.914C64.2244 81.002 64.3118 81.0656 64.4128 81.0922C64.5138 81.1188 64.6211 81.1064 64.7134 81.0575L64.8569 80.914C64.8569 80.7705 64.8569 76.2503 64.2112 77.183C63.8811 77.6279 64.0246 78.5176 64.0246 79.0485ZM64.656 97.8614C64.6508 97.8272 64.6389 97.7945 64.6208 97.7651C64.6027 97.7357 64.5789 97.7102 64.5508 97.6901C64.5227 97.67 64.4909 97.6558 64.4572 97.6483C64.4235 97.6407 64.3887 97.64 64.3547 97.6461C64.2997 97.6523 64.2485 97.6769 64.2094 97.7161C64.1703 97.7552 64.1456 97.8064 64.1394 97.8614C64.1394 98.4641 63.7376 101.908 64.4551 101.98C65.3448 102.095 64.7421 98.6793 64.656 97.8614ZM64.613 90.916C64.613 90.8551 64.5888 90.7967 64.5457 90.7536C64.5027 90.7106 64.4443 90.6864 64.3834 90.6864C64.3225 90.6864 64.2641 90.7106 64.221 90.7536C64.178 90.7967 64.1538 90.8551 64.1538 90.916C63.6659 97.3161 64.943 94.7905 64.943 94.7044C64.9133 93.4359 64.803 92.1705 64.613 90.916ZM64.7995 84.1858C64.7995 83.8701 64.2686 83.9275 64.2112 84.1858C64.1538 84.4441 63.7376 89.0648 64.7278 87.9168C64.9675 86.677 64.9918 85.4052 64.7995 84.1571V84.1858ZM64.0533 106.055V107.619C64.0533 108.653 65.2874 109.471 64.7565 105.582C64.613 104.635 64.1107 104.749 64.0533 106.055ZM146.207 163.857C144.017 163.38 141.881 162.678 139.836 161.762C139.936 164.029 140.051 166.225 140.166 168.406C143.954 168.306 145.791 167.789 146.207 163.886V163.857ZM199.747 172.524L200.12 165.938C196.748 166.251 193.361 166.385 189.975 166.34C191.367 171.85 194.237 172.381 199.747 172.524ZM205.975 262.155C204.956 241.978 204.425 187.405 205.056 165.349C203.765 165.55 202.359 165.723 200.895 165.866C199.905 198.871 199.46 229.15 201.541 262.542C203.029 262.614 204.521 262.484 205.975 262.155ZM102.971 126.848L39.0556 125.844C36.4726 125.844 33.8466 125.686 31.2492 125.844C30.9479 125.844 30.9909 126.317 31.2492 126.346C34.4206 126.647 41.6817 126.662 45.2548 126.734L102.899 127.709C103.458 127.709 103.545 126.848 102.971 126.848Z" fill="#403939"/>
<path d="M189.739 262.371C193.323 262.677 196.923 262.744 200.516 262.572C199.081 232.953 198.536 203.321 199.698 173.602C196.57 173.602 191.404 172.827 189.868 169.627C189.328 168.604 189.075 167.453 189.136 166.298C179.881 166.054 171.184 164.303 168.86 159.969C168.345 160.977 167.52 161.792 166.506 162.294C166.506 163.987 166.248 172.052 166.937 173.329C167.468 174.348 168.644 174.204 169.606 174.377C169.701 174.403 169.782 174.467 169.83 174.553C169.878 174.639 169.891 174.741 169.864 174.836C169.846 174.897 169.812 174.952 169.767 174.997C169.722 175.042 169.667 175.076 169.606 175.094C166.937 175.525 165.746 173.961 165.602 171.478C165.366 168.565 165.366 165.638 165.602 162.724C161.498 164.662 154.208 165.437 146.947 164.016C146.947 168.436 143.948 169.555 140.131 169.656C142.571 213.466 148.425 240.444 155.816 262.5C156.06 263.203 171.227 263.045 171.199 262.371C170.079 237.66 169.477 215.977 172.189 194.352L170.754 182.872C166.879 181.207 167.597 180.002 168.243 180.418L170.596 181.853C171.127 182.097 171.572 182.068 171.543 182.743C175.432 209.362 181.674 234.776 189.739 262.371ZM51.0749 116.058C46.9593 115.9 42.8378 115.996 38.7339 116.345C37.8155 116.446 37.5859 116.546 37.5859 117.465C37.5859 118.756 37.5859 121.44 38.1743 121.095C38.2604 121.44 47.9036 121.368 50.5727 121.224C51.3045 121.224 51.448 120.751 51.0319 120.579C51.3619 120.535 51.4767 116.23 51.0749 116.058ZM38.2747 120.794C38.3465 119.508 38.3465 118.219 38.2747 116.934C42.2497 116.833 46.6695 116.934 50.5296 116.661C50.5296 117.192 50.3144 120.248 50.6875 120.535C49.152 120.435 38.5187 120.679 38.2747 120.794Z" fill="#403939"/>
<path d="M192.67 82.3208C193.674 87.118 194.336 91.9806 194.651 96.8717C194.895 100.359 195.411 99.469 189.642 100.502C188.523 100.703 187.418 100.961 186.299 101.105C186.916 101.851 191.149 106.845 189.427 107.017C187.102 110.117 171.389 121.554 167.299 123.835C167.084 125.27 166.926 126.605 166.84 128.011C166.643 128.019 166.449 128.068 166.271 128.154C166.093 128.241 165.935 128.363 165.807 128.513C165.822 126.831 165.965 125.152 166.238 123.491C159.493 118.712 153.079 107.936 152.045 105.238C151.558 103.975 154.126 102.239 154.915 101.464C153.193 100.029 148.774 98.1345 148.989 97.4314C150.532 92.8458 152.628 88.4655 155.231 84.3872C153.61 85.3781 152.021 86.4214 150.467 87.5155C149.864 64.412 149.879 40.591 148.487 17.5879H152.203C152.849 17.5879 152.806 15.9233 152.203 15.9233H148.329C139.446 14.3448 130.563 12.7807 121.724 10.9439C107.962 8.07389 93.9566 4.57249 80.2093 2.00384V0.296189C80.2093 -0.0769114 78.6882 -0.119961 78.6882 0.296189V1.88904C59.1579 6.96894 39.3836 11.2165 19.7241 15.5646C17.2098 15.9846 14.719 16.5355 12.2621 17.2148L7.48352 17.3153C6.95257 17.3153 6.96692 18.7503 7.48352 18.7503H12.4486C11.7311 57.1796 11.6594 95.5802 11.358 133.981C11.358 134.813 10.9849 141.328 11.7168 141.328C19.9824 141.5 78.0999 141.328 78.0999 141.328C78.0999 179.269 78.052 217.216 77.9564 255.167C66.2611 261.351 50.1891 269.976 47.5057 271.569C47.0178 271.698 5.56062 271.569 0.236775 271.698C-0.078925 271.698 -0.078925 272.3 0.236775 272.3C7.19652 272.544 214.238 272.645 214.238 272.645C214.812 272.645 214.927 271.683 214.353 271.683H204.853C204.533 268.925 203.981 266.198 203.203 263.533C199.935 263.863 196.642 263.863 193.373 263.533C191.092 264.351 182.08 267.838 181.721 271.64H171.49C171.245 268.98 170.735 266.35 169.969 263.791C166.45 264.605 162.801 264.688 159.249 264.035C157.714 264.58 148.96 267.751 148.314 271.669H112.626C111.765 270.808 80.9842 255.784 80.4676 255.611V141.371H137.954C137.437 148.546 137.222 159.796 137.552 159.94C152.347 166.24 166.582 163.714 168.39 158.964C164.917 154.186 165.19 141.515 165.219 139.132C165.494 139.573 165.816 139.982 166.18 140.352C165.994 144.657 165.994 157.945 171.791 161.777C177.933 165.852 197.965 166.24 206.647 164.044C206.733 159.94 206.532 154.63 206.346 151.861C198.711 151.254 191.136 150.054 183.687 148.273C182.898 148.101 177.459 147.097 177.373 146.451C177.287 145.805 177.187 144.93 177.129 144.155L174.259 143.509C174.247 139.86 174.613 136.22 175.35 132.646L177.56 132.56C177.675 131.814 177.56 130.451 178.435 130.451C180.548 129.753 182.706 129.197 184.893 128.786C188.557 128.011 192.211 127.27 195.856 126.562C194.912 122.697 194.288 118.762 193.99 114.795C193.99 114.336 194.651 114.221 194.694 114.68C195.164 118.629 195.902 122.541 196.904 126.39C201.09 125.515 205.327 124.897 209.589 124.538C209.663 124.554 209.729 124.595 209.777 124.654C209.825 124.712 209.851 124.786 209.851 124.861C209.851 124.937 209.825 125.01 209.777 125.069C209.729 125.128 209.663 125.169 209.589 125.184C199.343 126.002 188.781 128.786 178.736 131.168C177.86 136.067 177.604 141.057 177.976 146.02C184.373 147.7 190.86 149.018 197.406 149.967C208.082 151.273 223.882 153.87 226.106 139.132C229.636 117.163 212.344 91.2465 192.67 82.3208ZM77.9564 271.597H51.6241C60.3633 266.819 69.2029 262.528 78.0281 257.563L77.9564 271.597ZM143.55 15.8946L80.4102 16.5404C80.4102 11.8766 80.3098 7.93039 80.2237 3.23794C100.672 7.93039 122.8 12.2354 143.55 15.8946ZM78.6452 3.33839C78.5591 7.98779 78.473 11.9484 78.4156 16.5691C57.2206 16.77 37.2885 16.8274 16.0935 17.2148C37.4033 13.0533 78.6452 3.33839 78.6452 3.33839ZM108.436 271.683H80.3241V257.706C88.6615 262.485 99.5962 267.622 108.436 271.612V271.683ZM147.511 101.349C141.771 113.288 139.059 127.294 138.011 140.51C96.3961 140.51 53.9775 139.506 12.4773 140.41C12.7213 137.296 12.2621 132.158 12.2908 128.815C12.5778 92.1075 13.7975 55.6298 13.654 18.8651C30.7018 18.8651 147.253 17.631 147.253 17.631C148.042 39.3856 149.577 87.128 149.678 88.1612C141.527 93.9901 134.195 100.887 127.88 108.667C130.594 109.159 133.273 109.826 135.902 110.662C135.99 110.7 136.059 110.771 136.097 110.859C136.134 110.947 136.136 111.046 136.103 111.136C136.071 111.215 136.011 111.281 135.934 111.321C135.858 111.36 135.77 111.371 135.686 111.351C130.248 110.059 110.344 105.84 101.246 106.831C101.031 106.831 101.074 107.204 101.146 107.649C100.296 107.475 99.4247 107.436 98.563 107.534C96.0517 104.147 93.397 100.359 89.0489 103.229C87.1117 99.5839 70.4944 67.7986 69.8486 67.7412C69.045 66.5645 68.1123 67.7412 68.6432 68.7313L87.2265 106.185C85.7915 107.419 85.5762 109.327 86.796 109.729C86.0498 111.279 87.083 113.116 87.5996 112.901C87.0399 115.771 91.3019 118.425 93.2104 118.067C93.4687 118.555 94.6454 121.066 95.1477 121.037C95.4241 121.254 95.767 121.368 96.1182 121.361C96.4694 121.353 96.8071 121.225 97.0742 120.996C97.3412 120.768 97.5211 120.455 97.5832 120.109C97.6453 119.763 97.5859 119.407 97.415 119.1L98.6204 119.746C98.276 120.32 98.0751 120.621 98.1755 120.736C104.102 127.652 118.825 136.219 124.465 137.095C129.028 137.798 134.395 137.941 137.078 137.181C138.312 125.371 141.139 111.494 146.836 100.933C146.858 100.888 146.888 100.848 146.925 100.816C146.962 100.783 147.005 100.758 147.052 100.742C147.098 100.726 147.148 100.719 147.197 100.722C147.246 100.726 147.294 100.739 147.339 100.761C147.385 100.782 147.426 100.812 147.461 100.851C147.495 100.889 147.521 100.933 147.537 100.982C147.553 101.03 147.559 101.081 147.554 101.132C147.55 101.183 147.535 101.232 147.511 101.277V101.349ZM93.6696 110.289C93.5777 110.115 93.442 109.968 93.2759 109.862C93.1098 109.756 92.9191 109.696 92.7225 109.686C92.883 109.585 93.0199 109.451 93.1239 109.293C93.2279 109.134 93.2966 108.955 93.3252 108.768C93.8705 109.356 94.0284 108.969 93.8705 108.768C93.1243 107.692 92.4355 104.707 91.8328 104.979C91.2732 104.779 89.5512 105.353 88.6041 105.266C88.231 105.266 87.944 105.023 88.231 104.621C89.3148 103.439 90.8081 102.716 92.4068 102.597C94.5306 102.97 97.1567 106.529 98.276 108.136C99.5244 111.466 97.415 116.56 96.554 117.407L93.5261 111.509C93.66 111.338 93.7443 111.134 93.7696 110.919C93.7949 110.704 93.7603 110.486 93.6696 110.289ZM87.5852 105.18L69.0307 68.1286C69.0307 67.2676 69.6477 68.0138 69.9204 68.4587C71.5276 71.6874 88.5754 103.616 88.5754 103.616C88.2962 103.777 88.0603 104.004 87.8878 104.276C87.7154 104.549 87.6116 104.859 87.5852 105.18ZM88.0588 106.386C88.9054 105.941 91.3306 105.209 91.9333 106.3C92.005 106.644 92.0768 106.974 92.1342 107.318C91.1842 107.143 90.2042 107.239 89.306 107.594C88.4078 107.949 87.6275 108.55 87.0543 109.327C86.1789 108.323 87.0399 106.888 88.0588 106.386ZM87.1978 110.246C87.7287 108.811 90.7996 107.118 92.1916 107.964C93.5835 108.811 91.8041 109.399 91.5458 109.758C90.7 109.815 89.8889 110.117 89.2113 110.627C88.5337 111.136 88.0186 111.831 87.7287 112.628C87.4223 112.323 87.2095 111.937 87.1154 111.514C87.0213 111.092 87.0499 110.652 87.1978 110.246ZM90.3691 110.633C90.9718 110.404 93.9997 109.672 92.9952 111.279C91.5602 111.408 90.3404 112.499 91.0579 113.905C91.6606 115.082 92.2777 116.259 92.9091 117.421C88.848 116.976 85.8489 112.312 90.3691 110.633ZM91.3736 112.815C91.5182 112.544 91.7226 112.311 91.9713 112.132C92.2201 111.952 92.5065 111.833 92.8086 111.781C93.3396 112.815 96.9414 119.516 96.9414 120.047C96.9414 120.578 95.7647 121.023 95.5064 120.535C94.0523 118 92.6651 115.426 91.3449 112.815H91.3736ZM96.7836 117.78C99.0078 116.144 99.6536 111.078 99.0078 108.007L101.376 108.352C101.716 112.124 100.878 115.909 98.9791 119.186C98.5199 118.899 96.9701 118.21 96.7549 117.78H96.7836ZM173.829 141.787C171.891 141.672 169.94 142.074 167.845 140.84C166.295 139.922 164.702 137.97 165.219 136.148C165.793 136.923 166.08 136.248 165.864 136.004C165.472 135.577 165.204 135.049 165.09 134.48C164.976 133.911 165.02 133.321 165.219 132.775C165.692 133.737 166.151 133.177 165.979 132.876C165.276 131.57 165.118 129.231 166.797 128.571C166.668 131.871 170.284 132.345 170.026 131.441C170.026 131.441 168.591 125.17 170.213 125.486C171.002 127.609 172.078 132.244 174.518 132.89C173.962 135.822 173.721 138.804 173.8 141.787H173.829Z" fill="#403939"/>
<path d="M29.1492 124.022C40.17 108.238 54.2474 84.2013 63.4601 67.5122C63.8078 67.7272 64.209 67.8401 64.6178 67.838C65.0267 67.836 65.4267 67.7191 65.7723 67.5007C66.1179 67.2822 66.3951 66.9711 66.5724 66.6027C66.7497 66.2343 66.8199 65.8235 66.7749 65.4171C77.9392 68.2871 89.5771 69.9661 100.856 72.4773C101.071 75.4765 105.29 74.3285 104.645 71.8746C114.001 62.4323 124.074 52.3873 133.215 43.0311L133.56 43.1746C134.098 43.3525 134.685 43.3105 135.193 43.058C135.701 42.8054 136.089 42.3625 136.272 41.8257C136.459 41.3218 136.445 40.7653 136.233 40.2714C136.021 39.7775 135.628 39.3839 135.134 39.1719C134.64 38.96 134.083 38.946 133.579 39.1328C133.076 39.3195 132.663 39.6928 132.426 40.1755C132.223 40.5586 132.137 40.9934 132.181 41.425C132.224 41.8566 132.394 42.2657 132.67 42.6006C123.429 51.9712 113.154 61.6144 104.386 71.3006C104.154 70.9824 103.835 70.7382 103.468 70.5975C102.977 70.4201 102.435 70.4425 101.96 70.6598C101.486 70.8771 101.115 71.2721 100.928 71.7598C95.1879 70.5975 69.3579 64.9436 66.6601 64.8431C65.6126 61.7435 60.7336 64.427 62.843 67.01C52.0375 86.6121 40.4714 104.75 28.6613 123.692C28.1924 123.467 27.6612 123.405 27.153 123.517C26.6447 123.629 26.1886 123.908 25.8579 124.31C25.5271 124.712 25.3408 125.213 25.3288 125.733C25.3167 126.253 25.4796 126.763 25.7913 127.179C27.6999 129.892 31.7322 126.362 29.1492 124.022ZM134.163 29.5134C133.632 29.5852 133.818 30.317 133.847 30.6758C134.45 36.7315 135.454 29.3843 134.163 29.5134Z" fill="#403939"/>
<path d="M102.979 57.2655C102.104 57.1794 102.692 60.5947 102.778 61.3983C102.783 61.4324 102.795 61.4651 102.813 61.4945C102.831 61.524 102.855 61.5495 102.883 61.5695C102.911 61.5896 102.943 61.6038 102.977 61.6114C103.011 61.6189 103.045 61.6197 103.079 61.6135C103.134 61.6073 103.186 61.5827 103.225 61.5436C103.264 61.5045 103.288 61.4532 103.295 61.3983C103.28 60.7812 103.696 57.3946 102.979 57.2655ZM103.28 68.4011C103.768 62.0153 102.491 64.5266 102.491 64.6127C102.522 65.8763 102.632 67.1368 102.821 68.3867C102.819 68.4476 102.842 68.5068 102.883 68.5512C102.925 68.5956 102.983 68.6216 103.043 68.6235C103.104 68.6254 103.164 68.603 103.208 68.5613C103.252 68.5196 103.278 68.462 103.28 68.4011ZM102.835 43.7191C102.304 43.7908 102.491 44.5227 102.534 44.8814C103.18 50.9371 104.127 43.5899 102.835 43.7191ZM133.889 35.2239C133.516 38.7396 134.85 39.0553 134.678 36.458C134.678 35.8983 134.506 35.3387 134.434 34.779C134.434 34.5351 133.975 34.3342 133.889 35.2239ZM119.883 36.9459C122.552 37.2185 128.264 37.0463 128.608 37.032C130.761 37.032 130.545 37.032 130.387 34.9656C130.387 33.875 130.244 32.6839 129.742 32.8274L118.965 32.5978C118.118 32.3682 118.434 33.7745 118.477 34.6786C118.563 36.3145 117.989 36.745 119.883 36.9459ZM119.18 33.2005L129.699 33.5162L129.785 36.2714H119.166L119.18 33.2005ZM102.692 33.4588C102.712 33.5229 102.756 33.5767 102.815 33.6089C102.874 33.641 102.943 33.649 103.008 33.631C103.05 33.6185 103.089 33.5965 103.121 33.5667C103.153 33.5368 103.178 33.4999 103.194 33.4588C103.414 32.2124 103.443 30.9399 103.28 29.6848C103.262 29.6413 103.235 29.602 103.2 29.5695C103.166 29.537 103.125 29.5118 103.081 29.4957C103.037 29.4795 102.989 29.4727 102.942 29.4756C102.895 29.4785 102.849 29.4911 102.807 29.5126C102.755 29.5392 102.71 29.5787 102.678 29.6274C102.469 30.8816 102.469 32.1616 102.678 33.4158L102.692 33.4588ZM102.965 36.7163C102.261 36.7163 102.534 38.0795 102.563 38.467C102.821 43.7334 104.313 36.745 102.965 36.7163ZM45.5072 63.2207C45.5072 63.436 45.8946 63.4647 46.483 63.4647C48.9942 63.4647 58.0634 64.1822 58.2213 63.1777C58.7379 63.1777 58.5513 60.0637 58.4796 59.461C59.1253 57.9256 46.8561 59.0592 45.9664 58.9875C45.5646 58.8727 45.378 59.3175 45.4498 59.9776C45.5646 61.0969 45.4498 62.7041 45.5072 63.2207ZM46.1242 59.6045C49.9987 59.6045 54.1172 59.705 57.9773 59.6045V62.9194C53.9306 63.0772 50.0131 62.9194 46.0668 63.0342C46.144 61.8927 46.1631 60.748 46.1242 59.6045ZM26.8665 33.7458C26.6513 44.9819 26.7374 103.731 26.7661 121.869C26.7661 122.443 27.6701 122.515 27.6701 121.869C27.6701 110.217 27.7993 51.4107 27.4262 33.6597C27.8567 33.6597 29.3634 33.588 29.6648 33.1001C29.9661 32.6122 27.8567 27.03 27.541 26.1977C27.4262 25.9107 27.0531 26.1116 26.9957 26.3125C26.3069 28.5942 25.5607 30.8328 24.958 33.1431C24.7858 33.8463 26.4217 33.7602 26.8665 33.7458ZM103.381 53.0896V51.5111C103.381 50.4923 102.147 49.66 102.678 53.5632C102.821 54.5246 103.28 54.5246 103.381 53.0896ZM64.0474 60.853C64.1335 61.4413 64.9658 61.3839 64.9227 60.322C64.7936 56.9641 64.033 56.9067 64.0187 58.5857C63.9613 59.3403 63.9613 60.0983 64.0187 60.853H64.0474ZM64.5353 33.9754C65.3245 33.9037 64.7075 30.3305 64.5353 29.6704C64.5353 29.4265 64.0904 29.3691 64.0761 29.6704C64.0761 30.9619 64.0474 32.2534 63.99 33.5449C63.9875 33.6125 64.001 33.6798 64.0294 33.7412C64.0578 33.8027 64.1003 33.8565 64.1534 33.8985C64.2065 33.9404 64.2688 33.9692 64.3351 33.9826C64.4015 33.996 64.47 33.9935 64.5353 33.9754ZM64.033 44.9101V46.5173C64.033 47.5362 65.2671 48.3398 64.7362 44.4653C64.5353 43.4751 64.0904 43.5612 64.033 44.9101ZM64.4348 40.8204C65.3245 40.9065 64.7218 37.4912 64.6357 36.6732C64.6357 36.6047 64.6085 36.539 64.5601 36.4906C64.5116 36.4421 64.4459 36.4149 64.3774 36.4149C64.3089 36.4149 64.2432 36.4421 64.1948 36.4906C64.1463 36.539 64.1191 36.6047 64.1191 36.6732C64.1191 37.3046 63.7173 40.7486 64.4348 40.8204Z" fill="#403939"/>
</svg>
