<svg width="294" height="279" viewBox="0 0 294 279" fill="none" xmlns="http://www.w3.org/2000/svg">
<path d="M77.5424 68.0465C78.3648 66.4767 79.3149 64.9772 80.3832 63.5632C81.191 67.2656 86.8994 69.9583 89.7267 69.1235C90.0767 70.9949 90.0363 72.9606 90.1979 74.832C90.2035 74.8764 90.2238 74.9177 90.2555 74.9494C90.2871 74.9811 90.3285 75.0014 90.3729 75.007C90.4276 75.0117 90.4821 74.9966 90.5266 74.9645C90.5711 74.9324 90.6026 74.8853 90.6153 74.832C90.6153 74.4281 90.898 68.4908 90.0767 68.41C92.9579 62.0688 100.161 67.3195 100.053 64.2498C100.198 64.4106 100.377 64.5368 100.577 64.6188C100.777 64.7009 100.994 64.7368 101.21 64.7238C101.426 64.7109 101.636 64.6495 101.825 64.5441C102.014 64.4387 102.177 64.2921 102.301 64.1152C104.307 61.9746 104.644 58.6491 111.726 60.1839C111.106 60.5475 112.305 61.436 112.56 61.7053L115.253 64.9095C115.286 64.9347 115.326 64.9483 115.367 64.9483C115.409 64.9483 115.449 64.9347 115.482 64.9095C115.528 64.8839 115.562 64.8415 115.577 64.7913C115.592 64.741 115.587 64.6869 115.563 64.6403C114.704 63.0874 113.63 61.6641 112.372 60.4128C115.495 59.0665 116.155 53.1157 115.576 50.0865C117.34 49.898 119.763 49.9788 121.635 49.9788C121.89 49.9788 121.944 49.5749 121.635 49.5749C120.759 49.5076 115.172 48.8479 114.755 49.7095C111.968 47.9593 109.545 45.1724 106.206 44.4589C105.411 42.9914 99.9453 36.7444 97.9393 38.2254C96.9565 38.9659 98.397 40.2987 98.9356 40.8373C92.527 38.4946 92.3386 41.5912 95.9198 43.0991C97.3353 43.6517 98.689 44.3511 99.9588 45.1859C98.6861 45.6846 97.6163 46.5937 96.9189 47.7691C96.2214 48.9446 95.9361 50.3192 96.1083 51.6752C95.5294 49.9788 91.3019 49.1979 88.4746 50.3288C88.5549 47.9971 88.8114 45.6748 89.242 43.3818C89.444 41.2411 87.0071 41.7124 85.782 45.0782C85.4184 43.4222 84.1125 42.8702 83.5605 44.3646C82.7057 47.6032 82.7057 51.0081 83.5605 54.2467C81.921 56.8253 80.894 59.7452 80.5582 62.7824C79.8177 62.4996 77.5021 67.3329 77.2866 67.8715C77.2752 67.8918 77.2678 67.9142 77.2649 67.9374C77.2621 67.9606 77.2639 67.9841 77.2701 68.0066C77.2764 68.0291 77.287 68.0501 77.3014 68.0685C77.3158 68.0869 77.3336 68.1023 77.354 68.1138C77.3743 68.1253 77.3967 68.1327 77.4199 68.1355C77.4431 68.1383 77.4666 68.1366 77.4891 68.1303C77.5116 68.1241 77.5326 68.1135 77.551 68.0991C77.5694 68.0847 77.5848 68.0668 77.5963 68.0465H77.5424ZM98.2489 38.8312C98.4374 38.3466 99.5145 38.8312 99.8107 38.9255C101.94 40.2352 103.773 41.9727 105.196 44.028C102.759 42.3721 100.874 42.1163 99.0836 40.1506C98.8009 39.8814 98.0604 39.2486 98.2489 38.8312ZM97.5219 43.0587C96.5526 42.6144 94.6677 42.1432 94.358 40.9315C94.1292 40.1102 98.1412 41.1604 98.4913 41.2815C100.58 42.0611 102.569 43.0871 104.415 44.3377C103.127 44.3646 101.85 44.5917 100.632 45.0109C99.7038 44.1979 98.6545 43.5347 97.5219 43.0452V43.0587ZM96.7141 50.4635C97.0238 46.9092 99.8511 45.4551 103.257 44.9974C109.262 44.2165 112.762 50.2346 114.863 50.5712C115.145 53.5466 115.051 57.6798 112.52 59.7262C106.987 58.0837 104.361 59.8204 102.369 63.1189C100.376 66.4174 99.1779 62.0284 101.897 59.08C103.022 58.1305 103.966 56.9857 104.684 55.7007C105.627 53.4254 104.819 49.1575 101.992 48.5113C99.6491 47.9593 98.572 49.548 97.7373 51.379C97.32 52.5503 96.5391 52.4156 96.7141 50.4635ZM96.2429 51.9175C96.566 52.8734 97.67 52.8061 98.1278 51.9175C98.7067 50.827 98.8682 49.723 100.228 49.2922C103.903 48.1209 105.411 53.4389 103.85 56.0238C102.719 57.9221 99.5279 59.5242 99.6895 63.2132C98.0604 60.6821 93.3887 61.3956 91.45 60.3724C88.138 58.5684 88.4611 51.9444 94.3042 52.9273C95.1928 53.0484 96.2968 53.0888 96.2294 51.9175H96.2429ZM86.3205 45.6706C87.1956 43.0452 89.0131 41.5508 88.7035 43.8261C88.6227 44.6204 87.7207 50.3558 88.0034 50.6654C86.9551 51.2177 85.9934 51.9208 85.1492 52.7522C85.2894 50.358 85.6774 47.9848 86.307 45.6706H86.3205ZM83.7221 47.7574C83.7221 47.4073 84.2606 42.6683 85.0684 44.782C85.1542 45.3733 85.2802 45.958 85.4454 46.5322C85.1627 47.6227 84.3414 52.5907 84.651 53.2638L83.9913 53.9235C83.74 51.8784 83.6454 49.817 83.7086 47.7574H83.7221ZM84.2068 54.489C86.2801 52.1195 88.7304 50.1134 92.0424 50.3154C94.2369 50.45 95.2332 51.1636 95.5563 51.6617C96.0006 52.4964 94.91 52.4426 94.4119 52.3214C88.0034 50.7866 86.9667 58.703 91.2211 60.7629C92.8098 61.5303 95.1389 61.5841 96.8353 62.0149C98.5317 62.4458 100.147 63.8998 99.3394 64.5595C98.5317 65.2192 97.293 64.4114 95.1658 64.4114C92.7155 64.5191 89.7805 66.0943 89.444 68.4504C87.3168 69.1235 81.2718 66.8213 80.9217 63.3882C81.5006 60.709 82.4161 56.5758 84.1933 54.5428L84.2068 54.489ZM45.6884 198.357C46.2673 196.822 45.8769 194.507 44.1132 193.928C44.8671 188.973 35.564 189.7 35.766 192.137C33.0886 192.241 30.4541 192.844 27.9977 193.914C28.046 193.821 28.0562 193.713 28.026 193.612C27.9959 193.512 27.9278 193.427 27.8361 193.376H27.6342L20.189 194.184C20.1343 194.19 20.0842 194.218 20.0491 194.261C20.0141 194.303 19.9967 194.358 20.0005 194.413C20.0039 194.441 20.0128 194.468 20.0268 194.493C20.0408 194.518 20.0597 194.54 20.0822 194.558C20.1048 194.575 20.1306 194.588 20.1582 194.595C20.1858 194.603 20.2145 194.605 20.2429 194.601L27.4188 194.13C27.6207 199.004 30.1114 204.806 32.8041 208.845C30.8063 210.857 28.6095 212.662 26.2475 214.23C26.059 214.365 26.2475 214.702 26.4494 214.621C27.4726 214.136 34.285 209.653 33.6523 208.724C38.1221 208.28 39.9665 208.36 43.2785 213.005C45.0287 215.496 47.654 212.521 43.9113 206.987C43.1035 205.789 43.5881 205.924 43.44 205.641C44.7051 204.848 45.7842 203.792 46.6039 202.544C46.9723 201.851 47.0824 201.05 46.9148 200.283C46.7471 199.516 46.3125 198.833 45.6884 198.357ZM45.8096 202.49C45.0018 203.716 42.5111 205.183 42.7265 205.641C42.1072 206.691 44.6517 208.643 45.1364 211.363C45.2307 211.834 45.271 213.328 44.4767 213.261C42.9958 213.14 41.3532 206.004 33.2753 208.199C30.599 204.044 28.8198 199.376 28.0516 194.493C34.5678 192.797 32.7233 192.743 39.7242 192.528C39.7801 192.515 39.8292 192.481 39.8616 192.434C39.894 192.387 39.9074 192.329 39.8992 192.272C39.8936 192.227 39.8733 192.186 39.8417 192.154C39.81 192.123 39.7686 192.102 39.7242 192.097C38.5997 192.002 37.4694 192.002 36.3449 192.097C39.1318 189.512 45.5942 190.926 42.5649 195.732C42.161 196.392 43.4266 196.324 44.0055 194.386C46.9136 196.513 44.4094 199.34 44.0728 200.067C43.8709 200.484 44.6517 200.538 45.4999 198.802C45.9585 199.292 46.2384 199.923 46.2946 200.592C46.3508 201.262 46.1799 201.93 45.8096 202.49ZM208.648 161.939C210.602 159.606 211.808 156.74 212.111 153.712C212.413 150.684 211.798 147.635 210.344 144.962C207.395 139.577 201.674 135.417 203.101 128.51C203.585 126.167 204.541 123.946 204.999 121.603C206.09 115.868 204.999 109.486 201.054 104.976C197.513 101.031 191.711 99.7255 190.647 94.771C189.988 91.6879 191.118 88.5914 190.055 84.5793C189.27 81.534 187.642 78.772 185.357 76.6109C183.073 74.4497 180.225 72.9772 177.141 72.3626C174.056 71.748 170.861 72.0163 167.923 73.1367C164.985 74.2571 162.422 76.184 160.53 78.6959C172.983 82.4925 176.376 96.4405 171.301 108.207C168.796 114.05 163.398 119.759 156.881 124.552L156.962 123.704C162.994 119.099 168.635 111.452 170.237 107.736C175.959 94.2729 170.156 79.5979 154.754 78.117C145.411 77.188 134.021 79.9749 128.137 87.824C126.387 90.1666 123.775 98.5946 127.249 99.5505C126.629 103.051 125.324 111.048 125.054 114.266C124.475 121.549 127.006 129.156 135.084 130.233C135.102 131.812 135.021 133.39 134.842 134.959C113.826 139.402 100.376 153.632 94.7081 161.805C91.9594 157.206 88.8055 152.863 85.2838 148.826C85.8627 147.951 85.9166 144.652 85.9704 143.441C87.3168 144.302 94.9235 147.399 96.6603 147.318C96.926 147.333 97.1867 147.242 97.3859 147.066C97.5851 146.889 97.7065 146.641 97.7239 146.376C97.7379 146.264 97.7379 146.151 97.7239 146.039C97.1175 144.79 96.1878 143.725 95.0312 142.956C95.2339 142.534 95.2857 142.055 95.1779 141.599C95.0701 141.143 94.8092 140.738 94.4388 140.452C92.3807 138.986 90.2411 137.637 88.0303 136.413C87.8284 136.292 87.586 136.615 87.788 136.749L93.4291 140.708C94.1022 141.152 94.6408 141.637 94.3715 142.498C91.9116 140.529 89.3207 138.73 86.6167 137.113C84.3818 135.767 84.0587 136.224 83.6413 134.272C83.3855 133.047 83.3451 130.341 81.3122 131.23C80.8813 130.502 76.6943 130.449 76.4115 132.01C72.6986 130.336 68.8696 128.932 64.9543 127.81C64.6716 127.81 64.4966 128.2 64.685 128.389C67.5393 131.378 71.2147 133.491 74.6075 135.78C74.3163 135.873 74.0595 136.051 73.87 136.291C73.6805 136.531 73.5669 136.822 73.5439 137.126C71.0262 135.901 66.5834 139.361 70.5416 147.641C71.096 148.815 71.7826 149.922 72.588 150.94C69.1549 163.811 69.8953 178.728 72.0764 191.801C74.0151 203.352 77.4617 216.896 88.8112 222.685C93.6849 225.163 100.618 225.809 104.684 221.474L107.135 226.67C105.559 230.521 103.769 242.826 103.661 246.798C103.661 247.067 104.025 247.067 104.065 246.798C104.816 240.005 106.071 233.277 107.821 226.67C128.407 231.692 158.605 232.406 182.933 224.166C186.074 225.351 189.339 226.173 192.667 226.617C194.228 228.582 198.2 238.383 198.739 240.928C198.757 240.985 198.797 241.032 198.85 241.06C198.903 241.087 198.964 241.093 199.021 241.076C199.069 241.059 199.11 241.028 199.139 240.987C199.167 240.946 199.183 240.897 199.183 240.847C198.096 235.904 196.281 231.149 193.798 226.738C211.3 228.421 223.619 216.815 223.942 199.609C224.198 186.146 216.874 172.266 208.661 161.993L208.648 161.939ZM92.8906 145.191C93.2137 144.531 93.5503 143.845 93.8734 143.239C94.1426 142.889 95.0447 143.118 93.8734 145.07C93.106 146.241 92.7559 145.514 92.8906 145.191ZM71.6321 133.074L67.7951 130.381L68.2663 129.641L72.5476 131.23C72.2113 131.828 71.9057 132.444 71.6321 133.074ZM161.499 133.572C157.818 140.401 152.196 145.985 145.343 149.62C143.536 146.842 141.899 143.955 140.443 140.977C144.226 140.64 155.899 136.399 156.787 133.236C158.362 133.265 159.935 133.373 161.499 133.559V133.572ZM126.576 121.724C124.597 115.531 126.926 106.296 127.747 99.6447C131.476 100.224 138.908 95.7404 140.914 91.7957C142.933 96.2385 148.346 99.4428 153.139 99.8736C152.371 103.293 153.502 109.769 157.178 108.463C158.16 108.113 159.332 107.117 160.368 107.817C160.782 108.21 161.078 108.71 161.226 109.261C161.373 109.812 161.365 110.393 161.203 110.94C160.166 115.935 155.629 115.114 155.724 130.745L155.831 133.357C151.074 136.94 145.539 139.352 139.675 140.398C137.992 138.733 136.547 136.844 135.381 134.784C135.488 134.326 136.552 129.762 135.488 129.56C135.192 128.941 129.026 129.425 126.576 121.724ZM129.551 137.113C130.197 136.911 134.936 135.645 135.084 135.457C136.073 137.495 137.444 139.323 139.123 140.842C136.675 142.521 134.48 144.543 132.607 146.847C131.072 143.787 130.04 140.501 129.551 137.113ZM80.7063 131.728C80.1891 132.236 79.8613 132.906 79.7773 133.626C78.8215 133.168 77.8521 132.737 76.8693 132.28C77.4252 131.903 78.0595 131.657 78.7242 131.562C79.389 131.466 80.0667 131.523 80.7063 131.728ZM78.7003 139.348C80.0466 143.777 77.7983 144.235 76.5731 142.135C76.3067 140.41 75.4729 138.823 74.2036 137.625C75.0517 134.676 77.8656 136.749 78.7003 139.281V139.348ZM70.3262 144.975C69.7472 143.077 69.276 140.573 70.5685 138.85C73.2611 135.268 75.6845 140.021 75.9538 142.7C76.1288 144.733 75.0383 144.464 74.3382 143.589C73.6381 142.714 72.9919 141.462 72.0091 141.26C71.0262 141.058 72.8303 142.768 72.8842 142.821C73.2342 143.225 73.4765 143.696 73.8401 144.168C75.0787 145.649 76.7885 145.164 76.6943 143.077C77.354 143.845 78.3099 144.423 79.1042 143.696C78.983 145.783 79.5081 144.868 79.5081 144.841C79.5889 141.596 81.0833 140.169 80.8544 137.301C80.5616 136.091 80.4617 134.841 80.5582 133.599C80.7332 132.737 81.4333 131.553 82.4565 131.849C83.1566 133.532 82.6046 134.649 84.0317 137.234C85.4588 139.819 85.3781 140.896 85.203 143.966C85.1088 145.312 84.8934 146.658 84.7722 148.005C83.4259 150.199 75.4422 151.64 73.14 150.805C72.0331 148.925 71.0917 146.952 70.3262 144.908V144.975ZM73.0996 151.317C75.7922 152.313 82.645 151.478 84.9338 149.243C86.8859 151.801 88.892 154.292 90.723 156.931C85.0953 161.535 76.0346 161.603 71.5244 161.212C71.8744 157.833 72.4803 154.615 73.0996 151.249V151.317ZM220.32 212.251C214.396 224.691 201.566 228.151 188.857 225.23C178.988 222.968 166.992 216.344 159.049 209.895C164.757 204.725 167.208 195.678 166.683 189.7C177.022 188.139 185.666 187.358 196.059 186.779C196.109 186.779 196.157 186.759 196.193 186.724C196.228 186.688 196.248 186.64 196.248 186.59C196.248 186.54 196.228 186.492 196.193 186.457C196.157 186.422 196.109 186.402 196.059 186.402C190.97 186.51 185.881 186.887 180.819 187.344C181.088 186.55 176.915 183.602 173.589 176.655C173.495 176.439 173.078 176.52 173.158 176.789C174.724 180.789 177.135 184.403 180.227 187.385C171.912 188.048 163.648 189.231 155.481 190.926C153.354 187.344 149.1 183.925 144.899 183.346C143.93 178.903 142.058 169.25 140.86 165.184C140.712 164.686 135.475 165.695 134.748 165.776C134.936 166.799 135.327 168.698 133.859 168.967C130.682 169.559 117.178 171.66 113.799 171.66C112.453 171.66 112.372 169.842 112.318 168.967C111.631 169.061 107.404 169.452 107.269 169.99C106.946 171.337 115.441 210.501 116.222 214.002C116.33 214.513 119.454 214.109 119.979 214.082C130.18 213.637 140.351 212.644 150.446 211.107C150.529 211.097 150.605 211.055 150.658 210.989C150.711 210.924 150.736 210.841 150.729 210.757C150.735 210.73 150.735 210.703 150.729 210.676C150.998 210.393 149.382 203.675 149.18 202.787C149.759 202.867 150.419 203.002 151.038 203.056C160.597 215.173 175.932 221.635 182.004 223.924C155.952 231.113 133.644 231.356 107.485 226.051C103.594 216.546 99.676 205.776 99.0029 195.53C97.9931 180.263 105.061 164.443 115.011 153.121C115.172 152.932 114.903 152.65 114.728 152.838C105.048 163.124 97.8316 179.239 98.047 193.457C98.1816 202.1 101.224 212.48 104.429 220.679C100.969 224.638 94.9235 224.476 90.4268 222.578C78.9292 217.744 75.1056 204.618 73.0996 193.47C71.0766 183.012 70.5193 172.322 71.4436 161.71C77.8656 162.787 85.8762 161.441 91.1673 157.55C94.0204 161.737 96.5757 166.119 98.8144 170.663C98.9994 171.143 99.2485 171.596 99.5549 172.01C99.6097 172.061 99.6819 172.089 99.7568 172.089C99.8318 172.089 99.9039 172.061 99.9588 172.01C99.9946 171.978 100.023 171.938 100.041 171.894C100.06 171.85 100.069 171.802 100.066 171.754C99.8914 170.408 95.6774 163.272 95.0985 162.33C103.483 150.658 115.308 141.902 128.918 137.288C128.676 138.257 131.409 148.341 132.607 147.493C134.803 145.229 137.18 143.149 139.716 141.273C141.119 144.48 142.929 147.494 145.101 150.24C145.99 151.411 159.211 141.637 162.226 133.613C178.88 135.942 194.821 147.076 205.686 159.516C217.399 172.993 228.654 194.641 220.32 212.184V212.251ZM142.57 196.472C139.877 194.668 136 192.433 134.936 189.081C134.492 187.735 137.225 189.283 137.79 189.35C139.152 190.907 140.725 192.267 142.462 193.389C142.678 193.524 142.88 193.187 142.678 193.039C140.564 191.585 136.727 188.071 136.579 185.325C136.498 183.48 139.029 186.052 139.783 186.523C140.537 186.994 145.263 190.67 146.34 189.445C146.865 188.866 145.963 187.627 145.72 187.062C145.491 185.931 145.249 184.813 144.993 183.696C150.379 185.042 151.617 187.25 154.916 191.222C156.087 194.884 152.937 201.4 151.065 202.464C147.269 201.656 143.257 201.265 140.039 198.882C138.612 197.832 136 195.92 135.663 194.036C135.381 192.568 138.531 194.48 138.962 194.79C140.062 195.531 141.204 196.21 142.381 196.822C142.428 196.847 142.482 196.853 142.533 196.838C142.583 196.823 142.626 196.788 142.651 196.742C142.676 196.695 142.681 196.641 142.666 196.59C142.651 196.54 142.616 196.497 142.57 196.472ZM153.341 200.646C155.15 197.932 155.947 194.667 155.589 191.424L166.144 189.673C166.023 197.509 163.869 203.594 158.362 209.343C155.901 207.297 153.593 205.074 151.456 202.692C152.256 202.175 152.921 201.473 153.394 200.646H153.341Z" fill="#403939"/>
<path d="M133.631 164.861C132.85 162.895 130.4 163.744 128.851 163.972C127.68 164.147 126.28 164.848 125.809 163.824C124.961 161.939 123.91 160.324 121.5 160.768C118.108 161.347 119.602 165.157 118.377 165.48C116.182 166.059 112.642 164.996 113.113 169.25C113.113 169.56 113.261 170.704 113.746 170.717C116.856 170.717 130.225 168.644 133.644 168.025C134.533 167.863 133.819 165.332 133.644 164.834L133.631 164.861ZM121.514 165.292C119.858 164.04 121.514 161.939 122.685 163.03C124.395 164.592 122.712 166.167 121.581 165.292H121.514ZM137.414 114.832C137.831 114.751 137.764 114.024 137.333 114.078C134.991 114.333 135.287 113.674 135.583 110.9C135.748 109.112 136.067 107.342 136.539 105.609C136.537 105.562 136.519 105.517 136.489 105.481C136.459 105.445 136.418 105.42 136.373 105.409C136.327 105.398 136.279 105.403 136.236 105.422C136.193 105.441 136.158 105.474 136.135 105.515C135.329 108.003 134.827 110.58 134.641 113.189C134.573 114.832 136.095 115.074 137.414 114.832ZM233.865 52.914L227.268 55.0682C225.571 51.7562 221.963 46.8286 218.57 44.9034L222.933 39.0334C223.04 38.8853 222.852 38.643 222.704 38.7776C222.152 39.2892 217.965 43.7725 217.79 44.7822C208.231 49.8309 204.757 57.9762 209.712 58.8917C209.133 60.4535 210.627 61.8132 212.081 61.9344C211.758 64.0751 215.932 66.862 219.001 61.3016C220.267 61.4497 220.846 63.9135 221.586 65.2329C223.121 67.9256 225.625 68.8411 226.164 67.1716C226.783 65.004 222.488 59.3225 226.998 55.8625C227.577 56.1452 233.286 53.6949 234.053 53.1698C234.228 53.116 234.04 52.8602 233.865 52.914ZM211.718 61.2747H211.61C211.127 61.1421 210.715 60.8251 210.463 60.3921C210.212 59.959 210.14 59.4444 210.264 58.959C212.364 58.959 213.71 57.5185 214.989 56.0106C215.407 55.6336 216.861 55.324 216.968 56.1856C217.197 58.5147 214.128 61.9209 211.718 61.2747ZM214.733 63.9674C214.184 63.9504 213.659 63.7397 213.25 63.3726C212.841 63.0055 212.575 62.5056 212.499 61.9613C214.37 61.8536 215.622 60.3861 216.699 59.0129C217.251 58.4474 219.149 57.9493 218.921 59.5245C218.692 61.0997 216.618 64.1962 214.733 63.9135V63.9674ZM224.602 63.3077C224.777 63.927 226.339 67.5755 224.871 67.3466C221.64 66.9158 221.479 61.0728 219.217 60.8304C220.226 58.6359 219.082 57.2223 217.224 58.1378C217.857 56.5895 217.763 54.5296 215.434 55.1893C217.278 51.0561 211.92 52.9006 210.479 55.0143C210.277 55.3105 210.694 55.6471 210.91 55.3509C212.62 52.9679 217.251 51.8235 214.276 56.0375C210.035 61.9883 202.159 56.0375 215.07 47.2729L218.167 45.2534C221.587 48.0718 224.439 51.5172 226.568 55.4047C224.171 57.2223 223.821 60.4938 224.615 63.2538L224.602 63.3077ZM275.587 193.794C272.672 193.955 269.769 194.278 266.89 194.763C266.513 194.898 266.58 195.624 266.621 195.921C261.949 194.426 263.861 186.496 261.626 185.796C261.27 185.711 260.896 185.736 260.555 185.869C260.213 186.001 259.92 186.234 259.714 186.537C258.301 188.368 258.368 190.993 258.449 193.268C255.985 192.434 251.044 193.39 252.094 197.227C250.842 197.657 250.748 201.01 251.367 202.329C250.908 203.925 251.1 205.638 251.899 207.093C252.699 208.549 254.042 209.629 255.635 210.098L256.039 210.192C258.49 210.825 261.024 211.07 263.551 210.919C263.093 212.265 270.283 214.958 271.427 215.24C271.48 215.257 271.537 215.252 271.586 215.227C271.635 215.203 271.674 215.16 271.693 215.109C271.712 215.057 271.71 215 271.688 214.949C271.666 214.899 271.626 214.858 271.575 214.837C269.02 213.708 266.526 212.445 264.103 211.053C267.2 207.109 268.142 200.283 267.361 195.503C270.054 195.113 272.908 194.911 275.628 194.292C275.843 194.157 275.776 193.794 275.587 193.794ZM263.794 210.313C259.835 209.451 251.677 211.201 251.838 202.975C252.484 203.649 252.808 203.191 252.538 202.975C251.488 202.168 251.367 198.761 252.323 197.792C252.808 198.829 253.023 198.183 252.956 198.007C251.152 193.847 255.918 193.188 258.422 193.969C258.274 195.423 256.9 194.965 256.012 194.547C255.963 194.528 255.909 194.526 255.859 194.544C255.81 194.561 255.768 194.596 255.743 194.642C255.717 194.679 255.703 194.724 255.703 194.77C255.703 194.815 255.717 194.86 255.743 194.897C256.941 195.961 258.893 195.826 259.014 193.942C259.108 192.42 258.745 187.425 260.737 186.537C262.73 185.648 261.72 190.333 263.013 193.376C263.538 194.615 265.463 196.998 266.661 196.769C267.294 202.033 266.163 205.56 263.794 210.313ZM253.858 134.421C254.692 134.353 256.456 134.057 256.55 132.98C259.189 133.142 261.828 133.209 264.467 133.182C264.723 134.138 271.656 134.34 272.666 134.178C272.868 134.178 272.962 133.828 272.666 133.774L265.288 132.859C265.88 128.968 265.167 120.378 262.716 117.726C263.847 116.555 269.233 114.078 271.091 113.081C271.123 113.046 271.141 113.001 271.141 112.953C271.141 112.906 271.123 112.86 271.091 112.826C271.071 112.791 271.04 112.765 271.004 112.75C270.967 112.735 270.926 112.733 270.889 112.745C269.664 113.122 262.138 116.245 261.814 117.632C254.369 117.322 253.871 109.85 251.259 110.752C249.307 111.439 250.371 115.357 251.071 116.689C251.34 117.228 252.565 118.817 251.273 118.938C248.042 119.261 245.551 123.138 248.001 125.037C247.113 126.693 247.449 129.17 248.647 129.83C247.355 133.572 250.963 134.73 253.858 134.421ZM249.119 131.324C249.09 130.878 249.153 130.43 249.303 130.009C249.454 129.587 249.689 129.201 249.994 128.874C250.263 128.618 249.765 128.039 248.984 129.331C247.961 126.922 247.947 125.643 249.967 123.717C250.371 123.34 249.388 123.138 248.351 124.619C246.816 121.738 249.213 120.325 251.542 119.476C253.413 119.005 252.04 117.134 251.73 116.582C250.896 115.074 250.384 111.587 251.73 111.331C253.077 111.075 253.481 114.616 257.331 117.013C258.86 118.062 260.709 118.539 262.555 118.359C264.399 121.63 265.032 128.456 264.736 132.388H252.484C252.269 132.388 252.282 132.67 252.484 132.697C253.588 132.805 254.692 132.886 255.796 132.967C255.581 134.003 249.186 134.663 249.119 131.324ZM132.15 101.274C131.336 101.411 130.594 101.824 130.05 102.445C129.323 103.374 129.928 103.792 130.05 103.401C130.554 102.703 131.305 102.222 132.15 102.055C132.931 101.786 132.594 101.274 132.15 101.274ZM142.853 102.243C143.811 102.364 144.688 102.846 145.303 103.59C145.505 103.859 145.99 103.697 145.303 102.688C145.05 102.303 144.712 101.982 144.315 101.749C143.919 101.516 143.474 101.376 143.015 101.341C142.49 101.463 142.382 102.109 142.853 102.243ZM49.9163 106.43C48.8082 105.827 47.5697 105.504 46.3082 105.488C46.3082 103.886 47.3853 102.58 48.0584 101.166C49.5528 97.989 47.8699 96.0638 46.564 96.71C45.0561 97.4639 43.4405 103.024 37.3955 102.095C37.3955 101.018 32.1449 97.6659 31.0274 97.1408C30.812 97.0331 30.6774 97.3697 30.8793 97.4774C32.946 98.8188 34.868 100.371 36.6147 102.109C31.6467 105.825 31.9429 114.535 32.1987 114.845C29.7349 114.939 27.2981 114.306 24.8478 114.549C24.6054 114.549 24.6054 114.966 24.8478 114.966C26.0729 114.966 32.2122 115.801 32.7911 115.464C35.1606 117.713 42.1211 120.621 45.6216 119.921C46.1569 119.836 46.6699 119.645 47.1299 119.359C47.5899 119.072 47.9875 118.696 48.299 118.253C48.6106 117.809 48.8297 117.307 48.9433 116.778C49.0569 116.248 49.0628 115.7 48.9605 115.168C49.2617 115.061 49.5388 114.896 49.7758 114.681C50.0128 114.467 50.205 114.208 50.3414 113.918C50.4778 113.629 50.5557 113.316 50.5705 112.997C50.5854 112.678 50.5369 112.359 50.4279 112.058C50.338 111.804 50.206 111.568 50.0375 111.358C50.4724 111.104 50.8312 110.739 51.0766 110.299C51.3219 109.859 51.4448 109.362 51.4325 108.858C51.4201 108.355 51.2729 107.864 51.0062 107.437C50.7395 107.01 50.3632 106.663 49.9163 106.43ZM48.2469 117.12C46.0659 122.088 34.7836 116.905 32.9123 114.428C32.7507 114.199 32.7103 106.511 37.207 102.513C42.8481 104.573 46.1466 97.1274 47.1833 97.1274C47.9238 97.1274 48.1527 98.1909 48.1527 98.7564C48.1527 101.234 45.7427 102.997 45.7562 105.488C43.4674 105.717 42.7 107.696 43.7502 108.706C41.2325 108.8 40.6402 110.873 42.8616 112.139C38.8226 112.516 41.8519 115.895 45.4331 116.393C45.662 116.393 45.7023 116.084 45.4331 116.016C38.136 113.445 42.7404 111.466 46.6044 113.404C48.0853 114.226 49.0143 115.276 48.2469 117.12ZM48.7316 114.428C47.9684 113.362 46.8358 112.618 45.5542 112.341C44.2079 111.964 43.5617 112.435 42.2154 111.062C41.1652 110.012 42.8616 108.477 46.4428 109.715C50.3068 110.994 50.7376 113.647 48.6912 114.468L48.7316 114.428ZM50.5087 109.702C50.2532 110.106 49.9189 110.454 49.5259 110.725C48.1267 109.539 46.3873 108.827 44.558 108.692C44.3426 108.436 43.6963 108.342 43.7636 107.508C43.9117 104.801 52.1512 106.148 50.4683 109.742L50.5087 109.702ZM142.113 108.948C142.719 108.948 143.23 107.117 142.436 106.848C141.641 106.579 141.44 108.948 142.113 108.948ZM131.059 106.148C130.548 106.148 130.13 108.194 130.763 108.194C131.396 108.194 131.8 106.215 131.059 106.148ZM141.615 118.951C146.744 119.638 146.219 114.091 145.102 115.02C144.576 115.491 146.125 118.345 141.655 118.601C141.453 118.601 141.386 118.951 141.615 118.951Z" fill="#403939"/>
</svg>
