<svg width="128" height="122" viewBox="0 0 128 122" fill="none" xmlns="http://www.w3.org/2000/svg">
<path d="M2.13556 114.007V115.415L0.783918 116.487L2.13556 117.589V118.996L0 117.156V115.825L2.13556 114V114.007ZM3.64837 116.491L5 117.593V119L2.86444 117.16V115.829L5 114.004V115.411L3.64837 116.484V116.491Z" fill="#0055AF"/>
<path d="M12.9939 118.946V122H11.508V120.442H6.48595V122H5V118.946C5.74448 118.86 6.28452 118.471 6.38524 117.414L6.91616 112H12.222V118.946H13H12.9939ZM10.73 118.946V113.496H8.27388L7.89244 117.423C7.82535 118.129 7.65445 118.616 7.41956 118.942H10.73V118.946Z" fill="#0055AF"/>
<path d="M21 120H14V112H20.9041V113.418H15.7962V115.123H20.1555V116.54H15.7962V118.582H21V120Z" fill="#0055AF"/>
<path d="M25.4183 113.418V120H23.5817V113.418H21V112H28V113.418H25.4183Z" fill="#0055AF"/>
<path d="M30.3902 112V117.88L33.3377 112H35V120H33.6211V114.12L30.6615 120H29V112H30.3902Z" fill="#0055AF"/>
<path d="M44.2551 120H40V112H44.0268C45.7763 112 46.6588 112.831 46.6588 114.167C46.6588 114.835 46.3449 115.375 45.8036 115.735C46.546 116.091 47 116.737 47 117.646C47 119.076 45.9428 119.997 44.2551 119.997M41.664 113.38V115.144H44.0304C44.5963 115.144 45.0494 114.785 45.0494 114.258C45.0494 113.73 44.6573 113.38 44.0304 113.38H41.664ZM43.9931 116.537H41.664V118.601H44.0304C44.6709 118.601 45.3023 118.37 45.3023 117.586C45.3023 116.918 44.8383 116.537 43.9931 116.537Z" fill="#0055AF"/>
<path d="M51.6075 120.997C49.5775 120.997 48 119.02 48 116.498C48 113.976 49.5798 112 51.6075 112C53.2952 112 54.5404 113.108 55 114.872H53.4637C53.1322 114.088 52.4661 113.505 51.6075 113.505C50.3833 113.505 49.4168 114.872 49.4168 116.502C49.4168 118.131 50.3833 119.508 51.6075 119.508C52.4576 119.508 53.1322 118.899 53.4637 118.118H54.9883C54.5171 119.869 53.2603 121 51.6044 121" fill="#0055AF"/>
<path d="M63 120H56V112H62.9045V113.418H57.797V115.123H62.1552V116.54H57.797V118.582H63V120Z" fill="#0055AF"/>
<path d="M65.622 112.348V117.972L69.0607 112.348H71V120H69.3913V114.376L65.9393 120H64V112.348H65.622ZM67.6106 111.762C66.4153 111.762 65.5726 111.013 65.4765 110H66.6233C66.7185 110.385 67.0491 110.705 67.6106 110.705C68.1721 110.705 68.5027 110.385 68.5988 110H69.7447C69.646 111.016 68.8068 111.762 67.6106 111.762Z" fill="#0055AF"/>
<path d="M79.1233 120.997C76.8021 120.997 75 119.02 75 116.498C75 113.976 76.8057 112 79.1233 112C81.0515 112 82.4747 113.108 83 114.872H81.2449C80.866 114.088 80.1038 113.505 79.1233 113.505C77.7232 113.505 76.6193 114.872 76.6193 116.502C76.6193 118.131 77.7232 119.508 79.1233 119.508C80.094 119.508 80.866 118.899 81.2449 118.118H82.9867C82.4481 119.869 81.0115 121 79.1198 121" fill="#0055AF"/>
<path d="M87.7868 113.418V120H86.2123V113.418H84V112H90V113.418H87.7868Z" fill="#0055AF"/>
<path d="M94.398 117.143H92.5196V120H91V112H94.363C96.0325 112 97 113.015 97 114.582C97 116.069 95.9734 117.143 94.398 117.143ZM92.5196 113.421V115.75H94.3505C95.0533 115.75 95.4804 115.394 95.4804 114.585C95.4804 113.777 95.0558 113.421 94.3505 113.421H92.5196Z" fill="#0055AF"/>
<path d="M99.3007 118.398L98.7215 120H97L99.9767 112H102.027L105 120H103.278L102.699 118.398H99.2971H99.3007ZM100.995 113.696L99.8035 116.98H102.187L100.995 113.696Z" fill="#0055AF"/>
<path d="M112 120H110.586V116.621H107.422V120H106V112H107.422V115.204H110.586V112H112V120Z" fill="#0055AF"/>
<path d="M115.704 115.148H117.643C119.347 115.148 120.459 116.141 120.459 117.568C120.459 118.995 119.35 120 117.643 120H114V112H115.704V115.148ZM117.408 116.543H115.704V118.607H117.408C118.273 118.607 118.713 118.261 118.713 117.571C118.713 116.881 118.273 116.543 117.408 116.543ZM121.296 112H123V120H121.296V112Z" fill="#0055AF"/>
<path d="M125.707 115.822V117.156L124 119V117.59L125.081 116.485L124 115.41V114L125.707 115.829V115.822ZM128 117.156L126.293 119V117.59L127.373 116.485L126.293 115.41V114L128 115.829V117.163V117.156Z" fill="#0055AF"/>
<path d="M2.54588 107C1.67685 107 1 106.122 1 105C1 103.878 1.67685 103 2.54588 103C3.26865 103 3.80209 103.492 4 104.277H3.34029C3.19694 103.929 2.91301 103.668 2.54305 103.668C2.01819 103.668 1.60514 104.277 1.60514 105C1.60514 105.723 2.01819 106.336 2.54305 106.336C2.90727 106.336 3.19694 106.064 3.34029 105.716H3.99426C3.79061 106.494 3.25427 106.997 2.54588 106.997" fill="#0055AF"/>
<path d="M8 104.997C8 106.114 7.36913 107 6.50133 107C5.6336 107 5 106.114 5 104.997C5 103.879 5.6308 103 6.50133 103C7.37185 103 8 103.886 8 104.997ZM7.41316 104.997C7.41316 104.283 7.00547 103.69 6.50133 103.69C5.99719 103.69 5.58677 104.283 5.58677 104.997C5.58677 105.71 5.99447 106.307 6.50133 106.307C7.00826 106.307 7.41316 105.714 7.41316 104.997Z" fill="#0055AF"/>
<path d="M12 105.778V107H11.4417V106.378H9.55841V107H9V105.778C9.27924 105.745 9.48201 105.59 9.51891 105.165L9.71648 103H11.7076V105.778H12ZM11.1493 105.778V103.597H10.2274L10.0852 105.168C10.0588 105.45 9.99564 105.644 9.9061 105.775H11.1493V105.778Z" fill="#0055AF"/>
<path d="M13.6953 105.57H12.7599V107H12V103H13.681C14.5161 103 15 103.507 15 104.29C15 105.074 14.4875 105.57 13.6989 105.57M12.7635 103.708V104.872H13.6775C14.0287 104.872 14.2401 104.693 14.2401 104.29C14.2401 103.888 14.0287 103.708 13.6775 103.708H12.7635Z" fill="#0055AF"/>
<path d="M16.4198 105.597C15.5756 105.597 15.0035 105.071 15.0035 104.06V103H15.743V104.085C15.743 104.668 16.0047 104.901 16.5 104.901C16.9953 104.901 17.257 104.622 17.257 104.085V103H18V105.375C18 106.378 17.5255 107 16.4825 107C15.7046 107 15.1465 106.534 15 105.943H15.8128C15.907 106.148 16.1302 106.3 16.4861 106.3C16.9744 106.3 17.257 106.007 17.257 105.392V105.24C17.0895 105.445 16.8139 105.59 16.4233 105.59" fill="#0055AF"/>
<path d="M21.58 104.642C21.8782 104.642 22.0169 104.499 22.076 104.129L22.2708 103H22.8848L22.6811 104.211C22.6044 104.657 22.5247 104.869 22.3505 104.995C22.5542 105.156 22.6487 105.329 22.7343 105.739L23 107H22.3712L22.1292 105.864C22.0494 105.48 21.893 105.35 21.5978 105.35H21.3143V107H20.6856V105.35H20.4022C20.11 105.35 19.9535 105.476 19.8708 105.864L19.6288 107H19L19.2657 105.739C19.3513 105.329 19.4458 105.156 19.6495 104.995C19.4753 104.869 19.3926 104.66 19.3189 104.211L19.1152 103H19.7321L19.9269 104.129C19.9889 104.499 20.1247 104.642 20.4229 104.642H20.6886V103H21.3173V104.642H21.583H21.58Z" fill="#0055AF"/>
<path d="M27 107H24V103H26.9573V103.708H24.7711V104.56H26.637V105.271H24.7711V106.292H27V107Z" fill="#0055AF"/>
<path d="M29.0607 107C27.9023 107 27 106.122 27 105C27 103.878 27.9023 103 29.0607 103C30.0253 103 30.7367 103.492 31 104.277H30.1202C29.9293 103.929 29.5507 103.668 29.0577 103.668C28.3575 103.668 27.8063 104.277 27.8063 105C27.8063 105.723 28.3575 106.336 29.0577 106.336C29.5435 106.336 29.9293 106.064 30.1202 105.716H30.9929C30.7214 106.494 30.0059 106.997 29.0607 106.997" fill="#0055AF"/>
<path d="M31.6311 103.708V107H31.3686V103.708H31V103H32V103.708H31.6311Z" fill="#0055AF"/>
<path d="M34.8257 107H33V103H34.7278C35.4789 103 35.8553 103.417 35.8553 104.085C35.8553 104.42 35.7206 104.693 35.4888 104.869C35.8086 105.049 36 105.372 36 105.825C36 106.54 35.5463 107 34.8221 107M33.7107 103.69V104.571H34.7278C34.9703 104.571 35.1653 104.391 35.1653 104.129C35.1653 103.866 34.9973 103.69 34.7278 103.69H33.7107ZM34.7107 105.268H33.7107V106.299H34.7278C35.0036 106.299 35.2731 106.184 35.2731 105.792C35.2731 105.458 35.0746 105.268 34.7107 105.268Z" fill="#0055AF"/>
<path d="M40 104.997C40 106.114 39.159 107 38.0015 107C36.8449 107 36 106.114 36 104.997C36 103.879 36.841 103 38.0015 103C39.162 103 40 103.886 40 104.997ZM39.2178 104.997C39.2178 104.283 38.6739 103.69 38.0015 103.69C37.3291 103.69 36.7822 104.283 36.7822 104.997C36.7822 105.71 37.3261 106.307 38.0015 106.307C38.6778 106.307 39.2178 105.714 39.2178 104.997Z" fill="#0055AF"/>
<path d="M43.8248 107H42V103H43.7278C44.478 103 44.8553 103.417 44.8553 104.085C44.8553 104.42 44.7206 104.693 44.4888 104.869C44.8086 105.049 45 105.372 45 105.825C45 106.54 44.5454 107 43.8221 107M42.7107 103.69V104.571H43.7278C43.9703 104.571 44.1653 104.391 44.1653 104.129C44.1653 103.866 43.9973 103.69 43.7278 103.69H42.7107ZM43.7107 105.268H42.7107V106.299H43.7278C44.0036 106.299 44.2731 106.184 44.2731 105.792C44.2731 105.458 44.0746 105.268 43.7107 105.268Z" fill="#0055AF"/>
<path d="M46.7582 104.573H47.6195C48.3777 104.573 48.8708 105.068 48.8708 105.783C48.8708 106.497 48.3777 107 47.6195 107H46V103H46.7582V104.573ZM47.5155 105.269H46.7582V106.3H47.5155C47.8979 106.3 48.0944 106.127 48.0944 105.783C48.0944 105.438 47.8979 105.269 47.5155 105.269ZM49.2418 103H50V106.996H49.2418V103Z" fill="#0055AF"/>
<path d="M52 107H51.5207V103.708H50.4799V107H50V103H52V107Z" fill="#0055AF"/>
<path d="M54.4195 105.597C53.5752 105.597 53.0037 105.071 53.0037 104.06V103H53.7428V104.085C53.7428 104.668 54.0043 104.901 54.4995 104.901C54.9957 104.901 55.2572 104.622 55.2572 104.085V103H56V105.375C56 106.378 55.5253 107 54.4828 107C53.7046 107 53.1461 106.534 53 105.943H53.8126C53.9066 106.148 54.13 106.3 54.4856 106.3C54.9743 106.3 55.2572 106.007 55.2572 105.392V105.24C55.0897 105.445 54.8142 105.59 54.4232 105.59" fill="#0055AF"/>
<path d="M58.0607 107C56.9023 107 56 106.122 56 105C56 103.878 56.9023 103 58.0607 103C59.0253 103 59.7367 103.492 60 104.277H59.1212C58.9293 103.929 58.5506 103.668 58.0577 103.668C57.3575 103.668 56.8063 104.277 56.8063 105C56.8063 105.723 57.3575 106.336 58.0577 106.336C58.5435 106.336 58.9293 106.064 59.1212 105.716H59.9929C59.7214 106.494 59.0059 106.997 58.0607 106.997" fill="#0055AF"/>
<path d="M62.6979 105.74L63 107H62.2845L62.0093 105.865C61.9187 105.478 61.7403 105.352 61.4041 105.352H60.7155V107H60V103.004H60.7155V104.645H61.3843C61.7232 104.645 61.8811 104.501 61.9519 104.131L62.1733 103H62.8763L62.644 104.21C62.5571 104.655 62.4656 104.867 62.2675 104.993C62.4997 105.154 62.6073 105.327 62.705 105.736" fill="#0055AF"/>
<path d="M67 107H66.2971V105.311H64.7135V107H64V103H64.7135V104.603H66.2971V103H67V107Z" fill="#0055AF"/>
<path d="M68.6937 103V105.94L70.1698 103H71V107H70.3098V104.06L68.8311 107H68V103H68.6937Z" fill="#0055AF"/>
<path d="M73.6982 105.74L74 107H73.2854L73.0096 105.865C72.9191 105.478 72.7418 105.352 72.406 105.352H71.7182V107H71V103.004H71.7182V104.645H72.3854C72.7248 104.645 72.8824 104.501 72.9531 104.131L73.1743 103H73.8755L73.6445 104.21C73.5567 104.655 73.4663 104.867 73.2684 104.993C73.5003 105.154 73.6078 105.327 73.7045 105.736" fill="#0055AF"/>
<path d="M78 104.997C78 106.114 77.159 107 76.0015 107C74.8449 107 74 106.114 74 104.997C74 103.879 74.841 103 76.0015 103C77.162 103 78 103.886 78 104.997ZM77.2178 104.997C77.2178 104.283 76.6739 103.69 76.0015 103.69C75.3291 103.69 74.7822 104.283 74.7822 104.997C74.7822 105.71 75.3261 106.307 76.0015 106.307C76.6778 106.307 77.2178 105.714 77.2178 104.997Z" fill="#0055AF"/>
<path d="M79.8248 107H78V103H79.7269C80.478 103 80.8554 103.417 80.8554 104.085C80.8554 104.42 80.7206 104.693 80.4879 104.869C80.8077 105.049 81 105.372 81 105.825C81 106.54 80.5454 107 79.8212 107M78.7107 103.69V104.571H79.7269C79.9695 104.571 80.1644 104.391 80.1644 104.129C80.1644 103.866 79.9964 103.69 79.7269 103.69H78.7107ZM79.7107 105.268H78.7107V106.299H79.7269C80.0036 106.299 80.2722 106.184 80.2722 105.792C80.2722 105.458 80.0737 105.268 79.7107 105.268Z" fill="#0055AF"/>
<path d="M87 105.778V107H86.2559V106.378H83.7441V107H83V105.778C83.3721 105.745 83.6429 105.59 83.6917 105.165L83.955 103H86.6101V105.778H87ZM85.866 105.778V103.597H84.6364L84.447 105.168C84.4114 105.45 84.3271 105.644 84.2081 105.775H85.866V105.778Z" fill="#0055AF"/>
<path d="M90 107H87V103H89.9602V103.708H87.7706V104.56H89.637V105.271H87.7706V106.292H90V107Z" fill="#0055AF"/>
<path d="M91.261 103.708V107H90.7371V103.708H90V103H92V103.708H91.261Z" fill="#0055AF"/>
<path d="M94.5459 107C93.6765 107 93 106.122 93 105C93 103.878 93.6765 103 94.5459 103C95.2684 103 95.8018 103.492 96 104.277H95.3403C95.1972 103.929 94.9133 103.668 94.5429 103.668C94.0179 103.668 93.6054 104.277 93.6054 105C93.6054 105.723 94.0179 106.336 94.5429 106.336C94.9071 106.336 95.1972 106.064 95.3403 105.716H95.9939C95.7903 106.494 95.2538 106.997 94.5459 106.997" fill="#0055AF"/>
<path d="M99.6982 105.74L100 107H99.2854L99.0104 105.865C98.92 105.478 98.7418 105.352 98.406 105.352H97.7182V107H97V103.004H97.7182V104.645H98.3863C98.7248 104.645 98.8833 104.501 98.9531 104.131L99.1752 103H99.8764L99.6445 104.21C99.5576 104.655 99.4672 104.867 99.2693 104.993C99.5003 105.154 99.6078 105.327 99.7054 105.736" fill="#0055AF"/>
<path d="M100.697 103V105.94L102.17 103H103V107H102.313V104.06L100.831 107H100V103H100.697Z" fill="#0055AF"/>
<path d="M105.5 105.598L104.774 107H104L105.108 104.952L104.049 103H104.82L105.5 104.308L106.179 103H106.954L105.895 104.952L107 107H106.228L105.5 105.598Z" fill="#0055AF"/>
<path d="M112 105.778V107H111.442V106.378H109.558V107H109V105.778C109.279 105.745 109.481 105.59 109.519 105.165L109.716 103H111.708V105.778H112ZM111.149 105.778V103.597H110.227L110.085 105.168C110.059 105.45 109.995 105.644 109.906 105.775H111.149V105.778Z" fill="#0055AF"/>
<path d="M116 104.997C116 106.114 115.159 107 114.001 107C112.845 107 112 106.114 112 104.997C112 103.879 112.841 103 114.001 103C115.162 103 116 103.886 116 104.997ZM115.218 104.997C115.218 104.283 114.674 103.69 114.001 103.69C113.329 103.69 112.782 104.283 112.782 104.997C112.782 105.71 113.326 106.307 114.001 106.307C114.678 106.307 115.218 105.714 115.218 104.997Z" fill="#0055AF"/>
<path d="M120 107H119.237V104.064L118.412 107H117.588L116.763 104.064V107H116V103H117.146L117.997 105.997L118.847 103H120V107Z" fill="#0055AF"/>
<path d="M124 104.997C124 106.114 123.159 107 122.002 107C120.845 107 120 106.114 120 104.997C120 103.879 120.841 103 122.002 103C123.163 103 124 103.886 124 104.997ZM123.218 104.997C123.218 104.283 122.674 103.69 122.002 103.69C121.33 103.69 120.782 104.283 120.782 104.997C120.782 105.71 121.326 106.307 122.002 106.307C122.678 106.307 123.218 105.714 123.218 104.997Z" fill="#0055AF"/>
<path d="M126.825 107H125V103H126.728C127.478 103 127.855 103.417 127.855 104.085C127.855 104.42 127.721 104.693 127.489 104.869C127.809 105.049 128 105.372 128 105.825C128 106.54 127.545 107 126.822 107M125.711 103.69V104.571H126.728C126.97 104.571 127.165 104.391 127.165 104.129C127.165 103.866 126.997 103.69 126.728 103.69H125.711ZM126.711 105.268H125.711V106.299H126.728C127.004 106.299 127.273 106.184 127.273 105.792C127.273 105.458 127.075 105.268 126.711 105.268Z" fill="#0055AF"/>
<path d="M124 35.8975C124 30.9701 115.824 31.7902 115.824 31.7902C115.824 31.7902 119.237 30.1432 119.744 29.8233C123.571 27.3839 124.364 25.8827 123.571 24.2496C122.579 22.2063 116.338 23.7492 116.338 23.7492L90.9544 29.0032C90.9544 29.0032 122.129 20.1353 122.129 15.868C122.129 12.7962 80.0581 22.0534 56.4592 27.4813C76.0953 22.7414 107.306 14.6935 107.306 11.434C107.306 9.62705 103.9 9.62705 102.022 9.62705C89.7548 9.62705 46.4841 20.9553 46.4841 20.9553C48.9546 18.5715 90.9472 10.607 90.9472 8.14673C90.9472 7.15986 89.0765 7 87.7126 7C80.2153 7 35.5808 14.0611 37.63 14.0611C40.2863 14.0611 63.0926 11.4618 72.9678 10.322C58.63 12.7267 21.4501 22.7622 21.4501 27.363C21.4501 27.8565 22.1284 28.6766 23.1495 28.6766C24.6418 28.6766 32.8389 28.4682 36.1091 28.3847C23.6134 28.9963 4.74869 37.7184 4.74869 42.4721C4.74869 44.6058 7.47632 44.7725 8.66876 44.7725C9.13287 44.7725 11.3535 44.3208 13.8955 43.7717C9.27568 45.3493 4.74869 47.6845 4.74869 50.0267C4.74869 52.4869 7.30495 53.1471 7.30495 53.1471C5.43417 53.1471 1 55.1139 1 58.4013C1 60.368 2.87078 62.5086 6.28387 62.5086C9.69696 62.5086 60.115 48.5532 60.115 48.5532C54.6599 53.8005 0.657262 67.9226 1.17137 74.3234C1.36416 76.7767 3.04215 78.2639 5.42702 78.2639C7.81191 78.2639 26.0413 72.6832 26.0413 72.6832C26.0413 73.9968 27.7477 75.8037 30.304 75.8037C32.8603 75.8037 45.463 73.1767 45.463 73.1767C45.463 73.1767 17.1872 80.2377 17.1872 84.1783C17.1872 86.3118 18.8866 87.4655 21.6143 87.4655C24.3419 87.4655 49.3832 82.7049 49.3832 82.7049C49.3832 82.7049 26.2341 88.6053 18.9866 90.6C18.5439 90.7112 18.1155 90.8293 17.7156 90.9543C17.1801 91.1073 16.873 91.2045 16.8445 91.2393C16.8445 91.2393 16.8373 91.2531 16.8302 91.2602C14.9594 91.9622 13.8312 92.8447 14.0954 93.8037C14.5381 95.4092 17.5085 95.3606 18.6153 95.1522C18.8366 95.1104 19.058 95.0618 19.2865 95.0201C19.3008 95.0201 19.315 95.0201 19.3293 95.027C71.3469 84.8594 103.55 70.223 103.55 70.223C86.3417 86.8053 42.2214 88.1189 42.2214 93.0462C42.2214 94.0332 43.5851 94.3598 44.2634 94.3598C55.3382 94.3598 100.137 83.1913 100.137 83.1913C92.3895 90.6626 71.9467 94.4362 71.3469 95.0132C70.7471 95.59 72.0252 96 73.0463 96C78.3301 96 99.28 89.4325 99.28 89.759C99.28 90.0856 97.0665 91.3992 97.0665 91.3992C97.0665 91.3992 100.473 90.0856 100.473 89.2655C100.473 88.4455 90.7616 90.7458 90.7616 90.7458C90.7616 90.7458 104.221 85.325 104.221 81.0578C104.221 79.4177 92.9751 82.0447 92.9751 82.0447C92.9751 82.0447 108.305 74.1635 108.305 69.236C108.305 66.9356 105.407 66.7757 105.407 66.7757C105.407 66.7757 105.578 66.4491 105.578 65.3025C105.578 61.5218 95.36 62.6753 95.36 62.6753C95.36 62.6753 106.777 60.2151 106.777 54.6275C106.777 52.9873 105.928 52.1672 105.928 52.1672C108.141 52.1672 113.082 50.5271 113.082 47.4066C113.082 45.7664 111.718 44.4528 111.718 44.4528C111.718 44.4528 123.986 41.8259 123.986 35.9115" fill="#76D2FF"/>
<path d="M57.993 8.50001C57.993 13.1953 54.1925 17 49.4965 17C44.8005 17 41 13.1953 41 8.50001C41 3.80469 44.8075 0 49.5035 0C54.1995 0 58 3.80469 58 8.50001" fill="#D60928"/>
<path d="M96 22.4999C96 27.1937 92.1932 31 87.4999 31C82.8068 31 79 27.1937 79 22.4999C79 17.8062 82.8068 14 87.4999 14C92.1932 14 96 17.8062 96 22.4999Z" fill="#FEFEFE"/>
<path d="M67 49.5C67 52.5411 64.3107 55 61 55C57.6893 55 55 52.5336 55 49.5C55 46.4663 57.6893 44 61 44C64.3107 44 67 46.4591 67 49.5Z" fill="#0055AF"/>
<path d="M66 30.5759C66 30.5759 61.8974 19 42.2578 19C22.6182 19 18 40.646 18 47.3572C18 72.8595 52.1671 93 60.1933 93C61.6467 93 36.4511 78.0651 36.4511 50.2121C36.4511 22.359 62.4988 27.1386 66 30.5829" fill="#FEFEFE"/>
<path d="M60.8701 92C60.8701 92 48 83.4318 48 69.3712C48 58.6553 56.5823 56 60.8701 56C65.1577 56 73 58.8295 73 69.2842C73 79.7387 65.2476 82.6554 65.2476 82.6554C65.2476 82.6554 72.9171 63.4582 61.2849 63.4582C56.8312 63.4582 54.8535 68.087 54.8535 71.3446C54.8535 74.6021 57.5783 88.5756 60.8769 92" fill="#0055AF"/>
<path d="M66 94C66 94 106.028 71.968 106 47.1767C105.993 39.8757 99.7388 31.9785 87.2868 32C73.1567 32.0145 69.3845 43.5477 69.3914 51.5314C69.3914 51.5314 74.3413 40.7452 84.9388 40.7452C104.815 40.7452 87.8367 71.8962 66 94Z" fill="#D60928"/>
</svg>
