<svg width="185" height="83" viewBox="0 0 185 83" fill="none" xmlns="http://www.w3.org/2000/svg">
<g clip-path="url(#clip0_1_285)">
<path d="M99.2587 26.2988C100.874 26.2988 101.94 27.2456 101.94 28.827C101.94 30.4085 100.874 31.3983 99.2587 31.3983H97.6331V33.8296H96.0938V26.2988H99.2587ZM99.194 29.9351C99.9906 29.9351 100.379 29.5048 100.379 28.8485C100.379 28.1815 99.9906 27.762 99.194 27.762H97.6331V29.9351H99.194Z" fill="black"/>
<path d="M106.925 26.1699C109.142 26.1699 110.854 27.8482 110.854 30.0644C110.854 32.2806 109.142 33.9589 106.925 33.9589C104.707 33.9589 103.006 32.2806 103.006 30.0644C103.006 27.8482 104.707 26.1699 106.925 26.1699ZM106.925 27.6331C105.568 27.6331 104.557 28.6551 104.557 30.0644C104.557 31.4738 105.568 32.4958 106.925 32.4958C108.281 32.4958 109.293 31.4738 109.293 30.0644C109.293 28.6551 108.281 27.6331 106.925 27.6331Z" fill="black"/>
<path d="M115.885 33.9589C113.635 33.9589 111.988 32.2806 111.988 30.0644C111.988 27.8482 113.635 26.1699 115.885 26.1699C117.683 26.1699 119.082 27.278 119.523 28.881H117.876C117.521 28.1064 116.8 27.6331 115.874 27.6331C114.485 27.6331 113.538 28.6551 113.538 30.0644C113.538 31.4738 114.485 32.4958 115.874 32.4958C116.8 32.4958 117.521 32.0224 117.876 31.2478H119.523C119.082 32.8508 117.683 33.9589 115.885 33.9589Z" fill="black"/>
<path d="M124.476 33.9589C122.226 33.9589 120.579 32.2806 120.579 30.0644C120.579 27.8482 122.226 26.1699 124.476 26.1699C126.274 26.1699 127.673 27.278 128.115 28.881H126.468C126.112 28.1064 125.391 27.6331 124.465 27.6331C123.077 27.6331 122.129 28.6551 122.129 30.0644C122.129 31.4738 123.077 32.4958 124.465 32.4958C125.391 32.4958 126.112 32.0224 126.468 31.2478H128.115C127.673 32.8508 126.274 33.9589 124.476 33.9589Z" fill="black"/>
<path d="M134.078 26.2988H135.844V33.8296H134.305V30.6775L134.444 28.5581L131.161 33.8296H129.396V26.2988H130.935V29.451L130.795 31.5704L134.078 26.2988Z" fill="black"/>
<path d="M140.701 25.5138C139.754 25.5138 138.893 24.879 138.893 23.7924V23.502H140.109V23.7494C140.109 24.1152 140.346 24.3519 140.701 24.3519C141.056 24.3519 141.293 24.1152 141.293 23.7494V23.502H142.499V23.7924C142.499 24.879 141.638 25.5138 140.701 25.5138ZM142.165 26.2991H143.931V33.8299H142.391V30.6778L142.531 28.5584L139.248 33.8299H137.482V26.2991H139.022V29.4513L138.882 31.5707L142.165 26.2991Z" fill="black"/>
<path d="M149.241 33.9589C146.991 33.9589 145.344 32.2806 145.344 30.0644C145.344 27.8482 146.991 26.1699 149.241 26.1699C151.039 26.1699 152.438 27.278 152.88 28.881H151.233C150.877 28.1064 150.156 27.6331 149.23 27.6331C147.842 27.6331 146.894 28.6551 146.894 30.0644C146.894 31.4738 147.842 32.4958 149.23 32.4958C150.156 32.4958 150.877 32.0224 151.233 31.2478H152.88C152.438 32.8508 151.039 33.9589 149.241 33.9589Z" fill="black"/>
<path d="M160.513 33.8296H158.586L155.755 30.3117V33.8296H154.216V26.2988H155.755V29.6339L158.435 26.2988H160.341L157.38 29.9459L160.513 33.8296Z" fill="black"/>
<path d="M166.374 26.2988H168.14V33.8296H166.6V30.6775L166.74 28.5581L163.457 33.8296H161.691V26.2988H163.231V29.451L163.091 31.5704L166.374 26.2988Z" fill="black"/>
<path d="M174.892 27.762H171.371V29.2789H174.601V30.742H171.371V32.3665H174.892V33.8296H169.832V26.2988H174.892V27.762Z" fill="black"/>
<path d="M99.7113 45.4179C97.4615 45.4179 95.8145 43.7396 95.8145 41.5234C95.8145 39.3072 97.4615 37.6289 99.7113 37.6289C101.509 37.6289 102.908 38.737 103.35 40.34H101.703C101.347 39.5654 100.626 39.092 99.7007 39.092C98.312 39.092 97.3647 40.114 97.3647 41.5234C97.3647 42.9327 98.312 43.9547 99.7007 43.9547C100.626 43.9547 101.347 43.4814 101.703 42.7068H103.35C102.908 44.3098 101.509 45.4179 99.7113 45.4179Z" fill="black"/>
<path d="M110.004 37.7578V39.2209H107.83V45.2886H106.291V39.2209H104.127V37.7578H110.004Z" fill="black"/>
<path d="M117.88 37.7578L113.972 45.2886H112.25L113.606 42.6851L111.012 37.7578H112.734L114.467 41.0175L116.157 37.7578H117.88Z" fill="black"/>
<path d="M124.514 43.8254H125.591V46.784H124.051V45.2886H118.949V46.784H117.409V43.8254H118.475C118.647 43.6533 118.755 43.3521 118.841 42.8249L119.648 37.7578H124.514V43.8254ZM120.348 42.9755C120.294 43.3198 120.219 43.5995 120.144 43.8254H122.975V39.2209H120.951L120.348 42.9755Z" fill="black"/>
<path d="M131.882 39.2209H128.362V40.7378H131.591V42.2009H128.362V43.8254H131.882V45.2886H126.822V37.7578H131.882V39.2209Z" fill="black"/>
<path d="M138.104 37.7578H139.643V45.2886H138.104V42.1687H134.756V45.2886H133.217V37.7578H134.756V40.7055H138.104V37.7578Z" fill="black"/>
<path d="M145.348 37.7578H146.887V45.2886H145.348V42.6313C144.96 42.8034 144.444 42.9433 143.723 42.9433C142.14 42.9433 141.064 42.1579 141.064 40.3613V37.7578H142.614V40.1676C142.614 41.1574 143.141 41.4801 144.045 41.4801C144.562 41.4801 145.047 41.3941 145.348 41.2004V37.7578Z" fill="black"/>
<path d="M153.682 39.2209H150.162V40.7378H153.392V42.2009H150.162V43.8254H153.682V45.2886H148.623V37.7578H153.682V39.2209Z" fill="black"/>
<path d="M158.633 45.4179C156.383 45.4179 154.736 43.7396 154.736 41.5234C154.736 39.3072 156.383 37.6289 158.633 37.6289C160.431 37.6289 161.83 38.737 162.272 40.34H160.625C160.269 39.5654 159.548 39.092 158.622 39.092C157.234 39.092 156.286 40.114 156.286 41.5234C156.286 42.9327 157.234 43.9547 158.622 43.9547C159.548 43.9547 160.269 43.4814 160.625 42.7068H162.272C161.83 44.3098 160.431 45.4179 158.633 45.4179Z" fill="black"/>
<path d="M169.905 45.2886H167.978L165.147 41.7706V45.2886H163.607V37.7578H165.147V41.0928L167.827 37.7578H169.733L166.772 41.4048L169.905 45.2886Z" fill="black"/>
<path d="M175.767 37.7578H177.532V45.2886H175.993V42.1364L176.133 40.017L172.85 45.2886H171.084V37.7578H172.624V40.9099L172.484 43.0293L175.767 37.7578Z" fill="black"/>
<path d="M184.284 39.2209H180.764V40.7378H183.994V42.2009H180.764V43.8254H184.284V45.2886H179.225V37.7578H184.284V39.2209Z" fill="black"/>
<path d="M99.69 49.0879C101.907 49.0879 103.619 50.7662 103.619 52.9824C103.619 55.1986 101.907 56.8769 99.69 56.8769C97.4724 56.8769 95.7715 55.1986 95.7715 52.9824C95.7715 50.7662 97.4724 49.0879 99.69 49.0879ZM99.69 50.551C98.3336 50.551 97.3217 51.5731 97.3217 52.9824C97.3217 54.3917 98.3336 55.4138 99.69 55.4138C101.046 55.4138 102.058 54.3917 102.058 52.9824C102.058 51.5731 101.046 50.551 99.69 50.551Z" fill="black"/>
<path d="M110.319 49.2168V50.6799H108.144V56.7476H106.605V50.6799H104.441V49.2168H110.319Z" fill="black"/>
<path d="M114.707 49.2168C116.322 49.2168 117.388 50.1635 117.388 51.745C117.388 53.3265 116.322 54.3162 114.707 54.3162H113.082V56.7476H111.542V49.2168H114.707ZM114.643 52.8531C115.439 52.8531 115.827 52.4228 115.827 51.7665C115.827 51.0995 115.439 50.6799 114.643 50.6799H113.082V52.8531H114.643Z" fill="black"/>
<path d="M121.105 49.2168H124.346V56.7476H122.806V54.1549H121.848L119.997 56.7476H118.113L120.137 54.0042C119.135 53.6922 118.533 52.8854 118.533 51.6804C118.533 50.1635 119.48 49.2168 121.105 49.2168ZM121.267 52.7563H122.806V50.6799H121.267C120.47 50.6799 120.083 51.0887 120.083 51.7235C120.083 52.3582 120.47 52.7563 121.267 52.7563Z" fill="black"/>
<path d="M132.623 55.2845H133.7V58.243H132.16V56.7476H127.058V58.243H125.518V55.2845H126.584C126.756 55.1123 126.864 54.8111 126.95 54.284L127.757 49.2168H132.623V55.2845ZM128.457 54.4346C128.403 54.7788 128.328 55.0586 128.252 55.2845H131.084V50.6799H129.06L128.457 54.4346Z" fill="black"/>
<path d="M138.149 52.0462C139.796 52.0462 140.7 52.8639 140.7 54.3915C140.7 55.9085 139.731 56.7476 138.117 56.7476H134.93V49.2168H136.47V52.0462H138.149ZM141.594 49.2168H143.133V56.7476H141.594V49.2168ZM138.063 55.2845C138.784 55.2845 139.15 54.9725 139.15 54.37C139.15 53.7676 138.816 53.4878 138.095 53.4878H136.47V55.2845H138.063Z" fill="black"/>
<path d="M47.4665 47.4715C47.3181 48.3696 46.6256 49.1084 45.5619 49.1084H42.2969L42.569 46.1074H46.1105C46.6179 46.1073 46.9276 46.1073 47.1944 46.3802C47.4381 46.6294 47.5274 47.0719 47.4665 47.4715Z" fill="#0804FF"/>
<path d="M58.1484 36.8323C58.7976 35.2732 58.9674 33.746 58.9674 31.9215V30.0117H61.9703V36.8323H58.1484Z" fill="#0804FF"/>
<path d="M34.6704 33.0128H31.3945V30.0117H34.6704C35.7465 30.0117 36.3084 30.7506 36.3084 31.6486C36.3084 32.4979 35.713 33.0128 34.6704 33.0128Z" fill="#0804FF"/>
<path fill-rule="evenodd" clip-rule="evenodd" d="M83.9353 76.142C73.5312 88.6812 47.3815 83.4116 25.2986 64.1295C3.21585 44.8475 -6.16126 19.3367 4.24278 6.79741C14.6468 -5.74183 40.7966 -0.472208 62.8794 18.8099C84.9622 38.0919 94.3393 63.6027 83.9353 76.142ZM66.6113 42.2882L66.0653 46.1078H70.7062L69.0682 56.748H72.8902L74.5282 46.1078H79.1691L79.7151 42.2882H66.6113ZM58.4214 49.1088L61.6973 42.2882H66.0653L58.6944 56.748H54.3264L56.2374 52.9284H54.3264L52.1424 42.2882H56.2374L57.6024 49.1088H58.4214ZM46.3784 42.2882H39.3042L37.1276 56.748H40.9367L41.753 52.9284H45.018C46.4353 52.9284 47.9004 52.4976 49.0992 51.5643C50.3695 50.5741 51.3201 49.167 51.5479 47.7447C51.7771 46.2073 51.173 44.6601 50.1875 43.6523C49.2576 42.7014 47.9176 42.2882 46.3784 42.2882ZM32.4866 42.2882H37.9466L30.0297 49.6545L36.0356 56.748H30.5757L25.9347 51.2915H25.6617L24.8427 56.748H20.7478L22.9317 42.2882H27.0267L26.2077 47.7447H26.4807L32.4866 42.2882ZM52.1424 40.6512H67.4303V36.8316H65.7923V26.1914H55.1454V31.6479C55.1454 33.5673 54.5582 35.3701 53.7804 36.8316H52.1424V40.6512ZM44.4985 40.6512L45.8635 36.8316H43.6795L39.8576 26.1914H43.9525L46.4095 33.0121H47.2285L49.6855 26.1914H53.7804L48.5935 40.6512H44.4985ZM31.3947 36.8316H34.6706C37.4682 36.8316 40.4036 34.8338 40.4036 31.6479C40.4036 28.462 37.9727 26.1914 34.6706 26.1914H27.2997V40.6512H31.3947V36.8316ZM21.2938 30.011V40.6512H17.4718V30.011H12.8309V26.1914H25.9347V30.011H21.2938Z" fill="#0804FF"/>
<path d="M66.6114 42.2891L66.0654 46.1087H70.7063L69.0684 56.7489H72.8903L74.5283 46.1087H79.1692L79.7152 42.2891H66.6114Z" fill="white"/>
<path d="M61.6975 42.2891L58.4216 49.1098H57.6026L56.2376 42.2891H52.1426L54.3266 52.9293H56.2376L54.3266 56.7489H58.6946L66.0655 42.2891H61.6975Z" fill="white"/>
<path d="M46.3778 42.2891H39.3036L37.127 56.7489H40.9361L41.7523 52.9293H45.0174C46.4347 52.9293 47.8998 52.4985 49.0986 51.5652C50.3689 50.575 51.3195 49.1679 51.5473 47.7456C51.7765 46.2082 51.1724 44.661 50.1869 43.6532C49.257 42.7023 47.917 42.2891 46.3778 42.2891ZM47.4661 47.4728C47.3178 48.3709 46.6252 49.1098 45.5615 49.1098H42.2966L42.5686 46.1087H46.1057C46.6157 46.1087 46.9265 46.1079 47.194 46.3815C47.4378 46.6307 47.527 47.0732 47.4661 47.4728Z" fill="white"/>
<path d="M37.9468 42.2891H32.4869L26.4809 47.7456H26.2079L27.0269 42.2891H22.932L20.748 56.7489H24.8429L25.6619 51.2924H25.9349L30.5759 56.7489H36.0358L30.0299 49.6554L37.9468 42.2891Z" fill="white"/>
<path d="M52.1426 40.6512H67.4305V36.8316H65.7925V26.1914H55.1456V31.6479C55.1456 33.5673 54.5584 35.3701 53.7806 36.8316H52.1426V40.6512ZM58.1486 36.8316C58.7978 35.2726 58.9676 33.7453 58.9676 31.9208V30.011H61.9705V36.8316H58.1486Z" fill="white"/>
<path d="M45.8633 36.8316L44.4983 40.6512H48.5933L53.7802 26.1914H49.6853L47.2283 33.0121H46.4093L43.9523 26.1914H39.8574L43.6793 36.8316H45.8633Z" fill="white"/>
<path d="M31.3948 36.8316H34.6707C37.4684 36.8316 40.4037 34.8338 40.4037 31.6479C40.4037 28.462 37.9729 26.1914 34.6707 26.1914H27.2998V40.6512H31.3948V36.8316ZM34.6707 33.0121H31.3948V30.011H34.6707C35.7468 30.011 36.3087 30.7499 36.3087 31.6479C36.3087 32.4972 35.7133 33.0121 34.6707 33.0121Z" fill="white"/>
<path d="M21.294 40.6512V30.011H25.9349V26.1914H12.8311V30.011H17.472V40.6512H21.294Z" fill="white"/>
</g>
<defs>
<clipPath id="clip0_1_285">
<rect width="185" height="83" fill="white"/>
</clipPath>
</defs>
</svg>
