<svg width="211" height="108" viewBox="0 0 211 108" fill="none" xmlns="http://www.w3.org/2000/svg">
<g clip-path="url(#clip0_1_192)">
<path d="M122.166 11.9277L123.813 16.309L125.457 11.9277H126.741V17.6439H125.751V15.7587L125.849 13.239L124.163 17.6439H123.452L121.769 13.2416L121.866 15.7587V17.6439H120.877V11.9277H122.163H122.166Z" fill="#403939"/>
<path d="M132.47 14.9335C132.47 15.4944 132.373 15.9841 132.181 16.408C131.986 16.8319 131.71 17.1557 131.352 17.3822C130.992 17.6086 130.579 17.7218 130.11 17.7218C129.642 17.7218 129.235 17.6086 128.874 17.3822C128.511 17.1557 128.232 16.8319 128.034 16.4132C127.838 15.9946 127.738 15.5128 127.734 14.9651V14.6439C127.734 14.0857 127.834 13.5933 128.032 13.1667C128.23 12.7403 128.509 12.4138 128.869 12.1873C129.23 11.9609 129.642 11.8477 130.105 11.8477C130.569 11.8477 130.984 11.9582 131.342 12.182C131.702 12.4058 131.979 12.7271 132.176 13.1483C132.373 13.5696 132.47 14.0567 132.473 14.6149V14.9335H132.47ZM131.479 14.636C131.479 14.0014 131.358 13.517 131.118 13.18C130.879 12.843 130.54 12.6743 130.1 12.6743C129.66 12.6743 129.335 12.843 129.096 13.18C128.853 13.517 128.73 13.9908 128.725 14.6071V14.9361C128.725 15.5654 128.845 16.0498 129.089 16.3921C129.335 16.7344 129.674 16.9056 130.108 16.9056C130.542 16.9056 130.887 16.7371 131.124 16.4027C131.36 16.0682 131.479 15.5786 131.479 14.9335V14.636Z" fill="#403939"/>
<path d="M137.95 11.9277V17.6439H136.961V12.7281H135.212L135.109 14.9399C135.069 15.6297 134.985 16.1668 134.857 16.5486C134.728 16.9304 134.541 17.2068 134.293 17.3833C134.048 17.5596 133.718 17.6465 133.304 17.6465H133.052V16.8541L133.209 16.8435C133.438 16.8224 133.612 16.7435 133.738 16.604C133.862 16.4644 133.957 16.2564 134.02 15.9746C134.082 15.6928 134.128 15.2795 134.154 14.7319L134.264 11.933H137.947L137.95 11.9277Z" fill="#403939"/>
<path d="M143.705 14.9335C143.705 15.4944 143.607 15.9841 143.416 16.408C143.22 16.8319 142.945 17.1557 142.586 17.3822C142.226 17.6086 141.813 17.7218 141.345 17.7218C140.876 17.7218 140.469 17.6086 140.108 17.3822C139.746 17.1557 139.466 16.8319 139.269 16.4132C139.072 15.9946 138.972 15.5128 138.969 14.9651V14.6439C138.969 14.0857 139.069 13.5933 139.266 13.1667C139.464 12.7403 139.743 12.4138 140.103 12.1873C140.464 11.9609 140.876 11.8477 141.342 11.8477C141.808 11.8477 142.22 11.9582 142.581 12.182C142.942 12.4058 143.218 12.7271 143.416 13.1483C143.613 13.5696 143.71 14.0567 143.713 14.6149V14.9335H143.705ZM142.711 14.636C142.711 14.0014 142.592 13.517 142.352 13.18C142.113 12.843 141.774 12.6743 141.335 12.6743C140.895 12.6743 140.569 12.843 140.33 13.18C140.087 13.517 139.964 13.9908 139.958 14.6071V14.9361C139.958 15.5654 140.08 16.0498 140.324 16.3921C140.569 16.7344 140.908 16.9056 141.342 16.9056C141.776 16.9056 142.122 16.7371 142.355 16.4027C142.592 16.0682 142.711 15.5786 142.711 14.9335V14.636Z" fill="#403939"/>
<path d="M149.945 19.0499H149.004V17.6439H145.241V19.0499H144.284L144.252 16.8514H144.713C144.942 16.6302 145.123 16.3116 145.257 15.8904C145.395 15.4691 145.481 14.9951 145.52 14.4633L145.67 11.9277H149.272V16.8514H149.998L149.948 19.0499H149.945ZM145.834 16.8514H148.283V12.7281H146.614L146.521 14.3369C146.45 15.4137 146.22 16.2511 145.834 16.8488V16.8514Z" fill="#403939"/>
<path d="M154.08 15.0904H151.733V16.8492H154.475V17.6418H150.739V11.9256H154.446V12.7261H151.731V14.3031H154.077V15.0879L154.08 15.0904ZM151.228 11.0357C151.228 10.904 151.273 10.7961 151.36 10.7065C151.447 10.617 151.567 10.5723 151.724 10.5723C151.878 10.5723 151.999 10.617 152.088 10.7065C152.178 10.7961 152.222 10.9066 152.222 11.0357C152.222 11.1647 152.178 11.2753 152.088 11.3648C151.999 11.4543 151.878 11.4991 151.724 11.4991C151.567 11.4991 151.447 11.4543 151.36 11.3648C151.273 11.2753 151.228 11.1647 151.228 11.0357ZM153.02 11.0383C153.02 10.9067 153.065 10.7987 153.152 10.7092C153.238 10.6197 153.359 10.5749 153.514 10.5749C153.67 10.5749 153.791 10.6197 153.88 10.7092C153.97 10.7987 154.014 10.9093 154.014 11.0383C154.014 11.1673 153.97 11.2779 153.88 11.3674C153.791 11.4569 153.67 11.5017 153.514 11.5017C153.359 11.5017 153.238 11.4569 153.152 11.3674C153.065 11.2779 153.02 11.1673 153.02 11.0383Z" fill="#403939"/>
<path d="M159.72 15.1795H159.079V17.6465H158.09V15.1795H157.422L156.023 17.6465H154.786L156.625 14.6029L154.907 11.9277H156.107L157.472 14.3158H158.088V11.9277H159.077V14.3158H159.666L161.019 11.9277H162.216L160.514 14.5949L162.337 17.6465H161.105L159.716 15.1795H159.72Z" fill="#403939"/>
<path d="M163.928 14.1151H165.097C165.515 14.1151 165.881 14.1862 166.191 14.331C166.502 14.4758 166.738 14.6785 166.902 14.9445C167.065 15.2077 167.143 15.5158 167.143 15.8633C167.143 16.3978 166.961 16.827 166.599 17.1509C166.236 17.4748 165.744 17.6406 165.117 17.6458H162.932V11.9297H163.923V14.1177L163.928 14.1151ZM163.928 14.9155V16.8507H165.094C165.428 16.8507 165.688 16.7612 165.876 16.5796C166.062 16.3978 166.156 16.1583 166.156 15.8555C166.156 15.5527 166.065 15.342 165.883 15.1735C165.699 15.0077 165.447 14.9208 165.123 14.9155H163.932H163.928Z" fill="#403939"/>
<path d="M173.5 11.9277H174.492V17.6439H173.5V13.5733L170.993 17.6439H170.001V11.9277H170.993V16.0036L173.5 11.9277Z" fill="#403939"/>
<path d="M182.936 19.0499H181.994V17.6439H178.231V19.0499H177.274L177.242 16.8514H177.703C177.931 16.6302 178.113 16.3116 178.247 15.8904C178.384 15.4691 178.472 14.9951 178.511 14.4633L178.661 11.9277H182.262V16.8514H182.988L182.938 19.0499H182.936ZM178.827 16.8514H181.276V12.7281H179.607L179.513 14.3369C179.442 15.4137 179.213 16.2511 178.827 16.8488V16.8514Z" fill="#403939"/>
<path d="M187.07 15.0926H184.723V16.8514H187.465V17.6439H183.729V11.9277H187.436V12.7281H184.721V14.3053H187.068V15.09L187.07 15.0926Z" fill="#403939"/>
<path d="M192.402 12.7281H190.621V17.6439H189.637V12.7281H187.872V11.9277H192.402V12.7281Z" fill="#403939"/>
<path d="M196.652 11.9277H197.643V17.6439H196.652V13.5733L194.144 17.6439H193.152V11.9277H194.144V16.0036L196.652 11.9277Z" fill="#403939"/>
<path d="M189.671 49.9512H190.426C190.686 49.9512 190.883 49.8774 191.015 49.7326C191.147 49.5878 191.213 49.3403 191.213 48.9901V47.463C191.213 47.1129 191.147 46.8653 191.015 46.7205C190.883 46.5757 190.688 46.502 190.426 46.502H189.671V49.9485V49.9512Z" fill="#403939"/>
<path d="M162.491 54.8541H161.736V58.3007H162.491C162.752 58.3007 162.95 58.2269 163.082 58.0822C163.212 57.9374 163.278 57.6899 163.278 57.3397V55.8125C163.278 55.4624 163.212 55.2175 163.082 55.07C162.95 54.9252 162.755 54.8516 162.491 54.8516V54.8541Z" fill="#403939"/>
<path d="M126.406 36.0095H127.948L127.177 30.8594L126.406 36.0095Z" fill="#403939"/>
<path d="M171.461 37.7831H172.216C172.477 37.7831 172.673 37.7094 172.805 37.5645C172.937 37.4198 173.003 37.1723 173.003 36.8222V35.2949C173.003 34.9448 172.937 34.6973 172.805 34.5524C172.673 34.4076 172.479 34.334 172.216 34.334H171.461V37.7805V37.7831Z" fill="#403939"/>
<path d="M183.887 37.7831H184.642C184.901 37.7831 185.099 37.7094 185.231 37.5645C185.362 37.4198 185.428 37.1723 185.428 36.8222V35.2949C185.428 34.9448 185.362 34.6973 185.231 34.5524C185.099 34.4076 184.904 34.334 184.642 34.334H183.887V37.7805V37.7831Z" fill="#403939"/>
<path d="M168.176 54.7344C167.623 54.7344 167.348 55.0687 167.348 55.7374V61.2351C167.348 61.9039 167.623 62.2383 168.176 62.2383C168.728 62.2383 169.005 61.9039 169.005 61.2351V55.7374C169.005 55.0687 168.728 54.7344 168.176 54.7344Z" fill="#403939"/>
<path d="M158.41 36.0095H159.949L159.181 30.8594L158.41 36.0095Z" fill="#403939"/>
<path d="M146.693 30.3945C146.141 30.3945 145.865 30.729 145.865 31.3977V36.8954C145.865 37.5641 146.141 37.8986 146.693 37.8986C147.246 37.8986 147.523 37.5641 147.523 36.8954V31.3977C147.523 30.729 147.246 30.3945 146.693 30.3945Z" fill="#403939"/>
<path d="M209.051 0H119.311C118.893 0 118.517 0.255393 118.364 0.645073L79.662 106.543C79.2778 107.367 80.0829 108.247 80.9352 107.936L196.794 65.7321C197.196 65.5847 197.464 65.2003 197.464 64.7712V41.6668L209.504 34.8237C209.848 34.65 210.066 34.2971 210.066 33.91V1.02159C210.066 0.458138 209.611 0 209.049 0H209.051ZM123.457 39.2365H121.829V34.8737H120.011V39.2365H118.411V29.0548H120.011V33.4177H121.829V29.0548H123.457V39.2365ZM128.443 39.2365L128.166 37.3883H126.204L125.928 39.2365H124.46L126.088 29.0548H128.427L130.055 39.2365H128.443ZM136.798 40.6057H135.244V39.2392H131.058V29.0575H132.657V37.7858H134.475V29.0575H136.104V37.8147H136.8V40.6084L136.798 40.6057ZM143.004 39.2365H141.565V32.0643L140.91 34.5656L139.574 39.2339H137.932V29.0522H139.355V35.4951L139.937 33.2544L141.245 29.0522H143.002V39.2339L143.004 39.2365ZM149.123 36.7931C149.123 37.6067 148.916 38.2386 148.498 38.6836C148.082 39.1286 147.479 39.3524 146.695 39.3524C145.911 39.3524 145.308 39.1286 144.893 38.6836C144.478 38.2386 144.267 37.6067 144.267 36.7931V31.4982C144.267 30.6846 144.475 30.0527 144.893 29.6078C145.308 29.1628 145.911 28.939 146.695 28.939C147.479 28.939 148.082 29.1628 148.498 29.6078C148.912 30.0527 149.123 30.6846 149.123 31.4982V36.7931ZM152.015 39.2365H150.415V29.0548H152.015V33.4177H153.833V29.0548H155.461V39.2365H153.833V34.8737H152.015V39.2365ZM157.095 51.4087H155.467V42.6805H153.648V51.4087H152.049V41.227H157.093V51.4087H157.095ZM157.929 39.2365H156.461L158.089 29.0548H160.428L162.057 39.2365H160.444L160.167 37.3883H158.205L157.929 39.2365ZM159.826 51.4087H158.226V41.227H160.581C161.375 41.227 161.97 41.4403 162.37 41.8669C162.767 42.2934 162.964 42.9201 162.964 43.7442V45.0686C162.964 45.8928 162.764 46.5194 162.37 46.9459C161.973 47.3725 161.375 47.5857 160.581 47.5857H159.826V51.4114V51.4087ZM168.676 39.2365H167.048V30.5083H165.653L165.479 36.6615C165.45 37.5936 165.256 38.257 164.897 38.6547C164.54 39.0522 163.958 39.2498 163.153 39.2498H162.907V37.7963C163.167 37.7963 163.364 37.7752 163.496 37.7305C163.628 37.6857 163.722 37.591 163.785 37.4409C163.848 37.2908 163.885 37.0591 163.892 36.751L164.153 29.0575H168.673V39.2392L168.676 39.2365ZM168.951 43.6705V48.9654C168.951 49.7789 168.744 50.4108 168.326 50.8559C167.91 51.3009 167.307 51.5246 166.524 51.5246C165.74 51.5246 165.138 51.3009 164.722 50.8559C164.306 50.4108 164.096 49.7789 164.096 48.9654V43.6705C164.096 42.8569 164.303 42.2249 164.722 41.78C165.138 41.335 165.74 41.1112 166.524 41.1112C167.307 41.1112 167.91 41.335 168.326 41.78C168.742 42.2249 168.951 42.8569 168.951 43.6705ZM164.877 57.2382C164.877 58.0623 164.676 58.6889 164.283 59.1155C163.885 59.542 163.287 59.7553 162.493 59.7553H161.738V63.5811H160.138V53.3993H162.493C163.287 53.3993 163.883 53.6125 164.283 54.0392C164.679 54.4656 164.877 55.0923 164.877 55.9164V57.2409V57.2382ZM170.604 61.135C170.604 61.9486 170.397 62.5805 169.978 63.0255C169.562 63.4705 168.96 63.6942 168.176 63.6942C167.391 63.6942 166.789 63.4705 166.374 63.0255C165.958 62.5805 165.747 61.9486 165.747 61.135V55.84C165.747 55.0265 165.956 54.3946 166.374 53.9496C166.789 53.5047 167.391 53.2808 168.176 53.2808C168.96 53.2808 169.562 53.5047 169.978 53.9496C170.393 54.3946 170.604 55.0265 170.604 55.84V61.135ZM172.216 32.8806C173.012 32.8806 173.606 33.0938 174.006 33.5204C174.403 33.9469 174.601 34.5736 174.601 35.3977V36.7221C174.601 37.5462 174.401 38.1728 174.006 38.5993C173.608 39.0259 173.012 39.2392 172.216 39.2392H169.862V29.0575H171.461V32.8832H172.216V32.8806ZM173.876 45.5162V46.9696H171.682V49.9501H174.445V51.4036H170.086V41.2218H174.445V42.6752H171.682V45.511H173.876V45.5162ZM176.534 56.8301H175.022V55.74C175.022 55.0713 174.745 54.7369 174.192 54.7369C173.64 54.7369 173.364 55.0713 173.364 55.74V61.2377C173.364 61.8986 173.64 62.2276 174.192 62.2276C174.745 62.2276 175.022 61.8986 175.022 61.2377V59.7843H176.534V61.1376C176.534 61.9617 176.332 62.5936 175.924 63.036C175.516 63.4784 174.926 63.6969 174.151 63.6969C173.374 63.6969 172.785 63.4757 172.377 63.036C171.97 62.5936 171.766 61.9617 171.766 61.1376V55.8428C171.766 55.0186 171.97 54.3867 172.377 53.9443C172.785 53.502 173.374 53.2835 174.151 53.2835C174.926 53.2835 175.516 53.5047 175.924 53.9443C176.332 54.3867 176.534 55.0186 176.534 55.8428V56.8327V56.8301ZM177.176 51.4087H175.577V41.227H177.176V45.6636L179.267 41.227H180.867L178.644 45.7663L180.867 51.4087H179.226L177.671 47.3514L177.176 48.2835V51.4114V51.4087ZM179.235 33.4204V29.0575H180.864V39.2392H179.235V34.8764H177.418V39.2392H175.818V29.0575H177.418V33.4204H179.235ZM182.405 56.8301H180.893V55.74C180.893 55.0713 180.617 54.7369 180.065 54.7369C179.512 54.7369 179.235 55.0713 179.235 55.74V61.2377C179.235 61.8986 179.512 62.2276 180.065 62.2276C180.617 62.2276 180.893 61.8986 180.893 61.2377V59.7843H182.405V61.1376C182.405 61.9617 182.203 62.5936 181.796 63.036C181.388 63.4784 180.798 63.6969 180.022 63.6969C179.246 63.6969 178.657 63.4757 178.249 63.036C177.841 62.5936 177.639 61.9617 177.639 61.1376V55.8428C177.639 55.0186 177.841 54.3867 178.249 53.9443C178.657 53.502 179.246 53.2835 180.022 53.2835C180.798 53.2835 181.388 53.5047 181.796 53.9443C182.203 54.3867 182.405 55.0186 182.405 55.8428V56.8327V56.8301ZM184.642 32.8806C185.436 32.8806 186.031 33.0938 186.431 33.5204C186.828 33.9469 187.028 34.5736 187.028 35.3977V36.7221C187.028 37.5462 186.828 38.1728 186.431 38.5993C186.034 39.0259 185.436 39.2392 184.642 39.2392H182.287V29.0575H183.887V32.8832H184.642V32.8806ZM186.939 41.227V42.6805H185.268V51.4087H183.669V42.6805H181.998V41.227H186.939ZM188.712 63.5784H187.273V56.4062L186.618 58.9075L185.281 63.5758H183.64V53.3941H185.063V59.8369L185.645 57.5963L186.952 53.3941H188.71V63.5758L188.712 63.5784ZM190.427 45.0528C191.222 45.0528 191.816 45.2661 192.216 45.6926C192.614 46.1192 192.814 46.7458 192.814 47.57V48.8943C192.814 49.7184 192.614 50.3451 192.216 50.7717C191.819 51.1981 191.222 51.4114 190.427 51.4114H188.073V41.2297H189.672V45.0554H190.427V45.0528ZM189.54 39.2365H187.941V29.0548H189.54V39.2365ZM195.323 63.5784H193.885V56.4062L193.229 58.9075L191.893 63.5758H190.251V53.3941H191.675V59.8369L192.255 57.5963L193.563 53.3941H195.32V63.5758L195.323 63.5784ZM195.323 51.4087H193.724V41.227H195.323V51.4087ZM195.323 30.5109H192.561V33.3466H194.754V34.7999H192.561V37.7805H195.323V39.2339H190.964V29.0522H195.323V30.5056V30.5109ZM209.322 33.91C209.322 34.0153 209.263 34.1075 209.172 34.1549L209.154 34.1654L209.138 34.176L197.467 40.8111V27.7121C197.467 27.1486 197.01 26.6905 196.446 26.6905H117.522C117.125 26.6905 116.764 26.9195 116.596 27.2802L84.9709 95.1556L119.061 0.924176C119.103 0.818857 119.201 0.753026 119.314 0.753026H209.054C209.204 0.753026 209.324 0.876778 209.324 1.02686V33.9153L209.322 33.91Z" fill="#403939"/>
<path d="M166.528 42.5645C165.975 42.5645 165.698 42.8989 165.698 43.5676V49.0653C165.698 49.7341 165.975 50.0685 166.528 50.0685C167.08 50.0685 167.356 49.7341 167.356 49.0653V43.5676C167.356 42.8989 167.08 42.5645 166.528 42.5645Z" fill="#403939"/>
<path d="M161.171 45.9123C161.303 45.7675 161.369 45.5201 161.369 45.1698V43.6427C161.369 43.2926 161.303 43.0476 161.171 42.9002C161.039 42.7554 160.846 42.6816 160.582 42.6816H159.827V46.1283H160.582C160.843 46.1283 161.039 46.0546 161.171 45.9097V45.9123Z" fill="#403939"/>
<path d="M6.91602 11.2918V1.92213H2.35233V11.2918H0V0H9.28318V11.2918H6.91602Z" fill="#403939"/>
<path fill-rule="evenodd" clip-rule="evenodd" d="M15.9242 6.29265C15.9119 5.98734 15.8551 5.71978 15.7512 5.49252C15.6597 5.25337 15.531 5.06169 15.3701 4.91497C15.2094 4.7562 15.024 4.64274 14.8162 4.57406C14.6083 4.4935 14.3956 4.45557 14.1755 4.45557C13.7253 4.45557 13.3344 4.62135 13.0006 4.94806C12.679 5.26524 12.4935 5.71259 12.4465 6.2903H15.9242V6.29265ZM12.3798 7.68705C12.4144 8.3214 12.5999 8.82558 12.9338 9.19958C13.28 9.57375 13.7279 9.76075 14.2818 9.76075C14.6504 9.76075 14.9745 9.6802 15.249 9.52162C15.5359 9.35116 15.7214 9.11921 15.8031 8.82325H18.1207C17.8562 9.68488 17.396 10.3478 16.7381 10.8117C16.0802 11.2758 15.2984 11.5101 14.3858 11.5101C11.5511 11.5101 10.1338 9.99037 10.1338 6.95074C10.1338 6.30452 10.2253 5.71978 10.4108 5.19889C10.5964 4.67817 10.861 4.23081 11.2073 3.85429C11.5635 3.48029 11.9964 3.1962 12.5035 3.00453C13.0105 2.80098 13.5918 2.69922 14.2498 2.69922C15.5632 2.69922 16.555 3.1135 17.2229 3.93953C17.9031 4.76807 18.2421 6.01575 18.2421 7.68219H12.3798V7.68705Z" fill="#403939"/>
<path fill-rule="evenodd" clip-rule="evenodd" d="M25.132 7.03989C25.132 8.76334 24.4864 9.62496 23.1953 9.62496C21.9387 9.62496 21.3103 8.71838 21.3103 6.90504C21.3103 6.19013 21.4884 5.61241 21.8471 5.16972C22.2158 4.72705 22.6708 4.50696 23.2125 4.50696C23.7764 4.50696 24.2388 4.74609 24.5952 5.22187C24.9539 5.68577 25.132 6.29189 25.132 7.03989ZM19.1855 2.92322V15.2543H21.3992V10.2027C22.0326 11.0762 22.8734 11.5117 23.9224 11.5117C24.4764 11.5117 24.9662 11.4099 25.3916 11.2064C25.8294 10.991 26.1981 10.6903 26.4974 10.3044C26.7965 9.91859 27.0217 9.46637 27.1726 8.94313C27.3334 8.41054 27.4149 7.82582 27.4149 7.19147C27.4149 6.48843 27.3234 5.85873 27.1379 5.30475C26.955 4.74842 26.7001 4.27968 26.3761 3.89381C26.0545 3.50795 25.6612 3.21449 25.2012 3.00843C24.7509 2.8049 24.2613 2.70312 23.7318 2.70312C22.6708 2.70312 21.8817 3.11742 21.3647 3.94363L21.3474 2.92322H19.1855Z" fill="#403939"/>
<path fill-rule="evenodd" clip-rule="evenodd" d="M33.5141 6.19289C33.8826 6.19289 34.1719 6.11954 34.3798 5.9728C34.5876 5.81421 34.6915 5.62722 34.6915 5.37387C34.6915 4.73952 34.2833 4.42216 33.4647 4.42216H30.4344V6.19289H33.5141ZM33.4622 9.72735C34.4417 9.72735 34.9315 9.34849 34.9315 8.58864C34.9315 7.84045 34.4888 7.46646 33.6007 7.46646H30.4321V9.72735H33.4622ZM28.29 11.292V2.92383H34.1719C34.6791 2.92383 35.1046 2.98065 35.451 3.09411C35.7972 3.19606 36.0791 3.33811 36.2969 3.52025C36.517 3.70257 36.6703 3.91798 36.7644 4.16648C36.8559 4.41515 36.9027 4.6755 36.9027 4.94774C36.9027 5.44724 36.7693 5.84965 36.5045 6.15513C36.2524 6.45091 35.9232 6.65464 35.52 6.76809C35.728 6.81323 35.9282 6.8936 36.1262 7.00723C36.3215 7.109 36.4948 7.24638 36.6456 7.41449C36.8065 7.58495 36.9325 7.79317 37.0267 8.04418C37.1179 8.28332 37.165 8.5649 37.165 8.89395C37.165 9.24439 37.1007 9.56858 36.9746 9.86453C36.8483 10.1605 36.6531 10.4138 36.3859 10.6293C36.1212 10.8328 35.7699 10.9984 35.3321 11.1216C34.9067 11.2352 34.3921 11.292 33.7936 11.292H28.29Z" fill="#403939"/>
<path fill-rule="evenodd" clip-rule="evenodd" d="M40.3011 9.64368V7.17942H42.9971C43.4127 7.17942 43.7343 7.28822 43.9668 7.50362C44.1968 7.70735 44.3106 8.01499 44.3106 8.42225C44.3106 8.81998 44.1968 9.1253 43.9668 9.3407C43.7343 9.54424 43.4127 9.64602 42.9971 9.64602H40.3011V9.64368ZM40.3011 5.59803V2.92773H38.1045V11.2961H43.1357C44.1153 11.2961 44.8771 11.0523 45.4188 10.5646C45.9704 10.0651 46.2473 9.35257 46.2473 8.42225C46.2473 7.50362 45.9704 6.80544 45.4188 6.32949C44.8771 5.84186 44.1153 5.59803 43.1357 5.59803H40.3011Z" fill="#403939"/>
<path d="M49.2238 2.92383H46.9756V11.292H49.2238V2.92383Z" fill="#403939"/>
<path fill-rule="evenodd" clip-rule="evenodd" d="M56.0152 6.29265C56.0053 5.98734 55.9459 5.71978 55.8444 5.49252C55.7505 5.25337 55.6243 5.06169 55.4635 4.91497C55.3029 4.7562 55.1173 4.64274 54.9094 4.57406C54.7017 4.4935 54.489 4.45557 54.2713 4.45557C53.8211 4.45557 53.4279 4.62135 53.094 4.94806C52.7723 5.26524 52.587 5.71259 52.5422 6.2903H56.0152V6.29265ZM52.473 7.68705C52.5077 8.3214 52.6907 8.82558 53.0247 9.19958C53.3709 9.57375 53.8211 9.76075 54.3728 9.76075C54.7437 9.76075 55.0653 9.6802 55.3424 9.52162C55.6293 9.35116 55.8149 9.11921 55.8964 8.82325H58.2118C57.947 9.68488 57.4844 10.3478 56.8289 10.8117C56.171 11.2758 55.3868 11.5101 54.4766 11.5101C51.642 11.5101 50.2246 9.99037 50.2246 6.95074C50.2246 6.30452 50.3161 5.71978 50.5015 5.19889C50.6871 4.67817 50.9518 4.23081 51.2956 3.85429C51.6543 3.48029 52.087 3.1962 52.5943 3.00453C53.1013 2.80098 53.6826 2.69922 54.3407 2.69922C55.654 2.69922 56.6434 3.1135 57.3138 3.93953C57.9916 4.76807 58.3329 6.01575 58.3329 7.68219H52.473V7.68705Z" fill="#403939"/>
<path d="M20.9039 53.3386H3.44577C2.38957 53.3386 1.98144 52.0247 2.86447 51.4707L55.6103 18.3954C56.4661 17.8603 57.5396 18.6722 57.1933 19.5933L24.028 107.326C23.6223 108.399 21.9652 108.12 21.9652 106.981V54.3565C21.9676 53.793 21.4901 53.3386 20.9039 53.3386Z" fill="#403939"/>
</g>
<defs>
<clipPath id="clip0_1_192">
<rect width="211" height="108" fill="white"/>
</clipPath>
</defs>
</svg>
