<svg width="71" height="49" viewBox="0 0 71 49" fill="none" xmlns="http://www.w3.org/2000/svg">
<path d="M1.62844 24.3356C1.62844 24.5548 1.737 24.6644 1.95413 24.6644L1.62844 25.3221V25.651C1.84557 25.651 2.17125 25.7606 2.6055 25.9799C2.6055 25.4866 2.71407 25.0481 2.93119 24.6644L1.62844 24.3356ZM33.8716 36.8322C33.8716 36.3937 33.5459 36.1745 32.8945 36.1745C32.9488 36.613 33.2745 36.8322 33.8716 36.8322ZM7.81651 32.557V32.2282H7.16514V32.557H7.81651ZM6.83945 32.557C6.83945 31.8993 6.62232 31.5705 6.18807 31.5705V31.8993C6.24235 32.3378 6.45948 32.557 6.83945 32.557ZM32.5688 28.6107V27.953H32.2431V28.6107H32.5688ZM2.93119 24.0067C3.36544 24.0067 3.58257 23.7875 3.58257 23.349H2.93119V24.0067ZM65.4633 10.1946V9.86577H64.8119V10.1946H65.4633ZM40.0596 7.56376V7.2349H39.4083V7.56376H40.0596ZM25.7294 7.2349V6.90604H25.078V7.2349H25.7294ZM26.055 6.57718C26.4893 6.57718 26.7064 6.35794 26.7064 5.91946C26.055 5.91946 25.7294 6.1387 25.7294 6.57718H26.055ZM32.2431 3.61745C32.5688 3.61745 32.8945 3.28859 33.2202 2.63087C32.5688 2.63087 32.2431 2.85011 32.2431 3.28859V3.61745ZM33.5459 2.63087C33.9801 2.63087 34.1972 2.41163 34.1972 1.97315H33.5459V2.63087ZM33.2202 1.97315V1.31544C32.7859 1.37025 32.5688 1.58949 32.5688 1.97315H33.2202ZM1.62844 24.3356L2.27982 23.349C2.11697 23.349 1.35703 23.1298 0 22.6913V22.0336C0.217125 22.0336 1.08563 22.2528 2.6055 22.6913V22.3624L2.27982 21.7047H3.90826V21.3758C3.09404 21.3758 2.3341 20.6085 1.62844 19.0738H1.95413L4.23394 21.047H5.5367C6.51376 19.5123 7.49083 18.745 8.46789 18.745C8.90214 18.745 9.11927 18.1969 9.11927 17.1007C8.90214 16.6622 8.79358 16.3333 8.79358 16.1141H9.11927L9.77064 16.443C9.55352 16.8814 9.44495 17.3199 9.44495 17.7584H11.0734C14.0589 16.7718 15.5787 15.8949 15.633 15.1275L16.2844 15.4564C21.8754 10.6331 24.8066 8.22148 25.078 8.22148V7.89262H24.7523C24.318 8.11186 23.9924 8.22148 23.7752 8.22148L23.4495 7.56376C24.4266 6.52237 26.1636 5.53579 28.6605 4.60403C28.6605 4.11074 30.3976 2.68568 33.8716 0.328859C34.2515 0.10962 34.6858 0 35.1743 0V0.986577H34.8486L34.1972 0.657718L33.8716 1.31544V1.6443H35.1743L39.0826 0.328859C40.1682 1.26063 40.711 2.13758 40.711 2.95973V3.61745H40.0596V3.94631H40.711C40.711 4.38479 40.6024 4.60403 40.3853 4.60403L40.711 5.26174C40.711 5.48098 40.6024 5.5906 40.3853 5.5906L40.711 7.2349C40.711 7.89262 40.3853 8.22148 39.7339 8.22148V8.55034L40.3853 9.53691V10.5235L39.4083 11.8389V12.1678H40.0596V14.1409H39.7339C39.4083 12.6063 38.8654 11.8389 38.1055 11.8389C34.4144 14.5246 32.5688 16.0593 32.5688 16.443C32.7859 16.8814 32.8945 17.2103 32.8945 17.4295C32.4602 17.4295 32.2431 17.1007 32.2431 16.443C31.3746 16.443 30.6147 16.9911 29.9633 18.0872H29.6376V17.4295C28.3349 17.4295 25.9465 19.0738 22.4725 22.3624C22.4725 22.5817 22.2554 22.6913 21.8211 22.6913V23.0201H22.1468L23.7752 22.0336C24.2095 22.0884 24.4266 22.3076 24.4266 22.6913C22.6353 23.4038 20.6812 24.5 18.5642 25.9799V26.3087C19.107 26.3087 20.0841 27.2953 21.4954 29.2685L21.1697 29.9262C21.1697 30.8031 23.9924 32.2282 29.6376 34.2013L29.9633 34.8591L30.6147 34.5302C31.9174 35.0235 32.5688 35.462 32.5688 35.8456L33.2202 35.5168C33.7087 35.5168 34.5772 36.1745 35.8257 37.4899H36.1514L34.8486 35.5168H35.1743C35.4457 35.736 35.9885 35.8456 36.8028 35.8456V34.8591C37.237 34.8591 37.4541 35.4072 37.4541 36.5034H36.8028L37.4541 37.4899V38.1477C37.4541 38.5861 37.237 38.8054 36.8028 38.8054C37.1284 39.5179 37.4541 41.0526 37.7798 43.4094L36.8028 45.0537C37.237 45.1085 37.4541 45.3277 37.4541 45.7114V46.698L36.1514 47.0268V46.698C35.9342 46.698 35.1743 47.4653 33.8716 49L31.2661 48.3423V49H27.6835C24.4809 47.1913 19.8127 42.8065 13.6789 35.8456C12.159 35.5168 10.7477 34.8591 9.44495 33.8725V34.8591C7.05657 33.8177 5.64526 32.8311 5.21101 31.8993C4.34251 31.8993 3.90826 31.5705 3.90826 30.9128C4.12538 30.5291 4.23394 29.981 4.23394 29.2685C3.41972 29.2685 2.65979 28.5011 1.95413 26.9664C1.51988 27.1857 1.19419 27.2953 0.977064 27.2953V26.9664L1.30275 26.3087C0.868502 26.3087 0.651376 25.7606 0.651376 24.6644C1.08563 24.4452 1.41131 24.3356 1.62844 24.3356ZM36.8028 34.8591H36.1514V34.2013H36.8028V34.8591ZM0.325688 23.6779H0V23.0201H0.325688V23.6779ZM30.289 23.0201H29.3119V22.3624C29.7462 22.5817 30.0719 22.6913 30.289 22.6913V23.0201ZM5.21101 20.0604H4.55963V19.7315H5.21101V20.0604ZM6.51376 18.745H6.18807V18.0872H7.16514C7.16514 18.5257 6.94801 18.745 6.51376 18.745ZM16.6101 15.1275H15.9587C15.9587 14.4698 16.1758 14.1409 16.6101 14.1409V15.1275ZM17.2615 13.1544H16.9358V12.4966H17.2615V13.1544ZM18.5642 12.4966L18.2385 11.8389C18.5099 11.8389 19.1613 11.4004 20.1927 10.5235H20.5183C20.5183 10.8523 19.867 11.5101 18.5642 12.4966ZM20.844 10.5235H20.5183V9.86577C20.7355 9.86577 21.0612 9.75615 21.4954 9.53691V9.86577C21.4954 10.3043 21.2783 10.5235 20.844 10.5235ZM71 6.57718H70.6743C70.2401 6.35794 69.9144 6.24832 69.6972 6.24832V5.5906H70.3486C70.7829 5.64541 71 5.97427 71 6.57718ZM43.6422 4.27517C43.208 4.27517 42.9908 4.05593 42.9908 3.61745L43.6422 3.28859C44.0765 3.3434 44.2936 3.56264 44.2936 3.94631L43.6422 4.27517ZM56.0183 3.28859L55.6927 2.63087C55.7469 2.19239 55.9641 1.97315 56.344 1.97315L57.9725 2.30201C57.9725 2.08277 58.081 1.97315 58.2982 1.97315C58.2982 2.63087 58.081 2.95973 57.6468 2.95973C57.4297 2.95973 57.3211 2.85011 57.3211 2.63087L56.0183 3.28859ZM60.2523 2.30201H59.6009C59.6552 1.86353 59.8723 1.6443 60.2523 1.6443V2.30201ZM56.344 47.0268C52.5986 44.9989 49.8846 43.3546 48.2018 42.094C43.3165 37.7092 40.711 35.0783 40.3853 34.2013C39.8425 33.1051 39.4083 32.557 39.0826 32.557C38.3769 32.557 37.5084 32.2282 36.4771 31.5705H35.5V31.2416L34.8486 31.5705C33.9801 31.132 33.3287 30.9128 32.8945 30.9128C32.5145 31.132 32.0803 31.2416 31.5917 31.2416C31.5917 30.8031 31.3746 30.5839 30.9404 30.5839C30.9404 30.1454 31.1575 29.3781 31.5917 28.2819C30.289 28.2819 29.6376 27.953 29.6376 27.2953V26.6376C29.8547 26.6376 30.5061 26.7472 31.5917 26.9664C31.5917 26.7472 31.7003 26.4183 31.9174 25.9799C31.0489 25.9799 30.6147 25.651 30.6147 24.9933C31.646 24.1163 32.2974 23.6779 32.5688 23.6779V23.349L30.289 22.6913C30.3433 22.2528 30.5604 22.0336 30.9404 22.0336L32.5688 22.3624C32.5688 21.9239 32.2431 21.7047 31.5917 21.7047V21.047H31.9174L32.5688 21.3758C32.7859 19.896 34.0887 18.2517 36.4771 16.443H37.1284C37.237 16.443 37.5627 16.6622 38.1055 17.1007C39.8425 16.0593 40.711 15.4016 40.711 15.1275C40.2768 15.1275 40.0596 14.7987 40.0596 14.1409C40.3853 14.1409 40.711 14.4698 41.0367 15.1275C41.5252 15.1275 45.7592 12.1678 53.7385 6.24832C54.6613 5.5906 57.2668 4.27517 61.555 2.30201L61.2294 1.6443C61.2294 1.37025 61.9893 0.931767 63.5092 0.328859H64.4862V0.986577L62.8578 1.31544L63.1835 1.97315V2.30201H62.5321V2.63087H63.5092C63.8891 2.63087 64.432 2.41163 65.1376 1.97315C66.6575 2.74049 67.4174 3.28859 67.4174 3.61745C66.9832 3.67226 66.7661 3.8915 66.7661 4.27517C67.6346 4.38479 68.0688 4.71365 68.0688 5.26174V5.91946C67.4174 5.91946 67.0917 6.1387 67.0917 6.57718H67.7431C67.7431 7.67338 67.3089 8.22148 66.4404 8.22148L67.4174 9.53691V10.5235C67.6346 10.5235 67.7431 10.6331 67.7431 10.8523L68.3945 10.5235C69.0459 10.5235 69.3716 10.7427 69.3716 11.1812C67.7431 11.6197 66.2232 11.8389 64.8119 11.8389C64.8119 11.6197 64.7034 11.5101 64.4862 11.5101C64.4862 12.6063 62.4235 14.0313 58.2982 15.7852C58.2982 16.0045 58.1896 16.3333 57.9725 16.7718L57.3211 16.443H56.9954L57.3211 17.1007H56.9954L56.344 16.7718C55.6927 17.9228 54.1728 19.2383 51.7844 20.7181C51.7844 21.3758 51.133 22.472 49.8303 24.0067V24.6644C49.8303 24.9933 50.156 25.3221 50.8073 25.651C51.2416 25.4318 51.5673 25.3221 51.7844 25.3221L51.133 26.3087V26.6376C54.6613 30.7483 58.3524 33.7081 62.2064 35.5168L62.8578 35.1879C64.4862 36.5034 65.6804 37.1611 66.4404 37.1611L68.0688 39.1342V39.7919L65.789 43.4094L66.1147 44.0671V44.396H65.789L65.1376 44.0671C63.9977 45.4374 61.0665 46.4239 56.344 47.0268Z" fill="#E34B48"/>
</svg>
