<svg width="61" height="55" viewBox="0 0 61 55" fill="none" xmlns="http://www.w3.org/2000/svg">
<path d="M23.1604 9.16667V8.5119H22.1818C22.2362 8.94841 22.5624 9.16667 23.1604 9.16667ZM5.54545 52.0536C5.98039 52.0536 6.19786 51.8353 6.19786 51.3988C5.98039 51.3988 5.65419 51.2897 5.21925 51.0714L4.56684 52.0536H5.54545ZM29.6845 50.0893V49.4345H29.3583V50.0893H29.6845ZM6.52406 48.7798C6.959 48.7798 7.17647 48.5615 7.17647 48.125H6.52406V48.7798ZM8.80749 42.5595C8.80749 42.3413 8.91622 42.0139 9.13369 41.5774C8.26381 41.5774 7.82888 41.7956 7.82888 42.2321L8.48128 42.5595H8.80749ZM9.13369 41.25C9.67736 40.8135 10.1123 40.5952 10.4385 40.5952V40.2679H9.13369V41.25ZM55.1283 22.5893V21.9345H54.8021V22.5893H55.1283ZM13.3743 18.6607V18.3333H12.7219V18.6607H13.3743ZM8.80749 16.6964V16.369H8.15508V16.6964H8.80749ZM7.82888 13.75V13.4226H7.17647V13.75H7.82888ZM6.52406 9.16667V8.83929H5.87166V9.16667H6.52406ZM18.5936 5.2381H17.9412C17.5062 5.2381 17.2888 5.01984 17.2888 4.58333V3.92857H18.2674L18.5936 5.2381ZM9.45989 52.381H9.13369V51.7262H9.45989V52.381ZM0.652406 52.0536H0C0.0543672 51.6171 0.271836 51.3988 0.652406 51.3988V52.0536ZM2.28342 48.4524H1.30481L0.97861 47.1429H2.28342C2.28342 47.3611 2.17469 47.4702 1.95722 47.4702L2.28342 48.125V48.4524ZM35.8824 43.5417C35.4474 43.5417 35.2299 43.3234 35.2299 42.8869H35.8824V43.5417ZM12.3957 38.9583H11.4171C11.4715 38.5218 11.6889 38.3036 12.0695 38.3036H12.3957V38.9583ZM51.9479 21.6071L52.8449 23.244H53.4973L53.1711 21.9345C53.3886 21.498 53.4973 21.1706 53.4973 20.9524H53.8235V21.6071H54.1497C54.1497 20.7341 54.4759 20.2976 55.1283 20.2976V20.625L54.8021 21.2798H55.7807C55.7807 20.625 55.9982 20.2976 56.4332 20.2976L56.7594 20.9524C56.4875 20.9524 56.0526 21.7163 55.4545 23.244C56.107 23.244 56.4332 23.3532 56.4332 23.5714L57.0856 23.244L58.0642 23.8988L57.738 24.5536L58.0642 27.1726H58.3904V26.1905C59.0428 26.1905 59.369 26.4087 59.369 26.8452C59.1515 26.8452 59.0428 26.9544 59.0428 27.1726C60.3476 27.9365 61 28.9187 61 30.119C60.7282 31.6468 59.2059 34.0476 56.4332 37.3214C54.1497 41.6319 50.1266 46.2153 44.3636 51.0714C44.0374 51.0714 42.2977 52.381 39.1444 55H29.0321C28.5428 55 28.2166 54.4544 28.0535 53.3631L27.4011 53.6905H26.4225V53.3631C27.2923 53.3631 27.7273 52.9266 27.7273 52.0536H28.0535L28.7059 52.381V50.744C28.4884 50.744 28.1622 50.6349 27.7273 50.4167C27.7273 50.744 27.4011 51.0714 26.7487 51.3988C26.0963 51.3988 25.7701 51.1806 25.7701 50.744C26.5312 49.4345 27.0749 48.7798 27.4011 48.7798H28.0535V49.4345C29.6301 48.5069 31.0437 47.5248 32.2941 46.4881L32.9465 46.8155L34.2513 45.1786C33.8164 45.1786 33.5989 44.9603 33.5989 44.5238L34.2513 44.1964V44.8512H34.5775C36.7522 43.3234 37.8396 42.2321 37.8396 41.5774C37.6221 41.5774 37.5134 41.4683 37.5134 41.25C38.492 40.7589 39.3619 39.7768 40.123 38.3036V37.9762L39.7968 37.3214L40.4492 36.994C40.4492 37.2123 40.5579 37.3214 40.7754 37.3214L45.6684 29.7917C33.2184 17.5694 26.6127 11.4583 25.8516 11.4583C25.1448 11.4583 24.7914 11.131 24.7914 10.4762H25.4438V10.1488H25.1176C24.4109 10.5853 23.8672 10.8036 23.4866 10.8036L23.8128 10.1488V9.82143L22.1818 10.1488C21.6381 9.1121 20.5508 7.69345 18.9198 5.89286V5.56548H20.2246V6.22024H20.5508V5.56548C20.1159 5.34722 19.7897 5.2381 19.5722 5.2381V4.58333C19.5722 4.36508 20.1159 3.81944 21.2032 2.94643L21.8556 3.27381C21.8556 3.05556 21.9643 2.94643 22.1818 2.94643C21.9643 2.50992 21.8556 2.18254 21.8556 1.96429C21.2032 1.96429 20.877 2.18254 20.877 2.61905C20.4421 2.40079 20.1159 2.29167 19.8984 2.29167C20.1159 1.90972 20.2246 1.36409 20.2246 0.654762C20.6595 0.654762 21.0945 0.763889 21.5294 0.982143C21.5294 0.327381 22.0731 0 23.1604 0C23.1604 0.491071 23.8128 1.03671 25.1176 1.6369L24.7914 3.27381L25.4438 2.94643H25.7701V3.60119C25.1176 3.60119 24.7914 3.92857 24.7914 4.58333C25.0089 4.58333 25.1176 4.47421 25.1176 4.25595L26.7487 4.58333L27.4011 4.25595C27.6185 4.25595 28.2709 4.69246 29.3583 5.56548L30.9893 5.2381C31.5873 6.32937 32.566 6.875 33.9251 6.875C34.1426 7.36607 35.7736 8.78472 38.8182 11.131C38.8182 10.9127 38.9269 10.8036 39.1444 10.8036C39.1988 11.5129 40.1774 12.0585 42.0802 12.4405C42.0802 12.2222 42.1889 12.1131 42.4064 12.1131C42.4064 12.5496 42.5152 12.7679 42.7326 12.7679C43.1676 12.5496 43.4938 12.4405 43.7112 12.4405L42.7326 11.131C42.9501 11.131 43.0588 11.0218 43.0588 10.8036C43.3307 10.8036 44.2005 11.6766 45.6684 13.4226H45.9947L46.6471 13.0952C47.082 13.8046 47.2995 14.4593 47.2995 15.0595L47.9519 14.7321H48.2781V15.3869L46.9733 15.7143C47.4082 16.4782 47.7344 17.5694 47.9519 18.9881L46.9733 18.3333H46.6471V18.6607C47.2451 19.752 48.2237 20.2976 49.5829 20.2976C49.5829 20.0794 49.6916 19.9702 49.9091 19.9702C49.9091 21.0615 50.1266 21.6071 50.5615 21.6071C50.6159 21.1706 50.9421 20.9524 51.5401 20.9524L51.8663 21.5253C51.8119 21.307 51.7032 21.0069 51.5401 20.625C51.7576 20.625 51.8663 20.5159 51.8663 20.2976H50.8877V19.9702H52.1925L52.5187 20.625C52.5187 21.2798 52.3284 21.6071 51.9479 21.6071ZM4.89305 12.4405H4.24064V11.7857H4.89305V12.4405ZM39.7968 10.8036H39.1444C39.1988 10.3671 39.4162 10.1488 39.7968 10.1488V10.8036ZM4.24064 53.6905C3.58824 53.6905 3.26203 53.4722 3.26203 53.0357C3.58824 53.0357 3.91444 52.7083 4.24064 52.0536V51.7262C3.37077 52.1627 2.60963 52.381 1.95722 52.381V51.7262C4.45811 50.253 5.76292 49.2708 5.87166 48.7798H5.54545C3.8057 49.4345 2.50089 50.0893 1.63102 50.744L0.97861 49.7619C3.37077 48.3978 5.00178 47.3065 5.87166 46.4881L6.52406 46.8155C6.959 46.8155 7.17647 46.5972 7.17647 46.1607V45.506H6.52406V44.8512C7.39394 44.8512 7.82888 44.5238 7.82888 43.869C7.33957 43.869 6.90463 43.7599 6.52406 43.5417C6.74153 43.2688 6.85027 42.7232 6.85027 41.9048H6.52406L6.85027 40.2679H8.48128L9.45989 39.6131V39.9405L11.4171 38.9583C11.4715 40.0496 11.7977 40.5952 12.3957 40.5952C12.9394 39.2857 14.2442 37.9762 16.3102 36.6667H16.6364V37.3214C21.3663 33.6111 23.9759 31.756 24.4652 31.756C24.4652 31.3194 23.2692 30.119 20.877 28.1548C20.4421 28.373 20.1159 28.4821 19.8984 28.4821C16.4189 24.5536 14.3529 22.5893 13.7005 22.5893L14.0267 21.9345V21.6071C13.8093 21.6071 13.4831 21.498 13.0481 21.2798L13.3743 20.625C13.3743 20.4613 12.3957 19.5883 10.4385 18.006L9.7861 18.3333C9.56863 18.3333 9.45989 18.2242 9.45989 18.006C8.37255 18.2242 7.72014 18.3333 7.50267 18.3333C7.06774 18.3333 6.85027 18.006 6.85027 17.3512H7.50267V17.0238C6.85027 17.0238 6.52406 16.6964 6.52406 16.0417H7.50267V15.7143H6.85027V15.0595C7.50267 15.0595 7.82888 14.8413 7.82888 14.4048C7.50267 14.4048 7.06774 14.1865 6.52406 13.75C6.52406 14.1865 6.3066 14.4048 5.87166 14.4048L5.21925 13.4226C6.08913 13.4226 6.52406 13.0952 6.52406 12.4405C6.08913 12.4405 5.87166 12.2222 5.87166 11.7857C6.3066 11.7857 6.52406 11.5675 6.52406 11.131C6.52406 10.6944 6.3066 10.4762 5.87166 10.4762L5.21925 10.8036C5.21925 10.3671 5.32799 10.1488 5.54545 10.1488L5.21925 9.49405V8.5119C5.59982 8.5119 6.4697 8.29365 7.82888 7.85714C10.221 8.18452 11.4171 8.83929 11.4171 9.82143H11.7433V9.16667H12.3957C12.3957 9.82143 13.1569 10.5853 14.6791 11.4583V11.7857L15.3316 11.4583H16.9626V11.7857C16.7451 12.2222 16.6364 12.5496 16.6364 12.7679C20.3333 14.6776 22.6168 16.3145 23.4866 17.6786C24.4652 17.6786 26.0963 19.0972 28.3797 21.9345C30.8806 22.8075 32.2941 23.244 32.6203 23.244H34.2513L34.5775 24.5536L35.2299 24.2262C35.6649 24.2808 35.8824 24.499 35.8824 24.881L36.5348 24.5536C36.9153 24.5536 37.5677 25.5357 38.492 27.5C39.1988 27.5546 39.8512 28.8641 40.4492 31.4286C38.8725 32.7927 38.0027 34.1022 37.8396 35.3571H35.8824C35.8824 35.8482 35.3387 36.503 34.2513 37.3214C33.762 37.3214 33.3271 37.2123 32.9465 36.994C27.5098 39.7768 24.7914 41.8502 24.7914 43.2143C21.9643 45.6151 19.8984 46.8155 18.5936 46.8155C18.5936 46.5972 18.4848 46.4881 18.2674 46.4881C18.0499 47.0883 16.5276 48.2887 13.7005 50.0893C13.4831 50.0893 13.3743 49.9802 13.3743 49.7619C12.7219 49.9802 12.3957 50.1984 12.3957 50.4167L11.7433 50.0893C11.0365 51.1806 9.51426 51.7262 7.17647 51.7262C7.17647 51.999 6.19786 52.6538 4.24064 53.6905Z" fill="#E34B48"/>
</svg>
