<svg width="266" height="58" viewBox="0 0 266 58" fill="none" xmlns="http://www.w3.org/2000/svg">
<path d="M193.208 2.09567C204.887 3.48442 216.556 4.77283 227.89 6.71603C237.458 8.35824 246.763 10.275 254.689 13.5595C267.55 18.8874 269.631 26.507 259.969 33.3874C253.779 37.8018 245.268 40.8486 236.015 43.3885C215.96 48.9012 194.316 52.1012 172.076 54.3823C152.314 56.41 132.364 57.5347 112.195 57.8885C88.8359 58.2951 65.6968 57.6508 42.9027 54.942C30.9097 53.5163 19.3035 51.5414 9.51669 47.5653C-1.74444 42.9871 -3.07236 37.1787 5.85709 31.4495C12.3921 27.2568 21.0915 24.3948 30.23 21.8972C56.1923 14.795 83.8902 9.96875 112.341 6.17742C125.944 4.36624 139.788 3.15703 153.695 2.13791C154.521 2.07983 155.388 2.09038 156.173 1.79996C149.157 1.48842 142.203 1.17687 135.261 0.860046C134.57 0.828361 133.431 1.00263 133.41 0.490425C133.389 -0.0428964 134.55 0.126072 135.219 0.10495C147.379 -0.196032 159.487 0.178881 171.564 0.865333C173.289 0.965663 174.952 0.854767 176.656 0.791401C186.505 0.432336 196.355 0.141924 206.225 0.110243C207.125 0.110243 208.672 -0.174909 208.683 0.627711C208.683 1.26136 207.281 1.10296 206.393 1.16632C201.991 1.48315 197.589 1.79468 193.176 2.1115L193.208 2.09567ZM102.45 56.0192C108.075 55.8925 113.857 55.903 119.65 55.7552C134.936 55.3592 150.098 54.4879 165.123 53.0516C188.649 50.8074 211.516 47.5494 232.7 41.7463C241.786 39.2539 250.203 36.3075 256.362 32.0092C264.34 26.4436 263.273 20.7302 253.487 15.999C249.179 13.9132 244.066 12.44 238.702 11.1885C223.593 7.67178 207.627 5.58074 191.347 4.03358C185.575 3.48442 179.814 2.77684 173.854 3.20455C169.253 3.53722 164.652 3.90156 160.041 4.20783C124.92 6.55233 90.9794 11.1568 58.1685 17.8577C43.9797 20.7566 30 23.8985 17.6933 28.6139C13.354 30.2772 9.45395 32.1676 6.68311 34.5755C2.96079 37.8123 3.4104 40.8591 7.96921 43.8109C10.0395 45.1521 12.6221 46.2029 15.4034 47.1376C22.524 49.5349 30.4078 51.0398 38.5844 52.1909C59.4232 55.1321 80.7639 55.94 102.45 56.0192Z" fill="#E34B48"/>
</svg>
