<svg width="23" height="27" viewBox="0 0 23 27" fill="none" xmlns="http://www.w3.org/2000/svg">
<path d="M11.1325 0.0103725C11.1589 0.0161008 11.1835 0.020882 11.2058 0.0240617C11.5921 0.0620572 11.9975 0.361524 12.1581 0.534471C12.341 0.720748 12.437 0.860969 12.4779 1.00675C12.4991 1.08762 12.4115 1.22698 12.4241 1.24728C12.4486 1.28505 12.5732 1.24625 12.6011 1.26684C12.7375 1.37372 12.6726 1.63332 12.7164 1.75965C12.8582 2.1707 13.0843 2.56565 13.2336 2.96038C13.3279 3.21179 13.5371 3.60677 13.5563 3.87364C13.56 3.93123 13.424 3.98106 13.4439 4.02227C13.4662 4.0683 13.5667 4.0504 13.5837 4.06724C13.6799 4.16373 13.8572 4.36017 13.9161 4.53072C13.9302 4.57207 13.9371 4.61247 13.9337 4.64903C13.9297 4.68459 13.8392 4.75454 13.8477 4.77028C13.8532 4.7777 13.9293 4.76163 13.9493 4.78299C14.125 4.97418 14.1687 5.15661 14.2573 5.38727C14.4277 5.82875 14.8061 6.24836 14.9652 6.72294C14.9994 6.82602 14.8366 6.99371 14.844 7.00747C14.8633 7.03481 15.0067 6.98501 15.0708 7.02703C15.2826 7.1694 15.2806 7.51137 15.4462 7.66553C15.528 7.74165 15.7633 7.78154 15.8491 7.85327C15.9174 7.91108 15.9425 8.11978 16.0338 8.11336C16.0893 8.10938 16.2381 8.04246 16.2685 8.05665C16.2955 8.07029 16.2253 8.14681 16.2343 8.17496C16.2686 8.28627 16.2373 8.35621 16.248 8.46048C16.5332 8.25374 17.014 8.41091 17.2853 8.40572C17.3594 8.40306 17.5705 8.25254 17.6432 8.37737C17.6618 8.40996 17.6874 8.53606 17.7018 8.54066C17.8091 8.44412 17.9165 8.34811 18.0264 8.25221C18.3077 8.40984 18.5391 8.20608 18.79 8.13976C19.4691 7.96394 20.1453 7.77504 20.9342 7.81904C21.0589 7.82722 21.2196 7.77415 21.3722 7.80047C21.4122 7.8072 21.4504 7.81907 21.4847 7.83664C21.5622 7.87581 21.5378 8.07983 21.6841 7.95398C21.6728 8.0087 21.6614 8.06356 21.6499 8.11825C21.7574 8.07474 21.8436 7.96483 21.9823 8.00091C22.0802 8.01716 22.4147 8.17927 22.5298 8.32652C22.5827 8.39003 22.4877 8.44473 22.5377 8.49568C22.6283 8.5767 22.9327 8.77987 22.9845 9.00413C23.0424 9.20083 22.9194 9.47166 22.9209 9.56636C22.9374 9.93109 22.9672 10.2606 22.8095 10.4454C22.7656 10.495 22.6068 10.4939 22.6022 10.508C22.5912 10.5411 22.6943 10.6213 22.6951 10.6507C22.6956 10.8057 22.4651 10.8554 22.3959 10.9323C22.1691 11.1869 21.9866 11.4672 21.7565 11.6686C21.6115 11.7962 21.4039 12.0301 21.2119 12.0754C21.1702 12.0852 21.0781 11.9742 21.0554 11.9952C21.0311 12.0183 21.0843 12.1011 21.0789 12.1184C21.0371 12.2339 20.9257 12.4712 20.7817 12.4675C20.7543 12.4663 20.6699 12.3953 20.6595 12.401C20.6551 12.4049 20.6971 12.4717 20.6888 12.49C20.615 12.6513 20.4947 12.6988 20.3583 12.7853C20.0975 12.9515 19.9274 13.2916 19.6377 13.4423C19.5745 13.4753 19.3913 13.3384 19.3855 13.3465C19.3727 13.3641 19.4606 13.4856 19.4529 13.5421C19.4249 13.7289 19.1752 13.735 19.1225 13.8814C19.0967 13.9536 19.1527 14.1571 19.1313 14.2324C19.1278 14.2445 19.119 14.2556 19.1078 14.2656C19.0636 14.3051 18.9789 14.3343 19.0091 14.3967C19.0097 14.398 19.0112 14.3991 19.012 14.4006C19.3796 14.6018 19.381 15.2006 19.4891 15.4996C19.5162 15.574 19.7363 15.7457 19.6416 15.8575C19.6165 15.8865 19.5064 15.9498 19.5067 15.966C19.5413 15.9871 19.5768 16.0095 19.6113 16.0306C19.708 16.0915 19.8034 16.1504 19.8978 16.2066C19.8519 16.5441 20.1279 16.7034 20.2879 16.9311C20.714 17.5335 21.1581 18.1202 21.4935 18.7439C21.5589 18.8661 21.7295 18.9595 21.7516 19.1165C21.7634 19.1875 21.5907 19.2998 21.7868 19.3345C21.7383 19.3623 21.6897 19.39 21.6411 19.4176C21.7049 19.4599 21.8093 19.5009 21.9031 19.709C21.9169 19.7923 21.9525 19.8932 21.8963 20.1481C21.8656 20.2736 21.7953 20.4227 21.6929 20.5411C21.6042 20.6451 21.5064 20.7172 21.4152 20.767C21.2091 20.8699 21.1562 20.8635 21.0789 20.8804C21.0087 20.8914 20.9578 20.8926 20.9332 20.8941C20.8079 20.897 20.783 20.8942 20.7406 20.8931C20.6816 20.8929 20.6495 20.8922 20.6203 20.8873C20.5063 20.8676 20.3529 20.825 20.3026 20.7866C20.2778 20.7673 20.3191 20.6714 20.2928 20.6634C20.2498 20.652 20.1083 20.7559 20.0503 20.7377C19.9937 20.7191 19.9395 20.5743 19.8939 20.5773C19.7244 20.5867 19.5036 20.7018 19.3591 20.6037C19.3193 20.576 19.3063 20.4299 19.2906 20.4287C19.2608 20.4277 19.211 20.5498 19.187 20.5597C19.0712 20.6107 18.9755 20.4148 18.8868 20.3788C18.5981 20.2624 18.2676 20.2149 17.9834 20.0962C17.8342 20.0339 17.5914 19.9692 17.4291 19.8606C17.3983 19.8396 17.3702 19.8169 17.3469 19.7921C17.3168 19.7598 17.3718 19.6256 17.3411 19.6152C17.3069 19.604 17.2577 19.6903 17.2394 19.6934C17.111 19.7095 16.8354 19.7227 16.7613 19.5937C16.7474 19.5688 16.7675 19.4573 16.7554 19.4538C16.7492 19.4522 16.7113 19.52 16.6899 19.5213C16.5007 19.5328 16.3924 19.4503 16.2362 19.3717C15.9367 19.2215 15.5265 19.2392 15.2194 19.0578C15.1531 19.0176 15.1724 18.7915 15.1617 18.7889C15.138 18.786 15.0773 18.9246 15.0209 18.9454C14.8333 19.0129 14.6803 18.7947 14.5145 18.8202C14.4326 18.8332 14.2768 18.9824 14.1947 19.0001C14.1287 19.0141 14.0214 18.901 13.9708 18.9728C13.9404 19.0161 13.8836 19.1677 13.8594 19.182C13.8374 19.1938 13.844 19.0935 13.8261 19.0823C13.7517 19.0344 13.7425 18.9607 13.6805 18.9004C13.6256 18.8469 13.4746 18.8308 13.4057 18.6892C13.4236 18.7344 13.4491 18.7844 13.4517 18.8114C13.4922 19.2519 13.0704 19.4777 12.7174 19.6582C12.598 19.7199 12.4881 19.7745 12.4065 19.8303C12.335 19.8801 12.2038 20.1497 12.0702 20.0865C12.0359 20.0699 11.9474 19.9781 11.9303 19.9828C11.8753 20.1351 11.8168 20.2896 11.7602 20.4424C11.4056 20.4882 11.2854 20.8145 11.0875 21.031C10.7798 21.3671 10.4958 21.7025 10.1959 22.0342C9.97456 22.2788 9.74459 22.5194 9.49874 22.7431C9.3869 22.8449 9.3181 23.0481 9.16925 23.1078C9.1068 23.1333 8.94305 23.004 8.99424 23.1714C8.95426 23.1324 8.91396 23.0931 8.87398 23.0541C8.87107 23.1522 8.92826 23.2741 8.88082 23.3396C8.84092 23.3943 8.7209 23.526 8.66377 23.5527C8.63448 23.5662 8.5697 23.4856 8.54937 23.5048C8.51578 23.5407 8.54354 23.718 8.4956 23.7659C8.45228 23.8091 8.29296 23.7967 8.2717 23.8422C8.19502 24.0063 8.19034 24.2638 8.02824 24.3584C7.98322 24.3843 7.84225 24.3347 7.83368 24.3487C7.81771 24.3761 7.9037 24.4757 7.90114 24.5022C7.88723 24.6364 7.6613 24.6414 7.58436 24.7095C7.36868 24.9005 7.18244 25.1435 6.9723 25.347C6.93664 25.3816 6.9021 25.4136 6.86573 25.4448C6.70289 25.5848 6.4624 25.8516 6.24781 25.919C6.20118 25.9332 6.1104 25.8211 6.08453 25.8457C6.05539 25.8735 6.10521 25.9581 6.09822 25.9777C6.04167 26.1077 5.88753 26.3839 5.71788 26.3981C5.68651 26.3998 5.59849 26.3273 5.58687 26.3365C5.58113 26.3414 5.61768 26.412 5.60349 26.4343C5.49639 26.6038 5.34452 26.6908 5.14787 26.7863C4.6276 27.2707 4.01428 26.8664 3.70964 26.2241C3.70315 26.1852 3.69762 26.1442 3.69302 26.1058C3.63594 25.5408 3.54052 25.0865 3.65293 24.6733C3.67869 24.586 3.90415 24.5508 3.90714 24.5384C3.90565 24.5113 3.75797 24.4769 3.72724 24.4181C3.62745 24.2211 3.82075 24.0033 3.77124 23.8275C3.74671 23.7403 3.57574 23.5998 3.54636 23.5136C3.53192 23.4712 3.56312 23.4019 3.5708 23.3474C3.57287 23.3326 3.57362 23.3186 3.5708 23.3063C3.56922 23.2785 3.5613 23.2583 3.54538 23.2457C3.49971 23.2104 3.34366 23.1673 3.33028 23.1294C3.31899 23.0943 3.42236 23.0718 3.43588 23.0394C3.49161 22.9028 3.57069 22.8747 3.63924 22.7793C3.74055 22.6327 3.76345 22.2063 4.39502 22.4498C4.40123 22.4521 4.40826 22.4551 4.41458 22.4576C4.4236 22.4612 4.43195 22.4664 4.44098 22.4703C4.51296 22.3481 4.62068 22.2365 4.66292 22.1516C4.68371 22.1074 4.60463 21.9386 4.74505 21.9345C4.78136 21.9344 4.90614 21.9595 4.91517 21.9531C4.85617 21.863 4.79862 21.7684 4.74016 21.6773C4.97084 21.5652 4.84487 21.3708 4.85064 21.207C4.86315 20.829 4.86444 20.4472 4.94744 20.0904C4.96026 20.0352 4.97612 19.9782 4.99339 19.9241C5.01852 19.8458 4.94828 19.7216 5.02761 19.6592C5.06063 19.6329 5.2657 19.6683 5.12538 19.5897C5.17991 19.6024 5.23512 19.6142 5.28964 19.6269C5.23298 19.5743 5.1148 19.5213 5.1117 19.4763C5.10969 19.4391 5.12458 19.3439 5.15276 19.3179C5.16697 19.3045 5.26637 19.3346 5.27009 19.3199C5.27459 19.2941 5.14818 19.2043 5.15667 19.1693C5.16492 19.1377 5.29326 19.112 5.28377 19.0832C5.24501 18.9804 5.09488 18.8412 5.16449 18.7576C5.18461 18.7349 5.32358 18.7335 5.32191 18.7244C5.31809 18.7066 5.19104 18.6707 5.1772 18.6559C5.10764 18.5807 5.28023 18.5333 5.29942 18.4809C5.36142 18.312 5.35086 18.1143 5.41675 17.947C5.45837 17.8408 5.48054 17.6551 5.60153 17.5774C5.62769 17.5607 5.7662 17.6006 5.77068 17.5823C5.77559 17.5621 5.68314 17.5281 5.6778 17.5168C5.64033 17.438 5.58045 17.2696 5.69246 17.2313C5.71366 17.2242 5.82332 17.2426 5.82739 17.2362C5.82826 17.2327 5.75615 17.2064 5.75015 17.1932C5.70678 17.0775 5.76801 17.016 5.81761 16.9252C5.91194 16.7517 5.82612 16.5022 5.9496 16.3259C5.97637 16.2879 6.19629 16.3111 6.1999 16.3053C6.19874 16.2912 6.05468 16.2468 6.02489 16.2115C5.93716 16.1049 6.07915 16.0289 6.06791 15.9396C6.06283 15.9456 6.06057 15.9528 6.05618 15.9563C5.73343 16.2114 5.38839 15.9981 5.10192 15.8027C4.98979 15.7276 4.89263 15.6564 4.80567 15.614C4.73322 15.5796 4.47095 15.6168 4.45858 15.4703C4.45632 15.4322 4.49109 15.3078 4.47911 15.2982C4.33653 15.3344 4.18879 15.3691 4.04695 15.4058C3.85466 15.1365 3.54817 15.2166 3.28824 15.1701C2.5894 15.0476 1.86618 14.9332 1.26142 14.7555C1.20326 14.7388 1.1397 14.7483 1.0561 14.7467C0.969932 14.7438 0.886392 14.7359 0.766692 14.6695C0.713656 14.6399 0.683416 14.57 0.607323 14.4974C0.565097 14.4561 0.52049 14.4312 0.382446 14.3263C0.318178 14.2697 0.197826 14.1907 0.0813074 13.9449C-0.0482977 13.6968 -0.00336397 13.2854 0.0803297 13.1158C0.137629 13.1267 0.194515 13.1402 0.249476 13.1568C0.393195 12.8985 0.433131 12.8792 0.469464 12.8097C0.548352 12.6775 0.583619 12.5884 0.659142 12.5408C0.753566 12.4823 0.929849 12.4047 0.993524 12.4039C1.0265 12.4035 1.05166 12.5036 1.07859 12.4939C1.12347 12.4753 1.17184 12.3041 1.23307 12.2827C1.28884 12.263 1.42033 12.3458 1.45696 12.3149C1.58609 12.2056 1.69354 11.9823 1.86565 11.9766C1.91306 11.9753 2.00912 12.0839 2.02307 12.0783C2.0394 12.0675 2.03076 12.0058 2.02698 11.96C2.02496 11.9379 2.02388 11.9192 2.02796 11.9121C2.09315 11.8014 2.28339 11.9057 2.37407 11.8837C2.67166 11.8114 2.96294 11.6623 3.26086 11.5992C3.44828 11.5593 3.74704 11.4486 3.94332 11.4956C3.98546 11.5063 4.01523 11.6468 4.04598 11.6383C4.08039 11.6284 4.07193 11.531 4.08509 11.518C4.17913 11.4338 4.39534 11.2704 4.52506 11.3372C4.54994 11.3499 4.59495 11.4539 4.60719 11.4516C4.61334 11.4498 4.60661 11.3714 4.62283 11.3587C4.76852 11.2457 4.90219 11.2553 5.07063 11.2364C5.3941 11.1994 5.71747 10.9632 6.064 10.9509C6.13921 10.949 6.24605 11.1488 6.25563 11.1465C6.27606 11.1364 6.25131 10.9869 6.28594 10.9392C6.40353 10.7815 6.6423 10.884 6.76405 10.7739C6.82294 10.7197 6.87041 10.5105 6.92928 10.4513C6.97405 10.4046 7.12135 10.4429 7.12483 10.3554C7.12686 10.3026 7.09263 10.1434 7.10527 10.1188C7.11697 10.0973 7.16525 10.184 7.18545 10.1853C7.27036 10.1864 7.31793 10.2435 7.40055 10.2616C7.43019 10.2676 7.46835 10.26 7.51201 10.2547C7.51997 10.2156 7.5285 10.1766 7.53645 10.1374C7.62281 10.1361 7.70917 10.1348 7.79555 10.1335H7.79652C7.91198 10.0677 7.71054 9.97943 7.67431 9.92033C7.49838 9.63279 7.55918 9.28213 7.68311 8.94253C7.80369 8.61201 7.98388 8.29072 8.06638 8.0498C8.10249 7.94331 8.07281 7.56979 8.22281 7.52277C8.2618 7.5114 8.38965 7.53506 8.39978 7.51593C8.3662 7.31704 8.33281 7.11488 8.2981 6.91752C8.5786 6.58352 8.50153 6.15947 8.55133 5.77447C8.63307 5.1572 8.6871 4.56731 8.79185 3.92253C8.86757 3.47444 8.9696 3.03191 9.11059 2.5986C9.17656 2.39573 9.16723 2.10487 9.29635 1.92294C9.35072 1.84565 9.55729 1.88234 9.45181 1.71956C9.5048 1.73764 9.5582 1.7562 9.61118 1.77431C9.58261 1.65613 9.48673 1.54802 9.51732 1.43502C9.5429 1.33847 9.63997 1.08964 9.70113 1.01163C9.73176 0.971584 9.81797 1.03166 9.83703 0.991101C9.86846 0.921184 9.8172 0.701064 9.89668 0.572605C9.92832 0.52201 9.99042 0.464847 10.0873 0.38389C10.138 0.342358 10.1946 0.293036 10.2995 0.218643C10.4089 0.167345 10.5657 -0.0495298 11.1325 0.0103725ZM5.67486 25.5875C5.62995 25.5949 5.57323 25.6044 5.50181 25.613C5.60011 25.6657 5.43114 25.7456 5.84597 25.655L5.67486 25.5875ZM5.49301 25.5162C5.49774 25.5204 5.50724 25.5233 5.52038 25.5269L5.49301 25.5162ZM3.96091 24.9168C4.01587 24.9741 4.11923 25.0861 4.14668 25.1006C4.17868 25.1265 4.39615 25.1224 4.43022 25.1026L4.4312 25.1006L3.96091 24.9168ZM5.60838 24.0915C5.58526 24.1201 5.56938 24.1515 5.60838 24.1873C5.63111 24.1973 5.65408 24.2067 5.67682 24.2167C5.67775 24.212 5.67891 24.2075 5.67975 24.203C5.64554 24.1551 5.62385 24.1178 5.60838 24.0915ZM6.13831 23.5567C6.04363 23.5587 5.94438 23.5615 5.84303 23.5635C5.84699 23.5656 5.85059 23.5691 5.85477 23.5713C5.81844 23.5685 5.78165 23.5677 5.74526 23.5655C5.70888 23.5663 5.67234 23.5673 5.63576 23.5684C5.59403 23.5697 5.54223 23.5731 5.48421 23.5762C5.47454 23.5866 5.45241 23.5972 5.42848 23.6055C5.40702 23.6156 5.38535 23.6262 5.3747 23.6359C5.36992 23.6402 5.36726 23.6447 5.36786 23.6486C5.37256 23.6718 5.46416 23.6999 5.46563 23.7239C5.46707 23.7504 5.35773 23.7753 5.3659 23.8246C5.37949 23.9057 5.62488 23.958 5.65042 24.0084C5.65787 24.0237 5.64976 24.0385 5.63771 24.0544C5.6717 24.0741 5.71862 24.1011 5.75993 24.1248C5.84804 24.1765 5.92085 24.1971 5.83814 24.0162C6.134 24.24 6.09166 24.0113 6.07378 23.8715C6.07171 23.8554 6.02164 23.8047 6.01511 23.7796C6.00101 23.7189 6.12492 23.7241 5.96036 23.5635C6.02766 23.5903 6.09504 23.6173 6.16275 23.6437C6.1546 23.6147 6.14643 23.5856 6.13831 23.5567ZM6.3798 23.32C6.32385 23.3424 6.25782 23.3665 6.22239 23.3875C6.22537 23.3876 6.22883 23.3877 6.23217 23.3885C6.24668 23.3928 6.31736 23.46 6.35243 23.4628C6.3941 23.4659 6.40786 23.4119 6.45215 23.411C6.42806 23.3807 6.40389 23.3503 6.3798 23.32ZM6.49713 22.6297C6.43927 22.654 6.59127 22.6871 6.27323 22.6414C6.29345 22.6535 6.31359 22.6657 6.33385 22.6776C6.40187 22.6963 6.47024 22.7163 6.53819 22.7353C6.5315 22.7818 6.41387 22.8087 6.4062 22.8526C6.39342 22.928 6.56179 23.0774 6.4238 23.1264C6.40228 23.134 6.3398 23.1356 6.29376 23.1401C6.35996 23.1681 6.47393 23.2563 6.50202 23.2516C6.50904 23.25 6.57142 23.16 6.57241 23.1499C6.57182 23.0811 6.38764 22.9149 6.52353 22.8536C6.54795 22.8427 6.62336 22.8888 6.64183 22.8751C6.66663 22.8551 6.63839 22.713 6.56655 22.5886C6.54229 22.6049 6.51942 22.6205 6.49713 22.6297ZM6.24097 23.1548C6.24051 23.16 6.24898 23.1652 6.26248 23.1714C6.25728 23.1649 6.25203 23.1584 6.24683 23.1518C6.24401 23.1533 6.24132 23.1529 6.24097 23.1548ZM8.04682 16.7453C7.98483 16.8039 8.11867 16.9133 8.16024 16.9917C8.1788 17.0269 8.16113 17.0546 8.12406 17.0758C7.65412 16.9122 7.2548 16.9189 8.01651 17.067C7.90188 17.0725 8.0994 17.1459 8.05758 17.1677C8.03011 17.1817 7.92287 17.1695 7.91874 17.1981C7.91254 17.2489 8.19451 17.3762 7.65573 17.2587C7.73482 17.3399 7.52947 17.3423 7.99696 17.4797C8.02197 17.5018 7.73043 17.4713 7.688 17.4787C7.64771 17.486 7.49167 17.5754 7.47876 17.5941C7.46678 17.6122 7.45058 17.6454 7.48756 17.6723C7.53381 17.7059 8.0211 17.8423 7.4377 17.7388C7.47332 17.7939 7.45366 17.8056 7.37708 17.8297C7.36321 17.8341 7.27751 17.8137 7.27638 17.818C7.27467 17.8269 7.33224 17.8569 7.33699 17.8747C7.34316 17.9038 7.16067 17.8749 7.43477 17.9392C7.47634 17.9676 7.51833 17.996 7.55992 18.0243C7.50583 18.0173 7.4517 18.0107 7.39761 18.0038C7.45288 18.027 7.50856 18.0509 7.56383 18.0742C7.17002 17.966 7.3879 18.0882 7.62053 18.123C7.53035 18.1362 7.43984 18.1492 7.3497 18.1622C6.90025 18.047 7.28005 18.2221 7.52667 18.2756C7.52538 18.2793 7.52405 18.2836 7.52276 18.2873C7.3948 18.2913 7.4851 18.3453 7.39468 18.3665C7.30443 18.3875 7.26142 18.3726 7.0515 18.3343C7.06096 18.3466 7.07038 18.359 7.07985 18.3714C7.63581 18.5606 6.65428 18.3106 7.0691 18.5034C6.70543 18.4434 6.87598 18.557 6.97328 18.6286C6.98458 18.6369 7.05431 18.6545 7.07399 18.6667C7.12022 18.6961 7.02197 18.7173 7.24509 18.7703C7.17681 18.7694 7.1081 18.7691 7.03977 18.7684C7.07742 18.7906 7.11552 18.8127 7.15318 18.8349C7.22292 18.8519 7.29268 18.8688 7.36241 18.8857C7.11924 18.8524 7.20014 18.9126 7.13949 18.918C7.12704 18.919 7.02983 18.8969 7.00066 18.9024C6.96659 18.9088 6.98824 18.941 6.9547 18.9503C7.0597 18.9827 7.16453 19.0156 7.26953 19.048C7.32021 19.0916 7.03661 19.0333 7.01043 19.0451C7.00586 19.0474 7.01201 19.1088 7.01728 19.1136C7.05879 19.1503 7.30005 19.2015 7.2314 19.2612C7.21898 19.2719 7.13355 19.2622 7.12678 19.2729C7.11571 19.2922 7.28932 19.4008 7.46214 19.448C7.23832 19.4199 7.31079 19.5083 7.24313 19.5125C7.22159 19.5135 7.08336 19.482 7.04954 19.4929C7.02257 19.5018 7.12346 19.5668 7.10039 19.5809C7.07528 19.5959 6.9577 19.5751 6.94688 19.5819C6.93718 19.5885 7.02939 19.6195 7.02608 19.6308C7.01314 19.6654 6.8548 19.662 6.8452 19.6895C6.8316 19.7293 7.1004 19.8325 7.21576 19.8968C7.19582 19.9009 7.13445 19.8952 7.13069 19.9036C7.09525 20.0119 7.01457 20.125 6.92831 20.2214C6.88856 20.2661 6.4795 20.3038 7.11896 20.4209C7.2242 20.4649 6.93884 20.5346 6.92928 20.5578C6.9287 20.5595 6.92876 20.5617 6.92928 20.5636C6.93654 20.5892 7.02779 20.6302 7.0251 20.6487C7.01592 20.7091 6.92496 20.731 7.00652 20.8237C7.02808 20.8472 7.15644 20.8999 7.15318 20.9107C7.14783 20.9236 7.01551 20.9074 7.00261 20.9225C6.97425 20.9592 6.99969 21.0447 6.96839 21.077C6.96214 21.0826 6.84703 21.0584 6.80902 21.0603C6.66053 21.0683 6.66241 21.1159 7.02803 21.1933C6.8099 21.196 6.98656 21.2842 6.98795 21.3341C6.98789 21.4408 6.86099 21.6018 6.99479 21.7213C7.07918 21.7967 7.24262 21.8349 7.08376 21.8817C7.04849 21.8921 7.00166 21.8996 6.95959 21.912C6.85975 21.9423 6.54869 21.9219 6.90386 22.0411C6.79743 22.0731 6.85296 22.1364 6.53233 22.1076C6.60599 22.129 6.68059 22.1507 6.75427 22.1721C6.75461 22.179 6.75489 22.1858 6.75525 22.1926C6.6835 22.1789 6.61093 22.1653 6.53917 22.1516C6.50962 22.1958 6.78843 22.325 6.77774 22.3637C6.76579 22.4078 6.6998 22.482 6.62619 22.5437C6.71246 22.5478 6.7414 22.4692 6.79436 22.483C6.81687 22.4894 6.919 22.5882 6.96546 22.5847C7.00337 22.5819 6.97503 22.4493 7.01435 22.4371C7.05641 22.4249 7.15029 22.4995 7.16883 22.4938C7.18591 22.4879 7.12855 22.4086 7.14438 22.3931C7.19598 22.3464 7.35072 22.4121 7.39175 22.3755C7.45117 22.3226 7.2985 22.0697 7.25584 21.9325C7.28066 21.934 7.33604 21.9659 7.34873 21.9541C7.50701 21.8092 7.71567 21.6757 7.9119 21.5678C8.00267 21.5176 8.45379 21.6196 7.951 21.2041C7.89605 21.0991 8.25755 21.1075 8.29712 21.077C8.3338 21.0465 8.28113 20.9356 8.3069 20.9078C8.38504 20.8244 8.50195 20.8269 8.53177 20.6575C8.53985 20.6129 8.47283 20.4871 8.48875 20.4727C8.50851 20.4568 8.62193 20.5319 8.65203 20.5147C8.668 20.5053 8.68475 20.4919 8.70092 20.4756C8.75899 20.4171 8.81819 20.3288 8.87398 20.3006C8.88801 20.2947 8.97211 20.376 9.01184 20.3886C9.16609 20.4392 9.22227 20.3688 8.95513 20.107C9.17455 20.1918 9.11117 19.9884 9.17316 19.9144C9.30449 19.7599 9.6339 19.5819 9.65713 19.3521C9.67174 19.2069 9.55953 19.083 9.7725 19.0881C9.82004 19.089 9.87402 19.099 9.9309 19.0999C10.0637 19.1031 10.3354 19.2758 10.144 18.9473C10.2898 18.9478 10.3079 18.8402 10.5801 19.0256C10.5365 18.962 10.4931 18.8981 10.4491 18.8349C10.4575 18.8249 10.4659 18.8147 10.4745 18.8046C10.526 18.8564 10.5775 18.9082 10.629 18.96C10.7137 18.9111 10.6029 18.6089 10.6642 18.5562C10.7664 18.4696 11.101 18.3253 11.2626 18.3118C11.3472 18.3058 11.2445 18.1878 11.4894 18.3998C11.4857 18.3729 11.4822 18.3456 11.4786 18.3186C11.4559 18.2853 11.433 18.2522 11.4102 18.2189C11.3928 18.1937 11.3757 18.1678 11.3584 18.1426C11.4208 18.0825 11.5704 18.0934 11.6312 18.037C11.6863 17.9852 11.7231 17.8847 11.771 17.7965C11.7214 17.8039 11.6699 17.8146 11.6243 17.8111C11.268 17.7844 10.9095 17.776 10.5938 17.642C10.5328 17.6158 10.4231 17.6822 10.3806 17.6029C10.3632 17.5693 10.4153 17.3695 10.3347 17.5051C10.3514 17.452 10.3679 17.3988 10.3846 17.3457C10.3345 17.4007 10.2767 17.5151 10.2399 17.5168C10.2088 17.518 10.133 17.5028 10.1147 17.4748C10.1053 17.4606 10.1417 17.3629 10.1304 17.3584C10.1095 17.3535 10.0217 17.4774 9.99347 17.4689C9.968 17.4607 9.96165 17.3314 9.93676 17.3418C9.84746 17.3782 9.71661 17.5237 9.65616 17.4542C9.63957 17.4347 9.65402 17.2972 9.64638 17.2988C9.63127 17.3028 9.58792 17.4251 9.57403 17.4396C9.50465 17.5072 9.48443 17.3369 9.44399 17.3173C9.31203 17.2537 9.14794 17.2613 9.0177 17.1941C8.93544 17.1519 8.78438 17.1274 8.73416 17.0074C8.72363 16.9815 8.7707 16.8485 8.75763 16.8412C8.74165 16.8361 8.70348 16.9244 8.6931 16.9311C8.62434 16.967 8.47829 17.024 8.45942 16.9135C8.45588 16.8923 8.48373 16.7819 8.478 16.7805C8.47475 16.7808 8.44524 16.851 8.434 16.8558C8.33409 16.8972 8.28967 16.8362 8.22086 16.7864C8.18132 16.7582 8.13459 16.7464 8.08495 16.7395C8.0664 16.7391 8.05222 16.7406 8.04682 16.7453ZM7.74568 22.0176C7.78334 22.0432 7.82146 22.0693 7.8591 22.0949C7.86368 22.0885 7.86816 22.0817 7.87279 22.0753C7.81965 22.0233 7.76655 21.9708 7.71342 21.9188C7.72413 21.9517 7.7349 21.9848 7.74568 22.0176ZM19.9555 19.7198C19.9136 19.917 19.9546 20.0301 19.9604 20.1002C20.0102 20.2835 20.0396 20.2837 20.0396 20.2762C20.042 20.2649 20.033 20.2325 20.0249 20.2018C20.0065 20.1364 19.9844 20.0622 19.9663 19.9906C19.9503 19.9299 20.0321 19.7447 19.9555 19.7198ZM20.4013 20.0894C20.4057 20.0877 20.4107 20.0873 20.415 20.0855C20.4144 20.0869 20.4128 20.0862 20.4111 20.0855C20.4082 20.087 20.4043 20.0879 20.4013 20.0894ZM6.65259 19.9447C6.72493 19.9615 6.7973 19.9787 6.86964 19.9955C6.84154 19.9803 6.81365 19.9648 6.78556 19.9496C6.74105 19.9436 6.69612 19.938 6.65161 19.932C6.65187 19.9362 6.65232 19.9405 6.65259 19.9447ZM21.0046 18.8887C20.9622 18.8848 20.9058 18.8776 20.7152 18.916C20.7062 18.9183 20.6945 18.922 20.681 18.9258C20.723 18.9722 20.7332 19.1031 20.7748 19.1194C20.8257 19.1395 20.9216 19.0027 21.0046 18.8887ZM20.6262 18.9424C20.614 18.9466 20.6008 18.9508 20.5871 18.9561C20.5871 18.9682 20.5849 18.9774 20.5881 18.9806C20.595 18.986 20.6103 18.9632 20.6262 18.9424ZM18.6581 18.3548C18.6525 18.4711 18.5879 18.7633 18.7676 18.5249C18.702 18.8902 18.8743 18.7432 18.9866 18.6628C18.9872 18.6623 18.9868 18.6606 18.9875 18.6599C18.9517 18.678 18.9106 18.7015 18.8634 18.7303C19.0019 18.5441 18.7929 18.5669 18.7402 18.4966C18.7122 18.4591 18.6854 18.4093 18.6581 18.3548ZM17.3714 15.3197C17.1832 15.2566 17.2124 15.4399 17.1592 15.528C17.0104 15.7744 16.8762 16.0323 16.6547 16.1909C16.6118 16.2213 16.627 16.3378 16.5472 16.3259C16.5131 16.3198 16.3685 16.1742 16.4513 16.3073C16.4135 16.266 16.3757 16.2244 16.3379 16.1831C16.365 16.2497 16.4385 16.3544 16.4269 16.3826C16.4169 16.4061 16.3772 16.4532 16.3477 16.451C16.332 16.4491 16.2657 16.3707 16.2587 16.3777C16.2474 16.3905 16.3171 16.5214 16.2998 16.5371C16.2841 16.5513 16.1769 16.4868 16.1766 16.5107C16.1749 16.5961 16.2472 16.7705 16.1698 16.7776C16.1478 16.7792 16.0392 16.6939 16.0378 16.7004C16.0368 16.7145 16.1201 16.8109 16.1277 16.8294C16.1585 16.917 16.0127 16.8396 15.982 16.8588C15.9252 16.8947 15.8822 16.9497 15.8383 17.0025C15.9308 16.9954 16.0388 16.9413 16.1267 16.9272C16.1833 16.9181 16.2316 16.9457 16.2705 16.9908C16.0406 17.4371 16.0916 17.859 16.2675 17.1013C16.2882 17.2231 16.3901 17.0372 16.4308 17.0876C16.4571 17.1204 16.4472 17.2303 16.4953 17.243C16.5819 17.2652 16.7689 17.0042 16.6224 17.5373C16.7512 17.4775 16.775 17.6946 16.9617 17.243C16.9962 17.2247 16.9714 17.5208 16.9881 17.5677C17.0037 17.6119 17.1713 17.8038 17.2032 17.8219C17.2347 17.8398 17.2916 17.8669 17.3332 17.8356C17.3853 17.7966 17.5681 17.3252 17.4486 17.9079C17.5378 17.8869 17.5589 17.9111 17.607 17.9989C17.6157 18.0148 17.5899 18.0991 17.5972 18.1015C17.6125 18.1062 17.6576 18.0533 17.6872 18.0546C17.7358 18.0568 17.7033 18.2402 17.7859 17.9705C17.8294 17.935 17.8741 17.8994 17.9179 17.8639C17.9113 17.9189 17.9041 17.9742 17.8974 18.0292C17.9312 17.9778 17.966 17.9269 18 17.8757C17.8551 18.2575 18.0389 18.0648 18.0763 17.8307C18.0789 17.8392 18.0816 17.8476 18.0841 17.8561C18.1133 17.9466 18.1417 18.037 18.1692 18.127C18.0175 18.5655 18.2759 18.2178 18.3432 17.9744C18.3493 17.9768 18.3553 17.9797 18.3618 17.9822C18.3817 18.1184 18.4659 18.0401 18.5085 18.1406C18.5508 18.2416 18.5289 18.2828 18.484 18.4927C18.5045 18.4865 18.5253 18.4803 18.5456 18.4741C18.5935 18.38 18.6219 18.3323 18.6385 18.3167C18.5646 18.1679 18.4801 17.9989 18.3354 17.9578C18.2017 17.92 18.0536 17.9973 18.1125 17.8033C18.1254 17.7601 18.1476 17.7113 18.1624 17.6586C18.1965 17.5328 18.4298 17.3123 18.0685 17.4288C18.1051 17.2938 18.0049 17.2509 18.2513 17.0357C18.1798 17.0643 18.1078 17.0932 18.0362 17.1218C18.0287 17.1118 18.0213 17.1015 18.0137 17.0915C18.0761 17.0535 18.1391 17.0161 18.2015 16.9781C18.1872 16.9278 18.0763 16.9192 17.9776 16.9076C17.9045 16.9005 17.8375 16.8913 17.8231 16.8627C17.7662 16.7497 17.7154 16.4074 17.7458 16.2555C17.7614 16.1752 17.623 16.2454 17.8886 16.0619C17.8623 16.0599 17.8357 16.058 17.8094 16.056C17.7432 16.0814 17.6771 16.1069 17.6109 16.1323C17.5703 16.0619 17.6206 15.9254 17.5835 15.8575C17.5148 15.7338 17.2438 15.6369 17.2892 15.4517C17.2972 15.421 17.344 15.3634 17.3714 15.3197ZM13.5964 17.5862C13.6138 17.6011 13.6315 17.6161 13.6492 17.6312C13.6574 17.6066 13.6672 17.5802 13.6766 17.552C13.6593 17.5331 13.6408 17.5132 13.6218 17.4924C13.6136 17.5231 13.6048 17.5544 13.5964 17.5862ZM16.5921 17.3056C16.5931 17.2729 16.5305 17.3156 16.5071 17.3789C16.4173 17.6224 16.5876 17.4509 16.5921 17.3056ZM7.78968 17.1981C7.53875 17.1301 7.73259 17.242 7.87376 17.2528C7.90547 17.2552 7.85462 17.2158 7.78968 17.1981ZM12.9667 10.8639C12.8581 10.5123 12.8421 10.7137 12.8279 10.8316C12.8262 10.8453 12.8427 10.9153 12.8416 10.9382C12.8386 10.9929 12.7794 10.9133 12.8338 11.1367C12.8051 11.0751 12.7764 11.0135 12.7477 10.9519C12.7465 10.9952 12.745 11.0387 12.7438 11.0819C12.7604 11.1517 12.777 11.2214 12.7937 11.2912C12.7152 11.0584 12.702 11.1583 12.6715 11.1054C12.6653 11.0947 12.6423 10.9984 12.6255 10.9744C12.6059 10.9462 12.5895 10.9797 12.5678 10.9539C12.5875 11.0617 12.6068 11.1697 12.6265 11.2775C12.6141 11.3417 12.5376 11.062 12.517 11.0438C12.5114 11.0424 12.4674 11.0735 12.4661 11.08C12.4552 11.1331 12.5194 11.3719 12.4427 11.3362C12.429 11.3297 12.4002 11.249 12.3889 11.2472C12.3691 11.2456 12.3592 11.4475 12.3967 11.6227C12.3222 11.4101 12.2838 11.5132 12.251 11.4545C12.2409 11.4353 12.2068 11.2986 12.1836 11.2726C12.1646 11.2517 12.1568 11.3713 12.1357 11.3567C12.1131 11.3407 12.0792 11.2258 12.0692 11.2188C12.0599 11.213 12.075 11.307 12.0653 11.3108C12.0329 11.3151 11.9674 11.1723 11.9411 11.1739C11.9034 11.1784 11.9385 11.4652 11.9382 11.5963C11.9262 11.5801 11.9042 11.5227 11.8961 11.5239C11.7955 11.5391 11.6724 11.5143 11.5588 11.4789C11.506 11.462 11.3005 11.1139 11.4855 11.7361C11.4962 11.8492 11.3198 11.6259 11.2958 11.6256C11.273 11.6272 11.2832 11.744 11.2665 11.7508C11.2154 11.7686 11.1587 11.6964 11.1198 11.8104C11.1098 11.8402 11.1251 11.9787 11.1149 11.9796C11.1025 11.9796 11.0578 11.854 11.0406 11.8495C10.9999 11.8401 10.9437 11.8983 10.9037 11.8847C10.8964 11.8819 10.866 11.7698 10.848 11.7361C10.7781 11.6062 10.741 11.6277 10.8382 11.9884C10.742 11.7944 10.747 11.9919 10.7082 12.0138C10.6253 12.0592 10.4438 12.0156 10.4051 12.1869C10.3809 12.2951 10.423 12.4578 10.3161 12.3355C10.2924 12.3084 10.2664 12.27 10.2379 12.2377C10.171 12.1616 10.054 11.8721 10.1108 12.2426C10.0369 12.1614 10.0139 12.2377 9.89863 11.9375C9.91305 12.0129 9.9273 12.089 9.94165 12.1644C9.93595 12.1678 9.92974 12.1708 9.92405 12.1741C9.90421 12.1039 9.88425 12.0332 9.86441 11.9629C9.81585 11.957 9.83338 12.2608 9.79597 12.268C9.73219 12.2804 9.54372 12.2083 9.45963 12.1282C9.41527 12.0855 9.45226 12.2371 9.35502 11.9307C9.35354 11.954 9.35159 11.9778 9.35013 12.0011C9.36311 12.0702 9.37624 12.1393 9.38924 12.2084C9.37903 12.2116 9.36676 12.2078 9.35306 12.2005C9.31127 12.1975 9.2247 12.1835 9.18685 12.181C9.18488 12.1835 9.18295 12.1862 9.18098 12.1888C9.17609 12.1952 9.1693 12.2006 9.16436 12.2074C9.18718 12.2401 9.27377 12.2889 9.31004 12.3228C9.33153 12.3432 9.31692 12.355 9.28364 12.3619C9.14255 12.3203 9.00903 12.2885 8.91113 12.267C8.91167 12.2726 8.91165 12.2782 8.91211 12.2837C8.97779 12.2995 9.06555 12.3214 9.17903 12.3462C9.06799 12.336 9.26794 12.3962 9.22987 12.4029C9.20461 12.4071 9.09954 12.3893 9.09885 12.4039C9.10189 12.4308 9.38442 12.5283 8.84953 12.4049C8.93698 12.4571 8.73674 12.435 9.20738 12.5614C9.23447 12.576 8.9476 12.5262 8.90722 12.5252C8.86853 12.5245 8.72706 12.5541 8.71754 12.5623C8.70802 12.5706 8.69693 12.586 8.73612 12.6044C8.7866 12.6279 9.2726 12.7553 8.69505 12.6337C8.73595 12.6668 8.71772 12.6708 8.64617 12.6748C8.6332 12.6755 8.54802 12.655 8.54742 12.6572C8.54998 12.6625 8.60735 12.6849 8.61292 12.6943C8.62033 12.7098 8.44265 12.6739 8.71558 12.7393C8.75931 12.7591 8.80288 12.7792 8.8466 12.799C8.79312 12.789 8.73973 12.7786 8.68625 12.7686C8.74271 12.7873 8.79895 12.8067 8.8554 12.8254C8.46049 12.7228 8.68696 12.8123 8.917 12.8576C8.8309 12.8541 8.74398 12.8504 8.6579 12.8469C8.20854 12.7342 8.59794 12.8702 8.84367 12.927C8.84284 12.9289 8.84156 12.9311 8.84073 12.9329C8.71694 12.9202 8.81072 12.9597 8.72536 12.9603C8.64027 12.9608 8.59647 12.9482 8.38805 12.9036C8.3987 12.9112 8.40966 12.9184 8.42031 12.9261C8.98236 13.0905 7.99987 12.8447 8.4252 12.9945C8.06475 12.9205 8.24419 13.0004 8.34698 13.0493C8.35952 13.0551 8.42827 13.0719 8.44867 13.0806C8.49773 13.1016 8.40359 13.1018 8.62661 13.1559C8.56025 13.1475 8.49352 13.1388 8.42716 13.1304C8.46621 13.1465 8.50543 13.1632 8.54448 13.1793C8.61428 13.1964 8.6849 13.2131 8.75469 13.2302C8.51381 13.1841 8.59978 13.2258 8.54057 13.2214C8.52714 13.22 8.43212 13.1975 8.40467 13.1969C8.37218 13.1962 8.39703 13.2155 8.36556 13.2165C8.47124 13.2458 8.57666 13.2761 8.68234 13.3055C8.73657 13.3344 8.45408 13.2699 8.43009 13.2732C8.42627 13.2744 8.4391 13.3069 8.44476 13.3103C8.48931 13.3346 8.72989 13.3904 8.66963 13.414C8.65745 13.4177 8.57576 13.4025 8.5699 13.4071C8.56136 13.416 8.7418 13.494 8.91504 13.5391C8.69456 13.4982 8.775 13.5536 8.70972 13.5479C8.68875 13.5459 8.55068 13.5119 8.51906 13.5137C8.49441 13.5156 8.5995 13.5617 8.5787 13.5665C8.55593 13.5713 8.44237 13.5473 8.43009 13.5489C8.42145 13.5512 8.51298 13.5783 8.51222 13.5841C8.50455 13.6012 8.35029 13.5807 8.34307 13.5939C8.33366 13.6133 8.60688 13.6998 8.72634 13.7474C8.70701 13.7472 8.64683 13.7372 8.64519 13.7415C8.62273 13.7945 8.5559 13.8436 8.48289 13.8843C8.44919 13.9033 8.05575 13.8743 8.69016 14.0124C8.79835 14.0485 8.52789 14.0518 8.52102 14.0632C8.51744 14.0752 8.62488 14.1118 8.62466 14.1219C8.62236 14.1524 8.53601 14.1529 8.62563 14.2128C8.64951 14.2284 8.77825 14.2709 8.77718 14.2764C8.77338 14.2824 8.64183 14.2582 8.6315 14.2647C8.60876 14.2807 8.64093 14.328 8.6139 14.3419C8.60528 14.3434 8.49482 14.3182 8.45844 14.3145C8.3147 14.3001 8.32128 14.3249 8.68528 14.4104C8.47292 14.385 8.65511 14.4554 8.66083 14.4817C8.66774 14.5175 8.62602 14.5592 8.63346 14.6059C8.64862 14.5852 8.66282 14.5705 8.66768 14.5854C8.67175 14.5987 8.66921 14.6302 8.66768 14.6597C8.67795 14.6687 8.69053 14.6788 8.70679 14.6881C8.71013 14.69 8.71401 14.6911 8.71754 14.6929C8.75009 14.6594 8.78359 14.6205 8.7674 14.7154C8.84992 14.7517 8.92851 14.7794 8.80847 14.7839C8.79112 14.7845 8.77085 14.7839 8.74981 14.7839C8.73816 14.8319 8.72315 14.8972 8.69799 14.9824C8.77412 14.9045 8.75408 15.1078 8.91895 14.6489C8.93989 14.6245 8.88273 14.9087 8.88375 14.9521C8.88507 14.9915 8.94345 15.1483 8.95708 15.1603C8.97083 15.1724 8.99635 15.1887 9.02259 15.1525C9.05559 15.1074 9.22045 14.6296 9.0705 15.2024C9.12003 15.168 9.12836 15.1882 9.13992 15.264C9.14153 15.2787 9.11601 15.3616 9.11938 15.3627C9.12729 15.3625 9.15845 15.3065 9.17316 15.3031C9.19697 15.2994 9.15354 15.4752 9.23671 15.2073C9.26467 15.1668 9.29282 15.1265 9.3208 15.086C9.30904 15.1393 9.29736 15.1931 9.2856 15.2464C9.31101 15.1922 9.33644 15.1373 9.36186 15.0831C9.22887 15.4691 9.35416 15.2567 9.40879 15.0283C9.40975 15.1172 9.40993 15.2064 9.41075 15.2953C9.26585 15.7354 9.45248 15.3641 9.52416 15.1222C9.52691 15.1234 9.53021 15.1249 9.53296 15.1261C9.52199 15.2519 9.57744 15.1646 9.58478 15.2532C9.59188 15.3424 9.57549 15.3851 9.52025 15.5915C9.53159 15.5823 9.54313 15.5724 9.55447 15.5632C9.77251 15.0199 9.45657 15.9812 9.66202 15.5759C9.57186 15.9331 9.68413 15.7664 9.75393 15.6717C9.76207 15.6606 9.78471 15.5931 9.79695 15.5739C9.82654 15.5283 9.83261 15.6259 9.90156 15.4067C9.89324 15.4739 9.88544 15.541 9.87712 15.6082C9.89958 15.5716 9.92212 15.5352 9.94458 15.4986C9.96644 15.4303 9.98824 15.3617 10.0101 15.2933C9.95525 15.5322 10.0145 15.4531 10.012 15.5133C10.0115 15.5256 9.9825 15.6204 9.98369 15.6492C9.98495 15.6833 10.0142 15.6625 10.0179 15.6962C10.0565 15.5934 10.0947 15.49 10.1333 15.3872C10.175 15.338 10.095 15.6165 10.102 15.6424C10.1034 15.6469 10.1553 15.6416 10.1597 15.6365C10.1947 15.5962 10.2646 15.3593 10.3063 15.4282C10.3135 15.4413 10.2961 15.5247 10.3044 15.5309C10.32 15.5399 10.428 15.3725 10.4862 15.2043C10.4379 15.4238 10.5184 15.3541 10.5146 15.4204C10.5133 15.4409 10.4711 15.5775 10.4765 15.6111C10.4808 15.6382 10.5464 15.5394 10.5557 15.5622C10.5652 15.5871 10.5338 15.7026 10.5381 15.7138C10.5424 15.7234 10.5789 15.633 10.5879 15.6365C10.6153 15.6492 10.5941 15.8041 10.6153 15.8155C10.6467 15.8303 10.764 15.567 10.8304 15.4546C10.8315 15.474 10.8197 15.5321 10.8255 15.5378C10.9111 15.5747 10.9953 15.6572 11.0651 15.7441C11.0975 15.7841 11.0805 16.1876 11.2518 15.5612C11.3009 15.4576 11.3251 15.7398 11.3437 15.7499C11.3623 15.7597 11.4137 15.6547 11.4297 15.658C11.4779 15.6686 11.4856 15.7584 11.5735 15.6805C11.5962 15.6602 11.6536 15.5351 11.6624 15.5378C11.6722 15.5433 11.6431 15.6727 11.6536 15.6864C11.6802 15.715 11.7546 15.6927 11.7788 15.7245C11.7831 15.7306 11.7486 15.8435 11.7456 15.881C11.7335 16.027 11.7732 16.0264 11.8815 15.6688C11.8571 15.8835 11.9535 15.7124 11.9949 15.7128C12.0818 15.7154 12.2001 15.8446 12.3175 15.7177C12.3916 15.6375 12.4422 15.4775 12.4622 15.6355C12.4667 15.6707 12.4674 15.7167 12.473 15.7587C12.486 15.8576 12.4283 16.1644 12.5737 15.8194C12.589 15.9258 12.646 15.8726 12.5815 16.187C12.6089 16.1154 12.6362 16.0435 12.6636 15.9719C12.6697 15.9719 12.6761 15.9719 12.6822 15.9719C12.6615 16.0419 12.6413 16.1121 12.6206 16.1821C12.6547 16.2118 12.796 15.9443 12.8289 15.9572C12.8841 15.9787 12.9933 16.1357 13.0166 16.2467C13.0288 16.3056 13.0776 16.1575 12.9951 16.4686C13.0083 16.4494 13.022 16.4302 13.0352 16.4109C13.0607 16.3453 13.0859 16.2791 13.1114 16.2134C13.1485 16.2224 13.1586 16.3412 13.1936 16.3513C13.2007 16.3532 13.2089 16.352 13.218 16.3503C13.2112 16.3433 13.2043 16.3358 13.1975 16.3288C13.1924 16.3157 13.21 16.3291 13.2307 16.3464C13.2397 16.3438 13.2492 16.3407 13.2591 16.3366C13.2411 16.3108 13.2216 16.2844 13.2248 16.2819C13.2302 16.2811 13.2666 16.3086 13.2884 16.3239C13.2907 16.3229 13.293 16.322 13.2952 16.321C13.2737 16.2879 13.2083 16.2129 13.1975 16.1929C13.1926 16.1835 13.1759 16.094 13.1769 16.0902C13.1885 16.0721 13.3192 16.2115 13.3441 16.2144C13.4095 16.217 13.34 16.07 13.3314 15.9973C13.3277 15.9649 13.3501 15.9591 13.3852 15.969C13.6975 16.3548 14.0071 16.5942 13.4654 16.0394C13.5549 16.1056 13.4261 15.9431 13.4634 15.9543C13.4885 15.9625 13.5676 16.035 13.5798 16.0208C13.6003 15.9943 13.4208 15.7448 13.8007 16.1459C13.7637 16.0479 13.9238 16.1729 13.6052 15.8037C13.5925 15.775 13.8078 15.9719 13.8428 15.9934C13.8761 16.0134 14.0211 16.0547 14.0383 16.0521C14.053 16.0485 14.0762 16.0382 14.0559 15.9993C14.0306 15.9507 13.6968 15.5706 14.1136 15.9895C14.103 15.9351 14.1227 15.9406 14.1889 15.9729C14.2012 15.9793 14.2583 16.0411 14.2622 16.0413C14.2666 16.0374 14.2309 15.9833 14.2329 15.9699C14.237 15.9487 14.3688 16.0782 14.1771 15.8712C14.1537 15.8285 14.1301 15.7858 14.1068 15.7431C14.1464 15.7806 14.1864 15.818 14.226 15.8555C14.1905 15.8076 14.1549 15.7597 14.1195 15.7118C14.3894 16.0182 14.2584 15.8109 14.0901 15.6473C14.1634 15.6946 14.2368 15.7427 14.3101 15.79C14.6205 16.1349 14.3826 15.7965 14.2094 15.613C14.2115 15.6116 14.2141 15.6096 14.2163 15.6082C14.3157 15.6843 14.2627 15.5966 14.3385 15.6395C14.4142 15.6823 14.443 15.7173 14.5927 15.8692C14.5892 15.856 14.5854 15.8424 14.5819 15.8291C14.2132 15.3748 14.8908 16.1269 14.6308 15.7568C14.8916 16.016 14.7952 15.8438 14.7423 15.7411C14.7361 15.7292 14.6881 15.6755 14.6768 15.6561C14.6501 15.6098 14.7321 15.6578 14.577 15.4889C14.6291 15.5313 14.6814 15.5736 14.7335 15.616C14.7114 15.5796 14.6891 15.5429 14.667 15.5065C14.6187 15.4534 14.5706 15.4001 14.5223 15.3471C14.6993 15.5171 14.6553 15.4307 14.7041 15.4654C14.7154 15.4741 14.781 15.5446 14.8048 15.5593C14.8333 15.5768 14.8268 15.5437 14.8557 15.5593C14.785 15.4752 14.7142 15.3911 14.6435 15.307C14.6181 15.25 14.8159 15.4577 14.841 15.4683C14.8452 15.4698 14.859 15.4298 14.8567 15.4234C14.8361 15.3758 14.6668 15.196 14.7384 15.2024C14.7512 15.2037 14.8122 15.2604 14.8215 15.2591C14.8358 15.2544 14.7369 15.0838 14.6191 14.9491C14.7817 15.1032 14.7535 15.0059 14.8068 15.045C14.8241 15.0581 14.9202 15.1618 14.9496 15.176C14.9723 15.1862 14.9157 15.0872 14.9368 15.0919C14.9605 15.0983 15.0441 15.1824 15.0551 15.1858C15.0646 15.1878 15.0041 15.1133 15.0102 15.1085C15.0306 15.0954 15.1502 15.1949 15.1666 15.1848C15.1901 15.1696 15.015 14.9406 14.9466 14.8308C14.9633 14.8408 15.0093 14.8823 15.0141 14.8787C15.075 14.8358 15.1722 14.8195 15.2683 14.8152C15.3129 14.8128 15.6374 15.0437 15.1852 14.5776C15.1178 14.4852 15.3579 14.621 15.3729 14.6128C15.3876 14.6043 15.3194 14.5093 15.3279 14.4993C15.3537 14.4693 15.4306 14.5128 15.3983 14.4055C15.3896 14.3775 15.3083 14.2682 15.3133 14.2627C15.3213 14.2585 15.4184 14.3511 15.4325 14.3497C15.465 14.3452 15.4735 14.2803 15.5078 14.2793C15.5144 14.2795 15.5946 14.3653 15.6242 14.3879C15.7395 14.4761 15.753 14.4469 15.499 14.1728C15.6659 14.3074 15.5614 14.1437 15.5763 14.1131C15.6099 14.0503 15.7581 14.0333 15.6965 13.8775C15.6575 13.7793 15.5451 13.6554 15.6819 13.7269C15.7122 13.7427 15.7501 13.7668 15.7865 13.7856C15.8722 13.8299 16.1013 14.0396 15.8715 13.7445C15.9555 13.7869 15.9437 13.7339 16.114 13.8853C16.1111 13.88 16.1129 13.8742 16.116 13.8657C16.0873 13.8308 16.0586 13.796 16.0299 13.7611C16.032 13.7569 16.0338 13.7526 16.0358 13.7484C16.0652 13.7799 16.0954 13.8107 16.1248 13.8423C16.1374 13.8364 16.1495 13.8296 16.1619 13.8237C16.1546 13.8088 16.1468 13.7927 16.1385 13.7768C16.1324 13.7768 16.1297 13.7754 16.1336 13.7699L16.1346 13.768C16.101 13.7041 16.0665 13.6409 16.0769 13.632C16.0967 13.6167 16.1533 13.6108 16.2167 13.6154C16.26 13.589 16.3222 13.5525 16.4103 13.5039C16.3082 13.5193 16.4709 13.3988 16.0348 13.6164C16.0044 13.6225 16.25 13.4657 16.2802 13.4384C16.3089 13.4121 16.3903 13.2887 16.3917 13.2742C16.3926 13.2602 16.3892 13.2384 16.3467 13.2497C16.2922 13.2646 15.8452 13.492 16.3555 13.1959C16.3012 13.1955 16.312 13.179 16.3614 13.1255C16.3713 13.1154 16.4476 13.074 16.4464 13.0718C16.4427 13.0678 16.3828 13.0897 16.3712 13.0854C16.3525 13.078 16.511 12.9839 16.2626 13.1177C16.2164 13.1309 16.17 13.1437 16.1238 13.1568C16.1701 13.1283 16.2164 13.0994 16.2626 13.0708C16.2077 13.0938 16.1524 13.1172 16.0974 13.1402C16.4609 12.9545 16.231 13.0341 16.0299 13.1549C16.0952 13.0979 16.1601 13.0406 16.2255 12.9838C16.6366 12.7687 16.2529 12.9208 16.0319 13.0424C16.0312 13.0403 16.0306 13.0377 16.0299 13.0356C16.1292 12.9607 16.0321 12.9917 16.0935 12.9319C16.1553 12.8719 16.1968 12.8526 16.3819 12.7462C16.3685 12.7469 16.3543 12.7474 16.3409 12.7481C15.8106 12.9959 16.7073 12.526 16.2871 12.6914C16.6041 12.5049 16.4156 12.5599 16.3047 12.5887C16.2918 12.5921 16.2283 12.626 16.2069 12.6327C16.156 12.6483 16.2244 12.5832 16.0221 12.6914C16.0767 12.6525 16.1308 12.613 16.1854 12.5741C16.1452 12.5872 16.1053 12.601 16.0651 12.6142C16.0017 12.6478 15.9379 12.6812 15.8745 12.7149C16.0838 12.5873 15.9903 12.6115 16.0368 12.5741C16.0465 12.5664 16.1335 12.5195 16.1541 12.5007C16.1786 12.4785 16.145 12.4779 16.1678 12.4548C16.069 12.5028 15.9703 12.5514 15.8715 12.5995C15.811 12.6119 16.0637 12.4705 16.0788 12.4509C16.0799 12.4469 16.0487 12.4289 16.0417 12.4293C15.9915 12.4392 15.7753 12.5578 15.8011 12.4958C15.806 12.4847 15.8777 12.4394 15.8784 12.4313C15.8782 12.4176 15.6899 12.4762 15.5303 12.5574C15.7214 12.4394 15.6223 12.4465 15.674 12.4059C15.6913 12.3928 15.8157 12.3259 15.8373 12.3022C15.8542 12.2834 15.7449 12.3164 15.7552 12.2983C15.7681 12.2781 15.8724 12.218 15.8774 12.2093C15.8817 12.2014 15.7941 12.242 15.7914 12.2357C15.7857 12.2148 15.913 12.1257 15.9077 12.1096C15.9003 12.086 15.6367 12.201 15.5147 12.2426C15.5285 12.2297 15.5792 12.1976 15.5792 12.1917C15.5565 12.1296 15.5684 12.0389 15.5919 11.9522C15.6041 11.9111 15.9094 11.6648 15.3465 11.9854C15.2422 12.0284 15.4369 11.8379 15.4335 11.8231C15.4287 11.8095 15.3242 11.8517 15.3152 11.8436C15.2945 11.8153 15.3567 11.7546 15.2478 11.7644C15.2192 11.7672 15.0919 11.8208 15.0903 11.8143C15.0919 11.8049 15.2 11.738 15.2047 11.7244C15.2104 11.6941 15.1511 11.6744 15.1607 11.6432C15.1654 11.6361 15.2654 11.5813 15.2947 11.5591C15.4101 11.4716 15.3871 11.4539 15.0591 11.6324C15.2314 11.5075 15.0494 11.5727 15.0248 11.5542C14.9759 11.5134 15.0028 11.3778 14.84 11.4056C14.7373 11.4232 14.5896 11.5017 14.6953 11.3919C14.7188 11.3676 14.7517 11.3379 14.7794 11.3088C14.8451 11.2401 15.1064 11.0719 14.7657 11.2257C14.8015 11.1875 14.7994 11.1704 14.8254 11.1406C14.8087 11.1011 14.7876 11.0468 14.7726 11.0174C14.7422 11.0245 14.7204 11.0284 14.7178 11.0223C14.7158 11.0174 14.7178 11.0107 14.7178 11.0027C14.6747 11.036 14.6493 11.1486 14.6152 11.2032C14.5955 11.2344 14.566 11.2295 14.534 11.2051C14.4658 10.7127 14.2931 10.3557 14.4959 11.1044C14.4436 11.0036 14.4688 11.2121 14.4343 11.1836C14.4119 11.1649 14.3763 11.0633 14.3522 11.0712C14.3094 11.0867 14.3284 11.3959 14.1938 10.86C14.1635 10.9662 14.075 10.7816 14.1644 11.2609C14.1578 11.2929 14.0591 11.0173 14.0354 10.9822C14.0125 10.9489 13.8748 10.8464 13.8555 10.8434C13.836 10.8403 13.8031 10.8405 13.7978 10.8854C13.7914 10.9437 13.891 11.4347 13.7254 10.8678C13.6973 10.9234 13.6793 10.9107 13.6277 10.8522C13.6184 10.8417 13.5985 10.7569 13.5944 10.7563C13.5865 10.7582 13.5872 10.8246 13.5749 10.8355C13.5546 10.853 13.5001 10.6775 13.5661 10.9509C13.5615 11.0004 13.5569 11.0501 13.5524 11.0995C13.5348 11.048 13.5171 10.9966 13.4996 10.9451C13.5048 11.0046 13.51 11.0644 13.5152 11.124C13.4325 10.7242 13.4299 10.9716 13.5015 11.1954C13.453 11.1201 13.4045 11.0447 13.3559 10.9695C13.2547 10.5167 13.278 10.9325 13.3412 11.1768C13.3379 11.1772 13.3347 11.1774 13.3314 11.1778C13.2738 11.0649 13.269 11.1697 13.2141 11.0976C13.1591 11.0255 13.1526 10.9801 13.0929 10.7749C13.0871 10.7888 13.081 10.8031 13.0753 10.817C13.1645 11.397 12.9405 10.4092 12.9667 10.8639ZM13.6306 16.0149C13.6073 15.9946 13.6349 16.0497 13.6795 16.1C13.8522 16.2945 13.7362 16.1076 13.6306 16.0149ZM10.8245 15.879C10.8145 15.9225 10.8043 15.9665 10.7942 16.01C10.7977 16.0099 10.8015 16.0102 10.805 16.01C10.8273 15.9391 10.8492 15.8678 10.8715 15.7969C10.8557 15.8241 10.8403 15.8518 10.8245 15.879ZM7.09159 15.4595C7.11443 15.4653 7.1386 15.4717 7.16394 15.4781C7.16803 15.4654 7.17234 15.4524 7.17665 15.439C7.15125 15.4336 7.12546 15.4279 7.09941 15.4224C7.09693 15.4347 7.0941 15.447 7.09159 15.4595ZM17.3851 15.2953C17.3903 15.2834 17.3937 15.2742 17.3899 15.2679C17.3881 15.2647 17.3839 15.2647 17.3802 15.263C17.3819 15.2737 17.3833 15.2845 17.3851 15.2953ZM15.2927 15.0655C15.3249 15.0965 15.3574 15.1274 15.3895 15.1584C15.3906 15.1557 15.3923 15.1532 15.3934 15.1506C15.3434 15.0958 15.2929 15.041 15.2429 14.9863C15.2596 15.0126 15.276 15.0391 15.2927 15.0655ZM8.69407 14.7839C8.68386 14.8007 8.6715 14.8237 8.66279 14.8494C8.5826 15.0853 8.68165 14.9202 8.71167 14.7839C8.70576 14.784 8.69986 14.7837 8.69407 14.7839ZM1.65935 14.0036C1.61476 14.0166 1.62642 14.1659 1.64078 14.2989C1.67015 14.2723 1.71542 14.227 1.78841 14.1248C1.79465 14.115 1.80049 14.1029 1.80797 14.0906C1.75477 14.0607 1.69154 13.9946 1.65935 14.0036ZM6.32309 13.2527C6.26783 12.7545 6.00421 12.4269 6.26736 13.1588C6.18639 13.0664 6.20209 13.2782 6.14319 13.2575C6.10505 13.2439 6.05471 13.1474 6.01022 13.1617C5.92871 13.1898 5.91969 13.5089 5.75113 12.9828C5.6812 13.1026 5.54296 12.9329 5.63869 13.412C5.62287 13.4468 5.48161 13.1858 5.44314 13.1549C5.40711 13.1262 5.16981 13.056 5.13516 13.0581C5.10077 13.0601 5.04128 13.0688 5.02468 13.1177C5.0043 13.1799 5.11598 13.6707 4.89562 13.1197C4.83577 13.1862 4.80438 13.1769 4.71963 13.1294C4.70446 13.1196 4.67995 13.0397 4.6727 13.0395C4.65799 13.0437 4.64975 13.1134 4.62577 13.1285C4.58619 13.1519 4.51192 12.9829 4.5935 13.2517C4.58553 13.2803 4.57717 13.309 4.56906 13.3377C4.61657 13.3862 4.65668 13.4374 4.63848 13.6594C4.66917 13.5888 4.69963 13.5178 4.73038 13.4472C4.74234 13.449 4.75451 13.4504 4.76656 13.4521C4.74859 13.523 4.73075 13.5944 4.71278 13.6653C4.79168 13.7099 4.98143 13.4547 5.05108 13.4785C5.1703 13.519 5.43536 13.7233 5.51354 13.8511C5.55631 13.9193 5.60601 13.7715 5.54385 14.0887C5.56361 14.0716 5.58363 14.0548 5.60349 14.0378C5.63289 13.9733 5.66302 13.9078 5.69246 13.8432C5.69967 13.8453 5.70704 13.8483 5.71397 13.852C5.77969 13.8882 5.83176 13.9988 5.89681 14.0183C6.02771 14.057 6.28127 13.9343 6.37394 14.0965C6.39705 14.1374 6.39511 14.2893 6.42771 14.2979C6.46216 14.306 6.51569 14.1895 6.56557 14.1307C6.53509 13.9099 6.49153 13.6878 6.56948 13.4971C6.58513 13.4592 6.50323 13.3858 6.57339 13.3622C6.60268 13.3523 6.8055 13.3958 6.66041 13.3377C6.71468 13.3508 6.76941 13.3637 6.82369 13.3768C6.76249 13.3423 6.64247 13.2998 6.63499 13.2761C6.62901 13.256 6.63207 13.2081 6.6565 13.1979C6.66965 13.1929 6.76759 13.2203 6.77089 13.2135C6.77238 13.2004 6.63849 13.1382 6.64281 13.1206C6.64753 13.1049 6.77012 13.1067 6.75623 13.0903C6.73628 13.0667 6.69787 13.0384 6.66334 13.0102C6.59235 13.0651 6.53492 13.1698 6.47171 13.2292C6.43048 13.2676 6.37796 13.2699 6.32309 13.2527ZM17.6275 13.9019C17.6457 13.9207 17.6647 13.9393 17.6833 13.9586C17.6984 13.9482 17.7138 13.9379 17.7292 13.9273C17.7143 13.9102 17.6989 13.8916 17.6823 13.8726C17.6647 13.8819 17.6465 13.8919 17.6275 13.9019ZM16.1756 13.9391C16.1636 13.9244 16.1515 13.9097 16.1394 13.8951C16.1381 13.895 16.1368 13.8961 16.1355 13.896C16.1298 13.8956 16.1255 13.8938 16.1218 13.8921C16.1378 13.9064 16.1565 13.9211 16.1756 13.9391ZM16.1727 13.8941C16.1769 13.8986 16.1811 13.9032 16.1854 13.9078C16.1905 13.9068 16.1917 13.9018 16.1903 13.8931C16.1843 13.8935 16.1784 13.8939 16.1727 13.8941ZM8.18468 13.7063C8.25675 13.7238 8.32869 13.7417 8.40076 13.7591C8.37178 13.7478 8.34272 13.7363 8.31374 13.7249C8.27005 13.7165 8.22642 13.7079 8.18273 13.6995C8.18343 13.7017 8.18397 13.7041 8.18468 13.7063ZM16.4064 13.5607C16.4976 13.5065 16.3579 13.5601 16.2577 13.6213C16.2652 13.6223 16.2728 13.6229 16.2802 13.6242C16.2957 13.6183 16.3143 13.6128 16.3321 13.6037C16.3581 13.5903 16.378 13.5774 16.3936 13.5685C16.3924 13.5669 16.391 13.5652 16.3897 13.5636C16.3934 13.56 16.3992 13.5606 16.4064 13.5607ZM4.4488 13.3446C4.39148 13.1584 4.36703 13.2553 4.39991 13.3983C4.41364 13.3907 4.42915 13.3737 4.4488 13.3446ZM4.47324 13.3025C4.47652 13.2968 4.48056 13.2912 4.484 13.2849C4.48052 13.278 4.47671 13.2713 4.47324 13.2644C4.47349 13.2771 4.47298 13.2898 4.47324 13.3025ZM5.92712 13.0542C5.86834 12.8007 5.82416 13.0363 5.89876 13.1607C5.91552 13.1888 5.94229 13.12 5.92712 13.0542ZM1.33964 12.7188C1.32716 12.7327 1.38124 12.765 1.42568 12.7941C1.43626 12.8007 1.4484 12.8169 1.46185 12.8361C1.51942 12.916 1.60268 13.0627 1.67011 12.9065C1.66513 12.9016 1.6609 12.896 1.65642 12.8918C1.47069 12.7305 1.42589 12.7415 1.38852 12.7237C1.35562 12.7141 1.34496 12.7163 1.33964 12.7188ZM17.871 12.4587C17.8743 12.459 17.9218 12.4392 17.9433 12.4333C17.9431 12.4314 17.9437 12.4294 17.9433 12.4274C17.9408 12.4226 17.9381 12.4176 17.9355 12.4127C17.9044 12.4331 17.8696 12.4566 17.871 12.4587ZM8.97273 12.3883C8.72132 12.3237 8.92332 12.4056 9.0617 12.4274C9.09287 12.4323 9.03814 12.4051 8.97273 12.3883ZM17.7527 12.2944C17.7571 12.301 17.7976 12.2864 17.827 12.2758C17.8202 12.2692 17.8132 12.2629 17.8065 12.2563C17.7764 12.2744 17.7504 12.29 17.7527 12.2944ZM17.8348 12.2357C17.8553 12.2481 17.8745 12.2595 17.8827 12.2543C17.8919 12.2478 17.8863 12.2284 17.8778 12.2064C17.8677 12.2145 17.8522 12.2251 17.8348 12.2357ZM17.8905 12.0275C17.905 12.0626 17.9165 12.1007 17.9091 12.1429C17.9309 12.1534 17.9516 12.1632 17.957 12.1546C17.9698 12.1349 17.9195 12.0703 17.8905 12.0275ZM15.7444 12.006C15.7737 11.9958 15.8031 11.9859 15.8324 11.9757C15.8707 11.9524 15.9096 11.9285 15.9478 11.9053C15.9457 11.9038 15.9431 11.9028 15.941 11.9013C15.8755 11.9363 15.8099 11.971 15.7444 12.006ZM19.9223 9.89295C19.8478 9.75629 19.7812 9.77547 19.8313 10.1462C19.7332 9.94329 19.6817 10.1422 19.6123 10.1628C19.4652 10.2037 19.1748 10.1542 19.0628 10.329C18.9932 10.439 19.0199 10.604 18.8751 10.4796C18.8433 10.4519 18.8097 10.4127 18.7705 10.3799C18.6785 10.3027 18.5586 10.0082 18.5564 10.3858C18.4528 10.3042 18.3953 10.3834 18.2777 10.0797C18.2824 10.1563 18.2867 10.2329 18.2914 10.3095C18.281 10.3131 18.2703 10.3166 18.2601 10.3202C18.2449 10.2489 18.2295 10.1774 18.2142 10.1061C18.1341 10.1 18.0841 10.412 18.0196 10.421C17.9093 10.4361 17.6061 10.3723 17.4838 10.2948C17.4191 10.2543 17.4436 10.4071 17.3538 10.0973C17.3454 10.1216 17.3377 10.1463 17.3293 10.1706C17.3344 10.2413 17.3398 10.3122 17.345 10.3828C17.2745 10.3988 17.169 10.3075 17.1015 10.3212C17.0316 10.3358 16.9529 10.4125 16.8718 10.4601C17.0359 10.6119 17.1989 10.7615 17.2726 10.9578C17.2889 11.0019 17.4023 11.0094 17.3684 11.079C17.3533 11.1084 17.1754 11.2113 17.3235 11.1611C17.2741 11.1876 17.2242 11.2139 17.1749 11.2403C17.2447 11.228 17.3639 11.181 17.387 11.1963C17.4061 11.2095 17.4385 11.2544 17.4281 11.2804C17.4216 11.2942 17.3297 11.3395 17.3342 11.3469C17.3437 11.359 17.4852 11.3201 17.4955 11.3381C17.5044 11.3548 17.4127 11.4401 17.4349 11.4447C17.5143 11.4615 17.6976 11.4281 17.6813 11.4995C17.6762 11.5195 17.5662 11.6006 17.5718 11.6031C17.5831 11.6077 17.6993 11.5485 17.7185 11.5454C17.8091 11.5337 17.6946 11.6517 17.7038 11.6823C17.7339 11.7821 17.8359 11.8509 17.8622 11.9522C17.8647 11.9616 17.8687 11.9712 17.8729 11.9815C17.8805 11.9434 17.9075 11.8451 17.9111 11.8407C17.9462 11.8039 18.0766 11.9463 18.1184 11.9326C18.2331 11.8935 18.2177 11.6991 18.2562 11.5865C18.2735 11.5361 18.3172 11.5128 18.3726 11.5053C18.6448 11.9256 19.0208 12.1081 18.4635 11.566C18.5746 11.6145 18.4636 11.4335 18.5231 11.4281C18.5619 11.4247 18.6488 11.4912 18.6805 11.4594C18.7365 11.4017 18.5992 11.1175 18.9827 11.5151C18.9868 11.3812 19.1814 11.4753 18.881 11.0898C18.8799 11.0528 19.1166 11.2271 19.1635 11.2394C19.2063 11.2511 19.4408 11.2167 19.4686 11.2012C19.4968 11.1854 19.5424 11.1541 19.5341 11.1044C19.5235 11.0424 19.1983 10.6542 19.6416 11.0487C19.6602 10.9667 19.6888 10.9639 19.7834 10.9695C19.8005 10.9706 19.8614 11.0338 19.8665 11.0291C19.8767 11.0195 19.8504 10.9565 19.8626 10.9333C19.8837 10.8959 20.0273 11.0139 19.8313 10.8121C19.8185 10.7592 19.8042 10.7065 19.7912 10.6537C19.8354 10.6866 19.8799 10.7196 19.9242 10.7524C19.894 10.6995 19.8638 10.6467 19.8333 10.594C20.1027 10.9011 20.0093 10.6564 19.8235 10.5099C19.9192 10.5352 20.0138 10.5629 20.111 10.5862C20.4288 10.9227 20.2304 10.544 20.0454 10.3721C20.0498 10.3683 20.0538 10.3641 20.0582 10.3603C20.1805 10.4126 20.1426 10.3083 20.2449 10.3222C20.3473 10.3364 20.3755 10.3731 20.5412 10.509C20.5427 10.4899 20.5447 10.4702 20.546 10.4513C20.1781 9.99017 20.9003 10.7006 20.6653 10.2958C20.9602 10.5186 20.8962 10.305 20.856 10.1824C20.8515 10.1681 20.7987 10.1206 20.7885 10.0983C20.765 10.0453 20.8772 10.0555 20.7015 9.90664C20.7157 9.91268 20.7303 9.91822 20.7445 9.92424C20.7094 9.88514 20.6778 9.85037 20.6634 9.84895C20.629 9.84564 20.6038 9.96275 20.5764 9.9653C20.4953 9.97287 20.4308 9.89172 20.3329 9.99855C20.3069 10.0265 20.288 10.1646 20.2723 10.1658C20.2534 10.1648 20.2231 10.0336 20.197 10.0269C20.1362 10.0121 20.0265 10.0647 19.9672 10.0474C19.9562 10.0439 19.9411 9.92813 19.9223 9.89295ZM18.7754 11.4164C18.7484 11.3983 18.757 11.4698 18.7998 11.522C18.9652 11.7228 18.8954 11.4966 18.7754 11.4164ZM8.11428 11.3978C8.13936 11.4039 8.16587 11.4105 8.19348 11.4173C8.18199 11.3816 8.17019 11.3449 8.15828 11.3078C8.13599 11.3061 8.11348 11.3038 8.09082 11.302C8.09806 11.331 8.10567 11.3633 8.11428 11.3978ZM11.6566 11.1132C11.6747 11.1852 11.6923 11.2574 11.7104 11.3293C11.7101 11.2976 11.7106 11.2653 11.7104 11.2335C11.6958 11.1911 11.6809 11.1488 11.6664 11.1064C11.663 11.1085 11.6599 11.1111 11.6566 11.1132ZM14.9046 11.0487C14.9059 11.0579 14.9071 11.0658 14.9075 11.0722C14.9381 11.0502 14.9782 11.0225 15.0327 10.9881C14.9901 11.0085 14.9472 11.0283 14.9046 11.0487ZM14.2984 10.9548C14.2463 10.6999 14.2395 10.9229 14.2906 11.0546C14.3021 11.0842 14.3119 11.021 14.2984 10.9548ZM15.0072 10.9734C15.008 10.9629 14.982 10.9653 14.9456 10.9734C14.9454 10.9815 14.9475 10.987 14.9456 10.9881C14.9436 10.9884 14.9418 10.9827 14.9378 10.9754C14.925 10.9784 14.9112 10.9823 14.8968 10.9861C14.8991 11.0009 14.9004 11.0162 14.9026 11.0301C14.9373 11.0111 14.9726 10.9925 15.0072 10.9734ZM11.0934 2.78927C11.0286 2.8946 10.5662 3.08304 11.2117 3.18821C11.3081 3.26001 10.9728 3.4858 10.9536 3.5451C10.9351 3.60102 11.0351 3.67633 11.025 3.72208C10.9951 3.85798 10.8892 3.93616 10.9487 4.12591C10.9646 4.17483 11.0869 4.25186 11.0807 4.27649C11.0716 4.30623 10.9346 4.31045 10.9174 4.34885C10.9127 4.35959 10.9083 4.37189 10.9047 4.38503C10.8785 4.47932 10.8781 4.63741 10.8412 4.71748C10.8322 4.73394 10.7179 4.71685 10.6769 4.7341C10.5169 4.80382 10.5068 4.91786 10.8773 4.9717C10.6439 5.05683 10.8095 5.21253 10.7972 5.33447C10.7702 5.59189 10.59 6.03122 10.6965 6.28488C10.7644 6.442 10.9288 6.47458 10.7434 6.64862C10.7023 6.68683 10.651 6.72164 10.6016 6.76889C10.4857 6.87785 10.1568 6.92993 10.4999 7.10623C10.3737 7.22985 10.4154 7.35553 10.0805 7.39077C10.1523 7.41967 10.2247 7.44875 10.2966 7.47779C10.2945 7.49551 10.2928 7.51367 10.2907 7.53157C10.2184 7.52105 10.146 7.5108 10.0736 7.50028C10.0269 7.62009 10.2824 7.8457 10.2575 7.94811C10.2139 8.12526 9.99506 8.55349 9.8605 8.69613C9.78956 8.77266 9.93964 8.81412 9.61509 8.79195C9.63229 8.81633 9.64976 8.84072 9.66691 8.86528C9.73247 8.89351 9.7979 8.92204 9.86343 8.95035C9.83942 9.06442 9.702 9.1742 9.67766 9.28183C9.66905 9.32019 9.66678 9.36429 9.66691 9.41187C9.6684 9.60582 9.71771 9.85368 9.57989 9.98877C9.53637 10.0306 9.38179 10.0584 9.37164 10.1071C9.36559 10.1363 9.40132 10.165 9.44399 10.1961C9.45297 10.1787 9.46245 10.1616 9.47136 10.1442C9.65629 10.3047 9.75667 10.1081 9.88592 10.0435C10.2365 9.86895 10.58 9.67916 10.9536 9.61917C11.0256 9.60783 11.0923 9.49176 11.1765 9.53508C11.2115 9.55319 11.273 9.75181 11.2743 9.59276C11.2879 9.64688 11.3017 9.70096 11.3154 9.75508C11.3323 9.68153 11.3236 9.55335 11.3574 9.53116C11.3864 9.51309 11.4673 9.48483 11.5001 9.4989C11.5169 9.50641 11.5358 9.60668 11.549 9.6045C11.5715 9.59731 11.587 9.44491 11.6184 9.4373C11.6471 9.43055 11.7237 9.53583 11.7416 9.51356C11.8065 9.434 11.8511 9.24 11.947 9.26618C11.9736 9.27382 12.0354 9.39872 12.0418 9.39329C12.054 9.38169 12.0274 9.25264 12.033 9.23391C12.0619 9.13951 12.1743 9.27294 12.2237 9.26814C12.3841 9.25078 12.5369 9.1559 12.6979 9.14298C12.7995 9.13462 12.9573 9.07363 13.0704 9.14885C13.0948 9.16515 13.1224 9.30714 13.1388 9.30334C13.1567 9.29842 13.1448 9.20148 13.1515 9.19187C13.198 9.12437 13.3064 8.99912 13.3842 9.08333C13.3992 9.10033 13.4318 9.2074 13.438 9.20556C13.4403 9.2001 13.4319 9.1282 13.4399 9.11853C13.5134 9.03018 13.5883 9.05879 13.6814 9.06476C13.8596 9.07549 14.0223 8.89218 14.2153 8.92884C14.2451 8.93489 14.2919 9.04252 14.3179 9.10387C14.3227 9.09853 14.3279 9.09356 14.3326 9.08822C14.2546 9.06137 14.3545 8.90617 14.3307 8.87702C14.3103 8.85388 14.2164 8.88275 14.1977 8.85746C14.1765 8.82911 14.2438 8.73258 14.2006 8.68342C14.1298 8.60264 13.8963 8.70254 13.8389 8.6619C13.7801 8.61928 13.8541 8.46645 13.7372 8.43408C13.7079 8.43767 13.6785 8.44123 13.6492 8.44483C13.5969 8.48057 13.544 8.51664 13.4918 8.55239C13.4464 8.52874 13.5524 8.45258 13.5367 8.41745C13.518 8.37665 13.3988 8.41241 13.3852 8.38519C13.3744 8.3627 13.4451 8.28789 13.4253 8.26199C13.3961 8.22426 13.2759 8.29751 13.2405 8.28741C13.2266 8.28304 13.0705 8.15368 13.0645 8.14465C13.0226 8.07599 13.1909 7.98078 13.1769 7.91585C13.136 7.73707 12.9122 7.64656 12.7839 7.52766C12.7268 7.47484 12.7011 7.40129 12.6949 7.32232C13.1878 7.19666 13.4136 6.79307 12.7692 7.23432C12.8294 7.11069 12.6172 7.15555 12.6128 7.07005C12.6107 7.01505 12.6896 6.93583 12.6548 6.87352C12.5919 6.76403 12.256 6.77973 12.7301 6.49413C12.5762 6.40675 12.6944 6.20108 12.2364 6.37582C12.1933 6.35501 12.4065 6.1344 12.4221 6.07857C12.4364 6.02478 12.4105 5.68791 12.3938 5.63856C12.3774 5.59021 12.3437 5.50573 12.2862 5.487C12.2353 5.46976 11.9885 5.56154 12.0164 5.49385C12.0277 5.46447 12.0871 5.4068 12.2295 5.3022C12.135 5.22093 12.1325 5.17814 12.1474 5.05384C12.1498 5.03077 12.2267 4.98974 12.2217 4.97953C12.211 4.95871 12.1354 4.95128 12.1102 4.91793C12.0699 4.86267 12.218 4.74872 11.9685 4.87881C11.9069 4.86058 11.8442 4.83958 11.7817 4.81917C11.8237 4.78119 11.8658 4.74349 11.9079 4.70574C11.8443 4.70989 11.7807 4.71428 11.7172 4.71846C12.0965 4.56664 11.8077 4.52143 11.6194 4.67054C11.6574 4.55405 11.6962 4.43803 11.7368 4.32538C12.1629 4.14172 11.7041 4.12852 11.4825 4.25009C11.4788 4.24106 11.4755 4.2317 11.4718 4.22271C11.5479 4.09497 11.4213 4.05935 11.4532 3.93035C11.4863 3.80221 11.5304 3.78895 11.7123 3.67319C11.691 3.65527 11.6699 3.63702 11.6488 3.61941C11.0619 3.7386 11.9957 3.34828 11.4972 3.32608C11.8058 3.1137 11.5614 3.03098 11.4141 2.96723C11.397 2.95989 11.331 2.98752 11.3036 2.97896C11.237 2.95659 11.2793 2.81828 11.068 2.90954C11.1154 2.84961 11.1615 2.78528 11.2088 2.72473C11.1859 2.71848 11.1631 2.71203 11.1403 2.70615C11.124 2.73375 11.1096 2.76226 11.0934 2.78927ZM21.1962 9.9917C21.2132 9.9801 21.2472 9.92848 21.252 9.92913C21.2801 9.93552 21.2674 9.915 21.2324 9.88415C21.2164 9.92327 21.2024 9.96061 21.1962 9.9917ZM20.8912 9.98584C20.8925 9.98639 20.8937 9.98724 20.8951 9.98779C20.8939 9.98545 20.8924 9.98329 20.8912 9.98095C20.8912 9.98257 20.8911 9.9842 20.8912 9.98584ZM20.9195 9.64459C20.9064 9.6636 20.8978 9.70321 20.8931 9.77268C20.8955 9.77299 20.8983 9.77291 20.901 9.77366C20.914 9.77758 20.992 9.83819 21.0232 9.8421C21.0594 9.8473 21.0594 9.79963 21.0975 9.80006C21.0386 9.74771 20.979 9.6962 20.9195 9.64459ZM15.3827 9.60645C15.3878 9.63108 15.3927 9.65736 15.3983 9.68468C15.4216 9.6713 15.4457 9.65836 15.4697 9.64459C15.4622 9.62142 15.4548 9.59786 15.4472 9.57419C15.427 9.58452 15.4052 9.59497 15.3827 9.60645ZM21.3458 9.48521C21.3379 9.51915 21.3294 9.55297 21.3214 9.5869C21.3291 9.58761 21.3351 9.58857 21.34 9.58983C21.3464 9.55471 21.3541 9.51957 21.3595 9.48423C21.3553 9.48448 21.3502 9.48494 21.3458 9.48521ZM21.0545 9.38547C21.0487 9.39083 21.0463 9.39705 21.0466 9.40307C21.0564 9.40553 21.0631 9.40889 21.0652 9.40698C21.0684 9.40326 21.064 9.39598 21.0545 9.38547ZM12.7311 6.74836C12.9692 6.64259 12.7052 6.602 12.6079 6.71805C12.586 6.74408 12.6695 6.77605 12.7311 6.74836ZM11.0201 2.26223C11.034 2.26708 11.0482 2.27108 11.0621 2.27592C11.0615 2.268 11.06 2.26024 11.0621 2.25246C11.0482 2.25574 11.034 2.25891 11.0201 2.26223ZM10.5967 1.77334C10.582 1.72615 10.3734 1.7513 10.2311 1.86329C10.3274 1.80502 10.3552 1.79091 10.3992 1.82027C10.4322 1.84269 10.4918 1.8904 10.543 1.90338C10.5405 1.89519 10.5369 1.88625 10.5361 1.87601C10.535 1.84878 10.6026 1.79375 10.5967 1.77334ZM11.4737 1.5152C11.4628 1.51738 11.5392 1.57664 11.5314 1.58853C11.5041 1.62704 11.3352 1.61533 11.3056 1.66969C11.2928 1.69328 11.3068 1.72558 11.332 1.76454C11.3351 1.76331 11.3389 1.76274 11.3418 1.7616C11.4434 1.7161 11.4684 1.69943 11.506 1.67654C11.5634 1.641 11.5813 1.62622 11.5852 1.61396C11.5939 1.57049 11.4833 1.51662 11.4737 1.5152Z" fill="#E34B48"/>
</svg>
