<svg width="298" height="9" viewBox="0 0 298 9" fill="none" xmlns="http://www.w3.org/2000/svg">
<path d="M271.813 5.4454C271.934 5.44348 272.054 5.44156 272.174 5.44156L272.164 5.45315C273.747 5.34169 275.334 5.24268 276.921 5.1437C282.269 4.81003 287.614 4.47652 292.829 3.66706C293.992 3.48502 295.083 3.14436 296.159 2.80827C296.282 2.76965 296.406 2.73109 296.529 2.69284C297.317 2.44928 298.155 2.12454 297.975 1.48665C297.831 0.956435 297.05 0.786119 296.307 0.624146L296.22 0.605201C294.425 0.20508 292.56 0.0485047 290.635 0.0137123C283.873 -0.113866 277.32 0.668991 270.767 1.52144C270.565 1.5478 270.364 1.57241 270.164 1.59679C268.34 1.81909 266.672 2.02245 266.429 3.36552C266.229 4.49052 268.164 5.30238 271.087 5.44156C271.326 5.45317 271.571 5.44927 271.813 5.4454Z" fill="#E34B48"/>
<path d="M66.3183 7.20443C76.7807 8.59618 87.3826 9.32105 99.3709 8.86294L99.3609 8.85713C100.295 8.85713 101.334 8.86257 102.448 8.86839C105.152 8.88251 108.296 8.89893 111.439 8.84554C120.096 8.70268 128.727 8.29465 137.356 7.88676C146.591 7.4502 155.822 7.01381 165.077 6.90288C177.514 6.7512 189.925 6.38878 202.335 6.02636C208.904 5.83453 215.474 5.6427 222.046 5.48213C229.646 5.29656 237.236 5.0762 244.826 4.80945C247.908 4.69927 250.9 4.24115 253.832 3.67285C253.889 3.66186 253.946 3.65099 254.004 3.64005C254.74 3.50098 255.534 3.35096 255.488 2.7972C255.445 2.29495 254.72 2.16482 254.05 2.04468C253.931 2.02333 253.814 2.0023 253.702 1.97955C252.934 1.82878 252.137 1.7186 251.339 1.62581C241.636 0.505992 231.81 0.516858 222.01 0.52768C221.051 0.528741 220.092 0.529803 219.134 0.529803C215.001 0.529803 210.871 0.722489 206.739 0.915298C203.921 1.04679 201.102 1.17834 198.279 1.24888C191.68 1.41614 185.078 1.54322 178.474 1.67033C173.859 1.75915 169.244 1.84798 164.628 1.95055C161.517 2.01873 158.413 2.17226 155.318 2.32538C154.99 2.34158 154.663 2.35779 154.335 2.37388C151.003 2.53877 147.672 2.71539 144.341 2.89202C138.3 3.2123 132.259 3.5326 126.21 3.78303C121.1 3.99622 115.983 4.14029 110.866 4.28439C107.213 4.38723 103.56 4.49009 99.9095 4.61808C90.8534 4.93122 81.8173 5.05301 72.8112 4.24695C61.9699 3.27852 51.1385 2.37388 40.1476 3.51048C30.5131 4.5079 20.8487 5.34875 11.1045 5.85906C9.00976 5.97048 6.91505 6.06155 4.82324 6.15247C3.75779 6.19879 2.6931 6.24506 1.62954 6.29399C0.891487 6.32298 0.0736587 6.40417 0.00383614 6.93188C-0.0580271 7.42011 0.639955 7.53942 1.25778 7.64502C1.33707 7.65857 1.41503 7.6719 1.48991 7.68575C1.78804 7.74218 2.10545 7.75378 2.42204 7.76536C2.56087 7.77043 2.69952 7.77549 2.83634 7.78433C12.72 8.3862 22.5044 7.64239 32.2489 6.9016L32.3083 6.89709C43.6982 6.03304 54.9983 5.70249 66.3183 7.20443Z" fill="#E34B48"/>
</svg>
