<svg width="252" height="9" viewBox="0 0 252 9" fill="none" xmlns="http://www.w3.org/2000/svg">
<path d="M229.855 5.4454C229.958 5.44348 230.059 5.44156 230.16 5.44156L230.152 5.45315C231.491 5.34169 232.833 5.24268 234.175 5.1437C238.697 4.81003 243.217 4.47652 247.627 3.66706C248.611 3.48502 249.533 3.14436 250.443 2.80827C250.548 2.76965 250.652 2.73109 250.756 2.69284C251.423 2.44928 252.131 2.12454 251.979 1.48665C251.857 0.956435 251.197 0.786119 250.568 0.624146L250.495 0.605201C248.977 0.20508 247.4 0.0485047 245.772 0.0137123C240.053 -0.113866 234.512 0.668991 228.971 1.52144C228.8 1.5478 228.63 1.57241 228.46 1.59679C226.918 1.81909 225.508 2.02245 225.302 3.36552C225.134 4.49052 226.77 5.30238 229.241 5.44156C229.444 5.45317 229.65 5.44927 229.855 5.4454Z" fill="#E34B48"/>
<path d="M56.0813 7.20443C64.9286 8.59618 73.894 9.32105 84.0317 8.86294L84.0233 8.85713C84.8132 8.85713 85.692 8.86257 86.634 8.86839C88.9206 8.88251 91.5788 8.89893 94.237 8.84554C101.558 8.70268 108.857 8.29465 116.153 7.88676C123.963 7.4502 131.769 7.01381 139.595 6.90288C150.112 6.7512 160.607 6.38878 171.102 6.02636C176.657 5.83453 182.213 5.6427 187.771 5.48213C194.197 5.29656 200.616 5.0762 207.034 4.80945C209.64 4.69927 212.17 4.24115 214.65 3.67285C214.698 3.66186 214.747 3.65099 214.795 3.64005C215.418 3.50098 216.089 3.35096 216.05 2.7972C216.014 2.29495 215.401 2.16482 214.834 2.04468C214.734 2.02333 214.634 2.0023 214.54 1.97955C213.891 1.82878 213.216 1.7186 212.541 1.62581C204.337 0.505992 196.027 0.516858 187.74 0.52768C186.929 0.528741 186.118 0.529803 185.308 0.529803C181.813 0.529803 178.321 0.722489 174.826 0.915298C172.443 1.04679 170.059 1.17834 167.672 1.24888C162.092 1.41614 156.509 1.54322 150.924 1.67033C147.022 1.75915 143.119 1.84798 139.216 1.95055C136.585 2.01873 133.96 2.17226 131.343 2.32538C131.066 2.34158 130.789 2.35779 130.512 2.37388C127.694 2.53877 124.877 2.71539 122.06 2.89202C116.952 3.2123 111.843 3.5326 106.728 3.78303C102.407 3.99622 98.0797 4.14029 93.7521 4.28439C90.6636 4.38723 87.5746 4.49009 84.4872 4.61808C76.8291 4.93122 69.1878 5.05301 61.5718 4.24695C52.404 3.27852 43.2447 2.37388 33.9503 3.51048C25.803 4.5079 17.6304 5.34875 9.39035 5.85906C7.61899 5.97048 5.84763 6.06155 4.07871 6.15247C3.17773 6.19879 2.27739 6.24506 1.378 6.29399C0.753875 6.32298 0.0622886 6.40417 0.00324399 6.93188C-0.0490699 7.42011 0.54117 7.53942 1.06363 7.64502C1.13068 7.65857 1.19661 7.6719 1.25992 7.68575C1.51203 7.74218 1.78045 7.75378 2.04817 7.76536C2.16556 7.77043 2.28282 7.77549 2.39851 7.78433C10.7565 8.3862 19.0306 7.64239 27.2709 6.9016L27.3211 6.89709C36.9528 6.03304 46.5086 5.70249 56.0813 7.20443Z" fill="#E34B48"/>
</svg>
