<svg width="59" height="59" viewBox="0 0 59 59" fill="none" xmlns="http://www.w3.org/2000/svg">
<path d="M28.4933 24.9594C29.8151 24.2752 26.0831 17.1535 25.3834 16.9357C24.6837 16.7179 23.1548 17.3895 22.149 18.3662C19.4956 20.9424 20.9171 25.9071 21.3405 27.3851C23.2274 33.9752 29.6655 38.3826 35.2108 39.7627C37.2583 40.2722 40.5625 41.0948 43.2346 39.2029C44.8711 38.0441 46.1424 35.9219 45.9092 35.3464C45.6759 34.7712 40.6533 31.9721 39.6893 31.9256C38.7252 31.879 37.4503 35.0821 36.4549 35.16C35.4597 35.2377 33.4297 33.945 31.3546 32.4232C28.7231 30.4935 26.5809 28.0069 26.7519 26.8873" stroke="#E34B48" stroke-width="2" stroke-miterlimit="10" stroke-linecap="round" stroke-linejoin="round"/>
<path d="M18.2205 46.5499C24.5431 51.891 45.5557 56.5568 53.2895 41.2085C61.0234 25.8602 54.6583 11.4688 42.9682 6.6071C31.117 1.67806 16.7282 6.9157 11.515 18.7106C4.71708 34.5839 14.1969 42.1138 14.3009 42.8661C14.4046 43.6183 11.0149 51.4243 12.0411 52.0774C13.0674 52.7306 18.6653 50.2116 18.6653 50.2116" stroke="#E34B48" stroke-width="2" stroke-miterlimit="10" stroke-linecap="round" stroke-linejoin="round"/>
</svg>
