<svg width="59" height="59" viewBox="0 0 59 59" fill="none" xmlns="http://www.w3.org/2000/svg">
<path d="M31.6962 52.6485C45.6813 51.3694 55.7786 38.7508 54.0738 25.6977C52.4094 12.9535 40.207 4.04587 27.607 5.28487C14.8335 6.5407 4.6272 17.9558 5.606 30.8144C7.25454 50.9029 26.7881 53.1505 27.6222 52.8525" stroke="#E34B48" stroke-width="2" stroke-miterlimit="10" stroke-linecap="round" stroke-linejoin="round"/>
<path d="M23.1855 22.5777C23.114 22.0571 24.7453 21.4869 26.2079 21.2707C28.8695 20.8773 31.0986 22.0059 31.2722 22.6593C31.4457 23.3129 31.0885 29.7655 32.1708 29.8476C33.2531 29.9294 36.3572 22.9453 37.0719 22.3325C37.7866 21.7199 44.3418 21.9036 44.3418 22.5775C44.3418 23.2513 38.7772 29.6941 38.7873 30.746C38.7974 31.7976 45.2404 37.2908 44.6686 38.0977C44.0968 38.9043 37.2312 38.9366 36.9085 38.6695C36.5859 38.4024 33.9986 34.5139 32.661 34.7485C31.3233 34.9834 32.2422 38.6079 31.8442 39.0779C31.4462 39.5478 29.1689 39.4455 27.3514 39.1597C17.6923 37.3422 11.8925 22.9248 12.4032 22.1693C12.9137 21.4138 18.8361 21.8017 19.4282 22.2511C20.0202 22.7005 22.3484 31.1548 24.9827 30.4196C25.6872 30.0827 25.3911 24.3749 25.3911 24.3749" stroke="#E34B48" stroke-width="2" stroke-miterlimit="10" stroke-linecap="round" stroke-linejoin="round"/>
</svg>
