<svg width="466" height="484" viewBox="0 0 466 484" fill="none" xmlns="http://www.w3.org/2000/svg">
<path d="M158.679 369.206C162.922 367.704 167.268 366.513 171.684 365.643L172.218 367.603C172.278 367.834 172.419 368.035 172.615 368.171C172.812 368.307 173.05 368.367 173.287 368.341L190.772 366.305C195.582 355.336 204.413 338.717 204.54 338.463C204.413 334.314 204.54 330.828 204.54 326.857C194.538 330.573 176.036 337.623 166.365 342.127C166.146 342.268 165.977 342.474 165.881 342.716C165.786 342.958 165.768 343.224 165.831 343.476C165.831 343.476 166.009 344.113 166.238 345.029C161.504 345.029 147.328 344.342 143.918 347.574C143.388 348.312 143.127 349.211 143.18 350.119C142.976 353.631 144.733 380.913 147.532 388.93C148.983 393.129 152.037 392.671 154.124 388.65C156.539 382.594 158.09 376.229 158.73 369.741C158.73 369.41 158.654 369.435 158.679 369.206ZM155.752 346.428C158.857 346.174 159.824 346.225 166.492 346.021C167.688 350.551 170.157 359.866 171.43 364.625C166.939 365.321 162.507 366.35 158.17 367.705C156.819 360.685 156.01 353.572 155.752 346.428Z" fill="#403939"/>
<path d="M392.928 123.689C393.564 122.798 392.749 121.653 392.062 120.762C394.009 118.76 396.168 116.976 398.501 115.443C402.439 113.481 406.038 110.903 409.165 107.808C410.463 106.459 412.906 103.685 411.99 102.056C411.073 100.427 409.445 100.326 407.23 101.267C408.19 100.26 408.973 99.0986 409.546 97.8315C410.259 95.8464 408.579 94.2431 404.94 95.7192C406.263 93.6068 406.569 91.3927 404.329 90.3238C402.522 89.4585 399.875 91.5199 398.348 92.8688C395.35 95.4887 392.535 98.3118 389.924 101.318C388.321 97.9588 385.776 94.0904 382.595 95.312C379.414 96.5336 381.882 102.005 383.511 104.983L377.734 108.979C376.861 108.507 375.874 108.287 374.884 108.342C368.317 109.462 338.159 132.418 335.105 132.418C332.764 132.418 299.322 116.385 270.411 111.753C270.355 111.579 270.252 111.425 270.112 111.308C269.973 111.191 269.803 111.116 269.622 111.091C264.58 110.23 259.467 109.847 254.352 109.946C254.197 109.956 254.046 110 253.91 110.075C253.774 110.15 253.656 110.253 253.563 110.378H251.426C250.917 108.317 249.033 103.558 248.372 101.725C250.102 100.224 252.494 99.4603 253.742 97.0426C256.032 92.5634 255.93 84.7757 255.294 79.7875C258.17 77.5988 258.246 74.0867 257.584 70.4982C257.33 69.0476 256.541 65.7645 255.319 64.9501C254.632 64.492 253.182 64.9501 251.935 65.4082C250.688 62.5069 250.688 63.8303 251.197 62.6596C251.433 62.1201 251.571 61.5426 251.604 60.9545C252.953 61.3617 255.752 58.664 254.785 55.101C254.278 53.8255 253.656 52.5988 252.927 51.4362C253.283 50.5709 254.047 49.5274 251.655 46.3462C250.624 45.2348 249.287 44.4552 247.812 44.1066H246.641C245.797 42.8806 244.557 41.982 243.129 41.5616C240.973 41.012 238.688 41.3319 236.766 42.4523C236.257 42.8341 235.85 43.3431 235.341 43.6994C234.19 43.0006 232.87 42.6311 231.524 42.6311C230.177 42.6311 228.857 43.0006 227.706 43.6994C227.033 43.9637 226.419 44.3615 225.903 44.8688C225.387 45.3762 224.979 45.9826 224.703 46.6516C223.456 46.2213 222.133 46.0557 220.819 46.1653C219.504 46.2748 218.227 46.6571 217.068 47.2878C212.672 49.6719 209.383 53.6822 207.906 58.4604C207.865 59.1809 207.865 59.9031 207.906 60.6236H207.626C203.809 60.0637 198.948 69.1239 202.842 76.1736C203.3 77.0134 203.885 77.8024 204.445 78.7186C206.074 81.2636 205.437 82.0271 209.077 85.132C210.146 86.0482 210.324 85.9718 210.986 86.5317C211.647 87.0916 211.393 86.8117 211.774 88.2369C211.983 89.0765 212.355 89.8664 212.871 90.561C213.386 91.2556 214.034 91.841 214.778 92.2834C215.048 94.7728 216.11 97.1098 217.806 98.9513C218.343 99.5526 218.97 100.068 219.664 100.478C219.851 100.584 220.06 100.645 220.275 100.657C221.038 105.39 221.98 111.549 222.387 114.17L220.122 115.392C217.159 116.584 214.276 117.97 211.495 119.54C211.276 119.691 211.122 119.918 211.062 120.177C208.364 121.602 205.819 122.951 204.369 123.816C184.161 135.803 126.771 214.825 126.186 218.439C126.122 218.646 126.122 218.868 126.186 219.075C127.009 220.388 128.011 221.578 129.164 222.613C128.809 223.261 128.382 223.867 127.891 224.42C122.801 227.754 115.166 232.717 111.069 237.145C110.781 237.401 110.566 237.728 110.443 238.093C110.321 238.458 110.295 238.848 110.37 239.226C110.445 239.604 110.616 239.956 110.868 240.247C111.12 240.538 111.444 240.758 111.807 240.886C112.57 241.14 112.698 241.064 117.66 238.341C116.296 239.537 115.181 240.99 114.377 242.617C114.046 244.016 115.319 244.831 116.922 244.576C117.824 244.34 118.683 243.962 119.467 243.456C119.008 244.165 118.764 244.992 118.764 245.836C118.764 246.68 119.008 247.507 119.467 248.216C122.012 251.422 128.68 241.319 132.192 238.825C133.618 240.631 135.552 244.856 138.631 243.736C141.303 242.744 138.377 236.865 138.631 235.16C139.667 234.165 140.772 233.247 141.94 232.411C143.903 233.867 146.148 234.899 148.531 235.44C152.73 235.44 196.555 191.208 199.889 187.67C198.693 198.919 192.662 247.198 193.934 256.589C194.519 260.839 204.725 261.45 209.026 261.679C207.728 292.219 206.863 338.487 206.634 338.97C199.889 353.502 198.057 357.472 195.792 361.875C191.669 369.765 174.312 398.88 172.352 405.497C172.072 406.54 172.047 406.947 173.141 408.881C169.862 412.329 166.818 415.994 164.03 419.85C162.631 422.395 168.637 446.115 172.887 454.513C173.854 456.397 175.432 459.298 177.544 459.222C183.907 458.992 183.881 436.138 183.703 429.75C183.702 429.554 183.63 429.364 183.5 429.216C184.653 427.495 185.911 425.846 187.266 424.279C188.075 424.836 188.926 425.329 189.811 425.755C190.676 426.137 191.644 425.475 192.356 424.889C200.831 418.222 246.539 361.264 256.337 334.389C260.791 322.122 266.721 305.173 268.401 293.16C269.428 285.565 269.522 277.873 268.681 270.255C268.681 270.147 268.724 270.044 268.8 269.967C268.876 269.891 268.98 269.848 269.088 269.848C269.196 269.848 269.299 269.891 269.376 269.967C269.452 270.044 269.495 270.147 269.495 270.255C270.77 277.917 271.018 285.713 270.233 293.44C268.35 310.11 255.192 344.849 248.168 357.625C254.225 356.505 266.543 354.062 272.498 352.281C292.349 346.249 310.673 328.256 312.277 308.049C312.795 298.529 312.795 288.988 312.277 279.468C312.105 266.326 310.396 253.249 307.187 240.504C312.582 237.577 317.519 234.142 319.123 230.986C322.558 224.242 313.473 185.43 311.488 174.538C322.355 175.734 340.857 177.897 349.484 171.153C359.359 163.213 380.686 140.867 392.928 123.689ZM182.329 428.351C177.748 425.577 171.334 418.985 170.367 413.819C171.411 412.495 172.505 411.274 173.523 409.899C176.972 415.163 181.272 419.816 186.248 423.668C184.85 425.15 183.542 426.714 182.329 428.351ZM384.656 105.696C384.788 105.612 384.882 105.48 384.92 105.329C384.958 105.177 384.936 105.017 384.86 104.881C383.969 103.227 381.297 97.3989 383.155 96.7372C384.224 96.33 385.165 96.9917 385.954 97.8825C387.159 99.4108 388.097 101.132 388.728 102.972C388.775 103.122 388.862 103.256 388.98 103.36C389.097 103.464 389.241 103.534 389.395 103.563C389.549 103.592 389.708 103.578 389.856 103.523C390.003 103.469 390.132 103.375 390.23 103.252C392.775 100.427 398.73 93.9886 402.09 92.258C404.635 90.9346 405.245 93.3778 399.01 99.0786C397.578 100.171 396.202 101.334 394.887 102.565C394.815 102.665 394.776 102.785 394.776 102.909C394.776 103.032 394.815 103.152 394.887 103.252C394.887 103.914 395.422 104.652 396.338 103.965C398.55 102.023 400.888 100.229 403.337 98.595C404.586 97.7072 406.039 97.1472 407.561 96.9662C406.798 99.3076 399.697 105.67 399.086 106.383C398.893 106.556 398.775 106.799 398.759 107.059C398.742 107.318 398.828 107.574 398.998 107.771C399.168 107.968 399.409 108.09 399.668 108.111C399.927 108.132 400.185 108.051 400.384 107.884C403.209 106.052 408.147 101.776 409.852 102.413C411.557 103.049 406.492 107.782 405.22 108.902C397.916 115.239 399.799 111.167 391.35 119.769C387.672 115.74 383.449 112.245 378.803 109.386L384.656 105.696ZM274.076 227.423C273.643 223.911 273.109 220.119 272.447 216.174L273.542 214.723C278.632 208.183 280.159 197.774 279.675 189.604C282.398 201.54 284.561 213.273 286.216 224.929L274.076 227.423ZM236.232 140.282C229.539 135.192 218.773 126.412 212.513 120.406L222.693 115.316C232.04 124.047 240.042 134.116 246.437 145.194C256.216 163.157 263.469 182.384 267.994 202.329L231.702 150.997L236.436 141.173C236.498 141.022 236.512 140.855 236.476 140.695C236.439 140.535 236.354 140.391 236.232 140.282ZM253.436 111.422C253.589 111.702 255.345 115.443 258.017 121.984C258.017 122.264 257.534 128.626 257.305 130.866C254.056 129.578 250.993 127.867 248.193 125.776C248.753 123.561 251.273 113.509 251.451 111.244L253.436 111.422ZM244.401 138.755C244.58 138.297 244.758 137.686 244.961 136.974L246.666 137.864C247.634 138.501 247.252 136.566 248.117 142.165C248.117 143.107 248.372 144.151 248.422 145.296C247.252 143.183 245.801 140.918 244.427 138.755H244.401ZM242.976 136.617C238.168 129.798 232.695 123.472 226.637 117.733L245.801 126.056C245.063 127.812 243.994 133.182 243.002 136.617H242.976ZM262.547 151.531C260.002 144.583 258.043 136.821 257.075 134.785C257.133 134.15 257.133 133.511 257.075 132.876C257.444 133.013 257.829 133.099 258.221 133.131C258.466 133.133 258.704 133.047 258.892 132.888C259.079 132.729 259.202 132.508 259.239 132.265C259.442 131.426 259.773 127.175 259.824 126.234C267.227 144.926 273.408 164.079 278.326 183.573C263.947 152.982 266.161 161.838 262.573 151.531H262.547ZM283.594 200.115C277.792 172.298 267.586 137.61 255.981 111.905C260.243 111.908 264.498 112.248 268.706 112.923C270.869 132.265 269.062 131.604 270.513 132.367C271.964 133.131 280.693 136.643 281.991 137.177C281.864 139.137 283.696 195.178 283.62 200.115H283.594ZM254.301 66.5789C255.628 69.4742 256.096 72.6894 255.65 75.8428C255.443 76.6453 255.017 77.3747 254.42 77.9496C253.823 78.5245 253.078 78.9225 252.268 79.0993C251.459 79.276 250.616 79.2246 249.833 78.9507C249.051 78.6768 248.36 78.1912 247.837 77.5479C246.623 74.9898 245.709 72.2996 245.114 69.5311C245.801 68.6404 253.131 66.8589 254.301 66.5789ZM219.282 92.0289C218.353 91.6057 217.401 91.2319 216.432 90.9091C215.781 90.6418 215.201 90.229 214.734 89.7024C214.268 89.1759 213.929 88.5496 213.742 87.8715C213.555 87.1934 213.526 86.4815 213.657 85.7905C213.788 85.0995 214.076 84.4476 214.498 83.885C216.101 82.5361 217.552 82.6124 218.875 84.623C219.715 86.1754 219.689 86.3027 220.071 86.4554C220.181 86.5037 220.299 86.528 220.419 86.5267C220.539 86.5254 220.657 86.4985 220.765 86.4479C220.873 86.3973 220.97 86.3241 221.048 86.2332C221.126 86.1423 221.183 86.0359 221.216 85.9209C221.594 84.3279 221.654 82.6763 221.395 81.06C221.089 79.3039 221.038 71.5162 221.089 71.2617C221.833 71.6536 222.668 71.8382 223.507 71.7962C228.113 71.618 229.03 69.2512 230.862 67.317C232.974 67.5206 233.407 68.5386 235.799 67.317C236.92 66.6798 237.947 65.892 238.853 64.9756C239.585 65.2751 240.291 65.6325 240.966 66.0445C242.491 66.778 244.211 67.0032 245.874 66.6872C247.537 66.3711 249.054 65.5304 250.204 64.2884C250.484 64.8229 250.738 65.3573 250.967 65.9172C248.629 66.6429 246.427 67.7524 244.452 69.2003C244.02 69.7347 244.656 72.636 244.809 73.3232C242.677 73.5914 240.614 74.2561 238.726 75.2828C238.344 73.9594 237.504 71.4908 236.181 70.8036C235.783 70.6818 235.358 70.6818 234.959 70.8036C232.669 71.1599 224.449 73.6286 223.456 74.9774C222.591 75.9191 225.059 83.1978 225.823 84.3939C228.75 88.924 237.326 87.6006 238.93 82.307C239.327 80.5305 239.327 78.6882 238.93 76.9116C239.668 76.9116 241.882 76.1227 242.136 76.0463C243.892 79.9911 244.401 80.2201 246.437 84.4703C246.157 84.6993 245.699 85.0811 245.318 85.3356C243.511 86.5317 243.129 86.3282 243.231 86.8372C243.26 86.9382 243.326 87.0249 243.415 87.0811C243.504 87.1374 243.61 87.1592 243.714 87.1425C244.782 86.9899 245.826 86.6991 246.819 86.2772C247.413 86.0555 247.904 85.6199 248.193 85.0556C248.906 83.4523 244.961 77.4207 243.409 75.6137C243.714 75.6137 244.427 75.1047 244.961 74.8247C245.674 77.6751 246.157 79.9147 248.906 81.0345C249.7 81.3344 250.547 81.471 251.395 81.436C252.244 81.401 253.076 81.1952 253.843 80.8309C254.251 85.3101 254.174 92.5888 252.036 96.559C250.942 98.6205 248.244 99.4094 246.514 101.115C246.005 101.598 246.336 102.285 246.514 103.023C249.339 110.887 249.39 110.862 249.237 111.88C248.488 116.105 247.442 120.272 246.107 124.35C245.47 124.07 238.319 120.278 224.321 114.832C223.889 111.956 221.573 96.6099 220.835 93.785C220.886 92.7924 220.758 92.5634 219.282 91.9017V92.0289ZM237.097 81.6453C236.283 84.4194 232.44 85.6155 229.691 84.852C226.943 84.0885 226.765 82.6888 225.467 79.3803C224.858 78.1164 224.438 76.7702 224.22 75.3846C225.059 74.4684 234.247 72.5851 235.392 72.407C236.998 75.1549 237.601 78.3752 237.097 81.5181V81.6453ZM137.511 234.447C136.544 235.389 137.842 238.468 138.046 241.14C138.046 241.37 138.046 242.362 137.893 242.438C136.493 242.897 135.195 240.784 134.406 239.512C133.618 238.239 132.829 236.509 131.582 236.967C129.037 238.163 123.132 246.001 120.816 246.816C119.645 244.576 126.339 238.188 126.568 237.832C126.666 237.668 126.718 237.481 126.717 237.29C126.716 237.099 126.663 236.912 126.563 236.75C126.463 236.587 126.321 236.455 126.151 236.367C125.981 236.28 125.791 236.241 125.601 236.254C125.143 236.254 124.837 236.661 124.125 237.298C121.957 239.413 119.476 241.181 116.77 242.54C119.224 239.725 121.85 237.064 124.634 234.574C124.771 234.433 124.868 234.257 124.914 234.065C124.914 234.065 124.379 232.717 123.336 233.251C121.86 234.065 114.683 238.214 112.418 239.283C112.112 239.079 112.29 238.774 112.418 238.468C116.006 234.065 123.896 228.721 128.731 225.336C129.299 224.752 129.771 224.082 130.131 223.351C133.48 226.467 137.052 229.333 140.82 231.928C139.659 232.689 138.554 233.531 137.511 234.447ZM196.734 257.581C196.174 257.225 195.766 256.894 195.69 256.436C194.29 246.052 202.078 187.212 201.951 184.896C201.951 184.76 201.924 184.626 201.871 184.5C201.818 184.375 201.741 184.262 201.644 184.167C201.546 184.072 201.431 183.998 201.305 183.948C201.178 183.898 201.043 183.875 200.907 183.878C199.609 183.878 201.9 183.878 169.477 214.927C167.339 216.938 151 232.564 148.277 233.607C144.536 233.327 130.462 222.104 128.171 218.566C132.6 209.608 186.299 135.905 204.878 124.63C206.303 123.765 208.746 122.416 211.418 120.991C212.342 121.863 213.338 122.654 214.396 123.358C220.3 128.957 228.521 135.93 234.756 141.173L229.895 150.818C229.821 150.946 229.782 151.091 229.782 151.238C229.782 151.386 229.821 151.531 229.895 151.658C269.368 208.285 268.782 207.648 269.037 207.648C271.567 220.733 273.141 233.986 273.745 247.299C273.745 250.888 273.745 250.582 273.898 250.328C274.051 250.073 273.898 250.506 273.898 250.506C267.739 257.225 206.786 263.486 196.734 257.581ZM337.421 173.265C325.892 174.869 312.862 172.476 310.342 172.375C308.942 165.59 306.152 159.169 302.147 153.516C302.086 153.434 301.996 153.377 301.895 153.359C301.795 153.34 301.69 153.36 301.604 153.414C301.517 153.469 301.454 153.554 301.427 153.653C301.401 153.753 301.412 153.858 301.46 153.949C302.936 156.952 307.874 169.906 309.095 173.062C308.714 174.283 320.599 223.427 317.239 230.044C314.236 236.025 296.752 243.558 290.44 245.721C289.193 231.553 287.153 217.466 284.332 203.525C285.198 196.196 284.078 152.625 283.747 136.516C283.737 136.328 283.675 136.148 283.567 135.995C283.459 135.841 283.309 135.722 283.136 135.65L271.709 130.84C271.657 124.792 271.275 118.752 270.564 112.745C299.093 117.683 332.331 133.996 335.105 134.021C339.126 134.021 369.005 111.116 375.189 110.2C377.938 109.768 389.746 120.075 391.121 122.925C379.057 139.773 357.857 161.915 348.034 169.575C344.869 171.691 341.216 172.961 337.421 173.265Z" fill="#403939"/>
<path d="M234.473 76.5563C234.442 76.3892 234.377 76.2299 234.284 76.0877C234.191 75.9455 234.07 75.823 233.93 75.7273C233.789 75.6316 233.631 75.5645 233.464 75.5299C233.298 75.4953 233.126 75.4938 232.959 75.5255C232.792 75.5573 232.633 75.6216 232.49 75.7149C232.348 75.8082 232.226 75.9286 232.13 76.0692C232.034 76.2098 231.967 76.3679 231.933 76.5344C231.898 76.701 231.897 76.8727 231.928 77.0398C232.437 79.5848 232.539 80.1702 233.659 80.1702C233.871 80.1709 234.079 80.1188 234.266 80.0187C234.452 79.9185 234.611 79.7734 234.727 79.5965C234.843 79.4196 234.913 79.2165 234.931 79.0056C234.949 78.7947 234.914 78.5827 234.83 78.3887C234.753 77.9815 234.524 76.7853 234.473 76.5563ZM242.261 93.4042C243.915 93.8877 245.493 93.0988 245.442 92.6916C245.391 92.2844 245.442 92.488 243.203 91.6481C241.701 91.0882 240.047 89.1031 239.462 89.4085C238.876 89.7139 239.767 91.3427 239.971 91.6481C240.515 92.4742 241.322 93.0928 242.261 93.4042ZM288.809 69.2267C285.475 83.1987 283.032 95.0584 282.625 97.4253C282.354 98.455 282.302 99.53 282.472 100.581C283.821 103.457 301.254 109.132 303.468 108.012C305.682 106.893 311.434 93.9386 318.127 80.5774C322.228 80.7084 326.331 80.4098 330.369 79.6866C334.621 78.9065 338.759 77.5985 342.687 75.7928C351.289 71.8226 360.705 54.822 361.978 46.2708C362.932 36.9867 360.966 27.6363 356.353 19.5228C335.001 -17.5069 272.368 2.42041 277.458 43.5476C278.912 52.9583 282.828 61.8174 288.809 69.2267ZM304.334 99.5376C304.334 99.9448 303.875 99.8939 301.789 99.5376C297.52 99.0012 293.387 97.6811 289.598 95.6438C287.816 94.6767 287.333 94.4731 287.511 94.0404C287.689 93.6078 288.071 93.7605 290.82 94.524C291.074 94.524 298.964 97.069 301.229 97.8579C304.155 99.1813 304.334 99.1813 304.334 99.5376ZM303.875 58.1305C306.593 58.2714 309.301 57.7105 311.74 56.5017C314.006 57.5995 316.457 58.2641 318.967 58.4613C314.692 66.4272 306.013 82.6643 303.214 91.3173L292.423 88.3396C294.968 82.0789 300.592 67.4197 303.825 58.1305H303.875ZM302.985 56.0181C301.085 55.7311 299.332 54.8288 297.994 53.4497C296.656 52.0706 295.808 50.2907 295.579 48.3831C294.866 43.2931 298.124 37.5923 303.036 38.9412C306.115 39.781 306.497 42.2242 305.962 45.3037C305.504 47.5433 303.85 53.1677 302.934 55.9163L302.985 56.0181ZM309.907 49.9101C310.179 48.2448 310.804 46.6568 311.74 45.2528C312.185 44.4874 312.836 43.8622 313.619 43.4483C314.401 43.0344 315.285 42.8484 316.168 42.9114C318.051 43.4713 318.866 47.0343 317.313 49.2739C315.821 51.2538 313.964 52.9298 311.841 54.2112C311.111 53.7826 310.529 53.1407 310.174 52.3718C309.82 51.603 309.709 50.7439 309.856 49.9101H309.907ZM286.519 17.5632C297.92 3.84561 319.374 -1.60069 334.874 4.04921C343.293 6.93941 350.375 12.7914 354.801 20.5154C359.189 28.2358 361.066 37.1303 360.171 45.9654C359 53.8803 349.991 70.321 342.076 73.9604C334.839 77.2613 326.944 78.8631 318.993 78.6432C318.127 78.6432 317.211 78.6432 316.88 79.254C315.379 82.308 312.63 88.2124 309.933 93.7605C308.07 92.861 306.138 92.112 304.155 91.5209C307.108 83.0715 316.422 66.4781 320.851 58.4359C324.688 58.7646 328.544 58.0984 332.049 56.5017C332.995 56.0033 333.78 55.2452 334.311 54.3164C334.843 53.3875 335.098 52.3265 335.047 51.2578C334.996 50.189 334.642 49.1569 334.025 48.2826C333.408 47.4083 332.555 46.728 331.565 46.3217C327.62 44.3875 324.083 49.0194 322.021 52.9132C321.461 53.9312 320.825 55.1274 320.113 56.4762C318.054 56.3409 316.024 55.9213 314.081 55.2292C316.016 53.869 317.733 52.2212 319.171 50.3428C319.977 49.1259 320.385 47.689 320.339 46.2303C320.294 44.7715 319.797 43.3629 318.916 42.1988C318.225 41.3958 317.265 40.8727 316.215 40.7274C315.165 40.5822 314.099 40.8248 313.216 41.4098C311.433 42.505 310.005 44.0913 309.102 45.9784C308.199 47.8654 307.86 49.9729 308.126 52.0479C308.402 53.2192 309.033 54.2767 309.933 55.0765C308.263 55.7678 306.471 56.1141 304.664 56.0945C305.682 53.0914 307.337 47.6705 307.769 45.4564C308.041 44.194 308.101 42.8954 307.947 41.6134C307.751 40.5128 307.24 39.4926 306.477 38.6754C305.714 37.8582 304.731 37.2788 303.646 37.007C297.462 35.2509 292.906 42.097 293.797 48.4849C294.049 50.7741 295.031 52.9213 296.599 54.6083C298.167 56.2952 300.236 57.4321 302.501 57.8505C299.244 67.0125 294.154 81.799 291.609 88.1106L286.01 86.6599C289.598 68.6413 290.031 69.074 289.522 68.8449C283.739 61.4721 280.039 52.6836 278.807 43.3949C278.207 38.7891 278.584 34.1086 279.913 29.658C281.241 25.2074 283.492 21.0864 286.519 17.5632ZM321.843 56.6289C323.625 53.3968 327.188 46.3217 330.649 48.0523C331.341 48.3312 331.944 48.7939 332.393 49.3904C332.841 49.9869 333.118 50.6946 333.194 51.4371C333.143 55.9163 326.17 56.7053 321.741 56.6289H321.843ZM419.266 67.8524C422.333 66.0487 425.955 65.4329 429.446 66.1218C433.28 66.1904 436.943 67.7235 439.683 70.4067C442.423 73.0899 444.032 76.7198 444.181 80.5519C441.875 79.214 439.179 78.7108 436.546 79.1267C430.158 79.6866 421.811 83.1478 422.931 89.3067C423.847 94.3967 430.566 93.7096 435.656 92.3353C440.746 90.961 444.792 88.4669 445.836 83.555C452.02 88.0597 453.471 95.9492 453.725 103.661C453.725 103.769 453.768 103.872 453.844 103.948C453.921 104.025 454.024 104.068 454.132 104.068C454.24 104.068 454.344 104.025 454.42 103.948C454.497 103.872 454.539 103.769 454.539 103.661C454.718 95.033 453.165 86.5836 446.115 81.6717C446.188 79.4621 445.811 77.2607 445.008 75.2009C444.205 73.1411 442.993 71.2657 441.444 69.6882C439.895 68.1107 438.042 66.8639 435.997 66.0234C433.952 65.183 431.758 64.7662 429.548 64.7984C426.015 64.2825 422.413 65.0209 419.368 66.8853C418.426 67.3434 418.859 68.0305 419.266 67.8524ZM442.476 86.1C439.6 89.8666 431.456 91.8263 427.69 91.19C426.29 90.961 425.145 90.3756 424.839 88.925C423.923 83.835 432.703 81.0609 437.946 80.8828C440.081 80.7191 442.21 81.2648 444.003 82.4352C443.811 83.7658 443.285 85.0263 442.476 86.1ZM407.61 38.1013C410.333 34.7419 408.5 28.8884 400.891 28.863C397.939 28.863 396.513 31.8661 396.717 34.7419C397.175 41.588 404.886 41.3844 407.61 38.1013ZM398.499 34.6147C398.499 32.935 399.287 30.7463 401.044 30.7717C405.141 30.7717 407.024 32.6805 407.024 34.7928C406.922 39.6029 398.168 42.097 398.499 34.6147ZM397.455 323.141C375.085 314.208 364.701 357.448 346.428 394.605C346.312 396.167 346.364 397.737 346.581 399.288C346.581 403.182 347.013 428.962 349.278 431.889C349.889 433.06 352.46 431.889 353.656 431.151C363.815 424.862 373.388 417.673 382.261 409.671C382.337 409.585 382.394 409.484 382.429 409.374C382.464 409.265 382.476 409.149 382.465 409.035C387.199 402.291 404.937 367.17 409.238 349.558C412.242 337.088 409.264 327.799 397.455 323.141ZM405.446 355.463C393.47 353.928 381.891 350.146 371.318 344.316C377.273 333.041 384.628 320.189 396.768 325.025C410.282 330.395 410.002 341.516 405.446 355.386V355.463ZM363.098 421.633C362.316 420.978 361.462 420.414 360.553 419.953C357.113 418.205 353.14 417.823 349.431 418.884C349.176 415.856 347.726 396.157 347.726 395.979C366.788 402.952 360.909 399.924 379.793 409.315C377.808 411.198 370.351 416.416 363.098 421.582V421.633ZM376.23 347.98C378.712 349.337 381.26 350.568 383.865 351.671C378.031 360.834 372.877 370.412 368.442 380.327C364.166 389.26 364.319 389.21 359.967 398.957C357.422 398.142 354.877 397.379 352.332 396.615C355.081 391.144 374.626 351.136 376.23 347.93V347.98ZM360.96 399.211C369.231 384.374 377.655 365.923 384.883 352.002C387.428 353.07 389.973 353.936 392.518 354.699C391.169 357.244 387.224 364.014 386.181 365.974C385.137 367.933 374.677 388.548 373.939 390.126C372.769 392.671 369.562 399.771 368.569 402.036C365.973 400.891 363.479 400.026 360.858 399.16L360.96 399.211ZM369.486 402.367C371.038 399.542 377.426 387.682 378.215 386.155C379.411 383.789 392.747 356.532 393.485 354.954C395.826 355.616 398.295 356.175 399.873 356.481C395.215 369.206 381.803 393.714 376.968 405.803C372.565 403.741 371.572 403.232 369.384 402.316L369.486 402.367ZM371.038 345.054L375.594 347.599C366.413 363.233 358.416 379.532 351.671 396.361L347.853 395.19C362.639 363.683 363.327 359.56 370.936 345.003L371.038 345.054ZM381.523 408.017L377.68 406.185C381.829 398.041 394.808 377.146 400.738 356.659C402.163 356.913 403.563 357.142 404.912 357.321C398.372 374.771 390.519 391.702 381.422 407.966L381.523 408.017ZM301.789 424.534C302.803 423.694 303.528 422.557 303.861 421.283C304.195 420.009 304.12 418.663 303.646 417.434C303.431 415.66 302.617 414.013 301.341 412.764C300.064 411.514 298.4 410.737 296.622 410.559C294.845 410.381 293.06 410.814 291.561 411.786C290.062 412.758 288.939 414.211 288.376 415.907C285.119 413.794 281.581 411.555 278.196 409.417C280.741 406.032 288.224 407.534 288.987 410.308C289.004 410.416 289.063 410.512 289.151 410.577C289.24 410.641 289.35 410.668 289.458 410.651C289.566 410.634 289.663 410.575 289.727 410.487C289.792 410.399 289.818 410.288 289.802 410.18C289.42 405.752 280.207 403.156 276.491 408.373C273.208 406.363 269.136 403.92 265.726 402.062C268.653 399.517 275.193 400.942 275.906 403.589C275.939 403.679 276.004 403.755 276.088 403.802C276.172 403.85 276.27 403.866 276.365 403.847C276.46 403.829 276.545 403.777 276.606 403.702C276.666 403.627 276.698 403.533 276.695 403.436C276.364 399.313 267.838 396.539 263.97 401.069C262.349 400.161 260.644 399.411 258.88 398.83C258.557 398.696 258.203 398.658 257.86 398.722C257.517 398.785 257.199 398.946 256.946 399.186C250.507 407.203 228.798 428.021 218.771 430.439C218.519 430.476 218.281 430.58 218.082 430.739C217.882 430.898 217.729 431.107 217.636 431.344C217.543 431.582 217.514 431.839 217.553 432.091C217.591 432.343 217.695 432.581 217.854 432.78C220.056 435.015 222.578 436.91 225.337 438.404C222.792 440.949 220.807 443.24 219.331 444.894C218.567 445.708 218.16 461.284 218.822 464.72C218.92 465.056 219.137 465.345 219.432 465.534C222.639 467.723 263.944 485.589 268.169 483.196C270.994 481.593 304.715 446.497 305.25 445.429C306.064 443.749 305.784 432.551 305.733 428.072C305.53 426.723 303.01 425.272 301.789 424.534ZM220.349 458.154V452.478C230.91 457.568 255.088 467.952 264.25 470.853C266.591 471.617 266.795 471.515 268.016 470.853C275.015 466.374 299.727 438.532 304.257 434.281V439.651C290.514 453.42 267.177 477.546 266.744 476.172C264.224 476.019 222.537 459.172 220.349 458.154ZM301.152 415.957C302.067 417.499 302.559 419.255 302.577 421.047C302.569 421.618 302.429 422.178 302.168 422.686C301.908 423.194 301.534 423.634 301.076 423.974C298.938 422.549 294.892 419.902 290.107 416.797C292.728 411.631 298.556 411.555 301.051 415.957H301.152ZM219.712 432.245C230.554 429.039 251.143 409.188 258.065 400.586C259.732 401.049 261.337 401.707 262.85 402.545C260.305 407.279 263.028 412.471 263.995 411.733C264.53 411.326 263.563 411.173 263.41 408.679C263.345 406.857 263.757 405.05 264.606 403.436C268.118 405.268 272.241 407.661 275.728 409.671C273.59 414.43 276.16 419.139 277.051 418.452C277.942 417.764 276.644 417.917 276.491 415.423C276.429 413.787 276.743 412.159 277.407 410.664C280.996 412.776 284.661 414.965 288.02 417.026C287.502 418.294 287.297 419.668 287.421 421.033C287.545 422.397 287.995 423.711 288.733 424.865C288.766 424.908 288.808 424.945 288.855 424.972C288.903 425 288.955 425.017 289.01 425.024C289.064 425.031 289.119 425.028 289.172 425.013C289.225 424.999 289.275 424.975 289.318 424.941C289.362 424.908 289.398 424.866 289.425 424.819C289.453 424.771 289.47 424.719 289.477 424.664C289.485 424.61 289.481 424.555 289.467 424.502C289.452 424.449 289.428 424.399 289.394 424.356C288.937 423.345 288.711 422.244 288.733 421.135C288.755 420.025 289.025 418.935 289.522 417.943C295.452 421.556 300.236 424.585 301.712 425.578C301.432 425.832 274.888 449.45 265.853 456.474C259.923 454.921 228.798 439.473 219.712 432.245ZM220.679 446.421C232.208 451.511 258.396 463.32 264.428 464.465C265.471 464.669 265.879 464.745 267.864 463.167C276.339 456.372 303.901 427.537 304.155 427.843C304.168 427.918 304.168 427.996 304.155 428.072V433.162C298.48 437.717 266.922 470.853 266.413 469.275C263.868 469.275 222.512 452.402 220.399 451.46C220.349 450.391 220.578 447.541 220.679 446.421ZM267.024 481.491C264.479 482.942 225.719 467.188 220.527 463.982C220.332 462.36 220.238 460.728 220.247 459.095C231.394 464.592 263.817 478.285 266.795 478.157C271.147 477.928 301.916 443.291 304.105 440.873C304.13 442.173 304.002 443.471 303.723 444.741C303.29 445.581 268.704 480.55 267.024 481.491ZM56.1706 338.03C56.3488 340.753 56.476 343.12 56.476 345.334C56.476 345.671 56.6101 345.995 56.8487 346.233C57.0874 346.472 57.411 346.606 57.7485 346.606C58.086 346.606 58.4097 346.472 58.6483 346.233C58.8869 345.995 59.021 345.671 59.021 345.334C59.021 342.967 58.8938 340.625 58.7156 337.851C58.692 337.514 58.5353 337.2 58.2799 336.978C58.0246 336.756 57.6915 336.644 57.354 336.668C57.0166 336.692 56.7023 336.848 56.4803 337.104C56.2584 337.359 56.147 337.692 56.1706 338.03ZM443.952 287.002C443.786 287.012 443.623 287.055 443.474 287.128C443.325 287.202 443.192 287.304 443.082 287.43C442.973 287.556 442.891 287.702 442.839 287.86C442.787 288.018 442.768 288.185 442.782 288.351C442.934 290.693 443.087 293.212 443.087 295.655C443.087 295.993 443.221 296.316 443.46 296.555C443.698 296.794 444.022 296.928 444.359 296.928C444.697 296.928 445.021 296.794 445.259 296.555C445.498 296.316 445.632 295.993 445.632 295.655C445.632 293.11 445.479 290.565 445.301 288.173C445.291 288.007 445.249 287.844 445.175 287.695C445.102 287.546 444.999 287.412 444.874 287.303C444.748 287.194 444.602 287.111 444.443 287.06C444.285 287.008 444.118 286.988 443.952 287.002ZM49.5791 331.693C49.9166 331.693 50.2402 331.558 50.4789 331.32C50.7175 331.081 50.8516 330.758 50.8516 330.42C50.8516 330.083 50.7175 329.759 50.4789 329.52C50.2402 329.282 49.9166 329.147 49.5791 329.147C46.4996 329.147 43.9292 329.377 41.3842 329.326C41.0443 329.326 40.718 329.459 40.4753 329.697C40.2326 329.935 40.0929 330.258 40.0862 330.598C40.0862 330.936 40.2203 331.259 40.4589 331.498C40.6976 331.737 41.0212 331.871 41.3587 331.871C43.9801 331.922 46.8559 331.82 49.5791 331.693ZM436.063 279.469C433.009 279.469 430.438 279.647 427.868 279.673C427.53 279.673 427.207 279.807 426.968 280.045C426.729 280.284 426.595 280.608 426.595 280.945C426.595 281.283 426.729 281.606 426.968 281.845C427.207 282.084 427.53 282.218 427.868 282.218C430.616 282.218 433.467 282.218 436.215 282.014C436.553 281.994 436.869 281.84 437.093 281.587C437.317 281.334 437.432 281.003 437.412 280.665C437.391 280.328 437.238 280.012 436.985 279.788C436.732 279.564 436.4 279.449 436.063 279.469ZM55.4835 315.964C55.6362 318.306 55.7889 320.825 55.7889 323.269C55.7954 323.604 55.9315 323.924 56.1688 324.161C56.406 324.398 56.7259 324.535 57.0614 324.541C57.3989 324.541 57.7225 324.407 57.9612 324.168C58.1998 323.93 58.3339 323.606 58.3339 323.269C58.3339 320.724 58.1812 318.179 58.0285 315.786C58.0048 315.449 57.8481 315.134 57.5928 314.913C57.3374 314.691 57.0044 314.579 56.6669 314.603C56.3294 314.626 56.0151 314.783 55.7932 315.039C55.5713 315.294 55.4598 315.627 55.4835 315.964ZM444.945 273.59C444.945 271.045 444.792 268.5 444.614 266.108C444.59 265.77 444.434 265.456 444.178 265.234C443.923 265.012 443.59 264.901 443.252 264.924C442.915 264.948 442.601 265.105 442.379 265.36C442.157 265.615 442.045 265.949 442.069 266.286C442.222 268.627 442.374 271.147 442.374 273.59C442.374 273.928 442.508 274.251 442.747 274.49C442.986 274.729 443.309 274.863 443.647 274.863C443.987 274.863 444.313 274.729 444.556 274.492C444.798 274.254 444.938 273.93 444.945 273.59ZM74.2656 331.362C74.4327 331.355 74.5969 331.316 74.7488 331.246C74.9007 331.175 75.0373 331.076 75.1508 330.953C75.2642 330.83 75.3523 330.686 75.4101 330.529C75.4678 330.372 75.494 330.205 75.4872 330.038C75.4615 329.705 75.3108 329.394 75.0653 329.168C74.8199 328.941 74.4978 328.816 74.1638 328.817C71.0843 328.944 68.5139 329.046 65.9434 328.995C65.6059 328.995 65.2823 329.129 65.0436 329.367C64.805 329.606 64.6709 329.93 64.6709 330.267C64.6709 330.605 64.805 330.928 65.0436 331.167C65.2823 331.406 65.6059 331.54 65.9434 331.54C68.6666 331.591 71.517 331.489 74.2656 331.362ZM460.749 279.138C458.204 279.266 455.379 279.342 452.554 279.342C452.386 279.335 452.219 279.362 452.061 279.422C451.904 279.481 451.761 279.572 451.639 279.689C451.518 279.805 451.422 279.945 451.356 280.1C451.29 280.254 451.256 280.421 451.256 280.589C451.256 280.929 451.39 281.255 451.628 281.498C451.865 281.741 452.189 281.88 452.529 281.887C455.43 281.887 457.772 281.887 460.851 281.683C461.018 281.677 461.182 281.637 461.334 281.567C461.486 281.497 461.623 281.398 461.736 281.275C461.85 281.152 461.938 281.008 461.996 280.851C462.053 280.694 462.079 280.527 462.073 280.36C462.041 280.029 461.889 279.721 461.645 279.496C461.4 279.27 461.082 279.143 460.749 279.138ZM15.7815 255.953C16.1123 256.208 87.8813 245.57 90.9608 243.686C91.1313 243.562 91.2674 243.396 91.3565 243.205C91.4455 243.014 91.4845 242.803 91.4698 242.592C91.4698 239.309 87.1687 208.489 85.1073 200.803C84.8528 199.862 84.5983 198.92 84.0129 198.589C80.1191 196.248 11.5059 209.176 7.40842 211.823C7.29737 211.889 7.20143 211.977 7.12687 212.082C7.05231 212.187 7.00082 212.307 6.97577 212.434C6.11047 215.513 13.5673 254.426 15.7815 255.953ZM8.52822 213.045C13.4146 210.83 75.6908 199.429 82.8168 200.32C84.5474 204.773 89.1793 237.4 89.4847 242.185C85.9471 243.228 16.7486 255.113 16.4941 255.164C16.2396 255.215 16.2141 255.521 15.6797 253.917C13.4401 247.199 8.40097 218.796 8.52822 213.045Z" fill="#403939"/>
<path d="M96.5596 245.952C96.6981 245.694 96.7599 245.403 96.7377 245.112C96.7377 241.065 90.9351 196.146 88.8737 192.557C88.7121 192.293 88.4833 192.076 88.2106 191.928C87.938 191.781 87.6311 191.708 87.3212 191.718C78.7955 190.674 6.87379 204.723 2.14009 208.006C1.47839 208.464 1.58019 209.609 1.65654 210.831C2.06374 217.524 9.29153 261.552 11.8365 261.298C12.1165 261.298 12.0147 261.094 11.353 262.443C7.38279 270.613 -0.150413 296.775 0.00228648 302.043C0.00228648 304.257 0.511285 307.133 2.69998 306.981C18.4026 305.046 95.3889 292.83 117.53 288.275C118.396 288.097 118.956 287.308 118.93 286.01C118.669 283.847 118.013 281.751 116.996 279.825C113.891 273.997 101.013 250.914 96.5596 245.952ZM11.9892 260.509C10.0041 257.964 2.69999 214.114 3.25989 209.253C8.85888 206.351 79.8135 192.634 87.2449 193.754C89.2809 199.353 94.549 239.793 94.8799 244.654C85.8706 247.758 23.4926 257.837 11.9892 260.509ZM13.109 261.272C15.2468 260.738 88.0593 248.547 94.7272 246.791C98.3665 250.176 114.807 279.418 115.876 281.912C101.268 284.457 14.6106 298.938 1.86014 300.873C2.03829 293.161 9.95323 266.21 13.109 261.272Z" fill="#403939"/>
<path d="M22.6765 287.665C24.8906 287.334 71.8713 281.684 88.8465 277.077C88.9511 277.05 89.0407 276.983 89.0956 276.89C89.1505 276.797 89.1661 276.686 89.1391 276.581C89.1122 276.476 89.0447 276.387 88.9516 276.332C88.8586 276.277 88.7475 276.261 88.6429 276.288C85.3089 276.976 44.6398 282.396 22.6256 286.876C22.5648 286.865 22.5023 286.868 22.4428 286.885C22.3833 286.901 22.3285 286.931 22.2824 286.973C22.2363 287.014 22.2001 287.065 22.1767 287.122C22.1533 287.179 22.1432 287.241 22.1471 287.303C22.1511 287.364 22.1691 287.424 22.1997 287.478C22.2302 287.532 22.2726 287.578 22.3236 287.613C22.3747 287.647 22.4329 287.67 22.4941 287.679C22.5552 287.688 22.6176 287.683 22.6765 287.665ZM57.0085 110.583C56.0578 112.731 55.2584 114.942 54.6162 117.2C54.5784 117.563 54.6783 117.926 54.8962 118.218C57.4666 122.087 83.8074 151.787 90.6789 155.961C91.6205 156.546 92.7403 156.953 93.4275 156.114C98.4192 149.902 104.934 145.089 112.337 142.141C118.362 140.01 124.68 138.816 131.068 138.604C136.158 138.146 137.049 137.637 139.008 134.303C141.32 129.915 144.387 125.97 148.069 122.647C152.763 118.542 157.973 115.069 163.568 112.314C163.82 112.171 164.016 111.949 164.127 111.681C164.238 111.414 164.256 111.117 164.178 110.838C163.318 108.649 162.181 106.579 160.794 104.679C161.71 104.374 162.728 104.094 162.728 103.178C162.728 100.633 140.535 68.5146 134.377 62.4575C133.74 61.8213 132.824 60.9814 131.984 61.0323C119.259 61.7449 106.865 73.7573 99.6882 84.2427C91.4678 83.9373 86.1488 83.1993 76.7832 87.144C70.1715 89.9505 64.2105 94.092 59.2736 99.3091C58.5101 100.098 53.3183 105.595 53.2419 106.028C53.1656 106.461 53.3183 106.461 57.0085 110.583ZM158.809 109.871C148.196 111.678 141.426 120.509 136.438 130.104C134.224 134.379 134.427 134.583 132.086 134.532C127.992 134.3 123.885 134.453 119.819 134.99C116.837 135.436 113.905 136.169 111.064 137.179C104.6 139.469 97.1941 146.799 93.2493 152.245C93.1655 152.357 93.059 152.45 92.9367 152.518C92.8144 152.586 92.6792 152.627 92.5398 152.639C92.4004 152.651 92.2601 152.634 92.1279 152.588C91.9958 152.542 91.875 152.468 91.7732 152.372C83.502 143.847 68.8682 128.882 61.5132 120.28C61.1569 119.898 61.7677 119.338 62.124 119.745C66.8831 124.835 79.1755 137.026 92.3586 150.285C96.8123 144.61 103.684 137.739 110.479 135.346C114.184 134.025 118.04 133.17 121.957 132.801C125.625 132.523 129.309 132.523 132.977 132.801C134.478 131.071 141.91 111.423 158.758 109.235C158.807 109.271 158.847 109.318 158.876 109.372C158.905 109.426 158.921 109.485 158.924 109.547C158.926 109.608 158.915 109.669 158.89 109.725C158.866 109.781 158.829 109.831 158.783 109.871H158.809ZM131.959 63.0938C137.049 66.6568 157.765 97.324 160.463 102.694C155.782 104.177 151.263 106.13 146.974 108.522C142.913 110.558 139.358 113.474 136.566 117.058C133.775 120.641 131.818 124.803 130.839 129.238C121.702 114.376 108.952 98.0112 100.477 85.9733C100.986 85.6425 115.289 64.0863 131.959 63.0938ZM77.3431 88.5438C86.6323 84.8026 91.7732 85.6679 99.4591 85.9988C107.094 99.0292 120.812 117.404 129.846 129.442C121.508 127.469 112.733 128.676 105.236 132.827C100.732 135.372 95.2344 141.48 91.8496 145.272C86.9632 141.353 58.7646 111.322 54.2345 106.232C61.2078 98.342 67.6466 92.4122 77.3431 88.442V88.5438ZM30.7696 153.263C30.1406 152.822 29.397 152.572 28.629 152.545C27.861 152.518 27.1017 152.714 26.4431 153.11C25.9635 153.324 25.5307 153.631 25.1695 154.012C24.8082 154.393 24.5256 154.841 24.3377 155.332C24.1499 155.822 24.0604 156.345 24.0745 156.87C24.0886 157.395 24.2059 157.912 24.4198 158.391C24.6337 158.871 24.94 159.304 25.3211 159.665C25.7023 160.026 26.1508 160.309 26.6412 160.497C27.1316 160.685 27.6542 160.774 28.1791 160.76C28.7041 160.746 29.2211 160.628 29.7007 160.415C30.4668 160.247 31.164 159.851 31.6997 159.278C32.2354 158.705 32.5843 157.983 32.7003 157.207C32.8162 156.432 32.6936 155.639 32.3488 154.935C32.004 154.23 31.4533 153.647 30.7696 153.263ZM29.0899 158.353C27.3084 158.913 26.2395 158.353 25.8068 157.488C24.9924 155.681 26.0104 152.907 28.6572 153.721C30.5151 154.408 32.0166 157.539 29.0899 158.48V158.353ZM160.183 36.8039C160.921 38.3055 164.357 37.7456 165.858 37.262C166.647 37.0075 167.156 36.7276 167.232 35.9641C167.462 34.0553 167.716 17.5128 166.851 15.9095C166.761 15.7414 166.624 15.6034 166.457 15.5128C166.289 15.4223 166.099 15.3832 165.909 15.4005C163.194 15.3929 160.492 15.7875 157.892 16.5712C156.849 17.2074 159.267 35.1242 160.183 36.8039ZM158.427 17.182C160.778 16.8457 163.155 16.7349 165.527 16.8511C165.68 18.7344 165.273 35.0479 165.247 35.3024C164.172 35.6877 163.024 35.8268 161.888 35.7096C161.71 35.1242 161.404 33.5463 161.023 31.5612C159.901 26.8179 159.035 22.018 158.427 17.182ZM28.3009 131.783C28.5451 131.908 28.8155 131.974 29.0899 131.974C29.3642 131.974 29.6346 131.908 29.8788 131.783C30.8621 131.177 31.6419 130.291 32.1184 129.238C32.1832 129.07 32.2031 128.888 32.1764 128.709C32.1496 128.531 32.077 128.362 31.9657 128.22C30.7441 126.77 17.4083 111.322 15.7795 112.289C13.7797 113.583 11.8823 115.03 10.1042 116.615C10.0325 116.679 9.9751 116.758 9.93565 116.845C9.89619 116.933 9.87558 117.028 9.87513 117.124C9.82423 118.448 24.6361 130.307 28.3009 131.783ZM16.0849 112.95C17.9428 114.299 24.2035 122.036 30.0061 128.882C29.7564 129.275 29.4474 129.627 29.0899 129.925C22.9892 126.021 17.1643 121.701 11.6566 116.997C13.0373 115.547 14.517 114.195 16.0849 112.95ZM56.0669 56.8076C56.6268 46.933 62.3785 42.352 68.3847 41.1813C66.6795 47.442 66.9595 55.586 73.1438 56.6295C76.096 57.113 77.5467 55.586 79.6845 53.8045C88.821 46.1695 81.4405 38.5345 71.1333 39.069C74.9762 28.5327 83.8583 19.956 95.6416 19.6761C95.7496 19.6761 95.8532 19.6332 95.9296 19.5568C96.0059 19.4804 96.0488 19.3769 96.0488 19.2689C96.0488 19.1609 96.0059 19.0573 95.9296 18.9809C95.8532 18.9046 95.7496 18.8617 95.6416 18.8617C82.9166 18.6072 72.9148 27.7692 68.97 39.2217C62.1749 40.3924 55.4306 45.4824 55.2525 56.6549C55.2424 56.7084 55.2431 56.7633 55.2543 56.8166C55.2655 56.8698 55.287 56.9203 55.3178 56.9652C55.3485 57.0101 55.3877 57.0485 55.4333 57.0783C55.4789 57.108 55.5299 57.1284 55.5833 57.1385C55.6368 57.1485 55.6917 57.1479 55.745 57.1367C55.7982 57.1255 55.8487 57.1039 55.8936 57.0732C55.9385 57.0425 55.9769 57.0032 56.0067 56.9576C56.0364 56.9121 56.0569 56.8611 56.0669 56.8076ZM70.5479 40.8759C74.34 40.6214 79.9899 41.7921 81.5423 45.2279C82.4331 47.1875 81.5423 49.6053 78.3865 52.2521C77.5298 53.1104 76.5524 53.8392 75.4852 54.4153C71.6677 56.0441 67.443 51.3359 70.5479 40.8759ZM77.8266 400.815C75.3678 400.157 72.8021 399.996 70.2805 400.344C67.7588 400.692 65.3322 401.541 63.1434 402.84C60.9547 404.14 59.0479 405.864 57.5354 407.911C56.0229 409.959 54.9352 412.288 54.3363 414.762C53.2057 419.902 54.1632 425.28 56.9983 429.714C59.8333 434.148 64.3136 437.274 69.4536 438.405C74.5935 439.535 79.9721 438.578 84.406 435.743C88.8399 432.908 91.966 428.428 93.0966 423.288C93.5796 420.809 93.567 418.258 93.0598 415.784C92.5525 413.31 91.5606 410.961 90.1411 408.872C88.7216 406.783 86.9027 404.995 84.7891 403.613C82.6756 402.23 80.3093 401.279 77.8266 400.815ZM85.6907 421.557C84.6695 425.63 82.2249 429.203 78.7988 431.63C75.3727 434.057 71.1912 435.178 67.0104 434.791C63.1725 433.291 59.9864 430.486 58.0127 426.869C56.0389 423.252 55.404 419.055 56.2196 415.016C57.1719 410.845 59.5938 407.155 63.0425 404.623C66.4912 402.09 70.7363 400.883 75.0017 401.222C78.8774 402.824 82.0641 405.741 84.0007 409.46C85.9373 413.18 86.4997 417.464 85.5889 421.557H85.6907Z" fill="#403939"/>
<path d="M111.729 408.068C109.513 407.304 107.139 407.12 104.832 407.534C103.876 405.342 102.699 403.252 101.32 401.299C102.974 399.797 107.504 395.623 106.41 393.664C102.515 389.005 97.8913 385.008 92.7179 381.829C90.5576 380.619 88.1788 379.849 85.7191 379.564C84.0903 379.793 80.2219 386.13 79.3566 387.556C78.7967 387.556 76.8116 386.919 76.659 386.843C76.659 385.011 76.1245 378.394 74.4702 377.63C72.6204 376.949 70.6994 376.479 68.744 376.23C66.937 375.95 50.6745 378.928 49.4784 381.117C48.6894 382.593 50.5218 388.166 51.0562 389.719C49.6837 390.474 48.3656 391.325 47.1115 392.264C44.5665 394.071 45.2537 393.994 44.7955 393.791C44.2419 393.526 43.6487 393.355 43.0395 393.282C41.0065 392.09 38.6229 391.64 36.2952 392.009C33.9538 392.773 28.4312 405.345 27.5404 408.577C27.2489 409.392 27.1701 410.268 27.3114 411.122C27.9222 412.802 31.9942 414.151 33.6993 414.685C33.2285 417.96 33.2285 421.285 33.6993 424.56C31.4597 425.171 26.8024 426.545 27.0569 428.835C27.3114 431.126 33.2667 446.243 35.7353 447.439C37.0877 448.196 38.5831 448.661 40.1258 448.806C41.6685 448.95 43.2244 448.771 44.6937 448.279C45.5213 447.866 46.3205 447.398 47.0861 446.879C48.104 447.643 49.1729 448.33 50.2673 448.992C49.4783 450.952 47.7223 455.329 48.2822 457.314C48.5621 458.357 49.402 458.688 50.5727 459.121C53.8049 460.292 71.2126 464.465 73.8594 464.007C74.852 463.855 75.3864 462.811 75.6918 461.819C76.2573 459.56 76.5899 457.249 76.6844 454.922C77.9914 454.793 79.2911 454.597 80.5783 454.336C81.3643 455.72 82.37 456.966 83.5559 458.027C84.8538 458.943 85.9482 458.485 87.4243 457.543C88.1369 458.459 89.2058 459.732 90.351 459.859C93.2269 460.19 105.112 448.992 106.334 446.701C107.352 444.793 103.636 441.382 101.982 439.881C103.771 437.188 105.176 434.258 106.156 431.177C107.991 431.453 109.849 431.556 111.704 431.482C112.543 431.482 113.511 431.177 113.867 430.388C115.419 426.85 114.961 413.438 113.867 410.028C113.714 409.035 112.569 408.374 111.729 408.068ZM112.34 410.41C113.205 413.718 113.485 426.214 112.213 429.446C110.012 429.663 107.792 429.56 105.621 429.141C105.389 429.101 105.151 429.15 104.953 429.277C104.755 429.404 104.612 429.601 104.552 429.828C103.539 433.269 101.965 436.519 99.8948 439.448C99.7473 439.642 99.6808 439.886 99.7093 440.128C99.7378 440.37 99.859 440.592 100.048 440.746C101.833 442.161 103.35 443.885 104.527 445.836C103.254 447.923 93.3032 457.034 90.5546 457.798C90.1474 457.798 89.0276 456.271 88.7477 455.863C87.8076 454.451 86.9576 452.98 86.2027 451.461C86.0925 451.239 85.9035 451.067 85.6729 450.977C85.4422 450.888 85.1864 450.888 84.9556 450.977C77.5751 453.751 74.7756 452.122 74.7756 453.955C74.779 456.698 74.3319 459.424 73.4522 462.022C67.4714 461.372 61.5816 460.057 55.8917 458.103C56.1665 455.386 56.925 452.74 58.1313 450.29C58.8948 448.585 55.8409 449.068 50.1401 443.266C49.9566 443.096 49.7157 443.001 49.4656 443.001C49.2155 443.001 48.9747 443.096 48.7912 443.266C46.2462 445.353 42.9377 447.389 42.276 447.058C40.9781 446.421 34.9973 432.857 34.641 430.108C36.4512 428.847 38.5061 427.98 40.6726 427.563C40.9037 427.498 41.1032 427.351 41.2343 427.149C41.3653 426.948 41.4189 426.706 41.3853 426.469C40.7616 422.865 40.7616 419.18 41.3853 415.576C41.4241 415.354 41.3775 415.126 41.2547 414.937C41.1319 414.748 40.9421 414.613 40.7235 414.558C38.8049 414.055 36.9578 413.311 35.2263 412.344C34.6664 411.937 34.7173 411.962 34.7682 411.529C36.4155 405.588 39.0573 399.969 42.5814 394.911C43.9557 394.529 47.6714 397.252 48.9439 398.219C49.0769 398.348 49.2549 398.42 49.4402 398.42C49.6255 398.42 49.8035 398.348 49.9365 398.219C51.1058 397.006 52.3649 395.883 53.7031 394.86C57.5715 391.933 58.6149 392.315 58.284 391.297C57.1141 388.743 56.4569 385.985 56.3498 383.178C56.7443 382.85 57.1919 382.592 57.6732 382.415C60.0492 381.475 62.4904 380.71 64.9774 380.124C67.992 379.284 71.0903 378.78 74.2158 378.623C74.7502 378.852 75.2337 381.168 75.361 381.88C76.3026 386.97 75.6664 388.014 76.4044 388.09C83.6577 388.803 85.1338 390.813 85.6428 389.922C87.0541 387.455 88.6989 385.128 90.5546 382.975C91.0891 382.44 91.0637 382.186 92.667 383.102C97.457 386.232 101.747 390.067 105.392 394.478C105.774 395.14 102.465 398.652 100.048 400.713C99.2076 401.451 100.404 401.782 102.592 405.956C104.781 410.13 104.272 411.3 105.443 411.046C107.7 410.506 110.022 410.291 112.34 410.41ZM465.56 197.749C460.225 195.57 454.631 194.09 448.916 193.347C444.742 192.685 439.83 192.023 435.682 191.489C439.678 185.839 451.512 171.536 453.497 168.049C454.057 167.108 452.988 165.784 452.199 164.995C447.771 160.262 439.22 158.48 432.654 157.462C428.887 156.851 413.159 154.917 410.487 156.19C407.28 157.717 383.561 193.347 382.848 198.767C382.848 199.684 383.153 200.04 384.044 200.371C387.785 201.745 404.659 203.883 408.425 204.774C403.335 213.681 380.71 243.788 378.496 248.039C377.961 249.108 378.292 249.744 378.929 249.947C381.219 250.857 383.576 251.588 385.978 252.136C386.894 252.416 388.905 251.169 391.832 249.387C404.964 241.498 461.31 204.29 465.637 199.48C465.756 199.367 465.85 199.23 465.912 199.078C465.973 198.925 466.001 198.761 465.994 198.597C465.987 198.433 465.944 198.272 465.87 198.126C465.795 197.98 465.689 197.851 465.56 197.749ZM410.868 228.289C389.236 242.567 381.932 246.741 381.677 246.919C385.164 241.6 406.822 211.925 410.537 204.825C410.602 204.687 410.635 204.538 410.635 204.386C410.634 204.234 410.6 204.085 410.534 203.948C410.468 203.811 410.372 203.691 410.254 203.596C410.136 203.501 409.998 203.434 409.85 203.399C407.305 202.483 388.778 200.498 384.4 198.946C384.96 194.212 408.069 158.429 410.868 157.004C413.668 155.579 440.823 158.811 445.913 162.45C443.241 167.668 428.48 185.941 426.087 190.191C425.604 191.056 425.451 191.896 426.393 192.125C427.335 192.354 451.258 195.154 456.475 196.859C450.112 202.178 417.994 223.505 410.868 228.188V228.289ZM247.607 72.6882C247.607 72.9172 247.759 73.1972 248.141 74.6733C248.241 74.9935 248.462 75.2624 248.756 75.4238C249.05 75.5851 249.395 75.6262 249.719 75.5386C250.043 75.4441 250.316 75.2247 250.478 74.9288C250.641 74.6329 250.679 74.2847 250.584 73.9607C250.33 72.9681 250.101 72.1283 249.948 71.7211C249.8 71.4416 249.553 71.2274 249.255 71.1202C248.957 71.013 248.631 71.0205 248.338 71.1413C248.046 71.2621 247.809 71.4874 247.674 71.7734C247.538 72.0594 247.514 72.3855 247.607 72.6882Z" fill="#403939"/>
</svg>
